<svg height="190" viewBox="0 0 175.9 190" width="175.9" xmlns="http://www.w3.org/2000/svg">
  <title>Businessman card</title>
  <g fill="#182b29">
    <path d="M 90.334 94.729 C 90.364 94.79 90.426 94.829 90.494 94.829 C 93.066 94.35 95.613 93.743 98.124 93.009 C 98.824 92.829 98.004 91.929 97.724 92.399 C 95.974 92.869 91.864 93.709 90.414 94.479 C 90.325 94.528 90.29 94.638 90.334 94.729 Z M 93.854 29.919 C 95.234 29.919 97.634 30.429 98.624 31.469 C 99.164 32.059 99.914 30.529 96.934 29.469 C 92.654 28.009 92.944 29.919 93.854 29.919 Z M 95.144 34.129 C 94.014 35.889 95.834 37.239 95.984 35.129 C 96.014 34.659 95.554 33.499 95.144 34.129 Z"/>
    <path d="M 175.614 112.339 C 173.234 93.819 153.044 70.709 125.744 61.459 C 127.921 67.436 129.456 73.627 130.324 79.929 C 130.336 80.02 130.315 80.112 130.264 80.189 C 130.15 80.356 129.923 80.401 129.754 80.289 L 123.164 81.679 C 124.064 82.679 127.164 85.679 127.644 86.679 C 129.254 87.239 121.644 97.129 120.414 98.799 L 119.674 98.299 C 121.674 95.529 125.984 90.089 127.024 87.009 C 126.394 86.379 121.814 82.119 121.844 81.499 C 121.874 80.879 122.224 81.059 122.544 81.059 C 124.824 80.419 127.144 79.879 129.474 79.379 C 128.271 73.149 126.599 67.018 124.474 61.039 C 119.864 59.639 114.474 58.209 109.774 58.209 C 109.321 54.348 109.378 50.445 109.944 46.599 C 113.955 42.159 117.212 37.092 119.584 31.599 C 122.204 25.039 122.474 14.709 112.494 17.659 C 111.403 17.941 110.406 18.507 109.604 19.299 C 106.114 6.299 98.204 5.839 96.744 9.879 C 91.744 -0.121 77.204 2.409 80.614 10.439 C 72.434 6.829 66.784 20.439 79.214 24.369 C 77.997 29.316 77.171 34.352 76.744 39.429 C 76.164 47.879 78.644 56.209 87.494 58.709 C 83.585 59.381 79.727 60.317 75.944 61.509 C 73.717 66.396 71.764 71.404 70.094 76.509 C 69.794 77.509 70.094 77.509 71.264 78.679 L 76.484 83.409 L 75.394 83.769 C 74.504 83.039 69.394 78.589 69.034 77.549 C 68.514 75.849 73.944 63.779 74.944 61.819 C 59.144 67.009 29.784 84.809 26.054 109.359 C 22.594 132.189 35.294 139.879 50.294 137.639 C 56.584 136.009 65.944 127.009 68.824 120.799 C 56.534 122.799 50.104 109.739 56.054 101.619 C 48.944 100.789 45.454 102.009 38.944 103.009 C 38.614 103.059 38.354 102.579 38.704 102.419 C 43.214 100.249 50.944 100.009 55.844 100.599 C 55.704 97.179 59.024 89.839 60.964 86.899 C 61.194 86.549 61.774 86.819 61.554 87.189 C 59.021 91.314 57.376 95.922 56.724 100.719 L 59.094 100.869 C 58.591 101.772 58.297 102.777 58.234 103.809 C 57.754 108.809 60.754 116.809 66.614 117.129 C 68.934 117.499 71.684 115.659 72.274 115.269 C 69.564 124.879 60.884 133.889 52.004 138.009 C 49.774 152.109 47.754 171.799 47.944 173.109 C 47.944 173.399 49.674 174.179 52.444 174.979 C 51.74 179.895 51.369 184.853 51.334 189.819 C 51.334 189.965 51.492 190.057 51.619 189.984 C 51.678 189.95 51.714 189.887 51.714 189.819 C 51.956 184.924 52.443 180.045 53.174 175.199 C 63.444 178.029 85.984 180.659 95.374 163.499 C 93.014 155.749 91.894 132.589 93.814 124.069 C 88.024 119.889 80.294 108.619 79.134 106.649 C 79.264 106.359 79.384 106.069 79.504 105.779 C 84.374 112.869 88.374 118.399 94.034 123.239 C 94.386 122.097 94.876 121.002 95.494 119.979 C 93.194 116.389 90.314 109.789 87.564 101.129 L 94.194 99.189 C 93.054 102.471 92.162 105.834 91.524 109.249 C 91.894 110.099 94.524 115.449 96.364 118.509 C 97.134 117.849 100.364 111.989 101.754 108.989 C 101.534 107.529 100.754 102.589 99.954 97.619 C 100.404 97.489 103.154 97.169 102.874 96.489 C 103.744 96.419 98.874 81.779 98.664 80.079 C 98.194 76.549 96.994 75.469 102.414 70.779 C 102.544 70.979 103.674 72.969 104.144 72.539 C 107.044 71.329 114.614 63.539 115.614 59.539 C 117.734 59.899 119.804 60.389 121.854 60.949 C 119.284 71.715 115.822 82.248 111.504 92.439 C 108.754 90.629 109.394 94.329 110.024 95.869 C 105.754 105.559 100.944 114.339 96.264 120.479 C 95.315 121.849 94.721 123.433 94.534 125.089 C 100.474 121.989 108.894 112.249 113.074 107.019 C 112.903 107.591 112.805 108.182 112.784 108.779 C 109.784 112.499 98.554 125.269 94.434 125.779 C 93.544 134.969 93.374 156.549 96.504 163.879 C 107.304 184.669 135.964 178.659 146.384 175.149 C 147.254 179.439 147.784 183.789 148.224 188.149 C 148.233 188.233 148.3 188.3 148.384 188.309 C 148.489 188.327 148.589 188.255 148.604 188.149 C 148.525 183.705 148.023 179.278 147.104 174.929 C 148.21 174.613 149.267 174.145 150.244 173.539 C 151.044 172.389 147.484 147.099 146.904 141.659 C 140.79 139.743 135.147 136.56 130.344 132.319 C 126.784 129.119 120.944 122.039 120.724 116.989 C 129.544 120.289 133.444 105.149 130.724 101.889 C 135.044 99.409 146.394 98.149 151.524 98.789 C 151.914 98.789 151.814 99.429 151.524 99.429 C 145.243 99.449 138.993 100.317 132.944 102.009 C 137.784 108.389 132.014 121.799 123.524 122.409 C 128.444 131.819 143.234 142.629 154.524 141.129 C 165.814 139.629 177.864 129.869 175.614 112.339 Z M 81.944 45.649 C 78.814 43.739 77.944 41.479 77.554 37.959 C 77.554 35.319 79.224 27.359 79.754 24.529 C 86.144 26.329 94.334 25.819 100.754 24.409 C 101.754 24.199 104.754 23.099 105.694 23.819 C 106.235 24.66 106.415 25.684 106.194 26.659 C 105.914 28.389 103.884 33.709 106.524 34.519 C 107.944 34.959 108.094 33.149 109.284 32.989 C 110.475 32.945 111.499 33.825 111.634 35.009 C 112.164 38.009 107.414 45.169 109.184 58.479 C 105.698 61.079 101.819 63.104 97.694 64.479 C 94.496 62.874 91.415 61.046 88.474 59.009 C 95.734 60.599 104.374 57.509 106.854 50.009 C 108.104 46.259 108.074 39.589 107.024 35.799 C 106.924 35.469 106.104 35.239 106.364 36.229 C 106.068 38.806 104.455 41.043 102.104 42.139 C 101.021 40.429 98.975 39.59 97.004 40.049 C 94.584 40.649 94.444 42.289 90.174 42.639 C 87.664 42.849 82.704 42.429 81.944 45.649 Z M 91.524 46.289 C 94.204 46.789 96.524 44.689 98.134 42.779 C 98.994 43.849 98.654 46.319 97.954 47.289 C 96.194 49.649 92.944 48.119 91.494 46.289 Z M 88.004 59.289 C 90.806 61.663 93.935 63.623 97.294 65.109 C 94.9 67.427 92.69 69.928 90.684 72.589 C 90.084 71.319 86.214 68.529 83.264 60.299 C 84.804 59.878 86.366 59.544 87.944 59.299 Z M 82.614 60.459 C 82.894 63.059 89.864 74.019 90.774 73.079 C 91.494 72.339 92.174 71.559 92.864 70.789 C 95.684 75.569 96.254 74.969 94.404 78.369 L 82.494 81.519 C 81.194 75.199 80.104 68.419 79.354 61.329 C 80.403 60.948 81.484 60.66 82.584 60.469 Z M 79.614 103.509 C 77.904 108.739 74.614 114.069 69.234 116.079 C 62.764 118.449 58.364 109.619 58.924 104.139 C 59.304 100.989 60.174 99.769 62.274 97.259 C 65.644 93.259 66.334 94.899 70.464 93.609 C 70.625 94.263 70.86 94.897 71.164 95.499 C 69.623 96.728 67.945 97.775 66.164 98.619 C 66.075 98.667 66.032 98.772 66.064 98.869 C 66.106 98.971 66.222 99.02 66.324 98.979 C 71.824 96.869 73.404 93.829 75.554 92.979 C 79.364 91.429 73.924 98.899 73.554 99.439 C 72.373 100.927 71.054 102.3 69.614 103.539 C 69.284 103.819 69.724 104.349 70.054 104.059 C 72.929 101.502 75.326 98.455 77.134 95.059 C 82.034 90.159 80.534 97.999 72.514 107.189 C 72.244 107.509 72.774 107.889 73.054 107.569 C 74.923 105.426 76.596 103.12 78.054 100.679 C 80.154 97.149 80.784 100.159 79.684 103.519 Z M 102.524 96.269 C 100.224 96.499 83.674 101.439 80.524 102.729 C 80.804 101.619 81.134 97.339 79.134 98.609 C 81.594 93.989 80.274 91.249 77.364 94.099 C 77.734 92.719 77.244 91.719 75.604 92.219 C 73.964 92.719 72.794 94.139 71.514 95.219 L 69.514 86.549 C 71.244 86.099 72.914 85.409 74.594 84.829 C 82.134 82.229 89.824 80.229 97.594 78.379 C 98.194 81.799 101.614 94.779 102.534 96.279 Z M 104.024 71.919 C 102.664 69.329 100.174 67.029 98.204 64.999 C 102.445 63.715 106.397 61.623 109.844 58.839 C 111.589 58.898 113.325 59.109 115.034 59.469 C 112.254 65.289 108.994 68.259 104.034 71.929 Z M 101.834 144.239 C 99.694 145.239 97.834 142.589 98.354 140.719 C 99.004 138.139 102.354 138.209 102.824 141.119 C 103.014 142.249 102.944 143.669 101.844 144.249 Z M 125.074 116.189 C 122.734 117.189 121.414 116.689 119.284 115.739 C 116.964 114.609 113.704 112.249 113.454 109.549 C 113.439 108.516 113.567 107.487 113.834 106.489 C 114.754 108.029 115.594 107.879 115.334 107.489 C 114.554 106.219 112.714 104.249 113.874 101.489 C 118.874 106.649 118.254 104.619 118.164 104.489 C 116.754 103.129 115.614 102.339 114.064 100.699 C 110.184 96.579 109.064 91.959 110.804 92.759 C 112.394 93.509 119.394 99.959 123.234 100.759 C 123.844 100.889 124.234 95.939 127.164 94.059 C 127.984 93.529 128.164 94.319 127.984 94.969 C 126.924 100.069 129.984 102.069 130.374 102.809 C 131.724 107.179 129.514 114.259 125.084 116.199 Z"/>
    <path d="M 83.594 33.929 C 82.944 34.999 83.734 36.489 84.024 35.719 C 84.404 34.719 84.024 33.219 83.594 33.929 Z M 81.754 86.409 C 80.254 86.849 74.154 88.409 73.034 89.139 C 72.824 89.269 73.034 89.529 73.184 89.519 C 74.474 89.519 80.374 87.519 82.014 87.049 C 82.444 86.929 82.184 86.279 81.754 86.409 Z M 96.124 87.249 C 94.494 87.569 89.614 88.659 88.424 89.349 C 88.308 89.415 88.264 89.56 88.324 89.679 C 88.371 89.77 88.473 89.819 88.574 89.799 C 89.784 89.489 96.864 87.879 97.234 87.609 C 97.604 87.339 97.434 87.009 96.124 87.249 Z M 97.324 90.329 C 97.45 90.244 97.482 90.073 97.394 89.949 C 97.348 89.882 97.275 89.838 97.194 89.829 C 96.694 89.699 90.194 91.639 89.474 91.949 C 89.354 91.995 89.299 92.133 89.354 92.249 C 89.394 92.344 89.492 92.401 89.594 92.389 C 92.207 91.838 94.787 91.144 97.324 90.309 Z M 85.314 28.329 C 83.594 28.274 82.013 29.267 81.314 30.839 C 81.114 31.239 81.724 31.519 81.944 31.129 C 82.687 29.976 83.983 29.3 85.354 29.349 C 85.944 29.329 86.024 28.359 85.314 28.329 Z M 100.264 139.799 C 98.674 140.179 99.074 142.499 99.694 143.089 C 100.094 143.469 101.894 144.189 101.954 142.209 C 101.944 141.209 101.654 139.469 100.264 139.799 Z M 89.734 41.009 C 88.844 41.359 88.334 41.459 88.314 40.319 C 88.441 37.873 88.704 35.436 89.104 33.019 C 89.125 32.898 89.006 32.799 88.891 32.842 C 88.853 32.856 88.822 32.884 88.804 32.919 C 88.074 33.999 87.184 40.429 87.864 41.399 C 88.364 42.129 89.334 41.899 90.014 41.599 C 90.414 41.459 90.114 40.889 89.734 41.009 Z M 28.034 26.249 C 28.304 25.009 26.034 14.619 25.724 13.179 C 25.634 12.779 25.434 12.359 24.934 12.439 C 21.564 12.989 10.224 14.889 7.044 15.829 C 6.754 15.909 6.704 16.459 6.724 16.689 C 7.034 19.199 8.234 28.539 8.824 29.959 C 9.024 30.419 12.334 29.629 12.824 29.539 L 27.744 26.589 C 27.92 26.579 28.051 26.424 28.034 26.249 Z M 9.334 29.579 C 8.714 26.299 7.574 17.839 7.184 16.339 C 12.604 15.759 19.244 14.149 24.754 13.149 C 23.944 14.399 18.044 21.009 17.194 21.829 C 17.194 21.829 9.194 17.619 8.264 17.069 C 8.054 16.949 7.844 17.249 8.054 17.369 C 9.124 18.039 16.454 22.769 17.284 22.419 C 18.384 22.499 24.454 14.849 25.144 13.849 C 25.951 17.849 26.754 21.869 27.554 25.909 C 22.044 27.009 14.664 28.429 9.334 29.579 Z M 48.864 18.159 C 48.774 17.849 44.214 15.829 43.864 16.319 C 43.154 15.899 40.784 22.549 40.864 22.689 C 40.944 23.109 44.284 24.609 44.324 24.759 C 45.214 28.389 42.324 32.009 39.754 34.149 C 39.054 33.889 36.254 32.549 35.934 33.149 C 34.984 34.896 34.149 36.703 33.434 38.559 C 33.434 39.239 36.634 41.269 37.584 41.559 C 40.074 42.229 52.374 29.489 48.864 18.159 Z M 40.084 39.479 C 37.984 41.359 37.854 41.029 35.694 39.789 C 35.044 39.399 34.454 38.919 33.814 38.509 C 34.814 36.869 35.634 35.149 36.494 33.449 C 37.485 34.009 38.548 34.429 39.654 34.699 C 40.604 34.699 42.654 32.399 43.164 31.579 C 44.295 29.872 44.913 27.876 44.944 25.829 C 44.944 24.009 45.054 24.429 42.414 23.049 C 42.039 22.842 41.652 22.658 41.254 22.499 C 42.256 20.603 43.154 18.653 43.944 16.659 L 48.314 18.509 C 49.754 26.779 46.274 34.009 40.084 39.479 Z M 41.054 6.009 C 41.214 5.609 40.554 5.399 40.414 5.799 C 36.284 15.569 32.414 24.509 27.814 34.139 C 26.944 36.009 24.754 40.279 24.124 42.009 C 24.091 42.127 24.157 42.251 24.274 42.289 C 24.365 42.314 24.462 42.277 24.514 42.199 C 26.814 38.549 36.214 17.399 37.644 14.099 C 38.804 11.359 39.944 8.669 41.054 6.009 Z"/>
    <path d="M 45.274 47.739 C 46.674 47.239 48.034 46.649 49.384 46.059 C 55.324 51.929 67.864 53.249 75.214 49.679 C 75.794 49.399 75.824 48.859 75.324 48.839 C 66.674 48.459 60.324 46.259 55.944 38.619 C 64.094 30.479 60.044 8.819 46.704 2.829 C 41.694 0.579 36.074 0.119 30.624 0.009 C 22.044 -0.131 14.034 1.259 7.624 7.439 C -10.976 25.519 5.554 61.639 45.274 47.739 Z M 4.434 38.059 C -0.944 29.571 -0.428 18.624 5.724 10.679 C 12.944 1.289 23.594 0.159 34.644 0.889 C 46.734 1.699 54.384 5.889 58.074 17.959 C 60.074 24.599 60.374 32.609 55.464 38.129 C 55.284 38.329 55.464 38.839 55.584 39.069 C 58.294 46.069 67.584 49.189 74.424 49.399 C 59.784 54.719 49.804 45.399 49.304 45.569 C 34.344 51.299 15.144 54.089 4.434 38.059 Z"/>
  </g>
</svg>