<svg height="173.4" viewBox="0 0 190 173.4" width="190" xmlns="http://www.w3.org/2000/svg">
  <title>Creative</title>
  <g fill="#182b29">
    <path d="M 81.674 66.831 C 82.402 66.24 83.354 66.002 84.274 66.181 C 84.52 66.197 84.691 65.94 84.581 65.72 C 84.545 65.646 84.481 65.589 84.404 65.561 C 83.239 65.316 82.031 65.695 81.214 66.561 C 80.934 67.031 81.134 67.251 81.674 66.831 Z M 93.274 69.631 C 92.954 69.151 92.484 70.301 92.834 70.881 C 93.324 71.731 93.754 70.371 93.274 69.631 Z M 127.564 18.481 C 131.904 16.751 136.214 14.911 140.564 13.281 C 140.364 13.591 137.694 18.061 139.264 17.651 C 141.474 17.071 152.674 14.071 154.794 13.231 C 155.074 13.176 155.189 12.839 155.001 12.624 C 154.9 12.509 154.738 12.468 154.594 12.521 C 149.884 13.521 144.594 15.321 139.844 16.611 C 140.414 15.209 141.124 13.869 141.964 12.611 C 142.106 12.337 141.898 12.013 141.591 12.027 C 141.562 12.029 141.533 12.033 141.504 12.041 C 136.784 14.041 131.984 15.821 127.314 17.931 C 127.064 18.111 127.274 18.591 127.564 18.481 Z M 92.384 65.351 C 93.714 65.301 93.824 65.631 94.904 66.001 C 95.314 66.151 94.964 65.231 93.904 64.861 C 91.884 64.161 91.844 65.371 92.384 65.351 Z M 170.594 38.491 C 170.874 38.731 171.294 38.361 171.034 38.081 C 168.674 35.651 163.954 33.791 164.314 35.151 C 164.494 35.861 167.004 35.401 170.594 38.491 Z M 187.394 57.271 C 186.964 55.771 184.454 49.151 183.684 50.621 C 183.554 50.861 186.364 56.161 186.854 57.421 C 186.912 57.629 187.173 57.696 187.324 57.542 C 187.394 57.471 187.421 57.367 187.394 57.271 Z M 83.224 70.081 C 83.114 69.541 82.514 69.401 82.424 70.081 C 82.254 71.381 83.414 71.111 83.224 70.081 Z M 187.394 57.261 L 187.394 57.281 L 187.394 57.261 Z M 128.524 53.251 C 128.756 53.306 128.961 53.09 128.893 52.861 C 128.876 52.802 128.841 52.75 128.794 52.711 L 120.794 47.501 C 120.474 47.321 120.004 47.741 120.324 48.021 C 122.843 50.08 125.595 51.835 128.524 53.251 Z M 135.344 43.241 C 135.383 43.336 135.454 43.414 135.544 43.461 C 140.514 45.523 145.365 47.86 150.074 50.461 C 150.544 50.731 150.994 50.021 150.514 49.771 C 146.068 47.289 141.492 45.049 136.804 43.061 L 140.164 41.831 C 140.494 41.711 140.634 41.161 140.164 41.051 C 135.992 40.009 131.879 38.74 127.844 37.251 C 127.474 37.111 127.294 37.691 127.654 37.831 C 131.277 39.233 134.968 40.451 138.714 41.481 C 136.344 42.541 135.004 42.491 135.344 43.241 Z M 124.734 28.831 C 125.094 28.831 125.124 28.241 124.734 28.251 C 124.734 28.251 119.224 28.361 120.534 29.341 C 121.949 29.323 123.357 29.152 124.734 28.831 Z M 113.144 86.001 C 114.99 86.27 116.75 86.954 118.294 88.001 C 118.581 88.149 118.922 87.931 118.907 87.608 C 118.902 87.504 118.858 87.405 118.784 87.331 C 117.145 86.172 115.21 85.502 113.204 85.401 C 112.973 85.378 112.804 85.613 112.899 85.825 C 112.944 85.923 113.037 85.99 113.144 86.001 Z M 122.484 89.961 C 122.421 90.089 122.464 90.244 122.584 90.321 C 123.677 91.09 124.813 91.798 125.984 92.441 C 126.494 92.571 126.674 91.971 125.864 91.501 C 123.404 90.251 122.724 89.391 122.484 89.961 Z M 135.554 28.731 C 130.344 27.581 129.764 28.461 130.444 28.871 C 132.102 29.108 133.771 29.255 135.444 29.311 C 135.667 29.353 135.853 29.138 135.778 28.923 C 135.743 28.824 135.658 28.75 135.554 28.731 Z M 147.144 30.381 C 147.177 30.244 147.099 30.104 146.964 30.061 C 140.274 28.121 141.744 29.761 142.434 29.841 C 146.604 30.291 147.004 30.931 147.144 30.381 Z M 89.654 76.081 L 87.754 76.081 C 87.754 74.251 87.984 72.431 87.984 70.601 C 87.984 70.441 87.754 70.441 87.714 70.601 C 87.238 72.387 87.029 74.234 87.094 76.081 C 87.094 77.081 88.694 76.761 89.684 76.751 C 90.094 76.731 90.074 76.081 89.654 76.081 Z M 122.724 7.161 C 124.921 5.613 126.979 3.876 128.874 1.971 C 129.274 1.571 128.604 0.971 128.214 1.401 C 126.357 3.247 124.407 5 122.374 6.651 C 122.187 6.799 122.231 7.094 122.453 7.182 C 122.542 7.217 122.642 7.209 122.724 7.161 Z M 164.164 106.311 C 163.364 106.201 161.854 106.821 158.564 106.661 C 158.244 106.661 158.154 107.181 158.494 107.241 C 160.285 107.491 162.105 107.43 163.874 107.061 C 164.424 106.941 164.584 106.361 164.164 106.311 Z M 39.004 158.191 C 38.164 157.911 36.794 158.421 31.744 157.261 C 31.424 157.181 31.204 157.701 31.534 157.831 C 32.924 158.361 39.764 159.831 39.274 158.421 C 39.228 158.304 39.127 158.218 39.004 158.191 Z M 12.544 145.961 C 11.144 145.411 9.304 142.961 8.544 141.731 C 8.354 141.421 7.924 141.731 8.064 142.021 C 8.874 143.965 10.3 145.588 12.124 146.641 C 12.28 146.793 12.529 146.793 12.684 146.641 C 12.838 146.482 12.838 146.23 12.684 146.071 C 12.646 146.025 12.598 145.987 12.544 145.961 Z"/>
    <path d="M 150.064 105.621 C 149.891 95.941 149.019 86.285 147.454 76.731 C 146.544 71.211 146.074 71.561 147.804 66.591 C 148.594 64.291 148.384 58.981 145.034 59.651 C 145.134 58.951 143.444 58.531 142.234 59.211 C 141.434 50.501 138.964 51.321 139.164 53.461 C 139.364 55.601 139.964 56.561 139.384 61.391 C 138.274 61.641 136.484 62.391 136.104 63.491 C 135.724 64.591 136.614 65.631 137.174 66.491 C 138.534 68.631 137.984 69.591 137.254 71.571 C 134.586 79.419 132.537 87.463 131.124 95.631 L 129.124 94.421 C 128.919 94.334 128.696 94.503 128.724 94.724 C 128.732 94.787 128.76 94.846 128.804 94.891 C 129.534 95.401 130.254 95.891 130.984 96.401 C 130.914 96.851 130.834 97.291 130.764 97.731 C 124.094 94.531 109.494 90.731 102.334 90.211 C 101.764 95.651 98.034 96.921 93.184 97.461 C 90.142 97.875 87.065 97.965 84.004 97.731 C 78.714 97.201 75.114 95.311 74.864 89.731 C 60.144 92.661 32.284 106.871 27.864 122.791 C 32.934 119.051 51.414 120.481 58.024 121.111 C 59.039 116.969 60.54 112.961 62.494 109.171 C 62.664 108.851 63.184 109.061 63.024 109.401 C 61.253 113.179 59.876 117.13 58.914 121.191 C 65.922 121.883 72.855 123.188 79.634 125.091 C 79.121 126.05 78.696 127.055 78.364 128.091 C 78.054 129.191 78.664 129.581 79.684 129.731 C 78.894 131.181 78.764 135.111 79.494 136.281 C 67.424 138.871 55.254 143.431 42.724 141.431 C 39.844 140.971 36.054 140.171 33.884 138.071 C 29.654 133.971 31.944 126.481 33.474 121.671 C 31.324 121.941 28.634 122.591 27.314 124.431 C 26.824 125.101 27.514 127.811 31.114 128.511 C 30.484 132.381 30.914 136.771 34.364 139.251 C 39.364 142.861 49.934 142.791 55.684 142.091 C 54.684 147.031 54.254 168.001 54.954 172.481 C 55.014 172.691 55.394 172.731 55.394 172.481 C 55.544 170.221 55.304 167.211 55.304 164.771 C 59.464 166.021 63.704 167.011 67.954 167.871 L 67.954 168.361 C 67.954 168.507 68.113 168.599 68.239 168.525 C 68.298 168.491 68.334 168.429 68.334 168.361 C 68.404 167.891 68.334 163.531 68.774 162.361 L 70.074 162.641 C 69.724 164.311 69.514 168.791 69.984 168.871 C 70.067 168.889 70.149 168.835 70.164 168.751 C 70.334 167.521 69.274 168.931 83.944 170.341 C 84.034 171.221 84.774 171.551 85.624 171.671 C 88.79 172.043 91.978 172.19 95.164 172.111 C 96.164 172.111 97.824 172.321 98.164 171.021 C 102.996 170.983 107.819 170.629 112.604 169.961 L 112.604 170.521 C 112.604 170.644 112.738 170.721 112.844 170.659 C 112.894 170.631 112.924 170.578 112.924 170.521 C 113.208 168.196 113.208 165.846 112.924 163.521 L 113.924 163.521 C 114.104 165.781 114.294 168.051 114.464 170.311 C 114.464 170.521 114.764 170.581 114.794 170.311 C 114.944 168.671 114.044 170.561 126.214 167.041 C 126.214 169.088 126.248 171.144 126.314 173.211 C 126.314 173.511 126.834 173.511 126.834 173.211 C 127.344 165.681 126.084 152.911 124.994 145.671 C 122.874 131.451 119.324 119.411 115.074 105.871 C 114.984 105.561 115.444 105.381 115.554 105.691 C 117.874 112.571 120.454 119.351 122.184 126.431 C 126.255 128.717 130.69 130.284 135.294 131.061 C 132.721 129.662 130.839 127.263 130.094 124.431 C 128.224 117.371 130.294 103.701 131.454 96.841 C 132.164 97.311 133.454 98.381 133.854 98.171 C 134.854 97.711 132.334 96.511 131.584 96.041 C 133.035 87.848 135.039 79.763 137.584 71.841 C 138.304 69.491 138.974 68.681 137.584 66.341 C 136.754 64.981 135.784 63.951 137.364 62.891 C 138.944 61.831 143.164 61.061 139.364 63.391 C 138.644 63.841 140.754 64.001 141.574 65.551 C 141.814 65.991 142.504 66.081 141.944 65.161 C 141.568 64.408 140.91 63.834 140.114 63.561 C 140.395 63.39 140.657 63.189 140.894 62.961 C 141.264 63.121 141.689 63.083 142.024 62.861 C 142.047 63.036 142.116 63.201 142.224 63.341 C 142.53 63.72 143.086 63.778 143.464 63.471 C 144.324 62.821 143.944 62.631 145.314 62.141 C 145.403 62.114 145.464 62.033 145.464 61.941 C 145.454 61.82 145.355 61.725 145.234 61.721 C 143.794 61.841 143.154 63.721 142.634 63.091 C 142.114 62.461 143.894 60.651 144.484 60.381 C 146.994 59.231 148.264 62.921 147.214 66.461 C 146.164 70.001 145.544 69.581 146.334 74.411 C 148.117 84.653 149.12 95.017 149.334 105.411 L 147.594 104.791 C 147.284 104.671 147.064 105.181 147.364 105.331 C 148.014 105.651 148.674 105.931 149.364 106.191 C 149.364 110.081 149.504 116.431 148.884 120.081 C 147.424 128.601 137.554 127.181 131.114 125.361 C 131.984 127.421 134.864 131.281 137.434 130.951 C 139.274 130.721 140.804 129.011 141.654 127.421 C 148.994 126.151 149.724 121.891 149.954 115.421 C 150.054 112.421 150.064 109.421 150.024 106.421 C 151.16 106.885 152.344 107.22 153.554 107.421 C 153.808 107.425 153.972 107.153 153.848 106.931 C 153.821 106.882 153.782 106.84 153.734 106.811 C 152.884 106.361 151.154 105.991 150.064 105.621 Z M 103.484 137.941 L 103.924 139.601 L 102.504 138.651 C 103.044 138.081 102.794 138.241 103.504 137.941 Z M 103.344 137.391 C 102.874 137.501 102.204 137.891 102.134 138.391 C 101.398 137.903 100.614 137.491 99.794 137.161 C 100.401 136.047 101.53 135.317 102.794 135.221 C 103.004 135.971 103.154 136.731 103.344 137.391 Z M 93.844 124.111 C 92.339 123.901 90.81 123.931 89.314 124.201 L 83.784 117.131 C 84.944 115.201 86.134 115.241 86.534 115.201 Z M 86.134 114.731 C 84.97 114.931 83.971 115.674 83.444 116.731 L 82.554 115.581 C 82.963 114.375 84.209 113.666 85.454 113.931 Z M 84.004 112.161 L 84.904 113.281 C 83.697 113.27 82.612 114.018 82.194 115.151 C 81.914 114.761 81.614 114.381 81.314 114.001 C 81.884 112.351 84.004 112.161 84.004 112.161 Z M 80.774 109.971 C 82.064 109.331 82.614 110.451 83.564 111.591 C 82.425 111.815 81.454 112.553 80.934 113.591 C 80.004 112.411 79.004 110.851 80.794 109.971 Z M 79.144 127.401 C 79.551 126.411 80.015 125.446 80.534 124.511 C 80.774 124.011 83.784 124.681 84.264 124.791 C 85.074 125.011 84.844 125.421 84.744 126.111 C 84.654 126.641 84.164 129.271 83.814 129.291 C 82.427 129.269 81.043 129.142 79.674 128.911 C 78.584 128.671 78.874 128.221 79.164 127.401 Z M 80.144 129.741 C 81.054 129.821 81.974 129.791 82.884 129.871 C 82.374 131.241 82.014 134.111 82.774 135.511 C 81.914 135.661 81.054 135.831 80.194 136.001 C 79.074 134.051 79.674 130.961 80.114 129.731 Z M 77.424 150.571 C 79.309 149.847 81.07 148.835 82.644 147.571 C 83.044 147.231 83.564 147.961 83.124 148.261 C 77.004 152.461 76.794 150.801 77.394 150.571 Z M 58.054 157.331 C 58.294 157.271 63.444 155.871 63.824 156.121 C 65.374 157.121 58.144 157.861 58.104 157.861 C 57.804 157.841 57.834 157.431 58.054 157.331 Z M 67.934 167.091 C 63.724 166.231 59.524 165.171 55.324 164.171 L 55.324 160.591 C 59.558 161.651 63.844 162.492 68.164 163.111 C 68.004 164.401 68.004 165.731 67.934 167.091 Z M 67.884 155.091 C 67.554 155.161 67.544 154.641 67.754 154.541 C 67.964 154.441 73.514 151.871 72.754 153.341 C 72.534 153.841 68.544 154.861 67.884 155.071 Z M 83.884 169.611 C 79.324 169.141 74.744 168.511 70.254 167.611 L 70.544 163.501 C 75.014 164.141 79.544 164.631 84.004 164.921 C 83.86 166.473 83.833 168.034 83.924 169.591 Z M 83.954 135.411 L 83.484 135.411 C 82.584 134.311 83.024 131.181 83.224 129.931 C 84.744 130.081 84.654 129.651 85.444 125.611 C 86.964 125.351 95.094 122.921 98.014 126.731 C 95.304 125.611 95.094 126.551 95.514 126.551 C 97.344 126.491 100.164 127.941 99.514 130.201 C 98.144 128.501 96.024 128.591 94.164 129.661 C 93.844 129.561 93.654 129.741 93.844 129.901 C 94.434 130.351 95.064 130.271 95.514 131.011 C 96.404 132.541 94.764 135.771 92.054 133.421 C 92.68 133.083 93.328 132.789 93.994 132.541 C 94.404 132.341 93.824 131.631 91.474 133.101 C 89.315 134.687 86.682 135.495 84.004 135.391 Z M 95.894 137.251 C 96.004 137.141 96.184 136.561 96.664 136.971 C 97.314 137.541 94.254 139.751 93.784 140.191 C 93.494 140.431 93.064 140.061 93.334 139.801 Z M 91.064 142.861 C 90.834 143.361 87.554 145.571 87.204 145.801 C 86.854 146.031 86.564 145.581 86.844 145.361 C 88.051 144.287 89.32 143.286 90.644 142.361 C 90.927 142.286 91.185 142.546 91.108 142.828 C 91.107 142.832 91.106 142.837 91.104 142.841 Z M 97.584 170.861 C 97.584 171.281 97.164 171.431 96.724 171.471 C 92.918 171.597 89.108 171.447 85.324 171.021 C 84.104 170.751 84.464 170.021 84.404 169.811 C 84.304 169.431 84.404 164.171 84.694 163.991 C 84.984 163.811 96.864 164.381 97.464 164.641 C 97.678 166.7 97.731 168.773 97.624 170.841 Z M 96.164 132.861 C 96.669 131.632 95.999 130.236 94.724 129.861 C 95.794 129.541 97.434 129.041 98.424 129.861 L 102.424 134.811 C 101.163 134.963 100.05 135.706 99.424 136.811 Z M 98.164 170.311 C 98.164 168.651 98.164 166.991 98.094 165.311 C 102.874 165.311 107.644 165.041 112.414 164.651 L 112.534 169.261 C 107.79 169.959 103 170.3 98.204 170.281 Z M 126.024 162.311 C 126.094 163.651 126.144 165.001 126.184 166.311 L 126.134 166.311 C 122.436 167.38 118.675 168.221 114.874 168.831 C 114.915 167.352 114.824 165.873 114.604 164.411 C 118.491 164.128 122.334 163.417 126.064 162.291 Z M 140.374 61.311 L 139.724 61.371 C 140.924 57.201 138.854 51.111 140.184 53.071 C 141.114 54.451 141.304 58.561 141.624 59.651 C 141.063 60.049 140.641 60.612 140.414 61.261 Z M 141.284 62.581 C 141.734 62.021 141.504 61.481 140.814 61.341 C 141.328 60.504 142.111 59.866 143.034 59.531 C 143.539 59.331 144.114 59.453 144.494 59.841 C 142.924 60.411 142.414 62.431 141.324 62.531 Z M 21.264 80.831 C 18.982 81.716 16.984 83.206 15.484 85.141 C 15.294 85.401 15.714 85.711 15.924 85.481 C 17.448 83.772 19.348 82.441 21.474 81.591 C 22.004 81.411 21.724 80.641 21.264 80.831 Z"/>
    <path d="M 142.764 102.731 C 141.154 101.921 139.854 101.011 138.574 100.351 C 138.274 100.191 138.064 100.651 138.294 100.851 C 139.369 101.708 140.533 102.449 141.764 103.061 C 143.824 104.171 143.534 103.081 142.764 102.731 Z M 25.434 155.291 C 23.037 154.235 20.766 152.913 18.664 151.351 C 18.469 151.214 18.198 151.34 18.177 151.577 C 18.169 151.672 18.205 151.766 18.274 151.831 C 19.424 152.941 23.484 155.771 25.144 155.911 C 25.464 155.941 25.794 155.471 25.434 155.291 Z M 50.304 158.191 C 46.974 158.771 44.444 157.971 44.534 158.761 C 44.552 158.884 44.643 158.983 44.764 159.011 C 46.63 159.186 48.508 159.186 50.374 159.011 C 50.894 158.961 50.824 158.101 50.304 158.191 Z M 158.054 33.001 C 151.614 29.531 152.504 31.611 152.944 31.751 C 154.593 32.254 156.216 32.841 157.804 33.511 C 158.124 33.641 158.334 33.151 158.054 33.001 Z M 189.884 64.561 C 189.594 62.411 188.714 62.561 188.834 63.031 C 189.444 65.571 189.314 68.311 189.304 71.431 C 189.346 71.658 189.618 71.754 189.794 71.605 C 189.846 71.56 189.882 71.499 189.894 71.431 C 190.05 69.143 190.046 66.848 189.884 64.561 Z M 184.764 90.251 C 184.681 90.257 184.603 90.292 184.544 90.351 C 183.45 92.51 182.011 94.475 180.284 96.171 C 180.014 96.421 180.414 96.781 180.684 96.551 C 182.774 94.871 186.304 90.151 184.764 90.251 Z M 188.804 78.321 C 188.751 78.339 188.703 78.37 188.664 78.411 C 187.784 82.761 185.974 84.941 186.824 85.061 C 187.474 85.161 190.314 77.821 188.804 78.321 Z M 175.294 41.081 C 176.054 42.171 177.844 44.141 178.834 45.441 C 178.834 45.441 180.094 46.141 178.554 43.921 C 174.804 38.521 175.294 41.071 175.294 41.081 Z M 175.384 100.941 C 173.365 102.16 171.267 103.242 169.104 104.181 C 168.634 104.381 168.454 105.821 174.294 102.481 C 174.845 102.23 175.351 101.893 175.794 101.481 C 176.004 101.181 175.694 100.851 175.384 100.941 Z M 10.354 89.431 C 8.393 91.307 6.867 93.591 5.884 96.121 C 5.829 96.262 5.895 96.421 6.034 96.481 C 6.704 96.751 6.584 94.541 10.314 90.581 C 11.404 89.671 11.004 88.731 10.354 89.431 Z M 43.004 8.121 L 49.344 11.971 C 49.644 12.161 49.974 11.631 49.674 11.431 C 48.744 10.831 43.174 7.011 42.524 6.911 C 42.004 6.851 41.714 7.331 43.004 8.121 Z M 42.004 75.361 C 44.327 74.669 46.756 74.402 49.174 74.571 C 49.784 74.571 50.174 73.201 45.444 73.831 C 41.004 74.421 41.404 75.521 42.004 75.361 Z M 47.374 41.091 C 47.31 40.991 47.19 40.943 47.074 40.971 C 44.427 41.983 41.86 43.193 39.394 44.591 C 38.474 45.081 39.314 46.011 39.774 45.471 C 40.464 44.801 46.014 42.131 47.294 41.471 C 47.419 41.386 47.454 41.218 47.374 41.091 Z M 55.574 74.481 C 57.264 74.424 58.955 74.528 60.624 74.791 C 61.004 74.861 61.064 74.191 60.724 74.061 C 59.006 73.716 57.244 73.648 55.504 73.861 C 55.334 73.9 55.23 74.072 55.274 74.241 C 55.307 74.381 55.431 74.48 55.574 74.481 Z M 66.384 74.371 C 66.146 74.413 66.042 74.698 66.198 74.883 C 66.271 74.97 66.383 75.01 66.494 74.991 C 70.154 74.671 70.804 75.351 71.804 75.341 C 72.104 75.341 72.354 74.901 72.034 74.711 C 70.904 74.031 67.614 74.101 66.384 74.371 Z"/>
    <path d="M 73.094 51.311 C 73.279 53.43 73.668 55.526 74.254 57.571 C 73.814 57.691 73.134 57.951 73.144 58.571 C 73.19 62.372 73.852 66.141 75.104 69.731 C 73.104 71.831 73.944 75.861 76.404 78.181 C 75.873 81.939 75.575 85.726 75.514 89.521 C 75.814 93.601 77.514 95.771 81.454 96.521 C 85.575 97.216 89.783 97.216 93.904 96.521 C 98.834 95.841 101.384 94.271 101.584 89.031 C 101.687 85.09 101.331 81.15 100.524 77.291 C 101.664 76.771 103.694 71.781 101.824 69.681 C 102.454 68.531 102.824 62.441 102.904 60.681 C 102.974 57.441 103.034 57.751 101.754 57.431 C 102.044 55.671 102.344 53.891 102.634 52.101 C 107.434 51.701 111.544 48.451 113.974 44.431 C 118.814 36.431 118.974 20.631 113.744 12.741 C 103.244 -3.129 73.484 -5.329 60.444 12.741 C 50.684 26.381 55.774 48.461 73.094 51.311 Z M 87.834 81.251 C 89.594 81.481 92.544 80.531 93.014 79.841 C 94.394 82.991 89.894 85.111 87.834 81.251 Z M 101.834 72.931 C 101.694 74.27 101.166 75.538 100.314 76.581 C 100.024 75.211 99.674 73.831 99.314 72.501 C 99.134 71.751 98.754 72.051 98.754 72.341 C 98.754 74.861 98.524 79.571 95.754 80.691 C 94.574 78.161 93.474 77.751 90.594 77.601 C 82.074 77.081 81.724 78.461 80.414 81.231 C 78.544 79.731 78.004 74.401 78.004 72.231 C 78.004 72.031 77.704 71.951 77.644 72.161 C 77.132 73.873 76.748 75.621 76.494 77.391 C 74.854 75.671 73.724 72.111 75.494 70.111 C 76.154 69.381 77.434 71.741 78.314 70.201 C 78.874 75.471 80.244 75.271 82.744 75.271 C 86.174 75.271 86.084 74.861 86.964 71.571 C 87.174 70.801 87.144 70.191 87.694 69.861 C 89.554 68.791 88.794 74.751 91.544 75.171 C 92.875 75.341 94.225 75.304 95.544 75.061 C 96.914 74.841 97.024 73.861 97.274 72.691 C 97.507 71.525 97.621 70.339 97.614 69.151 C 97.704 70.061 98.134 71.411 99.274 70.431 C 99.694 70.061 100.024 69.541 100.654 69.691 C 102.004 70.001 102.004 71.891 101.864 72.931 Z M 81.224 30.391 C 83.579 31.818 86.588 31.551 88.654 29.731 C 90.354 30.981 93.394 30.881 95.324 30.231 C 96.353 31.516 97.834 32.361 99.464 32.591 C 95.324 39.591 93.914 48.261 92.794 56.151 C 89.513 55.881 86.215 55.881 82.934 56.151 C 82.134 48.355 80.01 40.753 76.654 33.671 C 78.583 33.296 80.252 32.098 81.224 30.391 Z M 81.004 29.561 C 78.874 27.861 81.884 26.641 81.004 29.561 Z M 89.394 26.811 C 90.054 27.261 89.034 28.551 88.674 28.951 C 87.704 27.921 88.594 26.291 89.374 26.811 Z M 95.674 28.281 C 96.224 27.571 97.104 28.901 95.604 29.531 C 95.39 29.137 95.409 28.657 95.654 28.281 Z M 97.904 62.031 C 97.566 64.039 97.452 66.078 97.564 68.111 C 91.274 68.321 84.984 68.421 78.704 68.721 C 78.925 66.338 78.794 63.935 78.314 61.591 C 85.384 60.631 90.744 60.361 97.884 62.031 Z M 96.744 69.031 C 96.374 72.861 96.744 74.331 93.654 74.391 C 90.204 74.471 91.284 74.291 89.314 69.271 C 91.774 69.191 94.244 69.104 96.724 69.011 Z M 86.744 69.361 C 85.374 74.701 85.944 74.501 82.914 74.501 C 79.884 74.501 79.964 74.301 79.284 69.501 Z M 59.174 16.061 C 69.474 -2.789 97.914 -3.809 111.004 10.411 C 117.814 17.811 118.354 31.411 115.114 40.481 C 113.114 45.941 108.594 51.051 102.534 51.481 C 101.594 51.561 101.194 56.551 101.264 57.351 C 98.679 56.761 96.056 56.35 93.414 56.121 C 94.544 48.121 95.884 39.651 100.094 32.611 C 105.454 33.231 103.384 26.461 99.774 32.021 C 98.261 31.818 96.87 31.08 95.854 29.941 C 97.184 29.341 97.304 27.941 96.374 27.531 C 95.284 27.051 94.654 28.621 95.074 29.661 C 93.304 30.201 90.644 30.361 89.074 29.221 C 91.524 26.571 89.074 25.281 88.074 26.721 C 87.566 27.527 87.674 28.575 88.334 29.261 C 86.419 30.907 83.662 31.133 81.504 29.821 C 83.084 25.391 77.324 27.471 80.844 30.021 C 79.945 31.661 78.348 32.803 76.504 33.121 C 75.154 30.211 72.924 29.901 72.884 31.271 C 72.834 32.851 74.434 33.881 76.154 33.701 C 79.474 40.79 81.651 48.361 82.604 56.131 C 79.981 56.361 77.378 56.779 74.814 57.381 C 74.814 57.081 73.954 51.381 73.574 51.171 C 74.204 50.231 68.044 51.001 62.074 44.361 C 55.094 36.731 54.314 24.921 59.174 16.061 Z M 100.414 32.131 C 103.044 28.261 104.124 32.311 100.414 32.131 Z M 75.834 33.251 C 74.664 33.311 72.774 31.951 73.384 31.201 C 73.994 30.451 75.364 32.301 75.834 33.251 Z"/>
    <path d="M 103.484 81.491 C 103.317 81.496 103.184 81.633 103.184 81.801 C 103.184 82.381 104.914 81.871 108.354 83.551 C 108.794 83.771 109.144 83.051 108.624 82.791 C 107.037 81.959 105.276 81.514 103.484 81.491 Z M 0.694 116.351 C -0.566 114.731 0.174 120.771 0.694 123.021 C 0.774 123.341 1.334 123.251 1.284 122.911 C 0.714 119.651 0.804 116.511 0.684 116.371 Z M 2.914 103.931 C 2.97 103.636 2.686 103.391 2.402 103.49 C 2.327 103.517 2.261 103.566 2.214 103.631 C 1.378 105.599 0.965 107.722 1.004 109.861 C 1.004 110.171 1.484 110.141 1.534 109.861 C 1.78 107.835 2.263 105.844 2.974 103.931 Z M 2.454 128.801 C 2.334 128.461 1.814 128.671 1.864 129.001 C 2.375 131.51 3.17 133.952 4.234 136.281 C 4.724 137.401 5.344 136.201 4.774 135.491 C 3.844 133.301 3.224 131.041 2.454 128.801 Z M 34.534 75.951 C 32.099 76.38 29.802 77.384 27.834 78.881 C 27.544 79.091 27.894 79.491 28.184 79.321 C 32.754 76.321 35.184 77.321 34.994 76.321 C 34.973 76.089 34.765 75.922 34.534 75.951 Z M 24.004 38.791 C 38.514 35.251 35.584 37.671 32.474 33.331 C 36.194 33.091 39.914 32.991 43.644 32.851 C 43.964 32.851 43.994 32.301 43.644 32.291 C 39.643 32.131 35.636 32.211 31.644 32.531 C 30.214 32.631 33.344 35.631 33.644 35.841 L 23.734 37.941 C 22.624 38.241 23.254 39.081 24.004 38.791 Z M 35.784 21.731 C 36.013 21.818 36.27 21.701 36.354 21.471 C 35.91 19.911 35.366 18.381 34.724 16.891 L 46.814 22.581 C 47.003 22.673 47.221 22.527 47.206 22.317 C 47.2 22.22 47.142 22.134 47.054 22.091 C 30.664 14.271 32.604 13.341 35.264 20.621 C 26.094 17.031 24.694 16.061 24.524 16.941 C 24.493 17.112 24.578 17.283 24.734 17.361 C 26.054 18.101 33.774 20.921 35.784 21.731 Z"/>
  </g>
</svg>