<svg height="185.8" viewBox="0 0 190 185.8" width="190" xmlns="http://www.w3.org/2000/svg">
  <title>Girl power</title>
  <g fill="#182b29">
    <path d="M 148.454 50.737 C 149.666 49.675 151.011 48.774 152.454 48.057 C 152.884 47.917 153.254 47.947 153.454 48.377 C 153.864 49.377 153.324 52.377 153.104 53.557 C 154.104 54.277 156.374 55.887 156.734 57.087 C 157.094 58.587 154.504 58.447 152.084 58.827 C 151.742 60.192 151.297 61.529 150.754 62.827 C 150.484 63.397 150.014 64.287 149.404 64.137 C 148.074 63.857 147.764 61.897 146.474 59.587 C 144.944 59.747 142.084 60.037 141.044 59.497 C 140.618 59.332 140.421 58.841 140.614 58.427 C 141.426 56.87 142.502 55.466 143.794 54.277 C 142.574 51.787 141.794 50.507 142.214 49.617 C 142.514 49.007 144.214 49.287 144.934 49.427 C 146.153 49.729 147.334 50.169 148.454 50.737 Z M 146.624 59.387 C 147.974 61.727 148.264 63.627 149.424 63.867 C 149.884 63.867 150.254 63.097 150.424 62.677 C 150.934 61.372 151.361 60.036 151.704 58.677 C 151.726 58.611 151.778 58.559 151.844 58.537 C 154.644 57.997 156.684 58.207 156.234 57.117 C 155.784 56.027 153.604 54.507 152.694 53.877 C 152.626 53.822 152.595 53.733 152.614 53.647 C 152.764 52.857 153.424 49.217 153.014 48.527 C 152.604 47.837 149.144 50.777 148.634 51.197 C 148.56 51.242 148.468 51.242 148.394 51.197 C 147.289 50.595 146.104 50.154 144.874 49.887 C 144.394 49.787 143.034 49.557 142.674 49.827 C 142.154 50.427 143.034 51.827 144.224 54.287 C 144.258 54.356 144.258 54.438 144.224 54.507 C 142.946 55.616 141.858 56.926 141.004 58.387 C 140.894 58.555 140.851 58.759 140.884 58.957 C 140.98 59.144 141.151 59.282 141.354 59.337 C 142.294 59.757 145.524 59.437 146.584 59.337 C 146.584 59.347 146.624 59.367 146.624 59.387 Z M 4.454 114.477 C 4.223 112.88 4.196 111.261 4.374 109.657 C 4.494 109.207 4.714 108.927 5.164 109.017 C 6.244 109.237 8.444 111.287 9.324 112.127 C 10.494 111.647 13.064 110.647 14.264 110.997 C 15.724 111.507 14.194 113.597 13.204 115.837 C 14.145 116.863 15.011 117.956 15.794 119.107 C 16.124 119.647 16.624 120.527 16.164 120.947 C 15.164 121.947 13.354 121.037 10.714 120.867 C 10.109 122.128 9.421 123.347 8.654 124.517 C 8.414 124.892 8.097 125.213 7.724 125.457 C 7.353 125.717 6.84 125.617 6.594 125.237 C 5.734 123.704 5.139 122.038 4.834 120.307 C 2.084 119.977 0.554 119.977 0.064 119.107 C -0.286 118.527 0.894 117.207 1.384 116.717 C 2.325 115.864 3.354 115.113 4.454 114.477 Z M 10.744 120.717 C 13.444 120.857 15.194 121.647 16.024 120.797 C 16.314 120.437 15.824 119.687 15.574 119.287 C 14.752 118.138 13.853 117.045 12.884 116.017 C 12.853 115.954 12.853 115.88 12.884 115.817 C 13.954 113.187 15.234 111.577 14.074 111.367 C 12.914 111.157 10.464 112.157 9.434 112.587 C 9.349 112.609 9.259 112.586 9.194 112.527 C 8.604 111.967 5.914 109.437 5.114 109.417 C 4.314 109.397 4.904 113.877 4.974 114.537 C 4.98 114.625 4.932 114.707 4.854 114.747 C 3.751 115.358 2.741 116.122 1.854 117.017 C 1.514 117.357 0.574 118.377 0.614 118.827 L 0.614 118.907 C 0.974 119.537 2.064 119.567 5.194 119.907 C 5.266 119.926 5.325 119.978 5.354 120.047 C 5.589 121.731 6.095 123.365 6.854 124.887 C 6.994 125.117 7.134 125.267 7.274 125.297 C 7.479 125.313 7.681 125.244 7.834 125.107 C 8.704 124.547 10.134 121.697 10.614 120.747 C 10.647 120.712 10.699 120.7 10.744 120.717 Z M 80.774 2.067 C 82.004 0.737 83.924 -1.023 84.304 0.747 C 84.414 1.267 84.374 2.097 84.444 3.037 C 85.314 3.347 88.254 4.307 87.914 5.097 C 87.574 5.887 86.214 5.987 84.524 6.637 C 84.57 7.518 84.54 8.401 84.434 9.277 C 84.334 9.897 84.124 10.277 83.804 10.347 C 83.124 10.597 81.184 8.627 80.694 8.097 C 78.394 8.887 76.694 9.767 77.244 7.377 C 77.496 6.484 77.903 5.641 78.444 4.887 C 77.763 4.061 77.222 3.129 76.844 2.127 C 76.78 1.904 76.891 1.669 77.104 1.577 C 77.754 1.297 80.084 1.887 80.774 2.067 Z M 84.414 6.497 C 87.284 5.287 90.074 5.277 84.194 3.347 C 84.124 3.322 84.074 3.26 84.064 3.187 C 84.048 2.329 83.971 1.474 83.834 0.627 C 83.544 -0.213 81.574 1.797 81.004 2.447 C 80.784 2.637 80.744 2.397 78.544 2.017 C 78.131 1.943 77.707 1.943 77.294 2.017 C 77.294 2.567 78.584 4.347 78.914 4.797 C 79.114 5.087 78.554 5.207 77.914 6.797 C 77.664 7.314 77.544 7.883 77.564 8.457 L 77.564 8.507 C 77.974 8.727 78.564 8.447 80.674 7.757 C 80.744 7.737 80.819 7.761 80.864 7.817 C 81.579 8.69 82.426 9.445 83.374 10.057 C 83.475 10.13 83.6 10.163 83.724 10.147 C 84.394 9.987 84.334 7.347 84.324 6.657 C 84.354 6.537 84.384 6.497 84.414 6.497 Z"/>
    <path d="M 111.134 86.887 Z M 189.834 94.477 C 189.134 92.757 186.224 92.227 184.354 91.967 C 180.919 91.571 177.461 91.413 174.004 91.497 C 159.864 91.497 122.004 77.597 108.774 72.497 C 108.594 71.997 107.094 65.667 104.774 62.787 C 101.604 58.787 94.444 58.187 89.384 58.667 C 89.164 58.257 88.924 57.847 88.684 57.427 L 88.594 57.367 C 87.416 57.164 86.209 57.198 85.044 57.467 C 84.984 57.467 84.954 57.467 84.974 57.587 C 85.103 57.895 85.25 58.196 85.414 58.487 C 83.604 58.287 70.084 60.487 68.044 60.757 C 68.008 60.709 67.953 60.68 67.894 60.677 C 63.614 59.997 55.894 59.297 52.134 61.417 C 52.634 59.717 53.634 58.927 55.374 56.997 C 56.454 55.777 55.374 56.607 56.744 57.297 C 57.805 57.65 58.953 57.65 60.014 57.297 C 60.77 58.242 61.914 58.793 63.124 58.797 C 64.065 58.823 64.979 58.482 65.674 57.847 C 66.876 58.154 68.152 57.955 69.204 57.297 C 70.163 56.615 70.756 55.532 70.814 54.357 C 72.136 54.127 73.216 53.171 73.604 51.887 C 74.009 51.039 74.009 50.055 73.604 49.207 L 73.914 49.207 C 75.264 49.207 75.664 47.657 74.624 47.137 C 75.394 47.077 77.624 46.577 76.974 43.027 C 76.385 43.198 75.838 43.488 75.364 43.877 C 74.43 44.632 74.037 45.871 74.364 47.027 C 73.004 46.687 72.064 48.017 72.904 48.887 C 71.993 49.33 71.28 50.096 70.904 51.037 C 70.446 52.016 70.279 53.106 70.424 54.177 C 70.424 54.177 67.594 53.517 65.764 56.767 C 65.764 56.767 64.634 54.767 60.254 56.437 C 59.721 55.279 58.75 54.38 57.554 53.937 C 57.839 53.351 58.063 52.738 58.224 52.107 C 58.813 49.524 58.678 46.828 57.834 44.317 C 57.714 43.917 57.644 43.657 57.594 43.547 C 57.108 42.202 56.269 41.014 55.164 40.107 C 55.334 39.767 55.424 39.527 55.424 39.527 C 59.944 40.697 60.864 38.607 60.864 38.607 C 63.014 41.607 65.784 40.697 65.784 40.697 C 65.762 41.775 66.039 42.837 66.584 43.767 C 67.071 44.663 67.873 45.347 68.834 45.687 C 67.822 45.84 67.355 47.032 67.993 47.832 C 68.163 48.044 68.393 48.2 68.654 48.277 C 66.938 48.771 65.946 50.56 66.434 52.277 C 66.434 52.277 69.704 52.427 69.094 48.387 C 69.957 48.485 70.683 47.748 70.574 46.887 C 70.531 46.163 69.929 45.6 69.204 45.607 C 69.514 45.257 69.984 44.147 69.144 42.537 C 68.6 41.341 67.453 40.53 66.144 40.417 C 65.966 39.257 65.26 38.245 64.234 37.677 C 63.123 37.137 61.837 37.083 60.684 37.527 C 59.939 36.945 58.989 36.692 58.054 36.827 C 56.847 36.959 55.765 37.632 55.114 38.657 C 54.399 38.542 53.669 38.542 52.954 38.657 C 51.598 37.933 50.157 37.382 48.664 37.017 C 48.005 36.845 47.337 36.709 46.664 36.607 C 48.224 35.327 48.164 32.297 48.164 32.297 C 52.734 31.357 52.644 29.077 52.644 29.077 C 55.904 30.887 58.004 28.787 58.004 28.787 C 58.436 29.757 59.128 30.587 60.004 31.187 C 60.874 31.803 61.951 32.055 63.004 31.887 C 62.743 32.795 63.45 33.691 64.394 33.647 C 64.764 33.645 65.12 33.506 65.394 33.257 C 65.473 33.175 65.547 33.089 65.614 32.997 C 66.074 33.827 67.314 35.217 70.144 33.667 C 69.794 33.165 69.349 32.737 68.834 32.407 C 67.937 31.811 66.786 31.754 65.834 32.257 C 65.807 31.734 65.485 31.273 65.004 31.067 C 64.424 30.826 63.757 30.952 63.304 31.387 C 63.384 29.387 60.174 27.387 58.304 28.387 C 57.625 27.422 56.542 26.821 55.364 26.757 C 54.129 26.754 52.948 27.265 52.104 28.167 C 51.173 27.991 50.21 28.188 49.424 28.717 C 48.407 29.362 47.735 30.431 47.594 31.627 C 47.594 31.627 45.524 32.157 44.834 33.377 C 44.404 34.315 44.275 35.363 44.464 36.377 L 44.594 36.377 C 43.379 36.305 42.159 36.356 40.954 36.527 C 41.064 36.077 41.064 35.607 40.954 35.157 C 40.584 33.957 38.884 33.267 38.884 33.267 C 39.019 32.203 38.649 31.138 37.884 30.387 C 37.285 29.816 36.468 29.532 35.644 29.607 C 35.09 28.654 34.103 28.034 33.004 27.947 C 31.88 27.873 30.781 28.302 30.004 29.117 C 30.004 29.117 29.004 28.887 27.004 29.887 C 25.444 30.707 25.134 31.817 25.154 32.237 C 24.126 32.156 23.395 33.218 23.839 34.149 C 23.879 34.233 23.927 34.313 23.984 34.387 C 23.504 35.127 22.744 37.007 25.664 38.727 C 25.887 38.177 26.002 37.59 26.004 36.997 C 26.027 36.27 25.786 35.559 25.324 34.997 C 26.037 34.906 26.57 34.296 26.564 33.577 C 26.548 33.187 26.366 32.823 26.064 32.577 C 27.979 32.586 29.668 31.326 30.204 29.487 C 30.204 29.487 31.574 31.577 34.864 30.317 C 34.864 30.317 34.254 32.407 38.104 33.757 C 38.104 33.757 37.234 36.037 38.304 37.327 C 35.864 38.497 35.494 40.067 35.454 40.657 C 33.144 42.717 32.814 44.567 32.234 47.277 L 27.444 41.887 C 26.444 40.707 16.444 29.997 15.564 29.067 C 12.084 25.537 13.064 26.147 13.404 24.017 C 13.574 22.737 13.464 21.487 12.294 20.967 C 12.231 20.45 11.956 19.982 11.534 19.677 C 10.859 19.338 10.051 19.407 9.444 19.857 C 8.731 19.642 7.967 19.971 7.634 20.637 C 7.038 20.663 6.524 21.065 6.354 21.637 C 5.764 23.007 6.354 24.637 6.964 24.927 C 7.408 25.859 7.995 26.716 8.704 27.467 C 9.404 28.357 10.874 35.357 11.094 36.467 C 11.094 36.837 13.494 43.227 14.144 44.827 C 17.491 52.966 21.376 60.874 25.774 68.497 C 24.184 70.017 23.204 71.097 23.204 71.097 C 23.135 71.156 23.114 71.255 23.154 71.337 C 23.583 72.204 24.193 72.968 24.944 73.577 C 25.02 73.637 25.128 73.637 25.204 73.577 L 26.004 72.887 C 27.783 75.281 29.724 77.55 31.814 79.677 C 33.845 81.823 36.02 83.828 38.324 85.677 C 39.024 89.476 40.476 93.097 42.594 96.327 C 43.814 98.177 44.924 99.787 45.944 101.177 C 47.975 104.026 50.208 106.726 52.624 109.257 C 50.904 111.257 34.734 135.467 33.274 147.507 C 31.814 159.547 55.574 165.077 57.004 165.407 C 63.391 167.595 69.975 169.155 76.664 170.067 C 75.984 173.797 75.134 177.687 75.184 180.067 C 75.184 182.017 75.974 183.177 77.924 182.967 C 81.994 182.567 84.404 166.577 83.714 165.897 C 83.49 165.64 83.227 165.421 82.934 165.247 C 82.288 164.916 81.62 164.632 80.934 164.397 C 79.204 162.887 64.344 153.017 64.154 153.017 L 60.584 150.887 C 62.044 149.257 68.584 138.887 71.754 133.797 C 74.104 136.517 76.894 139.587 79.894 142.797 C 81.764 144.797 116.504 180.237 116.664 180.237 C 116.72 180.24 116.775 180.218 116.814 180.177 C 119.041 177.769 121.515 175.6 124.194 173.707 C 125.96 172.433 127.947 171.497 130.054 170.947 C 130.464 171.127 136.464 174.137 141.394 174.797 C 140.744 177.907 139.844 181.467 140.074 183.377 C 140.071 184.467 140.815 185.418 141.874 185.677 C 142.924 185.939 144.031 185.578 144.724 184.747 C 146.914 182.217 149.094 171.527 148.514 170.947 C 147.692 170.401 146.801 169.967 145.864 169.657 C 144.817 168.508 143.705 167.419 142.534 166.397 C 156.984 161.497 155.254 164.667 166.324 158.857 C 178.424 152.497 173.634 145.657 175.234 127.597 C 176.834 109.537 185.544 104.067 188.554 99.057 C 189.364 97.747 190.404 95.887 189.834 94.477 Z M 73.834 47.317 C 74.327 47.316 74.737 47.695 74.774 48.187 C 74.712 48.647 74.296 48.974 73.834 48.927 C 73.373 48.948 72.97 48.622 72.894 48.167 C 72.884 47.687 73.384 47.357 73.864 47.317 Z M 70.134 47.017 C 70.054 47.837 69.117 48.263 68.447 47.784 C 68.195 47.605 68.034 47.325 68.004 47.017 C 67.981 46.399 68.476 45.887 69.094 45.887 C 69.702 45.903 70.181 46.409 70.164 47.017 Z M 64.354 31.227 C 64.947 31.254 65.415 31.743 65.414 32.337 C 65.334 33.157 64.397 33.583 63.727 33.104 C 63.475 32.925 63.314 32.645 63.284 32.337 C 63.284 31.739 63.757 31.249 64.354 31.227 Z M 25.794 34.347 C 25.52 34.586 25.15 34.682 24.794 34.607 C 24.624 34.477 24.404 34.347 24.164 34.187 C 23.701 33.515 24.14 32.594 24.953 32.529 C 25.287 32.503 25.613 32.636 25.834 32.887 C 26.245 33.294 26.227 33.964 25.794 34.347 Z M 104.384 63.187 C 108.624 68.567 110.834 86.677 111.134 86.917 C 112.167 87.428 113.003 88.264 113.514 89.297 C 113.823 89.944 113.762 90.707 113.354 91.297 C 112.484 92.867 111.354 93.717 109.614 93.167 C 109.642 92.787 109.605 92.405 109.504 92.037 C 109.416 91.45 109.269 90.874 109.064 90.317 C 109.064 90.247 109.004 90.227 108.954 90.247 C 108.904 90.267 109.034 90.417 109.224 91.777 C 109.285 92.187 109.305 92.603 109.284 93.017 C 108.85 92.859 108.457 92.606 108.134 92.277 C 107.464 91.557 107.634 90.797 107.894 89.857 C 108.043 89.311 108.224 88.773 108.434 88.247 C 108.282 87.58 107.933 86.974 107.434 86.507 C 106.534 85.427 99.034 78.277 96.384 74.137 C 96.95 73.998 97.503 73.807 98.034 73.567 C 98.174 73.497 98.034 73.357 98.034 73.397 C 97.634 73.507 96.874 73.547 95.704 73.897 C 95.144 74.027 93.794 74.477 93.634 74.547 C 93.543 72.758 93.332 70.978 93.004 69.217 C 92.382 65.641 91.208 62.183 89.524 58.967 C 94.404 58.697 101.364 59.357 104.384 63.187 Z M 85.734 57.757 C 86.62 57.561 87.538 57.561 88.424 57.757 C 91.254 62.897 92.872 68.616 93.154 74.477 C 93.317 76.816 93.2 79.166 92.804 81.477 C 92.094 81.743 91.35 81.912 90.594 81.977 L 90.594 79.617 C 90.384 71.387 88.234 62.507 85.734 57.757 Z M 58.234 60.537 C 61.272 60.414 64.314 60.602 67.314 61.097 C 64.474 63.437 49.934 75.487 46.584 76.677 C 49.152 72.04 51.044 67.059 52.204 61.887 C 52.524 61.707 54.204 60.747 58.234 60.537 Z M 33.104 45.247 C 33.954 41.797 37.314 39.047 39.574 38.717 C 41.574 38.437 50.244 39.457 47.804 46.517 C 45.274 53.807 49.874 52.127 51.244 51.607 C 52.614 51.087 55.124 50.217 54.704 53.397 C 54.514 55.007 53.264 55.267 51.484 56.227 C 48.874 57.657 51.114 60.807 51.784 61.657 C 51.464 64.117 48.564 72.427 46.364 76.597 C 44.674 73.717 41.364 67.407 40.994 64.127 C 40.986 64.081 40.95 64.045 40.904 64.037 C 38.695 63.76 36.612 62.854 34.904 61.427 C 30.514 57.567 31.834 50.727 33.104 45.247 Z M 46.524 79.457 C 46.558 80.549 46.02 81.58 45.104 82.177 C 44.515 82.6 43.868 82.936 43.184 83.177 L 43.184 82.997 C 42.614 79.747 43.484 78.187 46.104 77.137 C 46.176 77.159 46.252 77.159 46.324 77.137 C 46.479 77.9 46.546 78.679 46.524 79.457 Z M 45.884 76.627 C 42.982 76.091 40.409 74.43 38.724 72.007 C 37.024 69.497 36.774 66.267 37.184 63.237 C 38.344 63.709 39.556 64.045 40.794 64.237 C 41.274 68.077 44.004 73.247 45.884 76.627 Z M 11.294 20.127 C 11.618 20.318 11.871 20.609 12.014 20.957 C 10.947 20.679 9.813 20.868 8.894 21.477 C 9.095 20.375 10.248 19.727 11.294 20.127 Z M 9.184 20.127 C 8.719 20.494 8.486 21.081 8.574 21.667 C 7.914 22.367 7.804 23.607 8.944 23.147 C 8.979 23.434 9.089 23.707 9.264 23.937 C 9.233 24.181 9.038 24.371 8.794 24.397 C 8.314 24.497 7.884 23.707 7.724 23.217 C 7.304 21.887 7.864 20.107 9.184 20.107 Z M 9.184 23.127 C 9.587 22.92 10.001 22.737 10.424 22.577 C 10.524 22.897 10.654 23.577 10.264 23.827 C 10.067 23.954 9.809 23.934 9.634 23.777 C 9.43 23.575 9.27 23.334 9.164 23.067 Z M 6.594 23.777 C 6.404 23.118 6.44 22.414 6.694 21.777 C 6.954 21.267 7.134 21.127 7.484 21.017 C 6.815 22.239 7.128 23.766 8.224 24.627 C 8.091 24.708 7.95 24.775 7.804 24.827 C 7.154 24.887 6.734 24.327 6.574 23.717 Z M 11.404 36.327 C 11.194 35.267 9.634 28.207 8.844 27.327 C 8.219 26.641 7.685 25.879 7.254 25.057 C 7.654 25.207 7.914 25.157 8.394 24.677 C 8.749 24.765 9.123 24.626 9.334 24.327 C 9.373 24.258 9.403 24.184 9.424 24.107 C 9.58 24.225 9.768 24.295 9.964 24.307 C 10.33 24.287 10.657 24.069 10.814 23.737 C 10.914 23.437 10.984 23.197 10.554 22.517 L 10.644 22.517 C 11.224 22.457 11.154 23.267 11.054 23.847 C 11.042 23.897 11.074 23.947 11.124 23.957 C 11.172 23.97 11.219 23.936 11.224 23.887 C 11.464 22.647 11.124 22.297 10.644 22.297 C 9.854 22.297 8.384 23.367 8.374 22.887 C 8.374 21.697 9.934 21.087 11.144 21.187 C 12.354 21.287 13.214 22.007 12.904 24.047 C 12.594 26.087 11.474 25.767 15.164 29.467 C 15.954 30.247 31.784 47.267 32.104 47.617 C 31.484 50.617 31.044 54.027 31.784 56.957 C 30.526 56.24 28.93 56.579 28.074 57.747 C 27.703 56.64 26.919 55.719 25.884 55.177 C 25.263 54.87 24.575 54.726 23.884 54.757 C 24.305 54.403 24.457 53.822 24.264 53.307 C 24.076 52.762 23.579 52.384 23.004 52.347 C 23.46 51.42 23.46 50.334 23.004 49.407 C 22.76 48.941 22.419 48.531 22.004 48.207 C 20.764 50.887 21.614 52.047 22.294 52.497 C 21.798 52.742 21.49 53.254 21.504 53.807 C 21.573 54.572 22.249 55.136 23.014 55.067 C 23.193 56.123 23.921 57.003 24.924 57.377 C 26.974 58.377 28.014 58.097 28.014 58.097 C 28.845 58.864 29.886 59.366 31.004 59.537 C 32.004 59.377 32.424 59.167 32.554 59.007 C 32.961 59.827 33.498 60.577 34.144 61.227 C 33.254 61.907 32.314 62.667 31.374 63.407 C 29.324 65.137 26.184 68.107 26.024 68.267 C 20.564 58.237 15.004 47.197 11.404 36.327 Z M 22.924 54.887 C 22.331 54.866 21.855 54.39 21.834 53.797 C 21.834 53.245 22.282 52.797 22.834 52.797 C 23.644 52.895 24.045 53.833 23.555 54.485 C 23.401 54.692 23.176 54.834 22.924 54.887 Z M 25.054 73.187 C 24.461 72.662 23.967 72.036 23.594 71.337 C 26.654 68.267 31.074 64.107 34.344 61.417 C 34.998 61.978 35.709 62.471 36.464 62.887 C 34.734 64.947 27.004 71.587 25.054 73.187 Z M 77.374 182.607 C 76.014 182.527 75.684 181.477 75.624 180.097 C 75.618 178.777 75.721 177.459 75.934 176.157 C 77.616 176.238 79.264 176.652 80.784 177.377 C 80.787 177.407 80.787 177.437 80.784 177.467 C 80.824 177.277 79.504 181.537 77.374 182.607 Z M 80.004 171.957 C 80.114 172.017 80.004 172.157 79.944 172.107 C 79.461 172.035 78.973 172.001 78.484 172.007 C 78.008 172.033 77.533 172.09 77.064 172.177 L 76.954 172.177 C 76.934 172.133 76.957 172.081 77.004 172.067 C 77.902 171.464 79.064 171.421 80.004 171.957 Z M 80.074 174.097 C 80.033 174.117 79.985 174.117 79.944 174.097 C 79.599 173.922 79.221 173.823 78.834 173.807 C 77.834 173.687 76.834 173.937 77.004 173.807 C 76.999 173.761 77.023 173.718 77.064 173.697 C 77.297 173.597 77.538 173.517 77.784 173.457 C 79.004 173.077 80.264 173.797 80.114 174.097 Z M 82.924 165.497 C 83.164 165.647 83.377 165.836 83.554 166.057 C 83.954 166.867 81.554 181.807 78.004 182.537 C 78.564 182.263 79.037 181.841 79.374 181.317 C 80.199 180.165 80.756 178.842 81.004 177.447 C 81.007 177.399 80.979 177.354 80.934 177.337 C 81.829 173.429 82.52 169.477 83.004 165.497 Z M 64.244 153.297 C 69.604 157.237 79.854 163.877 80.814 164.577 C 80.634 165.737 79.524 172.327 76.814 170.177 L 77.474 170.247 C 77.604 170.247 77.624 170.067 77.474 170.067 C 70.655 168.893 63.911 167.324 57.274 165.367 C 63.304 162.597 64.174 154.697 64.284 153.297 Z M 52.814 109.297 C 52.504 109.297 48.634 104.367 46.324 101.107 C 43.084 96.527 41.774 94.667 40.404 91.317 C 38.404 86.074 37.607 80.449 38.074 74.857 C 38.074 74.727 37.904 74.697 37.904 74.857 C 37.434 78.345 37.553 81.888 38.254 85.337 C 34.045 81.37 30.071 77.159 26.354 72.727 C 28.604 70.787 34.804 65.537 36.594 63.157 L 37.004 63.347 C 36.319 66.439 36.818 69.676 38.404 72.417 C 40.112 74.912 42.729 76.639 45.694 77.227 C 44.609 77.564 43.678 78.272 43.064 79.227 C 42.064 80.937 42.824 83.567 42.824 83.667 C 42.839 83.749 42.911 83.808 42.994 83.807 C 43.702 83.609 44.376 83.306 44.994 82.907 C 46.203 82.271 46.921 80.98 46.824 79.617 C 46.791 78.801 46.66 77.992 46.434 77.207 C 46.476 77.15 46.527 77.099 46.584 77.057 C 46.745 77.903 47.086 78.705 47.584 79.407 C 47.948 79.873 48.442 80.221 49.004 80.407 C 50.573 80.941 52.275 80.941 53.844 80.407 C 54.714 79.787 52.664 76.867 50.294 76.777 C 49.186 76.692 48.072 76.692 46.964 76.777 C 51.164 74.917 66.614 62.497 68.104 61.017 C 68.284 61.017 84.234 58.907 85.754 59.097 C 88.507 65.831 89.998 73.014 90.154 80.287 C 89.244 80.417 85.544 81.007 81.444 81.507 C 75.344 82.237 75.374 81.997 75.374 82.217 C 75.367 82.28 75.421 82.334 75.484 82.327 C 77.874 82.327 80.554 81.957 82.974 81.697 L 94.974 94.787 C 95.554 95.417 96.214 96.267 96.474 96.617 C 97.474 101.817 88.764 117.037 75.744 119.557 C 62.284 122.077 52.854 109.257 52.854 109.257 Z M 46.804 76.997 C 47.945 76.951 49.088 76.984 50.224 77.097 C 51.049 77.21 51.818 77.577 52.424 78.147 C 52.996 78.617 53.389 79.271 53.534 79.997 C 52.084 80.439 50.534 80.439 49.084 79.997 C 47.854 79.637 47.154 78.217 46.804 76.997 Z M 116.644 179.887 C 116.164 179.387 98.424 161.517 94.724 157.727 C 92.434 155.377 74.394 136.207 71.974 133.507 L 73.454 131.147 C 80.698 135.962 87.534 141.364 93.894 147.297 C 101.474 154.407 119.944 166.667 129.494 170.877 C 125.004 171.887 119.844 176.477 116.644 179.887 Z M 140.464 183.437 C 140.388 182.296 140.462 181.149 140.684 180.027 C 142.292 180.087 143.879 180.408 145.384 180.977 C 145.284 181.297 144.904 182.227 144.704 182.637 C 144.212 183.801 143.37 184.784 142.294 185.447 C 141.241 185.357 140.439 184.464 140.464 183.407 Z M 143.724 177.647 C 144.157 177.69 144.564 177.872 144.884 178.167 C 144.914 178.209 144.914 178.265 144.884 178.307 C 144.804 178.387 144.794 178.307 144.494 178.237 C 143.655 178.069 142.798 178.012 141.944 178.067 C 141.804 178.067 141.794 177.937 141.944 177.887 C 142.496 177.617 143.117 177.523 143.724 177.617 Z M 141.964 176.647 C 141.874 176.647 141.704 176.537 141.904 176.417 L 142.204 176.277 C 143.051 175.947 143.998 175.987 144.814 176.387 C 144.934 176.477 144.884 176.547 144.814 176.557 C 143.88 176.438 142.934 176.451 142.004 176.597 Z M 147.694 170.917 C 147.923 171.024 148.13 171.173 148.304 171.357 C 148.654 171.357 147.204 178.187 145.684 182.177 C 145.204 183.487 144.184 185.617 142.794 185.507 C 144.135 184.693 145.104 183.387 145.494 181.867 C 146.424 178.249 147.159 174.584 147.694 170.887 Z M 145.694 170.067 C 145.524 170.917 144.694 174.567 143.084 175.167 C 142.585 175.399 141.992 175.207 141.724 174.727 C 139.314 174.727 126.954 169.067 124.404 167.787 C 130.504 167.507 132.184 160.617 132.554 159.297 C 135.834 162.067 143.834 168.087 145.684 170.017 Z M 189.304 96.287 C 188.234 100.687 182.654 104.167 178.704 112.207 C 174.014 121.787 174.254 131.837 174.374 142.337 C 174.464 150.737 173.554 154.397 165.954 158.447 C 155.164 164.267 156.664 160.897 142.014 165.987 C 139.115 163.338 136.016 160.918 132.744 158.747 C 128.164 155.497 110.454 121.067 108.144 113.377 C 105.144 103.447 97.434 97.137 96.474 96.377 C 95.512 95.054 94.48 93.782 93.384 92.567 C 91.784 90.757 86.284 84.887 83.174 81.767 C 86.674 81.377 89.594 80.937 90.244 80.857 C 90.244 82.307 90.134 82.447 90.354 82.447 C 91.283 82.38 92.194 82.164 93.054 81.807 C 93.384 81.477 93.594 78.477 93.624 77.997 L 93.624 74.777 C 93.894 74.707 93.764 74.777 95.234 74.477 L 96.124 74.237 C 99.634 80.257 108.004 86.887 108.004 88.117 C 107.662 88.987 107.42 89.892 107.284 90.817 C 107.241 91.297 107.372 91.776 107.654 92.167 C 108.689 93.361 110.37 93.763 111.834 93.167 C 112.916 92.544 113.699 91.508 114.004 90.297 C 114.134 88.807 112.734 87.297 111.384 86.547 C 110.808 81.949 109.967 77.388 108.864 72.887 C 122.354 78.237 159.474 92.157 173.944 92.157 C 177.294 92.157 185.644 92.157 188.314 93.817 C 189.195 94.27 189.612 95.299 189.294 96.237 Z"/>
    <path d="M 34.634 46.887 C 34.691 46.629 34.764 46.375 34.854 46.127 C 34.918 45.918 34.815 45.694 34.614 45.607 C 34.409 45.536 34.187 45.656 34.134 45.867 C 34.044 46.147 33.984 46.407 33.914 46.697 C 33.841 46.974 34.095 47.226 34.372 47.151 C 34.5 47.116 34.6 47.016 34.634 46.887 Z M 36.764 47.127 C 36.434 47.597 34.764 50.127 35.224 50.407 C 35.47 50.588 35.731 50.749 36.004 50.887 C 36.164 50.947 36.724 51.137 36.724 50.977 C 36.747 50.947 36.737 50.904 36.704 50.887 C 36.294 50.729 35.909 50.51 35.564 50.237 C 35.564 50.147 37.324 46.707 37.244 46.667 C 37.164 46.627 37.134 46.667 37.114 46.667 Z M 35.004 44.007 C 35.741 44.176 36.427 44.519 37.004 45.007 L 37.134 45.007 C 37.174 45.007 37.134 45.007 37.134 44.907 C 36.989 44.479 36.664 44.136 36.244 43.967 C 35.854 43.791 35.413 43.763 35.004 43.887 C 34.854 43.887 34.884 44.007 35.004 44.007 Z M 43.294 45.227 C 43.504 45.227 43.594 45.337 43.644 45.227 C 43.694 45.117 43.324 44.957 43.184 44.927 C 42.935 44.864 42.673 44.864 42.424 44.927 C 42.084 44.985 41.749 45.072 41.424 45.187 C 41.317 45.232 41.213 45.286 41.114 45.347 C 41.009 45.401 40.908 45.465 40.814 45.537 C 40.785 45.568 40.785 45.616 40.814 45.647 C 41.004 45.697 42.204 45.227 43.294 45.227 Z M 41.384 47.757 C 41.294 48.017 41.204 48.297 41.124 48.577 C 41.057 48.795 41.171 49.027 41.384 49.107 C 41.596 49.157 41.81 49.028 41.864 48.817 C 41.934 48.557 42.014 48.317 42.104 48.057 C 42.254 47.527 41.584 47.237 41.384 47.757 Z M 39.244 54.717 C 39.552 54.876 39.909 54.916 40.244 54.827 C 40.598 54.678 40.851 54.357 40.914 53.977 C 40.981 53.647 40.981 53.307 40.914 52.977 C 40.914 52.931 40.88 52.892 40.834 52.887 C 40.784 52.887 40.744 52.927 40.744 52.977 C 40.674 53.387 40.514 54.227 40.094 54.367 C 39.674 54.507 38.404 53.847 38.564 53.927 C 38.523 53.907 38.475 53.907 38.434 53.927 C 38.413 53.978 38.413 54.036 38.434 54.087 C 38.659 54.35 38.934 54.564 39.244 54.717 Z"/>
    <path d="M 93.374 85.887 C 109.024 100.177 150.714 134.887 171.634 138.157 C 171.68 138.162 171.723 138.138 171.744 138.097 C 171.744 137.647 169.414 138.247 160.944 134.417 C 144.774 126.987 124.714 111.537 110.944 100.417 C 100.184 91.727 93.314 85.517 93.544 85.747 C 93.454 85.627 93.274 85.827 93.374 85.887 Z M 117.134 97.437 C 120.494 98.437 153.944 105.967 178.244 104.767 C 178.287 104.767 178.32 104.729 178.314 104.687 C 178.314 104.477 177.774 104.807 170.834 104.687 C 145.524 104.037 116.704 97.177 117.174 97.337 C 117.084 97.257 117.004 97.407 117.134 97.437 Z M 63.444 100.477 C 63.3 99.704 62.978 98.975 62.504 98.347 C 62.504 98.347 61.064 98.877 59.344 99.547 C 58.684 98.887 58.054 98.247 57.574 97.737 C 58.956 96.732 59.949 95.28 60.384 93.627 C 61.474 89.427 58.644 85.047 54.074 83.877 C 49.504 82.707 44.934 85.157 43.824 89.357 C 42.714 93.557 45.564 97.937 50.134 99.117 C 51.695 99.518 53.334 99.498 54.884 99.057 C 55.184 99.407 55.724 100.057 56.394 100.737 C 55.544 101.097 54.784 101.427 54.274 101.737 C 54.586 102.331 54.987 102.874 55.464 103.347 L 58.044 102.497 C 58.858 103.326 59.72 104.107 60.624 104.837 C 61.486 104.375 62.309 103.844 63.084 103.247 L 61.184 101.407 C 62.134 101.017 63.004 100.697 63.444 100.477 Z M 50.614 96.737 C 47.624 96.143 45.712 93.2 46.384 90.227 C 47.044 87.527 49.934 85.667 53.504 86.677 C 56.295 87.561 57.93 90.449 57.254 93.297 C 56.285 96.007 53.387 97.508 50.614 96.737 Z"/>
  </g>
</svg>