<svg height="447.7" viewBox="0 0 662.5 447.7" width="662.5" xmlns="http://www.w3.org/2000/svg">
  <title>Hero</title>
  <defs>
    <linearGradient id="svg-hero_appenin_secondary" x1="100%" x2="0%" y1="50%" y2="50%">
      <stop offset="0" stop-color="#fc6487"/>
      <stop offset="1" stop-color="#ffbb33"/>
    </linearGradient>
    <linearGradient id="svg-hero_appenin_primary" x1="100%" x2="0%" y1="50%" y2="50%">
      <stop offset="0" stop-color="#05a88d"/>
      <stop offset="1" stop-color="#00665a"/>
    </linearGradient>
  </defs>
  <g>
    <path d="M 0 50.614 L 219.233 0 L 237.562 79.362 L 223.354 81.51 L 207.37 82.736 L 191.616 81.532 L 187.208 135.891 L 186.433 181.324 L 191.357 235.491 L 203.936 286.854 L 62.76 322.464 L 0 50.614 Z" fill="none" stroke="#182b29" stroke-width="2"/>
    <g fill="#182b29">
      <path d="M 105.961 192.276 C 97.561 189.757 95.42 199.456 95.42 199.456 C 95.42 199.456 90.033 192.833 84.621 196.94 C 70.851 207.068 102.622 225.797 102.622 225.797 C 102.622 225.797 120.154 196.394 105.962 192.276 L 105.961 192.276 Z M 133.702 68.896 L 174.424 56.506 C 174.735 56.422 174.91 56.093 174.806 55.788 C 174.709 55.493 174.391 55.331 174.096 55.428 L 133.413 67.758 C 133.103 67.842 132.927 68.171 133.031 68.475 C 133.088 68.785 133.398 68.98 133.702 68.897 L 133.702 68.896 Z M 162.155 178.253 C 162.235 178.538 162.53 178.704 162.815 178.626 L 186.076 170.49 C 186.367 170.382 186.334 169.546 186.261 169.244 C 186.165 168.944 186.815 169.549 186.512 169.634 L 162.512 177.542 C 162.215 177.638 162.054 177.958 162.155 178.253 Z M 146.747 116.257 C 146.827 116.546 147.12 116.721 147.412 116.654 L 188.14 104.288 C 188.44 104.206 188.615 103.894 188.528 103.595 C 188.442 103.287 188.117 103.112 187.813 103.21 L 147.129 115.54 C 146.819 115.624 146.643 115.953 146.747 116.257 Z M 186.527 181.615 L 165.21 188.325 C 164.91 188.423 164.741 188.74 164.828 189.043 C 164.918 189.324 165.204 189.494 165.494 189.44 L 186.827 182.544 C 187.138 182.46 186.01 181.862 185.906 181.557 C 185.8 181.266 186.828 181.544 186.527 181.615 Z M 189.789 112.561 L 149.081 124.895 C 148.671 125.084 148.619 125.647 148.988 125.907 C 149.09 125.98 149.213 126.018 149.339 126.015 L 190.042 113.655 C 190.343 113.585 190.531 113.283 190.46 112.982 C 190.391 112.68 190.092 112.492 189.79 112.56 L 189.789 112.561 Z M 136.213 77.966 C 136.292 78.255 136.586 78.431 136.878 78.364 L 177.606 65.998 C 177.908 65.928 178.095 65.626 178.024 65.324 C 177.955 65.022 177.656 64.834 177.354 64.902 L 136.669 77.232 C 136.504 77.254 136.357 77.349 136.269 77.491 C 136.181 77.633 136.16 77.807 136.213 77.966 Z M 116.305 96.512 L 116.503 96.467 C 116.949 96.364 119.303 61.968 120.622 56.498 C 120.686 56.193 120.502 55.891 120.202 55.808 C 119.896 55.727 119.584 55.918 119.517 56.228 C 118.192 61.779 115.969 94.152 115.839 95.283 C 113.077 94.609 108.843 89.031 107.437 86.891 C 107.276 86.625 106.929 86.541 106.664 86.703 C 106.397 86.877 106.317 87.233 106.484 87.505 C 107.096 88.465 112.356 96.454 116.305 96.512 Z M 170.07 230.941 C 169.333 233.733 165.368 252.348 165.052 253.575 C 162.909 253.099 158.82 249.166 157.289 247.501 C 157.086 247.262 156.721 247.249 156.501 247.473 C 156.277 247.685 156.266 248.038 156.475 248.265 C 157.099 248.935 162.605 254.717 165.409 254.672 L 165.582 254.632 C 166.003 254.535 170.415 233.902 171.122 231.092 C 171.206 230.79 171.028 230.478 170.726 230.396 C 170.39 230.352 170.088 230.603 170.07 230.941 Z M 148.57 164.346 C 147.245 169.896 145.022 202.268 144.892 203.4 C 142.136 202.751 137.922 197.143 136.49 195.008 C 136.33 194.741 135.978 194.666 135.723 194.844 C 135.455 195.005 135.371 195.356 135.537 195.621 C 136.138 196.531 141.397 204.521 145.427 204.587 L 145.501 204.57 C 145.947 204.467 148.301 170.071 149.619 164.602 C 149.683 164.297 149.499 163.995 149.199 163.912 C 148.91 163.879 148.641 164.065 148.569 164.346 L 148.57 164.346 Z M 122.04 133.21 C 121.861 132.9 121.448 132.821 121.168 133.044 C 120.913 133.226 120.845 133.576 121.013 133.84 C 121.589 134.756 126.873 142.74 130.897 142.781 L 131.095 142.735 C 131.54 142.633 133.92 108.231 135.213 102.767 C 135.291 102.46 135.102 102.149 134.793 102.077 C 134.487 101.997 134.176 102.188 134.109 102.497 C 132.783 108.047 130.561 140.42 130.455 141.546 C 127.605 140.945 123.458 135.4 122.04 133.21 Z"/>
      <path d="M 167.69 223.878 C 163.822 224.135 150.633 225.644 143.52 234.755 C 142.293 236.363 146.9 243.272 148.354 245.373 C 154.012 253.549 162.464 262.483 167.883 261.233 L 168.231 261.152 C 172.494 259.77 175.073 252.342 176.466 246.352 C 178.387 238.227 179.279 227.003 177.504 225.214 C 176.369 224.152 172.414 223.582 167.69 223.878 Z M 175.46 246.187 C 173.597 254.112 170.874 259.217 167.968 260.127 C 165.062 261.036 161.34 258.637 156.513 253.607 C 149.608 246.381 144.095 236.794 144.492 235.564 C 148.736 230.604 154.547 227.244 160.962 226.04 C 163.219 225.523 165.512 225.18 167.822 225.013 C 172.625 224.725 176.022 225.371 176.772 226.125 C 177.522 226.879 177.628 236.866 175.385 246.204 L 175.459 246.187 Z"/>
      <path d="M 170.088 218.296 C 164.931 218.621 147.094 220.691 137.585 232.992 C 135.953 235.102 142.697 244.936 144.09 247.003 C 151.707 257.897 162.992 269.833 170.22 268.164 L 170.667 268.061 C 176.663 266.151 180.155 254.872 181.808 248.322 C 184.69 236.212 185.426 222.288 183.311 220.152 C 181.729 218.627 176.454 217.876 170.088 218.296 Z M 180.62 248.046 C 177.907 258.961 174.228 265.69 170.328 266.932 C 165.695 268.395 157.754 262.669 148.99 251.568 C 141.571 242.098 137.953 234.588 138.52 233.643 C 144.423 226.006 153.67 222.428 160.873 220.765 C 163.944 220.062 167.064 219.596 170.206 219.371 C 176.756 218.961 181.386 219.861 182.463 220.899 C 183.957 222.496 183.713 235.152 180.644 248.039 L 180.62 248.045 Z M 96.468 133.69 C 96.706 133.114 96.232 132.495 95.614 132.577 C 95.554 132.585 95.496 132.599 95.44 132.62 L 92.781 133.235 C 92.571 133.288 92.349 133.253 92.165 133.139 L 89.045 131.314 C 88.849 131.201 88.708 131.013 88.654 130.794 C 88.604 130.568 88.647 130.331 88.774 130.138 L 90.778 127.129 C 90.893 126.954 91.073 126.833 91.278 126.793 L 93.952 126.176 C 94.254 126.102 94.493 125.872 94.577 125.573 C 94.662 125.284 94.59 124.973 94.387 124.751 C 93.997 124.375 93.567 124.041 93.105 123.757 C 87.714 120.373 80.682 124.094 80.447 130.454 C 80.398 131.771 80.665 133.08 81.225 134.273 C 81.35 134.525 81.336 134.824 81.187 135.063 L 69.79 153.325 C 69.66 153.525 69.45 153.66 69.214 153.695 C 64.195 154.553 61.987 160.523 65.24 164.441 C 65.689 164.983 66.223 165.449 66.82 165.823 C 71.131 168.534 76.759 165.561 76.952 160.473 C 76.979 159.762 76.891 159.051 76.691 158.368 C 76.622 158.145 76.653 157.903 76.775 157.704 L 88.202 139.418 C 88.351 139.179 88.613 139.035 88.895 139.037 C 91.692 138.983 94.272 137.519 95.752 135.146 C 96.042 134.688 96.282 134.2 96.469 133.69 Z M 72.436 161.556 C 71.417 163.17 69.033 163.077 68.144 161.387 C 67.255 159.698 68.528 157.679 70.436 157.754 C 70.864 157.771 71.28 157.898 71.644 158.124 C 72.807 158.855 73.161 160.389 72.436 161.556 Z M 83.099 83.755 C 83.047 83.536 82.947 83.331 82.806 83.155 L 76.04 74.146 C 75.891 73.949 75.945 73.666 76.156 73.538 C 77.253 72.872 77.219 71.269 76.094 70.651 C 75.731 70.452 75.308 70.395 74.905 70.491 L 62.319 73.397 C 62.107 73.446 61.893 73.324 61.827 73.117 L 60.984 69.463 C 60.673 68.218 59.131 67.776 58.208 68.668 C 57.795 69.067 57.617 69.651 57.736 70.213 L 58.579 73.867 C 58.631 74.091 58.491 74.315 58.267 74.367 L 45.681 77.272 C 44.429 77.551 43.949 79.082 44.817 80.027 C 45.097 80.332 45.481 80.521 45.893 80.559 C 46.014 80.56 46.127 80.625 46.189 80.729 C 46.262 80.821 46.289 80.941 46.264 81.055 L 44.124 92.085 C 44.074 92.305 44.074 92.533 44.124 92.753 C 45.463 98.369 52.379 100.43 56.573 96.462 C 58.493 94.647 59.315 91.956 58.739 89.378 C 58.676 89.155 58.57 88.948 58.427 88.766 L 51.735 79.86 C 51.643 79.752 51.61 79.607 51.645 79.47 C 51.698 79.341 51.809 79.245 51.945 79.213 L 58.977 77.589 C 59.202 77.537 59.425 77.677 59.477 77.902 L 64.92 101.482 C 64.972 101.706 64.832 101.93 64.608 101.982 L 61.928 102.6 C 60.683 102.911 60.242 104.453 61.133 105.376 C 61.533 105.789 62.116 105.967 62.678 105.848 L 72.114 103.669 C 73.359 103.358 73.8 101.816 72.909 100.893 C 72.509 100.48 71.926 100.302 71.364 100.421 L 68.7 101.036 C 68.476 101.087 68.252 100.948 68.2 100.724 L 62.757 77.144 C 62.705 76.92 62.845 76.696 63.069 76.644 L 70.101 75.021 C 70.237 74.991 70.379 75.028 70.483 75.121 C 70.575 75.228 70.608 75.374 70.573 75.511 L 68.5 86.458 C 68.452 86.684 68.447 86.918 68.488 87.145 C 69.736 92.782 76.619 94.953 80.876 91.053 C 82.888 89.211 83.74 86.423 83.103 83.771 L 83.1 83.755 Z M 48.409 90.497 C 48.273 90.527 48.131 90.49 48.027 90.397 C 47.942 90.286 47.909 90.144 47.937 90.007 L 49.228 83.227 C 49.284 82.911 49.662 82.774 49.907 82.981 C 49.933 83.003 49.955 83.027 49.975 83.054 L 54.125 88.579 C 54.21 88.69 54.242 88.832 54.215 88.969 C 54.162 89.098 54.051 89.193 53.915 89.226 L 48.41 90.497 Z M 72.769 84.874 C 72.633 84.904 72.491 84.867 72.387 84.774 C 72.302 84.663 72.269 84.521 72.297 84.384 L 73.604 77.599 C 73.661 77.283 74.039 77.147 74.284 77.354 C 74.309 77.376 74.332 77.4 74.351 77.427 L 78.501 82.952 C 78.585 83.062 78.618 83.205 78.591 83.342 C 78.538 83.471 78.427 83.566 78.291 83.599 L 72.769 84.874 Z"/>
    </g>
  </g>
  <g fill="#182b29">
    <path d="M 340.292 329.885 C 339.556 329.143 338.377 329.077 337.563 329.733 C 336.746 330.395 336.543 331.559 337.09 332.457 C 338.31 335.619 342.731 331.994 340.292 329.885 Z M 341.003 273.936 C 339.908 273.907 338.903 274.546 338.453 275.557 C 338.003 276.568 338.196 277.75 338.945 278.564 C 341.816 281.701 344.713 274.424 341.003 273.936 Z M 342.426 243.982 C 340.571 243.647 338.513 246.09 341.054 247.71 C 344.281 249.792 345.805 244.624 342.426 243.982 Z M 344.967 217.627 C 341.917 216.444 340.698 221.149 343.722 221.947 C 344.852 222.147 345.95 221.458 346.262 220.353 C 346.584 219.248 346.028 218.076 344.967 217.627 Z M 340.292 301.447 C 336.15 300.625 337.472 305.639 339.199 305.639 C 342.172 305.69 343.163 301.988 340.292 301.448 Z M 344.56 148.41 C 342.782 146.867 342.502 151.444 338.208 155.018 C 336.079 156.956 333.118 157.69 330.331 156.972 C 329.595 156.741 330.052 157.872 330.052 158.309 C 330.9 162.466 334.497 165.463 338.691 165.509 C 347.431 165.354 350.201 153.321 344.561 148.409 Z M 344.357 161.42 C 339.784 166.743 332.949 163.837 330.89 157.975 C 336.81 159.62 341.283 154.426 344.001 149.824 C 346.717 153.177 346.832 157.94 344.281 161.42 L 344.357 161.42 Z M 329.467 148.847 C 325.402 148.847 324.996 149.387 324.869 144.476 C 324.738 141.039 324.909 137.598 325.377 134.191 C 325.391 134.072 325.355 133.951 325.278 133.858 C 325.201 133.766 325.09 133.71 324.97 133.703 C 324.862 133.689 324.753 133.719 324.667 133.786 C 324.581 133.855 324.525 133.954 324.513 134.063 C 323.928 137.148 322.353 147.201 324.919 149.49 C 326.364 150.249 328.04 150.441 329.62 150.03 C 330.51 149.85 330.306 148.847 329.468 148.847 Z"/>
    <path d="M 511.57 87.665 C 511.429 87.529 511.239 87.457 511.044 87.464 C 449.092 88.561 390.946 57.647 357.187 5.665 C 355.234 2.657 355.594 3.377 353.667 5.974 C 316.25 55.079 257.464 83.121 195.774 81.292 C 193.615 81.292 190.48 80.418 190.839 82.012 C 186.798 113.455 185.045 145.151 185.596 176.848 C 187.086 235.143 199.27 294.209 229.008 344.918 C 255.25 389.508 295.681 427.128 344.953 444.048 C 347.947 445.483 351.039 446.704 354.206 447.7 C 401.91 433.634 443.42 398.07 468.789 355.95 C 476.413 342.449 482.854 328.313 488.04 313.701 C 494.516 302.93 498.06 290.651 498.321 278.086 C 505.433 250.119 509.814 221.527 511.404 192.714 C 513.614 158.487 511.789 88.235 511.789 88.184 C 511.789 87.988 511.71 87.801 511.569 87.665 Z M 481.769 318.561 C 473.117 329.62 462.839 339.304 451.285 347.284 C 441.62 343.182 433.938 335.469 429.875 325.787 C 436.378 312.081 442.443 291.715 442.726 276.157 C 442.726 275.747 442.058 275.747 442.006 276.157 C 441.591 278.788 441.24 281.429 440.953 284.077 C 430.672 275.412 410.418 267.517 398.183 263.017 C 397.989 262.995 397.806 263.114 397.746 263.3 C 397.723 263.453 397.794 263.605 397.926 263.686 L 419.131 273.02 C 421.084 287.858 422.472 308.095 423.475 334.916 C 423.475 336.664 420.391 339.004 420.673 340.727 C 410.911 345.696 400.543 349.37 389.83 351.656 C 389.419 349.393 387.26 350.807 385.486 350.859 C 384.252 350.704 384.432 351.707 384.638 352.659 C 372.21 354.769 359.658 356.075 347.061 356.567 C 347.061 356.156 346.495 355.77 345.107 355.719 C 341.432 355.59 334.055 355.719 332.436 355.59 C 331.329 312.587 332.823 269.557 336.908 226.734 C 338.09 214.725 339.71 203.025 341.02 191.017 C 342.974 195.208 342.948 198.731 344.156 202.742 C 344.773 204.722 368.626 200.788 373.971 179.599 C 400.908 181.374 425.377 193.691 447.096 208.889 C 467.452 223.134 492.461 241.597 496.496 267.62 C 499.426 285.852 492.59 304.11 481.769 318.561 Z M 336.908 186.954 C 334.688 185.974 332.796 184.376 331.459 182.351 C 331.793 179.563 331.742 176.742 331.305 173.968 C 331.151 173.453 330.971 173.582 330.611 173.633 C 323.106 174.662 316.191 169.39 312.619 163.142 C 308.301 155.427 308.429 145.99 308.558 137.427 L 308.558 122.564 C 317.939 124.261 340.018 122.718 350.222 121.664 C 349.528 126.396 349.785 143.084 356.262 140.642 C 358.652 139.716 359.089 136.45 361.402 135.499 C 363.716 134.547 367.212 137.247 363.973 143.547 C 360.734 149.847 360.632 151.493 361.634 159.337 C 362.414 165.593 363.861 171.749 365.952 177.697 C 360.207 187.939 347.517 191.984 336.908 186.954 Z M 340.327 189.705 C 337.142 192.689 334.453 196.161 332.359 199.991 C 330.714 199.322 324.442 197.059 322.926 183.894 C 325.316 183.328 328.066 182.634 330.38 182.274 C 331.228 185.539 337.165 188.754 340.3 189.602 L 340.327 189.705 Z M 366.62 179.419 L 372.712 179.625 C 369.597 190.805 360.469 199.291 349.092 201.585 C 347.909 201.842 346.726 201.997 345.544 202.228 C 344.833 198.019 343.526 193.932 341.663 190.091 C 351.397 192.123 361.365 187.861 366.62 179.419 Z M 367.571 178.031 C 367.571 177.259 363.176 164.325 363.381 160.725 C 370.494 149.204 374.464 136.02 374.897 122.487 C 379.167 122.719 382.087 118.241 380.153 114.428 C 379.487 113.114 378.326 112.119 376.927 111.661 C 384.484 107.83 379.934 95.718 371.915 98.161 C 372.763 90.601 364.745 85.072 359.732 90.138 C 357.496 79.646 346.341 82.424 345.056 87.129 C 341.38 81.704 332.976 82.269 330.662 87.798 C 326.292 83.452 317.4 86.384 318.968 92.941 C 313.364 89.701 307.735 93.687 310.794 99.472 C 304.882 99.472 301.541 106.57 306.039 110.092 C 299.665 111.687 299.665 120.378 307.992 122.538 C 307.247 138.276 304.086 161.676 318.813 171.911 C 322.21 174.344 326.373 175.467 330.533 175.073 C 330.508 177.024 330.379 178.973 330.148 180.911 C 328.76 180.911 318.094 183.739 316.115 184.331 C 297.323 189.91 280.033 199.658 265.532 212.848 C 265.327 198.725 264.297 184.627 262.447 170.625 C 262.319 169.725 261.959 169.57 260.468 169.673 C 268.744 163.99 273.242 152.779 268.821 151.133 C 273.242 150.825 270.672 139.15 260.391 140.359 C 258.742 140.49 257.202 141.233 256.073 142.442 C 256.073 136.167 259.106 132.722 258.001 131.204 C 255.199 127.321 249.056 137.221 249.236 144.062 C 248.671 141.284 249.776 135.91 248.671 134.572 C 247.565 133.236 246.383 134.367 245.689 135.267 C 241.988 140.127 242.116 146.813 242.219 152.599 C 242.219 156.09 242.451 159.579 242.913 163.039 C 242.63 163.039 242.245 163.039 242.065 163.27 C 228.032 182.136 218.095 203.727 212.892 226.657 C 206.904 186.157 207.752 147.61 210.322 106.852 C 264.092 108.575 319.996 81.138 353.743 39.274 C 383.096 81.961 435.323 108.575 487.038 107.418 C 488.94 151.133 488.554 193.048 482.206 236.403 C 470.074 222.491 445.708 205.185 429.901 196.133 C 411.009 185.385 389.573 177.542 367.571 177.928 L 367.571 178.031 Z M 249.34 147.48 C 249.725 148.02 250.78 147.48 250.548 146.915 C 250.351 146.53 250.229 146.111 250.188 145.681 C 249.931 135.061 257.436 129.275 256.768 132.823 C 256.1 136.372 253.478 139.329 254.943 145.963 C 254.943 146.658 256.433 146.349 256.305 145.783 C 256.187 145.438 256.093 145.086 256.023 144.729 C 257.224 142.887 259.299 141.805 261.497 141.875 C 268.437 141.875 270.442 147.815 269.208 149.409 C 267.974 151.004 267.408 147.686 266.072 146.555 C 260.675 141.952 255.792 149.486 258.362 154.269 C 260.186 157.509 265.635 158.332 266.561 154.526 C 267.101 152.315 269.131 151.955 268.668 155.812 C 268.103 164.247 259.39 167.975 258.438 169.132 C 253.328 168.686 248.456 166.776 244.405 163.629 C 244.276 156.224 242.117 145.063 245.279 138.352 C 245.51 137.786 247.155 134.88 247.849 135.935 C 248.543 136.989 246.615 143.418 249.417 147.378 L 249.34 147.481 Z M 268.103 151.132 C 265.533 151.312 266.509 155.144 263.605 155.504 C 260.7 155.864 259.184 152.444 259.981 149.384 C 260.394 146.885 263.357 145.771 265.315 147.378 C 265.605 147.616 265.853 147.903 266.047 148.226 C 266.612 149.101 266.741 150.464 268.103 151.132 Z M 260.829 170.932 C 261.523 176.255 261.779 181.218 262.269 186.618 L 256.819 186.618 C 248.622 185.744 241.018 181.936 235.409 175.895 L 242.914 164.427 C 247.778 168.9 254.228 171.243 260.829 170.932 Z M 216.363 218.736 C 220.642 203.985 226.801 189.845 234.689 176.666 C 239.829 183.816 250.779 187.904 259.415 188.161 C 260.505 188.247 261.6 188.204 262.68 188.033 C 264.711 210.651 264.711 233.405 262.68 256.023 C 262.68 256.485 263.374 256.613 263.425 256.023 C 264.932 241.905 265.636 227.713 265.533 213.516 C 265.651 213.59 265.8 213.59 265.918 213.516 C 282.268 199.513 301.613 189.448 322.464 184.098 C 322.695 190.475 325.6 199.09 332.334 201.301 C 334.159 201.893 334.544 197.238 340.276 191.221 C 333.22 245.704 330.205 300.635 331.254 355.563 C 328.684 355.563 324.726 355.306 322.361 355.126 C 321.256 355.126 321.231 355.949 321.179 356.412 C 311.879 355.8 302.674 354.17 293.729 351.552 C 294.037 349.469 291.467 349.701 289.976 349.161 C 289.308 348.775 288.922 349.315 288.871 349.983 L 276.971 345.072 C 276.971 332.626 277.844 320.154 278.821 307.734 C 281.274 277.128 285.939 246.74 292.777 216.807 C 292.831 216.556 292.593 216.34 292.348 216.419 C 292.248 216.451 292.169 216.528 292.135 216.627 C 285.7 241.246 281.163 266.323 278.564 291.637 C 264.324 299.171 247.721 302.36 231.888 298.014 C 220.501 294.851 214.384 289.091 211.12 277.262 C 206.699 261.165 211.865 234.062 216.363 218.736 Z M 346.008 356.978 C 346.239 359.884 346.368 362.815 346.368 365.772 C 338.241 366.493 330.062 366.415 321.95 365.541 C 321.95 362.249 321.95 359.678 322.336 356.386 C 331.614 357.183 343.232 356.412 346.008 356.978 Z M 278.384 293.283 C 275.842 317.615 275.052 342.098 276.019 366.543 C 276.045 366.744 276.231 366.884 276.431 366.853 C 276.585 366.853 277.356 366.698 277.381 366.543 L 277.381 352.48 C 280.837 354.826 284.566 356.742 288.485 358.188 C 288.57 358.951 288.707 359.708 288.896 360.451 C 288.896 360.863 289.693 360.811 289.667 360.451 C 289.381 357.024 289.458 353.576 289.899 350.165 L 292.238 350.911 C 291.483 354.399 291.528 358.011 292.366 361.48 C 292.404 361.708 292.633 361.853 292.855 361.788 C 293.037 361.75 293.166 361.589 293.163 361.403 L 293.163 359.886 C 302.218 362.57 311.547 364.226 320.973 364.823 C 320.563 366.931 322.67 366.803 327.502 367.394 C 328.946 367.548 330.395 367.651 331.846 367.703 C 331.442 374.973 331.588 382.261 332.283 389.509 C 332.437 391.386 332.283 393.803 333.825 395.217 C 335.316 396.427 337.358 396.705 339.119 395.937 C 339.348 395.812 339.438 395.53 339.325 395.295 C 339.236 395.14 339.066 395.049 338.888 395.063 C 333.259 395.989 333.748 392.492 333.439 388.429 C 333.131 383.929 332.951 379.403 332.874 374.851 C 332.874 372.511 332.874 370.094 332.719 367.754 C 337.249 367.861 341.781 367.698 346.291 367.266 C 347.807 367.034 347.858 367.034 347.833 365.748 C 360.488 365.475 373.103 364.22 385.564 361.994 C 385.796 366.108 387.826 362.637 385.873 351.837 L 388.443 351.528 C 389.024 355.11 389.376 358.726 389.497 362.354 C 389.575 362.641 389.934 362.736 390.143 362.525 C 390.19 362.477 390.224 362.418 390.242 362.354 C 390.267 361.926 390.267 361.497 390.242 361.068 C 396.711 359.81 403.126 358.283 409.468 356.491 C 408.286 357.005 404.328 358.188 403.813 359.397 C 402.373 362.714 411.858 361.968 413.298 361.788 C 415.056 361.535 416.78 361.087 418.438 360.451 C 417.204 362.406 415.868 364.334 414.608 366.211 C 411.241 370.789 417.178 370.506 423.888 365.594 L 423.888 374.054 C 423.888 374.466 424.632 374.517 424.658 374.054 C 424.864 370.891 424.967 367.754 424.967 364.617 C 428.021 361.999 430.905 359.191 433.603 356.208 C 435.993 357.057 435.762 356.594 442.984 353.637 C 422.165 385.857 391.244 411.649 353.77 421.884 C 351.842 422.398 352.716 422.604 350.557 421.884 C 292.469 400.232 253.915 356.568 231.527 299.636 C 247.541 304.162 263.759 300.793 278.384 293.285 Z M 420.032 358.726 C 412.115 362.661 401.629 360.912 405.818 359.318 C 408.767 358.067 411.627 356.614 414.378 354.972 C 415.649 354.712 416.883 354.298 418.053 353.738 C 418.356 353.644 418.502 353.302 418.361 353.018 C 418.265 352.717 417.933 352.563 417.641 352.683 C 413.252 354.515 408.401 354.937 403.761 353.892 C 402.965 353.763 402.374 353.609 403.119 352.709 C 403.865 351.809 415.225 349.855 421.291 342.758 C 423.66 348.179 427.67 352.72 432.755 355.743 C 429.022 360.664 424.259 364.71 418.798 367.598 C 416.69 368.575 413.375 369.861 415.816 366.466 C 417.315 364.416 418.647 362.249 419.8 359.986 C 421.6 359.215 420.417 358.521 420.006 358.726 L 420.032 358.726 Z M 435.171 355.486 C 428.789 352.484 423.959 346.944 421.857 340.212 C 424.8 335.944 427.379 331.436 429.567 326.737 C 433.339 336.296 440.728 343.984 450.13 348.132 C 445.527 351.297 440.487 353.774 435.17 355.486 Z M 355.544 6.847 C 361.25 17.545 413.246 91.037 509.709 89.417 C 510.197 119.812 512.047 149.564 510.711 179.984 L 510.737 179.984 C 509.678 211.231 505.502 242.294 498.271 272.711 C 497.386 260.072 492.374 248.074 484.006 238.561 C 490.192 194.636 491.914 150.198 489.146 105.926 C 489.146 105.231 488.426 105.386 487.964 105.386 C 436.559 106.029 387.261 80.648 356.546 39.711 C 356.16 39.171 354.207 35.519 353.333 36.548 C 318.851 78.753 267.515 103.61 213.022 104.486 C 212.225 104.486 208.422 104.1 208.344 105.18 C 206.349 132.752 205.971 160.417 207.213 188.033 C 207.957 202.62 209.45 217.159 211.685 231.593 C 210.809 235.687 210.089 239.813 209.526 243.962 C 208.113 254.248 206.956 266.745 209.783 277.391 C 212.816 288.577 218.497 294.903 229.343 298.503 C 242.194 331.932 261.96 362.943 288.793 387.013 C 306.554 402.956 327.579 417.099 350.48 424.247 C 353.05 425.019 352.433 425.122 354.747 424.504 C 374.791 418.75 393.359 408.743 409.185 395.164 C 423.46 382.83 435.73 368.351 445.555 352.246 C 450.213 349.56 454.656 346.517 458.843 343.143 C 467.942 335.943 476.115 329.18 482.952 319.743 C 438.435 427.873 355.723 442.762 353.642 444.588 C 274.117 419.541 224.408 353.815 201.995 275.745 C 184.003 212.925 184.697 147.506 192.64 83.168 C 240.113 87.128 312.748 65.168 355.544 6.848 Z M 420.546 273.611 C 427.611 277.079 434.4 281.085 440.851 285.594 C 438.257 302.122 432.804 318.072 424.735 332.729 L 424.735 332.755 C 424.247 316.785 423.013 289.477 420.545 273.611 Z"/>
    <path d="M 312.497 130.736 C 312.497 131.101 312.781 131.441 313.039 131.153 C 315.153 128.725 317.577 129.534 317.989 128.933 C 317.989 128.933 318.273 128.516 317.989 128.307 C 316.519 126.949 313.219 129.117 312.497 130.736 Z M 335.832 135.489 C 334.542 139.745 336.631 140.712 337.198 138.675 C 337.765 136.638 336.244 134.183 335.832 135.489 Z M 315.385 134.992 C 313.89 138.701 316.442 141.025 316.571 136.925 C 316.623 134.81 315.798 134.157 315.385 134.992 Z M 334.259 129.169 C 335.109 129.429 337.482 128.255 339.931 130.292 C 340.241 130.552 340.705 130.004 340.395 129.717 C 336.425 125.93 332.17 128.516 334.259 129.169 Z"/>
  </g>
  <g fill="none">
    <circle fill="url(#svg-hero_appenin_secondary)" cx="575.5" cy="75.7" r="30"/>
    <path d="M 553.615 189.549 L 545.867 200.76 L 539.989 194.88" stroke="#ffffff" stroke-linecap="round" stroke-linejoin="round" stroke-width="1" transform="matrix(0.978148, -0.207912, 0.207912, 0.978148, 0.001085, -0.003623)"/>
    <path d="M 533.688 185.375 L 533.688 195.181 C 533.677 201.694 537.67 207.543 543.738 209.905 L 545.108 210.437 C 546.021 210.791 547.033 210.791 547.946 210.437 L 549.316 209.905 C 555.385 207.543 559.378 201.694 559.368 195.181 L 559.368 185.375 C 559.374 184.602 558.927 183.896 558.225 183.57 C 554.54 181.951 550.553 181.133 546.528 181.169 C 542.503 181.132 538.516 181.95 534.831 183.569 C 534.128 183.895 533.681 184.601 533.688 185.375 Z" stroke="#ffffff" stroke-linecap="round" stroke-linejoin="round" stroke-width="1" transform="matrix(0.978148, -0.207912, 0.207912, 0.978148, 0.007223, -0.00994)"/>
  </g>
  <g fill="none">
    <circle fill="url(#svg-hero_appenin_primary)" cx="621.997" cy="223.2" r="40.5"/>
    <path d="M 624.763 212.886 L 617.725 241.113 M 612.232 239.743 L 623.167 242.47 M 601.251 219.013 L 611.588 205.603 L 614.398 222.29 M 623.039 208.458 L 608.766 204.9 M 614.42 222.3 C 613.101 227.356 606.803 229.089 603.084 225.418 C 601.395 223.752 600.699 221.324 601.248 219.016 L 614.421 222.3 Z M 642.647 229.334 L 639.815 212.642 L 629.5 226.056 M 628.365 209.786 L 642.638 213.345 M 629.475 226.054 C 628.211 231.124 632.91 235.662 637.933 234.221 C 640.264 233.553 642.061 231.691 642.648 229.338 L 629.475 226.054 Z M 622.644 209.36 C 622.041 211.518 624 213.518 626.17 212.961 C 627.234 212.688 628.053 211.84 628.289 210.767 C 628.769 208.579 626.701 206.691 624.566 207.369 C 623.631 207.666 622.908 208.415 622.644 209.36 Z" stroke="#ffffff" stroke-linecap="round" stroke-linejoin="round" stroke-width="1"/>
  </g>
</svg>