<svg height="158" viewBox="0 0 175 158" width="175" xmlns="http://www.w3.org/2000/svg">
  <title>Insurance</title>
  <g fill="#182b29">
    <path d="M 136.05 18.1 C 136.03 18.05 135.963 18.041 135.93 18.083 C 135.926 18.088 135.922 18.094 135.92 18.1 C 135.92 18.72 135.02 19.1 135.27 19.8 C 135.38 20.1 135.79 20.31 136.02 20.01 C 136.055 19.947 136.02 19.868 135.95 19.85 L 135.84 19.85 C 135.36 19.85 135.36 19.51 135.9 18.85 C 136.066 18.638 136.122 18.36 136.05 18.1 Z M 138.17 17.09 C 138.23 17.25 138.49 17.2 138.52 17.04 C 138.52 16.703 138.476 16.367 138.39 16.04 C 138.39 15.932 138.273 15.865 138.18 15.919 C 138.137 15.944 138.11 15.99 138.11 16.04 C 138.044 16.39 138.065 16.75 138.17 17.09 Z M 133.61 16.32 C 133.61 16.63 133.61 17.24 133.92 17.43 C 133.983 17.465 134.063 17.431 134.08 17.36 C 134.031 17.022 133.957 16.688 133.86 16.36 C 133.84 16.17 133.61 16.16 133.61 16.32 Z M 132.65 15.11 C 132.596 15.199 132.658 15.312 132.762 15.315 C 132.81 15.316 132.855 15.291 132.88 15.25 C 133.03 15.05 133.88 14.46 133.98 14.25 C 134.034 14.185 133.997 14.086 133.914 14.072 C 133.909 14.071 133.905 14.07 133.9 14.07 C 133.35 14.06 132.87 14.68 132.65 15.11 Z M 138.27 13.8 C 138.77 13.86 139.03 14.26 139.27 14.64 C 139.327 14.74 139.472 14.741 139.53 14.641 C 139.544 14.616 139.551 14.589 139.55 14.56 C 139.55 13.91 138.84 13.51 138.25 13.5 C 138.07 13.49 138.08 13.78 138.27 13.8 Z M 148.27 47.61 C 150.42 47.48 152.53 46.87 154.68 46.68 C 154.85 46.68 154.85 46.39 154.68 46.41 C 152.51 46.602 150.362 46.987 148.26 47.56 L 148.27 47.61 Z M 137.92 48.04 C 138.08 48.04 138.01 47.77 137.85 47.79 C 135.62 48.14 133.38 48.54 131.16 48.96 C 131.1 48.96 131.16 49.07 131.16 49.07 C 133.43 48.76 135.69 48.43 137.92 48.04 Z M 104.94 105.04 L 89 93.94 L 85.98 98.97 L 107.21 113.01 L 124.99 80.1 L 119.87 77.7 L 104.94 105.04 Z"/>
    <path d="M 131.93 65.681 C 131.66 65.001 131.53 65.091 130.81 64.941 C 129.62 64.681 128.42 64.451 127.22 64.211 C 123.5 63.461 119.85 62.211 116.22 61.211 C 112.55 60.226 108.962 58.955 105.49 57.411 C 104.49 56.971 103.57 56.541 102.65 56.021 C 102.1 55.701 100.96 54.701 100.35 54.741 C 100 54.741 100.17 54.741 99.77 55.081 C 99.02 55.781 98.29 56.471 97.5 57.081 C 94.41 59.488 91.122 61.629 87.67 63.481 C 82.363 66.698 76.836 69.538 71.13 71.981 C 71.049 72.003 70.991 72.076 70.99 72.161 C 70.478 78.098 71.033 84.079 72.63 89.821 C 74.12 95.61 75.913 101.318 78 106.921 C 81.72 117.091 87.27 126.541 95.48 133.651 C 104.05 141.081 111.48 142.381 111.55 142.311 C 114.557 140.022 117.312 137.421 119.77 134.551 C 125.466 128.197 129.905 120.819 132.85 112.811 C 134.646 107.821 135.772 102.616 136.2 97.331 C 136.76 90.331 135.76 83.421 134.55 76.491 C 134.066 72.804 133.188 69.18 131.93 65.681 Z M 134.57 105.681 C 133.216 112.266 130.649 118.543 127 124.191 C 117.81 137.731 111.52 141.921 111.42 141.991 C 102.134 138.843 94.027 132.941 88.18 125.071 C 85.418 121.439 83.045 117.528 81.1 113.401 C 78.956 108.587 77.116 103.644 75.59 98.601 C 73.93 93.787 72.642 88.852 71.74 83.841 C 71.302 81.177 71.098 78.48 71.13 75.781 C 71.13 75.141 71.25 72.361 71.24 72.371 C 71.34 72.201 78.69 69.061 81.79 67.301 C 86 64.861 90.36 62.601 94.4 59.841 C 96.169 58.671 97.842 57.36 99.4 55.921 C 99.96 55.401 100.18 55.131 100.94 55.441 C 101.47 55.651 104.61 57.441 105.71 57.891 C 110.128 59.753 114.681 61.278 119.33 62.451 C 121.76 63.141 124.19 63.931 126.66 64.451 C 128.225 64.695 129.774 65.029 131.3 65.451 C 131.87 65.811 133.01 70.361 133.3 71.561 C 133.84 74.041 134.24 76.561 134.67 79.041 C 136.18 87.961 136.59 96.791 134.57 105.701 Z M 65.65 24.541 C 65.588 24.609 65.624 24.719 65.714 24.738 C 65.719 24.739 65.725 24.74 65.73 24.741 C 66.106 24.693 66.403 24.397 66.45 24.021 C 66.45 23.851 65.84 23.101 65.74 22.761 C 65.717 22.695 65.632 22.679 65.587 22.731 C 65.579 22.74 65.574 22.75 65.57 22.761 C 65.48 23.051 66.16 23.871 66.12 24.091 C 66.08 24.311 65.8 24.391 65.65 24.541 Z M 67.49 21.301 C 67.395 21.625 67.354 21.963 67.37 22.301 C 67.37 22.591 67.82 22.591 67.83 22.301 C 67.875 21.963 67.838 21.62 67.72 21.301 C 67.673 21.212 67.548 21.207 67.495 21.292 C 67.493 21.295 67.492 21.298 67.49 21.301 Z M 63.42 21.271 C 63.327 21.597 63.327 21.944 63.42 22.271 C 63.42 22.481 63.82 22.451 63.8 22.271 C 63.78 22.091 63.73 21.651 63.69 21.341 C 63.717 21.237 63.621 21.142 63.518 21.171 C 63.47 21.184 63.433 21.222 63.42 21.271 Z M 62.57 20.991 C 62.73 20.781 63.57 20.121 63.69 19.931 C 63.762 19.861 63.732 19.74 63.635 19.712 C 63.614 19.706 63.592 19.705 63.57 19.711 C 63.037 19.907 62.59 20.286 62.31 20.781 C 62.2 20.941 62.45 21.131 62.57 20.991 Z M 67.29 19.831 C 67.654 20.013 67.99 20.246 68.29 20.521 C 68.365 20.597 68.496 20.564 68.525 20.46 C 68.528 20.447 68.53 20.434 68.53 20.421 C 68.53 20.161 67.53 19.581 67.26 19.601 C 67.175 19.636 67.159 19.75 67.232 19.806 C 67.249 19.819 67.269 19.828 67.29 19.831 Z M 62.63 26.131 L 62.54 26.131 C 62.54 26.771 63.96 28.071 65.85 27.261 C 65.94 27.261 65.85 27.071 65.78 27.101 C 64.633 27.577 63.31 27.17 62.63 26.131 Z M 24.32 110.601 C 21.01 110.931 17.62 110.411 14.32 110.821 C 14.32 110.821 14.25 110.881 14.25 110.911 C 13.988 113.638 14.042 116.386 14.41 119.101 C 14.419 119.208 14.535 119.271 14.63 119.221 C 17.85 119.391 21.22 119.281 24.45 119.131 C 24.54 119.131 24.58 118.931 24.58 118.911 C 24.677 116.18 24.623 113.446 24.42 110.721 C 24.426 110.66 24.381 110.606 24.32 110.601 Z M 14.62 113.491 C 14.62 112.651 14.62 111.811 14.56 110.961 C 17.725 111.123 20.897 111.1 24.06 110.891 C 23.982 111.865 23.958 112.843 23.99 113.821 C 20.874 113.551 17.746 113.451 14.62 113.521 Z M 14.83 118.881 C 14.68 117.211 14.66 115.551 14.64 113.881 C 16.12 113.881 17.64 113.941 19.08 113.981 C 18.96 115.552 19.051 117.133 19.35 118.681 C 17.839 118.616 16.326 118.693 14.83 118.911 Z M 19.83 118.711 C 19.83 117.821 19.6 114.641 19.47 113.951 C 20.96 113.951 23.98 114.201 23.99 114.201 C 23.99 115.721 24.14 117.251 24.17 118.751 C 22.78 118.851 21.31 118.781 19.86 118.741 Z"/>
    <path d="M 164.06 138.111 C 164.06 138.111 165.51 82.281 165.51 79.941 C 165.877 79.694 166.193 79.378 166.44 79.011 C 167.23 77.701 166.68 75.681 166.56 74.271 C 166.22 70.441 166.01 66.551 165.47 62.741 C 166.492 61.702 167.385 60.543 168.13 59.291 C 170.55 55.221 170.56 50.691 169.44 46.181 C 168.32 41.671 165.16 38.181 161.61 35.121 C 158.084 31.919 153.703 29.81 149 29.051 C 148.516 28.206 147.957 27.406 147.33 26.661 L 146.45 27.171 C 146.45 25.821 145.89 20.041 145.89 20.041 C 146.71 19.821 148.33 17.451 148.58 15.711 C 148.823 12.269 147.348 8.93 144.64 6.791 C 140.94 3.791 133.64 5.201 132.03 6.421 C 131.136 7.127 129.982 7.418 128.86 7.221 C 128.86 7.221 130.2 8.561 129.38 8.811 C 128.56 9.061 128 7.701 128 7.701 C 127.81 10.421 128.9 11.101 128.9 11.101 C 132.49 14.961 135.2 11.871 135.2 11.871 C 135.2 11.871 135.57 10.671 139.43 11.541 C 141.537 11.842 142.912 13.912 142.37 15.971 L 142.86 16.171 C 143.044 15.903 143.252 15.652 143.48 15.421 C 145.66 13.911 146.22 16.201 146.22 16.201 C 146.66 18.061 144.37 18.601 144.37 18.601 C 144.43 21.181 143.96 21.601 143.96 21.601 C 142.1 23.831 140.21 21.411 140.21 21.411 C 139.363 20.435 138.096 19.928 136.81 20.051 C 134.45 20.151 134.81 20.901 133.81 21.631 C 133.18 22.091 132.54 21.571 132.15 21.141 C 132.15 20.291 131.81 16.961 131.62 16.141 L 131.62 13.231 C 130.92 13.026 130.281 12.652 129.76 12.141 C 128.76 15.141 130.89 16.061 131.48 16.271 C 131.55 17.181 131.22 24.111 132.48 26.711 C 133.165 28.179 134.538 29.208 136.14 29.451 C 136.03 30.041 135.92 31.021 135.9 31.291 C 133.44 31.651 131.45 33.231 129.54 34.721 C 127.248 36.472 125.123 38.43 123.19 40.571 C 119.708 44.35 117.443 49.088 116.69 54.171 L 113.26 53.171 C 113.31 52.951 113.333 52.726 113.33 52.501 C 113.318 50.961 111.644 50.012 110.317 50.792 C 110.143 50.894 109.986 51.022 109.85 51.171 C 109.653 51.444 109.51 51.753 109.43 52.081 C 109.43 52.081 103.69 49.541 100.82 48.311 C 100.211 47.916 99.47 47.78 98.76 47.931 C 97.662 48.519 96.687 49.313 95.89 50.271 L 95.89 50.211 C 94.89 48.981 92.69 49.081 92.37 50.871 C 92.308 51.393 92.391 51.923 92.61 52.401 C 92.11 52.771 91.61 53.161 91.03 53.541 C 89.63 50.081 88.3 46.471 86.03 43.541 C 84.144 41.032 81.868 38.841 79.29 37.051 C 75.753 34.531 71.491 33.236 67.15 33.361 L 66.89 32.731 C 66.89 32.321 66.81 31.911 66.76 31.511 C 70.01 31.781 71.7 26.891 71.7 26.891 C 71.814 27.736 71.729 28.595 71.45 29.401 C 71.45 29.401 74.75 24.661 72.8 16.791 C 70.85 8.921 63.8 10.571 63.8 10.571 C 55.43 5.721 51.08 14.411 51.08 14.411 C 45.98 26.751 55.08 31.911 55.08 31.911 C 54.2 31.251 54.48 29.771 54.48 29.771 C 55.405 31.078 56.881 31.886 58.48 31.961 C 58.48 32.271 58.37 32.611 58.34 32.961 L 58.13 33.701 C 49.42 36.771 41.75 42.421 38.76 51.481 C 37.34 55.771 37.25 60.231 39.41 64.301 C 41.225 67.604 44.216 70.103 47.79 71.301 C 47.702 72.488 48.172 73.649 49.06 74.441 C 48.38 74.751 46.63 76.011 45.63 81.011 C 45.22 83.071 44.46 86.671 43.63 90.581 C 39.26 87.161 32.84 81.941 32.74 82.021 C 23.36 89.571 5.05 105.491 5.05 105.511 C 4.973 105.574 4.993 105.698 5.086 105.733 C 5.097 105.737 5.109 105.74 5.12 105.741 C 6.63 105.871 8.12 105.961 9.67 106.011 C 9.67 115.301 10.45 134.011 10.49 134.011 L 7 134.011 C 6.93 135.58 6.99 137.152 7.18 138.711 C 14.08 138.711 40.07 138.531 49.32 138.351 C 49.62 142.761 49.99 148.061 49.99 148.061 C 49.38 148.301 46.76 149.861 45.94 150.221 C 44.84 150.701 43.94 151.291 44.08 152.621 C 44.127 152.673 44.185 152.715 44.25 152.741 C 47.854 153.011 51.478 152.87 55.05 152.321 C 55.129 152.295 55.197 152.242 55.24 152.171 C 55.525 151.161 55.525 150.091 55.24 149.081 L 59.71 130.481 C 60.37 127.851 62.8 117.361 63.4 114.771 C 65.92 114.756 68.437 114.602 70.94 114.311 C 71.94 117.371 74.74 129.071 75.86 131.571 C 76.98 134.071 77.1 135.101 77.12 135.111 C 79.97 135.911 82.33 136.921 85.75 134.111 C 85.839 134.022 85.99 134.063 86.022 134.184 C 86.037 134.24 86.021 134.3 85.98 134.341 C 83.92 136.551 79.57 136.841 77.09 135.181 L 81.44 147.971 C 81.167 149.25 81.167 150.572 81.44 151.851 C 81.44 151.931 87.98 151.851 91.19 151.761 C 91.29 151.761 91.37 151.561 91.37 151.541 C 91.429 150.524 90.863 149.573 89.94 149.141 C 89.36 148.811 86.75 147.561 86.05 147.211 L 86.05 132.371 C 87.298 134.015 88.673 135.56 90.16 136.991 C 93.58 140.097 97.26 142.904 101.16 145.381 C 104.66 147.731 108.35 150.061 112.42 151.271 C 112.5 151.271 123.18 144.411 128.85 135.961 L 128.85 139.811 C 129.301 140.276 129.861 140.62 130.48 140.811 C 130.56 141.641 130.687 142.465 130.86 143.281 C 129.4 144.281 127.15 145.801 126.77 147.621 C 126.674 147.959 126.725 148.322 126.91 148.621 C 126.39 151.111 132 150.621 133.2 150.461 C 134.76 150.251 140.2 149.941 139.28 147.151 C 139.28 147.151 139.57 143.651 138.59 143.041 C 138.68 142.233 138.68 141.419 138.59 140.611 C 139.99 140.311 140.97 140.011 140.97 140.011 L 142.21 109.011 C 144.52 120.911 153.92 140.931 153.92 140.931 C 154.642 141.036 155.37 141.09 156.1 141.091 C 156.383 141.782 156.717 142.45 157.1 143.091 C 156.33 143.821 152.39 147.581 154.51 148.871 C 154.97 151.331 158.84 149.961 160.27 149.351 C 161.17 148.971 166.63 146.351 164.9 144.921 C 164.9 144.921 163.61 141.811 163.17 141.641 C 163.084 140.823 162.903 140.017 162.63 139.241 C 163.146 138.917 163.626 138.538 164.06 138.111 Z M 136 11.261 C 134.66 12.031 132.95 10.881 132.54 9.571 C 132.54 9.501 132.62 9.451 132.66 9.521 C 132.98 10.101 134.26 11.581 135.92 10.971 C 136 10.921 136.11 11.191 136 11.261 Z M 159.87 34.161 C 163.37 36.821 167.05 40.221 168.57 44.441 C 170.09 48.661 170.51 53.911 168.42 58.081 C 166.398 61.85 163.204 64.859 159.32 66.651 C 154.874 68.696 150.034 69.741 145.14 69.711 C 145.114 69.701 145.086 69.701 145.06 69.711 C 144.125 67.813 143.028 66 141.78 64.291 C 147.392 60.708 153.19 57.427 159.15 54.461 C 159.198 54.432 159.222 54.376 159.21 54.321 C 158.6 52.263 158.194 50.149 158 48.011 C 158 47.921 157.85 47.911 157.85 48.011 C 157.897 49.72 158.124 51.42 158.53 53.081 C 158.73 53.941 159.21 54.081 158.47 54.511 C 157.03 55.261 147.64 60.251 144.47 62.191 C 144.33 60.491 143.86 52.591 143.88 52.571 C 145.25 50.281 150.44 40.841 151.88 38.571 C 151.927 38.524 151.927 38.448 151.88 38.401 C 151.274 37.413 150.544 36.506 149.71 35.701 C 150.824 34.833 152.032 34.092 153.31 33.491 C 153.42 33.491 153.55 33.401 153.47 33.281 C 152.652 31.964 151.693 30.74 150.61 29.631 C 153.968 30.483 157.112 32.026 159.84 34.161 L 159.87 34.161 Z M 139.47 68.901 C 137.58 70.591 137.47 69.621 137.42 69.311 C 138.121 68.938 138.77 68.474 139.35 67.931 C 139.35 67.931 139.29 67.771 139.24 67.811 C 138.83 68.091 136.54 70.021 136.54 68.871 C 137.284 67.948 138.145 67.124 139.1 66.421 C 138.96 66.151 138.46 66.421 138.33 64.751 C 138.96 65.228 139.73 65.485 140.52 65.481 C 140.994 65.505 141.464 65.387 141.87 65.141 C 142.235 65.901 142.649 66.636 143.11 67.341 C 142.48 67.947 141.812 68.511 141.11 69.031 C 140.48 69.471 139.11 70.561 138.31 70.031 C 138.771 69.727 139.212 69.393 139.63 69.031 C 139.65 68.971 139.5 68.851 139.44 68.901 L 139.47 68.901 Z M 150.35 29.571 C 150.72 30.181 152.73 32.661 153.24 33.361 C 151.857 33.81 150.616 34.613 149.64 35.691 L 151.74 38.441 C 149.08 43.011 145.95 47.441 143.87 52.351 C 144.598 44.643 146.181 37.039 148.59 29.681 L 148.95 29.301 L 150.35 29.571 Z M 147.28 26.891 C 147.69 27.671 148.28 28.331 148.71 29.131 C 147.37 30.531 145.89 31.751 144.48 33.131 C 143.951 31.916 143.28 30.768 142.48 29.711 C 144.185 28.971 145.796 28.031 147.28 26.911 L 147.28 26.891 Z M 141.7 29.121 C 144.85 28.431 145.64 24.411 145.84 21.951 C 145.84 22.451 146.04 25.951 146.19 27.211 C 146.184 27.234 146.184 27.258 146.19 27.281 L 142.3 29.571 C 141.869 30.361 141.501 31.183 141.2 32.031 C 140.863 31.14 140.462 30.274 140 29.441 C 140.57 29.371 141.12 29.271 141.7 29.141 L 141.7 29.121 Z M 141.07 32.481 C 141.047 32.604 141.166 32.706 141.284 32.665 C 141.339 32.645 141.379 32.598 141.39 32.541 C 141.69 31.631 142.13 30.751 142.39 29.841 C 142.946 31.061 143.615 32.227 144.39 33.321 C 145.771 32.328 147.072 31.228 148.28 30.031 C 144.99 37.301 143.75 47.701 143.56 51.121 C 142.76 48.121 139.19 35.901 137.87 32.931 C 138.206 33.141 138.586 33.271 138.98 33.311 C 139.23 32.881 139.7 30.241 139.98 29.511 C 140 29.661 140.84 31.911 141.07 32.501 L 141.07 32.481 Z M 136.44 23.821 C 137.358 24.092 138.31 23.512 138.49 22.571 C 138.49 22.441 138.76 22.511 138.74 22.641 C 138.45 24.471 136.74 24.331 136.41 23.891 C 136.39 23.881 136.41 23.841 136.44 23.841 L 136.44 23.821 Z M 136.38 29.481 C 137.517 29.645 138.673 29.645 139.81 29.481 C 139.353 30.626 138.991 31.806 138.73 33.011 C 138.43 32.811 136.67 31.791 136.13 31.431 C 136.14 31.411 136.34 30.201 136.38 29.501 L 136.38 29.481 Z M 136 31.571 C 136.469 32.01 136.986 32.396 137.54 32.721 C 138.41 36.051 142.54 48.661 143.35 51.721 C 142.1 49.941 135.43 42.721 133.76 40.581 C 134.243 39.505 134.657 38.399 135 37.271 C 134.125 36.932 133.216 36.684 132.29 36.531 C 133.293 35.103 134.091 33.541 134.66 31.891 C 135.07 31.751 136 31.571 136 31.571 Z M 116.91 54.191 C 117.793 49.195 120.039 44.541 123.4 40.741 C 125.012 38.928 126.775 37.256 128.67 35.741 C 130.367 34.17 132.313 32.892 134.43 31.961 C 133.56 33.451 132.73 35.231 131.78 36.691 C 131.7 36.821 133.85 37.231 134.71 37.531 C 134.52 37.851 133.66 40.071 133.41 40.671 C 133.41 40.741 142.01 50.371 143.58 52.581 C 143.45 54.121 144.34 62.301 144.35 62.311 C 143.42 62.881 142.43 63.531 141.54 64.151 C 141.46 64.151 141.76 64.681 141.85 64.871 C 141.48 65.056 141.074 65.158 140.66 65.171 C 140.77 63.041 140.58 60.571 138.76 59.171 C 137.961 58.597 137.021 58.251 136.04 58.171 C 134.45 57.971 132.86 57.881 131.27 57.651 C 130.59 57.551 129.9 57.431 129.22 57.301 L 129.22 57.241 C 128.668 54.184 128.453 51.075 128.58 47.971 C 128.58 47.891 128.45 47.861 128.43 47.971 C 128.061 51.071 128.21 54.21 128.87 57.261 C 124.8 56.491 120.87 55.331 116.87 54.181 L 116.91 54.191 Z M 109.66 52.191 C 109.755 51.718 110.022 51.297 110.41 51.011 C 111.032 50.612 111.84 50.661 112.41 51.131 C 113.033 51.665 113.267 52.525 113 53.301 C 112.86 53.771 112.11 55.161 111.51 54.051 C 111.546 53.97 111.576 53.886 111.6 53.801 C 111.698 53.369 111.771 52.931 111.82 52.491 C 111.7 52.891 111.63 53.321 111.49 53.711 C 111.427 53.961 111.259 54.173 111.03 54.291 C 110.71 54.401 110.47 54.151 110.35 53.881 C 110.543 53.281 110.661 52.66 110.7 52.031 C 110.643 52.691 110.466 53.334 110.18 53.931 C 109.98 54.291 109.6 54.331 109.47 53.931 C 109.445 53.795 109.445 53.657 109.47 53.521 C 109.484 53.069 109.548 52.619 109.66 52.181 L 109.66 52.191 Z M 95.48 50.191 C 95.57 50.281 95.65 50.381 95.74 50.491 C 95.742 50.522 95.761 50.549 95.79 50.561 C 95.999 50.828 96.162 51.129 96.27 51.451 C 96.4 51.851 96.67 52.841 95.84 52.451 C 95.59 52.097 95.312 51.762 95.01 51.451 C 95.01 51.451 94.95 51.451 95.01 51.451 C 95.19 51.771 96.62 53.741 95.01 53.301 C 94.857 52.837 94.612 52.409 94.29 52.041 C 94.227 51.997 94.14 52.037 94.133 52.114 C 94.131 52.13 94.134 52.146 94.14 52.161 C 94.34 52.621 95.46 54.341 94.14 53.881 C 93.388 53.437 92.837 52.721 92.6 51.881 C 92.108 50.677 93.104 49.391 94.393 49.568 C 94.821 49.626 95.209 49.845 95.48 50.181 L 95.48 50.191 Z M 56.65 28.071 C 57.625 28.068 58.557 28.466 59.23 29.171 C 59.05 27.731 56.87 25.681 56.87 25.681 C 54.32 25.741 54.87 23.221 54.87 23.221 C 55.367 22.074 56.853 21.771 57.76 22.631 C 57.76 22.941 58.3 24.361 59.08 24.421 C 59.86 24.481 59.58 25.301 59.58 25.301 C 59.58 25.301 60.16 24.551 59.58 24.131 C 59 23.711 58.95 22.621 58.95 22.621 C 62.23 22.321 64.54 14.431 64.54 14.431 C 65.38 18.801 70.12 18.881 70.12 18.881 C 70.128 21.475 69.974 24.066 69.66 26.641 C 69.38 28.245 68.044 29.453 66.42 29.571 C 66.42 29.571 66.42 32.191 66.56 32.921 C 64.308 34.864 60.972 34.864 58.72 32.921 L 58.72 31.921 C 59.184 31.953 59.65 31.933 60.11 31.861 C 57.31 31.311 56.65 28.071 56.65 28.071 Z M 58.19 33.921 C 59.19 35.781 64.86 36.921 67.19 33.541 C 68.292 33.548 69.392 33.642 70.48 33.821 C 69.71 41.751 57.98 42.031 55.19 35.241 C 56.16 34.781 57.17 34.351 58.19 33.921 Z M 40.63 65.571 C 35.28 57.811 39.24 47.361 45.49 41.381 C 48.246 38.859 51.416 36.829 54.86 35.381 C 56 39.011 60.53 40.831 64.1 40.381 C 67.594 40.053 70.391 37.343 70.83 33.861 C 73.692 34.361 76.417 35.454 78.83 37.071 C 81.37 38.785 83.618 40.895 85.49 43.321 C 87.91 46.391 89.28 50.111 90.72 53.721 C 88.31 55.391 85.48 57.141 82.58 58.781 C 82.08 58.401 80.94 57.391 80.71 57.181 C 80.786 54.219 80.155 51.281 78.87 48.611 L 78.77 48.611 C 80.83 53.701 80.26 57.961 80.35 59.961 C 75.07 62.801 69.97 65.071 67.35 65.631 C 67.35 65.631 67.35 65.481 67.27 65.461 C 63.08 64.071 50.59 59.621 50.57 59.621 C 50.829 57.948 50.999 56.262 51.08 54.571 C 51.08 54.571 51 54.571 51 54.631 C 50.57 56.281 50.51 58.071 50.24 59.761 C 50.23 59.823 50.257 59.886 50.31 59.921 C 55.75 62.271 61.49 63.921 67.13 65.711 C 67.262 67.618 67.175 69.534 66.87 71.421 C 58 72.231 46.53 74.121 40.63 65.571 Z M 82.27 58.961 C 81.71 59.281 81.14 59.591 80.58 59.891 C 80.64 59.141 80.68 58.351 80.69 57.541 C 81.166 58.068 81.695 58.544 82.27 58.961 Z M 67.46 67.131 C 68.131 67.416 68.889 67.416 69.56 67.131 C 70.3 66.741 70.67 65.931 71.34 65.441 C 71.384 65.988 71.235 66.532 70.92 66.981 C 70.85 67.071 70.92 67.181 71.06 67.171 C 71.74 67.271 73.15 67.001 73.64 67.401 C 74.33 67.951 71.87 68.191 71.24 68.271 C 71.14 68.271 71.17 68.431 71.24 68.441 C 72.018 68.436 72.79 68.312 73.53 68.071 C 74.12 69.571 71.63 69.231 71.16 69.401 C 71.087 69.425 71.067 69.519 71.125 69.571 C 71.135 69.58 71.147 69.587 71.16 69.591 C 71.743 69.631 72.328 69.59 72.9 69.471 C 73.43 70.721 68.54 71.701 67.31 70.041 C 67.446 69.077 67.496 68.104 67.46 67.131 Z M 52.19 85.571 C 52.19 85.511 52.32 85.571 52.31 85.571 C 52.06 89.371 49.66 104.831 48.93 108.741 C 48.93 108.851 48.75 108.801 48.77 108.741 C 49.29 104.881 51.43 89.411 52.19 85.571 Z M 44.24 110.901 C 45.285 111.425 46.36 111.886 47.46 112.281 C 47.46 112.571 47.52 112.971 47.55 113.421 C 45.07 113.181 42.71 113.671 40.24 113.501 C 40.24 112.611 40.17 110.971 40.17 110.971 C 40.84 110.951 42.73 110.911 44.24 110.931 L 44.24 110.901 Z M 44.97 113.781 L 47.5 113.781 C 47.59 114.991 47.69 116.651 47.79 118.431 C 46.902 118.306 46.004 118.276 45.11 118.341 C 45.158 116.83 45.121 115.318 45 113.811 L 44.97 113.781 Z M 44.72 118.331 C 44.61 118.331 41.72 118.331 40.41 118.391 C 40.41 117.191 40.24 114.151 40.24 113.831 C 41.718 113.93 43.202 113.93 44.68 113.831 C 44.503 115.337 44.516 116.859 44.72 118.361 L 44.72 118.331 Z M 5.84 105.491 C 14.84 97.631 23.56 90.171 32.76 82.491 C 36.17 85.491 39.93 88.171 43.59 90.901 C 42.46 96.151 41.22 101.901 40.5 105.211 C 31.29 105.371 11.47 105.571 5.84 105.491 Z M 7.54 138.421 C 7.604 137.022 7.516 135.621 7.28 134.241 C 10.63 134.641 40.74 134.301 49 134.171 C 49.06 135.171 49.16 136.521 49.26 138.001 C 40 138.001 14.36 138.241 7.54 138.421 Z M 30.42 124.961 C 32.25 124.818 34.087 124.794 35.92 124.891 C 35.92 124.891 35.92 132.371 36.08 133.991 L 30.61 134.081 C 30.53 130.951 30.61 128.071 30.42 124.961 Z M 54.96 151.961 C 49.4 152.911 46.11 152.361 44.36 152.471 C 44.29 152.021 45.03 150.991 45.36 150.741 C 45.69 150.491 50 148.431 50 148.431 C 51.35 150.881 54.14 149.701 55 149.271 C 55.226 150.167 55.226 151.105 55 152.001 L 54.96 151.961 Z M 58.47 134.391 C 55.03 135.901 51.62 134.951 48.89 132.501 L 48.97 133.741 L 36.45 133.941 C 36.598 130.819 36.508 127.69 36.18 124.581 C 36.18 124.581 31.94 124.011 30.05 124.511 C 29.99 124.511 30.1 130.911 30.18 134.041 L 11.18 133.971 C 11.18 133.971 10.84 115.261 10.31 105.971 C 14.57 106.101 31.76 105.771 40.45 105.591 L 39.92 108.021 C 41.002 109.027 42.212 109.884 43.52 110.571 C 42.338 110.447 41.144 110.528 39.99 110.811 C 39.984 110.834 39.984 110.858 39.99 110.881 C 39.78 113.479 39.82 116.091 40.11 118.681 C 40.11 118.681 40.18 118.801 40.23 118.801 C 41.47 118.881 46.46 118.651 47.92 118.861 C 48.15 122.991 48.42 127.661 48.68 129.261 C 48.68 129.261 48.97 132.391 49.02 132.421 C 50.43 133.421 53.91 136.211 58.42 134.221 C 58.51 134.151 58.6 134.381 58.47 134.431 L 58.47 134.391 Z M 59.32 130.511 C 55 131.571 50.2 129.731 49 129.191 C 48.6 126.271 48.36 115.001 47.75 112.401 C 52.663 114.047 57.819 114.849 63 114.771 C 62.22 117.271 59.87 127.841 59.32 130.571 L 59.32 130.511 Z M 57.84 96.511 C 57.865 96.43 57.969 96.407 58.026 96.469 C 58.037 96.481 58.045 96.495 58.05 96.511 C 58.05 99.951 58.16 103.401 58.05 106.841 C 58.05 106.941 57.89 106.941 57.88 106.841 C 57.73 103.451 57.83 100.001 57.84 96.571 L 57.84 96.511 Z M 65.47 75.191 C 63.23 75.311 52.47 75.811 49.38 74.291 L 49.33 74.291 C 48.543 73.481 48.068 72.418 47.99 71.291 C 48.41 71.441 48.85 71.571 49.28 71.691 C 54.67 73.101 60.28 72.271 65.71 71.781 C 65.557 72.928 65.476 74.084 65.47 75.241 L 65.47 75.191 Z M 76.24 131.681 C 75.24 128.811 72.32 117.001 71.11 114.231 C 72.11 114.111 74.24 113.741 74.99 113.611 C 75.99 115.701 77.19 117.721 78.29 119.751 C 79.39 121.781 80.56 123.961 81.77 126.011 C 82.77 127.661 83.77 129.281 84.88 130.841 C 81.53 133.191 77.56 132.171 76.24 131.731 L 76.24 131.681 Z M 90.75 151.311 C 87.58 151.381 85.06 151.631 81.75 151.451 C 81.515 150.356 81.478 149.229 81.64 148.121 C 84.74 150.691 85.98 147.351 85.98 147.351 C 86.67 147.991 90.72 149.861 90.75 151.361 L 90.75 151.311 Z M 130.63 140.811 C 132.88 141.471 136.05 141.041 138.27 140.581 C 138.17 141.411 138.82 144.401 135.15 144.821 C 130.57 145.411 130.83 141.641 130.63 140.861 L 130.63 140.811 Z M 133.71 149.921 C 132.44 150.131 127.4 150.921 127.05 148.791 C 127.43 149.045 127.873 149.187 128.33 149.201 C 130.07 149.341 138.44 147.821 138.91 147.261 C 139.44 149.471 135.08 149.751 133.71 149.971 L 133.71 149.921 Z M 138.91 147.041 C 138.38 147.531 131.5 148.751 130.08 148.861 C 128.66 148.971 126.16 149.191 127.21 147.021 C 127.431 146.585 127.71 146.181 128.04 145.821 C 128.453 146.23 128.891 146.614 129.35 146.971 C 129.47 147.051 129.59 146.911 129.53 146.791 C 129.216 146.286 128.765 145.88 128.23 145.621 C 128.52 145.321 128.85 145.021 129.18 144.741 C 129.38 144.901 130.09 145.681 130.31 145.811 C 130.396 145.862 130.505 145.8 130.506 145.699 C 130.506 145.686 130.504 145.673 130.5 145.661 C 130.278 145.175 129.897 144.78 129.42 144.541 L 130.15 143.951 C 130.68 144.291 131.15 144.711 131.67 145.071 C 131.74 145.071 131.83 145.071 131.78 144.971 C 131.386 144.478 130.887 144.078 130.32 143.801 C 130.518 143.64 130.725 143.489 130.94 143.351 C 132.839 145.831 136.587 145.796 138.44 143.281 C 139.16 144.041 138.91 146.441 138.91 147.091 L 138.91 147.041 Z M 140.66 106.831 C 139.9 116.401 128.76 134.971 128.76 134.971 L 128.76 135.211 C 123 143.571 115.35 148.571 112.38 150.961 C 108.2 149.711 104.44 147.281 100.85 144.861 C 96.987 142.387 93.355 139.569 90 136.441 C 86.807 133.177 84.069 129.497 81.86 125.501 C 79.54 121.501 77.58 117.321 75.16 113.411 C 74.16 111.271 66.29 93.251 65.88 75.221 C 65.971 74.09 65.988 72.954 65.93 71.821 L 66.87 71.741 C 66.932 71.702 66.978 71.641 67 71.571 C 67.113 71.164 67.199 70.749 67.26 70.331 C 68.34 71.085 69.703 71.313 70.97 70.951 C 71.7 70.791 73.5 70.451 73.13 69.341 C 73.244 69.298 73.351 69.241 73.45 69.171 C 73.902 68.94 73.98 68.327 73.6 67.991 C 73.96 67.811 74.12 67.561 73.84 67.211 C 73.537 66.959 73.141 66.846 72.75 66.901 C 72.215 66.894 71.68 66.928 71.15 67.001 C 71.51 66.501 71.7 64.781 71.21 65.081 C 70.761 65.428 70.37 65.843 70.05 66.311 C 69.3 67.171 68.43 67.081 67.41 66.921 C 67.41 66.571 67.41 66.221 67.32 65.921 C 69.333 65.666 71.286 65.06 73.09 64.131 C 75.43 63.131 86.78 57.901 92.7 52.741 C 93.013 53.448 93.608 53.992 94.34 54.241 C 95 54.391 95.12 54.011 95.02 53.531 C 95.327 53.754 95.763 53.605 95.87 53.241 C 95.945 53.034 95.945 52.808 95.87 52.601 C 96.23 52.791 96.49 52.821 96.6 52.391 C 96.674 51.686 96.457 50.982 96 50.441 C 96.71 49.881 97.37 49.271 98.07 48.701 C 99.5 47.561 101.25 48.891 102.68 49.501 C 104.86 50.441 109.32 52.351 109.35 52.311 C 109.286 52.578 109.24 52.848 109.21 53.121 C 109.21 53.491 109 54.201 109.48 54.391 C 109.79 54.511 110.02 54.331 110.18 54.031 C 110.304 54.458 110.803 54.648 111.18 54.411 C 111.256 54.362 111.323 54.301 111.38 54.231 C 111.65 54.671 112.15 54.911 112.56 54.511 C 112.885 54.199 113.12 53.805 113.24 53.371 C 118.324 55.148 123.531 56.552 128.82 57.571 C 131.33 58.041 133.89 58.131 136.4 58.571 C 139.78 59.141 140.51 62.191 140.4 65.171 C 140.156 65.158 139.915 65.118 139.68 65.051 C 139.163 64.891 138.655 64.7 138.16 64.481 C 138.16 64.481 138.1 64.481 138.1 64.541 C 137.999 64.937 138.031 65.355 138.19 65.731 C 138.28 66.024 138.476 66.274 138.74 66.431 C 138.148 66.74 137.621 67.161 137.19 67.671 C 136.9 67.971 136.09 68.671 136.19 69.171 C 136.29 69.671 136.81 69.531 137.19 69.421 C 137.013 69.81 137.303 70.25 137.73 70.241 L 138.04 70.241 C 138.66 70.941 139.56 70.361 140.19 69.951 L 141.02 69.421 C 141.02 71.811 141.39 74.211 141.61 76.591 C 141.77 78.421 141.85 80.281 142.09 82.111 C 142.57 95.851 141.41 97.331 140.66 106.881 L 140.66 106.831 Z M 142.43 82.041 C 142.3 80.041 142.02 78.041 141.85 76.041 C 141.65 73.771 141.57 71.451 141.21 69.201 C 141.983 68.707 142.691 68.119 143.32 67.451 C 143.83 68.261 144.37 69.051 144.85 69.821 C 144.985 69.904 145.134 69.962 145.29 69.991 C 145.11 71.991 146.08 79.681 146.44 82.421 C 144.5 82.361 143.06 82.181 142.43 82.091 L 142.43 82.041 Z M 146.63 82.441 C 146.42 79.661 145.88 71.991 145.63 69.991 C 152.69 69.881 160.19 67.931 165.28 62.881 C 165.39 66.001 166.36 75.341 166.41 76.881 C 166.556 77.85 166.198 78.826 165.46 79.471 C 159.16 82.571 151.44 82.761 146.63 82.491 L 146.63 82.441 Z M 160.63 148.701 C 159.02 149.431 155.78 150.851 154.7 148.821 C 155.265 148.87 155.834 148.816 156.38 148.661 C 159.371 148.084 162.198 146.855 164.66 145.061 C 165.75 146.251 161.26 148.441 160.58 148.751 L 160.63 148.701 Z M 164.56 144.811 C 162.245 146.539 159.567 147.718 156.73 148.261 C 155.84 148.441 154.41 148.791 154.23 147.601 C 154.259 147.161 154.419 146.739 154.69 146.391 C 154.8 146.191 154.93 146.001 155.06 145.811 C 155.421 146.003 155.735 146.273 155.98 146.601 C 156.09 146.681 156.19 146.531 156.15 146.431 C 155.928 146.067 155.595 145.783 155.2 145.621 C 155.39 145.361 155.59 145.111 155.79 144.861 C 156.5 145.151 156.69 145.711 156.9 145.861 C 157.11 146.011 157.08 145.861 157.05 145.751 C 156.798 145.29 156.415 144.915 155.95 144.671 L 156.46 144.051 C 157.22 144.521 157.46 145.131 157.68 145.341 C 157.77 145.411 157.95 145.341 157.9 145.211 C 157.633 144.636 157.206 144.149 156.67 143.811 L 157.2 143.151 C 158.38 145.151 162.92 144.151 163.09 141.851 C 163.66 142.806 164.136 143.814 164.51 144.861 L 164.56 144.811 Z M 162.36 139.251 C 162.56 139.991 164.01 143.141 160.14 143.841 C 157.45 144.331 156.42 141.121 156.36 140.991 C 158.456 140.949 160.505 140.367 162.31 139.301 L 162.36 139.251 Z"/>
  </g>
</svg>