<svg height="190" viewBox="0 0 183.1 190" width="183.1" xmlns="http://www.w3.org/2000/svg">
  <title>Startup</title>
  <g fill="#182b29">
    <path d="M 72.26 64.942 C 72.512 65.243 72.809 65.503 73.14 65.712 C 73.5 65.932 73.14 66.172 73.14 66.282 C 73.126 66.334 73.174 66.382 73.226 66.367 C 73.231 66.366 73.236 66.364 73.24 66.362 C 73.4 66.182 73.72 65.832 73.42 65.622 C 73.12 65.412 72.68 64.992 72.42 64.832 C 72.16 64.672 72.19 64.822 72.26 64.942 Z M 70.34 64.742 C 70.275 64.687 70.176 64.723 70.161 64.806 C 70.158 64.818 70.158 64.83 70.16 64.842 C 70.16 65.002 70.49 65.562 70.64 65.612 C 70.701 65.631 70.765 65.594 70.78 65.532 C 70.699 65.237 70.548 64.966 70.34 64.742 Z M 72.82 62.902 C 72.82 63.042 73.06 63.552 73.18 63.612 C 73.237 63.648 73.313 63.618 73.33 63.552 C 73.33 63.292 73.14 63.032 73.01 62.822 C 72.88 62.612 72.78 62.792 72.82 62.902 Z M 69.28 62.832 C 68.833 63.098 68.637 63.642 68.81 64.132 C 68.81 64.272 69.04 64.212 69.02 64.072 C 69.003 63.681 69.135 63.299 69.39 63.002 C 69.455 62.96 69.45 62.862 69.381 62.827 C 69.349 62.81 69.31 62.812 69.28 62.832 Z M 72.7 68.172 C 72.266 68.566 71.683 68.756 71.1 68.692 C 71.1 68.692 71 68.692 71.03 68.772 C 71.293 69.302 71.838 69.633 72.43 69.622 C 72.5 69.622 72.52 69.522 72.43 69.502 C 71.974 69.371 71.554 69.138 71.2 68.822 C 71.787 68.905 72.377 68.696 72.78 68.262 C 72.796 68.211 72.752 68.162 72.7 68.172 Z M 61.41 39.272 C 61.949 37.744 61.991 36.085 61.53 34.532 C 60.595 32.134 58.489 30.388 55.96 29.912 C 57.28 29.212 57.86 27.162 58.07 25.822 C 58.315 24.21 57.719 22.584 56.49 21.512 C 54.02 19.212 49.04 18.032 46.08 19.942 C 46.026 19.973 46.026 20.05 46.079 20.082 C 46.104 20.096 46.135 20.096 46.16 20.082 C 48.91 18.562 52.48 19.312 55.08 20.832 C 56.703 21.643 57.759 23.27 57.84 25.082 C 57.84 26.632 57.11 29.012 55.67 29.832 L 55.26 29.752 C 55.15 29.752 55.1 29.902 55.26 29.922 C 60.47 31.152 62.4 34.762 61.26 38.772 C 60.77 40.582 59.42 41.272 58.01 42.292 C 57.929 42.338 57.929 42.455 58.009 42.501 C 58.046 42.523 58.092 42.523 58.13 42.502 C 58.473 42.351 58.807 42.181 59.13 41.992 C 60.51 43.992 60.92 47.662 57.95 48.472 C 57.804 47.607 57.579 46.757 57.28 45.932 C 57.28 45.842 57.1 45.872 57.13 45.932 C 57.76 47.932 58.13 50.282 57.21 52.252 C 55.69 55.402 52.28 56.912 50.1 56.522 C 49.994 56.507 49.911 56.612 49.95 56.712 C 51.03 58.712 48.08 60.152 46.51 60.092 C 44.94 60.032 42.65 58.092 42.61 58.192 C 42.29 59.192 42.08 60.482 41.2 61.192 C 40.03 62.192 38.1 61.742 36.76 61.382 C 34.13 60.672 31.76 58.802 31.52 55.942 C 31.52 55.842 31.35 55.842 31.36 55.942 C 31.388 56.32 31.448 56.694 31.54 57.062 C 29.85 59.012 26.13 60.332 23.72 59.282 C 20.67 57.952 17.88 53.362 20.37 50.422 L 20.44 50.422 C 20.517 50.38 20.519 50.27 20.444 50.224 C 20.409 50.203 20.366 50.202 20.33 50.222 C 18.99 50.812 16.71 49.912 15.63 49.172 C 12.72 47.172 13.75 43.602 16.39 41.932 L 16.79 41.932 C 16.9 41.932 16.94 41.742 16.79 41.722 L 16.58 41.722 C 15.071 41.527 13.667 40.846 12.58 39.782 C 11.2 38.411 11.006 36.246 12.12 34.652 C 14.187 30.974 18.402 29.063 22.53 29.932 C 22.53 29.932 22.61 29.932 22.6 29.872 C 22.28 26.872 22.72 23.342 24.87 21.062 C 26.041 19.787 27.734 19.123 29.46 19.262 C 31.33 19.442 32.52 20.742 33.74 22.022 C 33.83 22.112 33.95 22.022 33.88 21.882 C 33.517 21.431 33.13 21.001 32.72 20.592 C 33.15 17.712 36.99 15.702 39.63 15.642 C 42.63 15.582 44.35 17.532 46.03 19.702 C 46.13 19.822 46.34 19.702 46.25 19.532 C 44.46 16.932 42.15 14.942 38.79 15.402 C 36.37 15.742 32.92 17.772 32.56 20.402 C 31.73 19.617 30.666 19.125 29.53 19.002 C 25.77 18.632 21.6 22.292 22.53 29.822 C 18.005 28.782 13.382 31.114 11.53 35.372 C 10.07 38.522 13.01 41.652 16.14 42.062 C 13.58 43.392 12.55 46.802 14.72 48.992 C 15.72 49.992 18.37 51.312 20.02 50.762 C 17.71 53.532 20.3 57.692 22.88 59.362 C 24.59 60.472 26.54 60.202 28.38 59.562 C 29.628 59.185 30.729 58.431 31.53 57.402 C 32.442 59.76 34.52 61.47 37.01 61.912 C 38.33 62.232 40.01 62.562 41.2 61.682 C 42.089 60.867 42.636 59.745 42.73 58.542 C 44.032 60.217 46.262 60.866 48.26 60.152 C 49.51 59.652 50.99 58.252 50.17 56.882 C 51.79 57.302 53.94 56.222 55.17 55.282 C 56.217 54.43 57.029 53.325 57.53 52.072 C 57.932 50.979 58.042 49.8 57.85 48.652 C 60.11 48.462 61.49 45.152 59.17 41.892 C 60.186 41.291 60.974 40.369 61.41 39.272 Z"/>
    <path d="M 45.15 44.002 C 44.895 43.445 44.259 43.172 43.68 43.372 C 42.78 42.142 43.96 40.852 44.44 39.722 C 45.351 37.907 45.321 35.761 44.36 33.972 C 42.67 31.362 39.14 31.482 36.56 32.502 C 33.56 33.672 32.22 35.832 31.79 38.952 C 31.514 40.26 31.781 41.624 32.53 42.732 C 33.71 44.212 37.24 43.852 37.15 46.142 C 37.06 46.212 36.98 46.292 36.91 46.382 C 36.11 47.382 37.18 47.912 38.1 47.952 C 37.834 48.524 38.074 49.204 38.64 49.482 C 39.152 49.729 39.744 49.748 40.27 49.532 C 40.88 51.432 44.27 49.932 43.46 48.152 C 45.01 47.312 44.96 46.002 44.18 45.602 C 44.77 45.152 45.4 44.592 45.15 44.002 Z M 36.15 44.252 C 34.53 43.442 32.72 43.512 32.15 41.412 C 31.833 39.752 32.021 38.034 32.69 36.482 C 33.354 34.759 34.745 33.416 36.49 32.812 C 39.88 31.422 44.71 32.042 44.84 36.572 C 44.93 39.812 42.04 41.632 43.38 43.522 L 41.84 44.232 C 42 42.342 42.1 40.452 42.21 38.572 C 42.21 38.442 42.03 38.452 42.02 38.572 C 41.96 39.342 42.02 39.202 41.94 39.242 C 41.33 39.832 40.58 39.302 39.94 39.732 C 39.61 39.962 39.72 40.062 39.27 40.122 C 38.82 40.182 38.87 40.012 38.49 39.902 C 37.85 39.712 37.44 40.312 36.95 40.672 C 36.747 40.827 36.494 40.898 36.24 40.872 C 36.02 40.592 35.83 40.342 35.6 40.062 C 35.53 39.972 35.39 40.062 35.44 40.182 C 36.506 42.02 37.756 43.746 39.17 45.332 C 38.582 45.516 38.007 45.74 37.45 46.002 C 37.418 45.192 36.901 44.481 36.14 44.202 Z M 41.54 44.362 C 40.87 44.662 40.19 44.962 39.54 45.222 C 38.54 43.812 37.47 42.392 36.4 41.012 C 37.03 41.012 37.72 40.152 38.05 40.072 C 38.59 39.942 38.94 40.702 39.6 40.412 C 40.04 40.212 39.87 40.092 40.51 39.932 C 41.015 39.886 41.509 39.754 41.97 39.542 C 41.77 41.102 41.63 42.702 41.53 44.312 Z M 42.14 50.002 C 41.533 50.286 40.809 50.082 40.44 49.522 C 40.98 49.332 42.76 48.522 43.19 48.332 C 43.53 49.112 42.83 49.692 42.14 50.002 Z M 43.06 48.002 C 42.65 48.212 38.15 50.282 38.3 48.002 C 38.443 48.013 38.587 48.013 38.73 48.002 C 40.603 47.661 42.386 46.939 43.97 45.882 C 45.71 46.512 43.53 47.772 43.06 48.002 Z M 42.58 46.242 C 41.336 46.877 40.01 47.338 38.64 47.612 C 38.368 47.695 38.082 47.719 37.8 47.682 C 37.1 47.502 37.24 46.492 37.8 46.132 C 38.36 45.772 42.6 44.252 43.87 43.472 C 46.29 43.892 43.44 45.792 42.58 46.242 Z M 49.03 25.852 C 47.929 27.428 46.927 29.072 46.03 30.772 C 46.002 30.86 46.081 30.945 46.171 30.925 C 46.193 30.92 46.214 30.908 46.23 30.892 C 47.23 29.292 48.15 27.582 49.14 25.942 C 49.24 25.852 49.09 25.762 49.03 25.852 Z M 38.53 28.692 C 39.069 26.481 39.311 24.207 39.25 21.932 C 39.274 21.859 39.21 21.787 39.135 21.803 C 39.076 21.815 39.041 21.875 39.06 21.932 C 38.91 24.192 38.61 26.422 38.36 28.672 C 38.38 28.772 38.53 28.792 38.53 28.692 Z M 28.71 33.392 C 28.78 33.492 28.96 33.392 28.89 33.282 C 27.738 31.42 26.397 29.681 24.89 28.092 C 24.81 28.012 24.69 28.092 24.76 28.222 C 26.19 29.862 27.42 31.642 28.71 33.392 Z M 26.09 40.072 C 23.97 39.172 21.76 38.452 19.59 37.702 C 19.44 37.652 19.39 37.872 19.52 37.932 C 21.66 38.752 23.8 39.622 25.99 40.302 C 26.13 40.332 26.22 40.122 26.09 40.072 Z M 30.29 47.832 C 29.05 48.772 27.92 49.892 26.72 50.882 C 26.61 50.972 26.72 51.172 26.88 51.082 C 28.158 50.196 29.35 49.192 30.44 48.082 C 30.53 47.932 30.41 47.742 30.29 47.832 Z M 51.99 41.002 C 50.82 40.642 49.61 40.402 48.45 40.002 C 48.361 39.975 48.277 40.054 48.298 40.144 C 48.308 40.186 48.339 40.219 48.38 40.232 C 49.532 40.688 50.733 41.007 51.96 41.182 C 52.08 41.242 52.1 41.052 51.99 41.002 Z M 39.02 145.662 C 39.02 145.662 26.97 143.332 19.32 155.522 C 19.32 155.522 30.08 152.012 27.22 156.812 C 27.22 156.812 15.55 160.132 11.8 169.392 C 11.8 169.392 19.71 166.282 15.8 170.392 L 0 190.002 C 0 190.002 26 177.092 23.34 183.652 C 21.92 187.142 19.51 187.932 19.51 187.932 C 19.51 187.932 29.59 190.712 36.95 180.152 C 42.37 172.362 45.76 181.052 40.58 183.152 C 40.58 183.152 51.47 186.652 52.12 175.502 C 52.12 175.482 40.73 165.472 39.02 145.662 Z M 30.53 68.512 C 30.475 67.399 30.355 66.291 30.17 65.192 C 30.17 65.022 29.89 65.072 29.89 65.192 C 29.832 66.311 29.909 67.432 30.12 68.532 C 30.162 68.688 30.357 68.74 30.471 68.626 C 30.502 68.595 30.523 68.555 30.53 68.512 Z M 30.62 71.242 C 30.62 71.062 30.32 71.112 30.31 71.242 C 30.287 72.434 30.397 73.625 30.64 74.792 C 30.676 74.849 30.744 74.877 30.81 74.862 C 31.18 74.792 30.79 72.082 30.62 71.242 Z M 34.29 69.702 C 33.281 69.699 32.275 69.806 31.29 70.022 C 31.2 70.022 31.17 70.232 31.29 70.252 C 32.295 70.285 33.301 70.208 34.29 70.022 C 34.413 70.022 34.49 69.889 34.429 69.782 C 34.4 69.732 34.347 69.702 34.29 69.702 Z M 29.31 69.882 C 28.254 69.822 27.195 69.872 26.15 70.032 C 26.061 70.058 26.035 70.171 26.102 70.234 C 26.115 70.247 26.132 70.257 26.15 70.262 C 27.2 70.382 28.26 70.382 29.31 70.262 C 29.456 70.214 29.496 70.026 29.381 69.923 C 29.36 69.905 29.336 69.891 29.31 69.882 Z M 172.87 28.352 C 172.822 27.23 172.709 26.111 172.53 25.002 C 172.53 24.842 172.25 24.892 172.25 25.002 C 172.191 26.121 172.268 27.242 172.48 28.342 C 172.536 28.494 172.735 28.528 172.838 28.403 C 172.851 28.388 172.862 28.371 172.87 28.352 Z M 173 31.082 C 173 30.902 172.7 30.962 172.69 31.082 C 172.666 32.274 172.776 33.465 173.02 34.632 C 173.054 34.691 173.124 34.72 173.19 34.702 C 173.53 34.632 173.17 31.932 173 31.082 Z M 176.71 29.872 C 176.833 29.853 176.889 29.707 176.811 29.61 C 176.775 29.565 176.717 29.543 176.66 29.552 C 175.651 29.548 174.645 29.656 173.66 29.872 C 173.57 29.872 173.54 30.082 173.66 30.102 C 174.682 30.134 175.704 30.056 176.71 29.872 Z M 171.69 29.732 C 170.634 29.662 169.574 29.712 168.53 29.882 C 168.43 29.882 168.42 30.082 168.53 30.102 C 169.58 30.227 170.64 30.227 171.69 30.102 C 171.832 30.044 171.858 29.853 171.736 29.759 C 171.722 29.748 171.707 29.739 171.69 29.732 Z M 179.1 150.792 C 179.049 149.679 178.932 148.571 178.75 147.472 C 178.75 147.302 178.47 147.352 178.46 147.472 C 178.405 148.588 178.485 149.706 178.7 150.802 C 178.704 150.956 178.873 151.048 179.004 150.968 C 179.065 150.93 179.102 150.863 179.1 150.792 Z M 179.24 153.522 C 179.24 153.332 178.94 153.392 178.93 153.522 C 178.897 154.714 179.007 155.906 179.26 157.072 C 179.291 157.129 179.359 157.155 179.42 157.132 C 179.79 157.062 179.41 154.362 179.24 153.522 Z M 182.9 152.002 C 181.891 151.998 180.885 152.105 179.9 152.322 C 179.8 152.322 179.78 152.532 179.9 152.552 C 180.905 152.586 181.911 152.509 182.9 152.322 C 183.023 152.322 183.1 152.189 183.039 152.082 C 183.01 152.032 182.957 152.002 182.9 152.002 Z M 177.92 152.162 C 176.868 152.097 175.811 152.147 174.77 152.312 C 174.685 152.312 174.632 152.404 174.675 152.477 C 174.694 152.511 174.731 152.532 174.77 152.532 C 175.816 152.657 176.874 152.657 177.92 152.532 C 178.062 152.474 178.088 152.283 177.966 152.189 C 177.952 152.178 177.937 152.169 177.92 152.162 Z M 20.53 100.562 C 18.838 98.668 17.013 96.897 15.07 95.262 C 15.007 95.207 14.907 95.24 14.89 95.322 C 14.8 95.442 14.19 99.452 13.82 103.322 C 13.82 103.382 13.95 103.432 13.97 103.422 C 16.19 102.712 18.38 101.822 20.52 100.902 C 20.65 100.852 20.6 100.602 20.53 100.562 Z M 14.04 103.172 C 14.5 100.642 14.75 98.042 15.04 95.492 C 16.04 96.592 17.19 97.592 18.25 98.652 C 18.91 99.332 19.56 100.032 20.25 100.652 C 18.2 101.542 16.13 102.332 14.07 103.172 Z M 165.99 25.252 C 165.48 23.182 164.84 20.822 164.14 18.812 C 164.14 18.692 161.26 22.012 159.95 23.472 C 159.911 23.514 159.911 23.58 159.95 23.622 C 159.95 23.622 163.82 24.962 165.75 25.512 C 165.88 25.542 166.01 25.312 165.99 25.252 Z M 160.21 23.502 C 161.563 22.162 162.835 20.743 164.02 19.252 C 164.42 21.252 165.02 23.252 165.65 25.142 C 163.83 24.612 162.03 24.002 160.21 23.502 Z M 12.78 8.822 C 12.052 8.479 11.186 8.64 10.63 9.222 C 10.141 10.086 10.387 11.181 11.2 11.752 C 12.96 13.002 15.18 9.902 12.78 8.822 Z M 13.21 11.002 C 12.774 11.894 11.536 11.98 10.981 11.157 C 10.967 11.136 10.953 11.114 10.94 11.092 C 10.406 10.472 10.553 9.521 11.25 9.092 C 11.71 8.916 12.22 8.916 12.68 9.092 C 12.94 9.199 13.16 9.384 13.31 9.622 C 13.585 10.054 13.544 10.614 13.21 11.002 Z M 177.95 18.132 C 179.68 19.352 181.95 16.362 179.53 15.202 C 178.796 14.931 177.972 15.08 177.38 15.592 C 176.858 16.455 177.11 17.575 177.95 18.132 Z M 178 15.462 C 178.462 15.275 178.978 15.275 179.44 15.462 C 179.679 15.593 179.89 15.77 180.06 15.982 C 180.338 16.419 180.301 16.985 179.97 17.382 C 179.525 18.278 178.277 18.357 177.723 17.524 C 177.711 17.507 177.701 17.49 177.69 17.472 C 177.156 16.849 177.303 15.896 178 15.462 Z M 168.02 160.122 C 167.55 159.962 166.32 159.912 165.86 160.512 C 165.336 161.373 165.593 162.495 166.44 163.042 C 167.3 163.612 168.466 163.262 168.87 162.312 C 169.386 161.481 168.961 160.387 168.02 160.122 Z M 168.45 162.282 C 168.005 163.178 166.757 163.257 166.203 162.424 C 166.191 162.407 166.181 162.39 166.17 162.372 C 165.658 161.746 165.802 160.814 166.48 160.372 C 166.947 160.211 167.453 160.211 167.92 160.372 C 168.177 160.478 168.397 160.659 168.55 160.892 C 168.814 161.33 168.774 161.886 168.45 162.282 Z M 134.63 117.122 C 134.861 116.931 135.043 116.688 135.16 116.412 C 135.24 116.282 135.05 116.172 134.96 116.292 C 134.761 116.501 134.607 116.75 134.51 117.022 C 134.53 117.092 134.53 117.162 134.63 117.122 Z M 135.53 48.732 C 135.565 48.809 135.671 48.819 135.72 48.75 C 135.724 48.744 135.727 48.738 135.73 48.732 C 135.793 48.343 135.776 47.945 135.68 47.562 C 135.66 47.512 135.593 47.502 135.56 47.545 C 135.556 47.55 135.552 47.556 135.55 47.562 C 135.469 47.947 135.462 48.344 135.53 48.732 Z M 136.31 46.052 C 135.772 46.143 135.289 46.437 134.96 46.872 C 134.89 46.952 134.96 47.072 135.08 46.992 C 135.467 46.674 135.894 46.409 136.35 46.202 C 136.404 46.172 136.405 46.095 136.353 46.063 C 136.34 46.056 136.325 46.052 136.31 46.052 Z"/>
    <path d="M 171.86 96.252 C 171.323 94.96 170.503 93.805 169.46 92.872 C 169.46 92.872 171.18 89.342 169.56 86.812 C 168.447 85.252 166.476 84.556 164.63 85.072 C 164.52 84.222 164.4 83.382 164.26 82.542 C 164.242 82.468 164.177 82.414 164.1 82.412 C 162.27 82.602 158.67 82.962 158.67 82.912 C 158.67 82.502 158.38 80.782 158.33 80.322 C 158.74 80.602 159.33 80.702 159.74 80.992 C 159.81 81.042 160 80.902 160.02 80.862 C 161.33 78.572 166.84 64.692 166.78 64.622 C 166.207 64.213 165.586 63.877 164.93 63.622 C 164.84 63.622 160.71 74.622 158.03 79.812 C 154.28 80.282 150.39 80.422 146.68 81.122 C 147.118 80.866 147.466 80.482 147.68 80.022 C 148.133 80.48 148.796 80.663 149.42 80.502 C 149.882 80.385 150.313 80.166 150.68 79.862 C 151.45 79.312 152.78 80.052 152.87 80.012 C 153.96 79.552 152.21 78.242 151.87 78.012 C 151.53 77.782 151.08 77.122 150.48 77.182 C 149.561 77.452 148.705 77.9 147.96 78.502 L 147.96 78.572 C 148.81 78.232 149.67 77.572 150.57 77.692 C 151.26 77.772 151.4 78.002 151.87 78.452 C 151.98 78.562 152.78 79.202 152.79 79.572 C 152.795 79.664 152.698 79.727 152.616 79.685 C 152.614 79.684 152.612 79.683 152.61 79.682 C 152.211 79.323 151.685 79.139 151.15 79.172 C 150.72 79.292 150.35 79.822 149.94 80.042 C 149.227 80.446 148.345 80.407 147.67 79.942 C 147.79 79.542 147.861 79.129 147.88 78.712 C 147.96 77.712 147.83 77.372 146.95 76.972 C 143.41 75.322 135.15 71.402 134.65 71.082 C 133.84 70.582 131.44 59.212 130.65 56.532 C 131.039 55.659 131.577 54.861 132.24 54.172 C 133.366 55.117 134.688 55.801 136.11 56.172 C 136.11 56.172 137.17 56.632 137.04 54.832 C 136.955 54.081 136.955 53.323 137.04 52.572 C 139.689 51.432 142.273 50.146 144.78 48.722 C 144.824 48.69 144.824 48.624 144.78 48.592 C 144.78 48.462 128.15 0.272 127.71 0.022 C 127.679 -0.007 127.631 -0.007 127.6 0.022 C 120.04 2.692 67.3 22.222 64.53 23.552 C 64.35 23.622 72.33 45.472 80.12 66.612 C 78.244 68.009 76.42 69.473 74.65 71.002 C 74.52 70.752 74.21 70.282 74.14 70.132 C 75.029 69.721 75.58 68.811 75.53 67.832 C 75.385 66.481 74.896 65.19 74.11 64.082 L 74.92 63.542 C 74.959 63.5 74.959 63.434 74.92 63.392 C 74.62 62.782 74.31 62.172 73.92 61.582 C 73.883 61.55 73.827 61.55 73.79 61.582 C 73.46 61.762 73.13 61.942 72.79 62.142 C 72.628 61.459 72.283 60.833 71.79 60.332 C 72.779 60.233 73.775 60.442 74.64 60.932 C 74.64 60.932 72.57 55.712 66.86 56.292 C 67.738 56.044 68.659 55.99 69.56 56.132 C 69.56 56.132 68.9 55.132 66.35 55.412 C 62.69 55.742 61.08 58.022 61.24 59.522 C 60.99 58.986 60.99 58.368 61.24 57.832 C 61.24 57.832 58.97 59.082 59.55 62.502 C 59.55 62.502 59.71 64.392 61.12 64.262 L 66.73 62.482 C 67.724 62.137 68.646 61.611 69.45 60.932 C 70.12 60.622 70.836 60.422 71.57 60.342 C 71.866 60.758 72.117 61.204 72.32 61.672 C 72.105 61.518 71.815 61.518 71.6 61.672 C 71.53 61.733 71.552 61.846 71.64 61.876 C 71.656 61.882 71.673 61.884 71.69 61.882 L 72.27 61.882 C 72.322 61.865 72.358 61.817 72.36 61.762 L 72.56 62.212 C 72.18 62.442 71.81 62.682 71.47 62.932 C 71.635 63.379 71.856 63.802 72.13 64.192 C 71.759 64.138 71.424 64.418 71.41 64.792 C 71.19 64.382 70.98 63.972 70.73 63.572 C 70.693 63.54 70.637 63.54 70.6 63.572 C 69.882 63.963 69.191 64.401 68.53 64.882 C 68.824 65.56 69.197 66.201 69.64 66.792 C 69.687 66.829 69.753 66.829 69.8 66.792 C 70.48 66.352 71.16 65.912 71.8 65.462 C 71.837 65.415 71.837 65.349 71.8 65.302 C 71.735 65.169 71.678 65.032 71.63 64.892 C 71.6 64.647 71.734 64.412 71.96 64.312 C 72.106 64.278 72.259 64.299 72.39 64.372 C 72.49 64.502 72.58 64.642 72.69 64.772 C 72.724 64.825 72.792 64.847 72.85 64.822 L 73.93 64.122 C 74.401 64.923 74.761 65.784 75 66.682 C 75.494 68.02 74.926 69.517 73.67 70.192 C 73.628 70.215 73.626 70.275 73.667 70.3 C 73.686 70.312 73.71 70.313 73.73 70.302 L 74.01 70.142 C 74.131 70.496 74.299 70.833 74.51 71.142 L 74.72 71.142 L 75.14 70.832 C 75.29 72.442 75.6 74.032 75.78 75.632 C 73.39 76.102 70.97 76.442 68.56 76.832 L 69.1 76.212 C 69.16 76.142 69.1 76.092 69.1 76.002 C 66.38 71.402 66.94 70.332 66.94 70.332 C 64.06 70.132 64.81 68.262 64.81 68.262 C 65.579 67.426 66.922 67.503 67.59 68.422 C 67.59 68.422 68.99 67.422 68.59 67.322 C 68.19 67.222 66.19 63.462 66.19 63.462 C 65.76 63.292 62.07 64.462 62.07 64.462 C 59.9 64.942 60.8 66.692 60.8 66.692 C 62.91 72.062 66 72.232 66.6 72.212 C 67.36 73.512 68.26 74.692 68.91 76.062 C 66.346 78.706 64.495 81.957 63.53 85.512 C 62.36 89.712 62.53 94.212 62.32 98.512 C 62.333 98.607 62.388 98.692 62.47 98.742 C 62.87 98.872 63.27 99.002 63.68 99.112 C 63.577 102.152 63.684 105.196 64 108.222 C 64.163 111.023 64.497 113.812 65 116.572 C 60.52 114.572 53.31 113.732 44 120.092 C 27.67 131.262 24.53 138.782 24.53 138.782 C 24.53 138.782 23.12 141.392 26.35 140.882 L 44.27 138.062 C 44.27 138.442 44.21 138.822 44.19 139.202 C 40.93 140.042 39.88 143.202 40.06 146.202 C 40.809 157.227 45.832 167.525 54.06 174.902 C 56.56 177.092 60.23 178.902 63.25 176.552 C 63.92 177.032 64.62 177.492 65.34 177.932 C 62.65 181.192 59.01 184.772 55.24 186.022 C 55.24 186.022 51.53 188.442 57.49 189.392 C 62.84 190.252 81.49 189.982 91.37 172.542 C 118.536 160.254 142.717 142.228 162.25 119.702 C 167.6 113.552 175.65 105.162 171.86 96.252 Z M 164.99 63.942 C 165.26 64.092 166.28 64.662 166.53 64.742 C 165.21 67.402 161.24 78.382 159.85 80.742 C 159.85 80.742 158.59 80.102 158.34 79.952 C 159.59 77.462 164.22 66.802 164.99 63.942 Z M 71.53 65.232 C 71.53 65.532 71.07 65.692 70.84 65.842 C 70.584 66.039 70.313 66.216 70.03 66.372 C 69.8 66.462 69.73 66.532 69.5 66.322 C 69.188 65.909 68.917 65.467 68.69 65.002 C 69.26 64.732 69.8 64.382 70.34 64.062 C 70.69 63.852 70.8 63.832 71.01 64.202 C 71.22 64.572 71.58 65.002 71.53 65.232 Z M 73.13 64.402 C 72.91 64.492 72.84 64.562 72.61 64.352 C 72.293 63.932 72.021 63.48 71.8 63.002 C 72.36 62.732 72.9 62.382 73.44 62.062 C 73.8 61.842 73.9 61.822 74.12 62.192 C 74.34 62.562 74.7 63.052 74.67 63.292 C 74.64 63.532 74.22 63.752 73.99 63.902 C 73.724 64.091 73.443 64.258 73.15 64.402 Z M 169.13 87.272 C 169.974 88.917 169.944 90.874 169.05 92.492 L 169.05 92.542 C 167.85 91.651 166.455 91.062 164.98 90.822 C 165.002 89.027 164.898 87.233 164.67 85.452 C 166.42 85.412 168.18 85.622 169.16 87.272 Z M 163.92 82.732 C 163.92 82.732 164.59 88.512 164.64 90.732 C 163.046 90.509 161.44 90.378 159.83 90.342 C 154.649 90.266 149.469 90.52 144.32 91.102 C 144.26 90.102 143.55 85.832 143.71 84.932 C 143.82 85.002 163.76 82.732 163.95 82.732 Z M 139.29 82.672 C 140.49 82.645 141.687 82.528 142.87 82.322 C 143.43 82.232 144.09 82.122 144.75 81.952 C 144.835 82.821 145.009 83.679 145.27 84.512 L 143.55 84.692 C 143.47 84.692 143.38 84.752 143.39 84.842 C 143.63 86.942 143.78 89.072 144.15 91.152 C 143.15 91.302 142.15 91.462 141.15 91.642 C 141.63 89.642 142.41 84.822 139.32 82.672 Z M 157.93 80.152 C 157.994 81.108 158.165 82.054 158.44 82.972 C 158.44 82.972 149.88 83.972 145.57 84.472 C 145.433 83.596 145.236 82.731 144.98 81.882 C 145.359 81.776 145.73 81.642 146.09 81.482 C 150.06 81.322 154.05 80.642 157.96 80.152 Z M 133.79 70.562 C 133.99 71.046 134.398 71.414 134.9 71.562 C 136.48 72.252 145.9 76.852 146.56 77.162 C 147.346 77.398 147.793 78.225 147.56 79.012 C 147.32 81.122 145.25 81.622 143.43 81.952 C 141.888 82.27 140.314 82.411 138.74 82.372 C 137.154 81.663 135.392 81.444 133.68 81.742 C 128.34 79.912 123.77 76.382 121.58 70.902 C 120.193 67.743 120.015 64.184 121.08 60.902 C 122.52 57.162 126.58 54.792 130.35 56.832 C 130.39 56.792 133.27 69.242 133.82 70.562 Z M 132.69 116.222 C 133.019 116.027 133.299 115.76 133.51 115.442 C 133.58 115.494 133.653 115.541 133.73 115.582 C 133.494 115.821 133.295 116.094 133.14 116.392 C 133.126 116.476 133.208 116.543 133.287 116.513 C 133.288 116.513 133.289 116.512 133.29 116.512 C 133.539 116.271 133.751 115.994 133.92 115.692 L 134.3 115.892 C 134.062 116.19 133.845 116.504 133.65 116.832 C 133.626 116.913 133.699 116.99 133.782 116.97 C 133.795 116.966 133.808 116.96 133.82 116.952 C 134.11 116.658 134.353 116.321 134.54 115.952 C 135.39 116.362 136.3 116.812 136.46 117.642 C 133.834 118.229 131.151 118.527 128.46 118.532 C 128.272 117.708 128.248 116.855 128.39 116.022 C 128.6 115.192 128.74 115.602 129.28 115.872 C 129.855 116.146 130.518 116.167 131.11 115.932 C 131.49 115.782 131.94 114.992 132.61 114.932 C 132.889 114.907 133.163 115.014 133.35 115.222 C 133.034 115.437 132.771 115.721 132.58 116.052 C 132.6 116.182 132.66 116.252 132.72 116.222 Z M 134.17 115.342 C 134.1 114.452 133.63 113.532 134.32 113.642 C 134.81 113.722 134.64 114.432 134.51 114.722 C 134.38 115.012 134.29 115.122 134.2 115.342 Z M 135.31 114.752 C 135.49 114.752 136.16 114.652 135.96 114.992 C 135.76 115.332 134.96 115.202 134.47 115.292 C 134.7 115.029 135.003 114.841 135.34 114.752 Z M 132.02 114.822 C 131.338 115.974 129.778 116.223 128.77 115.342 C 128.77 115.342 128.41 113.842 128.22 113.142 L 132.3 113.142 C 132.3 113.302 132.05 114.822 132.05 114.822 Z M 130.53 82.342 C 115.85 86.342 107.53 81.592 107.05 81.342 C 106.789 81.081 106.548 80.8 106.33 80.502 C 105.773 79.608 105.58 78.534 105.79 77.502 C 107.15 68.582 113.27 58.772 121.5 54.502 C 124.45 52.982 129.01 52.702 130.31 56.432 C 127.42 54.832 124.04 56.052 122.11 58.612 C 119.87 61.612 119.75 65.682 120.68 69.152 C 122.431 75.069 126.924 79.78 132.75 81.812 C 132.06 82.002 131.32 82.132 130.53 82.342 Z M 99.08 120.342 C 97.021 122.677 95.803 125.634 95.62 128.742 C 95.485 133.1 98.067 137.085 102.1 138.742 C 110.27 141.742 119.81 135.092 118.17 126.102 C 117.247 121.564 113.611 118.071 109.04 117.332 L 108.87 114.562 C 113.39 114.562 117.76 117.562 119.95 121.462 C 122.708 126.81 121.799 133.315 117.68 137.702 C 112.33 143.312 101.68 144.652 96.34 138.442 C 91.089 132.123 91.797 122.778 97.94 117.322 Z M 110.14 127.912 L 109.88 127.912 L 109.81 126.092 C 109.81 126.092 110.01 125.512 109.23 125.602 C 108.95 125.602 108.66 125.692 108.39 125.752 C 108.26 124.932 108.06 124.122 107.88 123.302 C 108.4 123.011 108.896 122.676 109.36 122.302 L 109.07 117.782 C 113.06 118.473 116.331 121.331 117.55 125.192 C 120 133.122 112.44 140.892 103.41 138.762 C 99.106 137.603 96.066 133.767 95.92 129.312 C 95.988 126.133 97.142 123.074 99.19 120.642 L 100.89 125.062 C 100.89 125.062 101.35 125.062 102.09 124.992 C 103.85 128.402 103.46 131.102 104.17 131.932 C 107.183 131.937 110.166 131.321 112.93 130.122 C 112.93 130.122 114.47 128.342 110.13 127.892 Z M 107.99 125.852 L 107.47 125.982 C 107.47 125.982 107.05 126.112 107.39 126.632 C 107.72 127.21 108.007 127.812 108.25 128.432 C 108.25 128.432 106.25 129.432 105.45 128.762 C 104.95 128.367 104.312 128.191 103.68 128.272 C 103.28 127.152 102.82 126.052 102.34 124.962 C 104.129 124.613 105.885 124.114 107.59 123.472 C 107.654 124.268 107.785 125.057 107.98 125.832 Z M 103.12 91.502 C 101.27 89.682 97.12 90.652 92.38 92.702 C 91.424 88.314 89.862 84.08 87.74 80.122 C 87.74 80.122 92.04 76.712 92.23 75.692 C 91.944 74.889 91.61 74.105 91.23 73.342 C 91.662 72.342 92.043 71.321 92.37 70.282 C 99.077 67.542 105.773 64.762 112.46 61.942 C 109.809 65.281 107.814 69.091 106.58 73.172 C 106.082 74.705 105.73 76.282 105.53 77.882 C 105.38 79.224 105.891 80.555 106.9 81.452 C 102.11 87.112 109.37 95.172 109.37 95.172 C 110.898 96.637 112.881 97.536 114.99 97.722 L 112.67 98.332 C 110.77 98.822 108.84 99.332 106.95 99.872 C 105.29 93.822 103.12 91.502 103.12 91.502 Z M 91.12 49.502 L 91.32 49.452 L 90.32 51.582 C 90.32 51.582 90.32 52.282 91.12 51.932 L 91.98 50.542 C 92.141 50.725 92.377 50.824 92.62 50.812 C 92.51 51.202 91.86 51.362 91.85 51.392 C 91.11 55.552 92.5 59.742 92.56 63.912 C 92.56 66.912 92.49 70.382 91.04 73.122 C 90.26 71.692 85.74 64.652 85.36 64.302 C 85.77 58.802 88.97 53.762 88.98 50.302 C 88.98 49.162 89.29 48.152 90.55 48.142 C 90.842 48.114 91.136 48.138 91.42 48.212 C 91.95 48.482 91.51 49.152 91.01 49.292 C 90.984 49.365 91.033 49.444 91.11 49.452 Z M 92.97 49.002 C 93.39 49.054 93.816 49.016 94.22 48.892 C 94.22 48.892 94.74 49.402 93.8 49.682 C 93.561 49.76 93.311 49.794 93.06 49.782 C 92.82 49.782 92.4 49.782 92.42 49.482 C 92.44 49.182 92.75 49.002 92.96 49.002 Z M 94.53 48.002 C 94.654 48.1 94.689 48.274 94.61 48.412 C 94.38 48.812 92.61 49.012 92.51 48.582 C 92.41 48.152 94.13 47.692 94.53 48.002 Z M 92.53 49.892 C 92.949 49.977 93.381 49.977 93.8 49.892 C 94.25 50.312 93.04 50.602 92.8 50.622 C 92.687 50.637 92.573 50.637 92.46 50.622 C 92.278 50.588 92.147 50.427 92.15 50.242 C 92.19 50.062 92.45 49.942 92.53 49.872 Z M 135.88 52.772 C 135.75 53.042 135.33 52.972 135.14 52.842 C 134.917 52.697 134.785 52.448 134.79 52.182 C 134.79 52.082 134.99 52.022 134.99 52.182 C 134.99 52.342 135.38 52.882 135.75 52.602 C 135.86 52.462 135.94 52.652 135.9 52.752 Z M 137.02 51.452 C 136.957 51.388 136.878 51.342 136.79 51.322 C 135.868 50.915 134.792 51.109 134.07 51.812 C 133.16 52.812 132.47 49.032 132.47 49.032 L 132.36 48.102 L 130.98 48.212 C 130.743 49.423 130.432 50.619 130.05 51.792 C 129.92 52.012 130.79 53.032 132.05 54.052 C 131.361 54.57 130.82 55.26 130.48 56.052 C 129.54 54.099 127.489 52.932 125.33 53.122 C 126.12 52.272 126.97 50.832 126.78 49.892 C 127.412 49.667 127.974 49.281 128.41 48.772 C 128.57 48.497 128.63 48.176 128.58 47.862 C 128.486 47.315 128.726 46.765 129.19 46.462 C 130.013 46.078 130.943 46.73 130.864 47.635 C 130.863 47.647 130.861 47.66 130.86 47.672 C 130.86 47.792 131.86 47.672 132.38 47.672 C 132.51 47.672 132.76 45.272 134.9 44.722 C 135.798 45.445 137.023 45.611 138.08 45.152 C 138.046 45.944 137.955 46.733 137.81 47.512 C 137.662 48.001 137.542 48.499 137.45 49.002 C 137.482 49.368 137.549 49.729 137.65 50.082 C 137.8 51.002 137.53 51.002 137.04 51.432 Z M 132.33 47.332 C 132.321 47.354 132.321 47.38 132.33 47.402 C 132.19 47.402 131.45 47.502 131.04 47.542 C 131.134 46.522 130.089 45.784 129.159 46.212 C 129.071 46.253 128.987 46.303 128.91 46.362 C 128.35 46.812 128.44 47.272 128.39 47.902 C 128.32 48.972 127.5 49.292 126.73 49.772 C 126.63 48.572 125.88 47.772 126.12 45.352 C 126.98 44.002 128.49 42.352 130.64 42.572 C 133.29 42.872 134.11 43.742 134.34 44.162 C 134.436 44.318 134.55 44.462 134.68 44.592 C 133.388 44.885 132.441 45.99 132.35 47.312 Z M 64.68 23.582 C 71.96 21.132 124.53 1.362 127.68 0.252 C 130.51 8.552 141.99 40.752 144.63 48.652 C 143.63 49.122 138.87 51.462 137.17 52.382 C 137.231 52.136 137.231 51.878 137.17 51.632 C 138.31 51.122 138.17 50.932 137.91 49.812 C 137.6 48.532 138.48 47.502 138.3 45.032 C 138.44 44.944 138.573 44.847 138.7 44.742 C 140.82 42.932 138.44 37.482 133.7 37.362 C 133.7 37.362 135.17 38.222 134.82 39.022 C 134.82 39.022 130.09 35.802 124.88 42.412 C 124.88 42.412 126.01 41.632 126.61 41.722 C 125.468 43.228 125.008 45.142 125.34 47.002 C 125.453 46.714 125.583 46.434 125.73 46.162 C 125.708 46.861 125.796 47.56 125.99 48.232 C 126.17 48.872 127.23 50.562 125.06 53.142 L 124.59 53.142 C 121.59 53.562 118.92 55.592 116.69 57.502 C 115.276 58.719 113.971 60.058 112.79 61.502 C 106.03 64.332 99.23 67.122 92.48 69.992 C 92.54 69.782 92.58 69.582 92.62 69.412 C 93.88 62.842 91.92 57.342 92.1 51.352 C 92.45 51.352 92.77 51.002 92.91 50.702 C 93.326 50.686 93.73 50.559 94.08 50.332 C 94.259 50.152 94.259 49.862 94.08 49.682 C 94.67 49.412 94.69 48.792 94.4 48.682 C 94.714 48.582 94.885 48.244 94.78 47.932 C 94.63 47.482 93.91 47.542 93.55 47.662 C 93.346 47.728 93.146 47.804 92.95 47.892 C 93.16 47.662 93.69 46.602 96.22 40.622 C 100.04 39.922 104.13 39.122 105.66 38.622 C 105.66 38.622 106.14 39.252 106.52 39.252 C 108.63 39.252 107.67 37.082 107.65 37.072 C 108.54 35.562 115.28 21.222 116.44 18.202 L 120.61 20.502 L 121 8.962 L 112.53 16.142 L 115.95 18.002 C 114.46 21.002 107.74 35.422 107.12 36.902 C 106.329 36.771 105.595 37.343 105.53 38.142 C 102.61 38.842 99.61 39.262 96.62 39.752 C 98.15 36.132 100.32 30.922 103.43 23.412 C 103.82 22.472 103.28 23.222 103.23 23.322 C 101.78 26.452 98.74 32.962 95.49 39.942 C 93.239 40.304 91.014 40.815 88.83 41.472 C 88.786 41.389 88.732 41.312 88.67 41.242 C 88.197 40.688 87.326 40.737 86.92 41.342 C 86.604 41.748 86.647 42.328 87.02 42.682 C 86.26 44.752 83.67 53.222 83.1 55.352 C 82.477 55.393 82.018 55.953 82.1 56.572 C 82.09 56.722 82.114 56.872 82.17 57.012 C 82.41 57.662 83.33 57.332 83.38 57.312 C 84.26 56.952 83.87 55.942 83.86 55.932 C 83.816 55.805 83.74 55.692 83.64 55.602 C 84.35 53.492 86.85 45.022 87.35 42.922 C 87.595 42.984 87.847 43.017 88.1 43.022 C 88.617 42.965 89.004 42.522 88.99 42.002 C 90.05 41.832 92.4 41.432 95.05 41.002 L 91.79 48.002 C 90.85 47.532 89.24 47.832 88.85 48.822 C 88.46 49.812 88.76 51.002 88.53 52.002 C 87.86 54.882 85.2 59.882 85.07 64.002 C 84.921 63.932 84.763 63.881 84.6 63.852 C 83.136 64.616 81.728 65.484 80.39 66.452 C 77.82 59.102 64.68 23.582 64.68 23.582 Z M 68.43 77.062 C 70.936 76.8 73.427 76.403 75.89 75.872 C 75.98 75.872 75.99 75.772 75.96 75.712 C 75.898 74.03 75.687 72.357 75.33 70.712 L 76.13 70.112 C 76.177 72.184 76.354 74.252 76.66 76.302 C 73.524 76.782 70.424 77.47 67.38 78.362 C 67.72 77.942 68.06 77.492 68.43 77.062 Z M 62.64 98.542 C 62.84 94.412 62.72 90.052 63.75 86.022 C 64.46 83.272 67.35 78.542 67.38 78.542 C 70.5 77.842 73.64 77.192 76.77 76.542 C 76.82 76.542 76.84 76.452 76.84 76.452 C 76.833 74.324 76.629 72.202 76.23 70.112 C 78.887 67.928 81.686 65.923 84.61 64.112 C 85.61 64.622 91.15 73.492 91.92 75.642 C 90.594 77.188 89.168 78.645 87.65 80.002 C 87.45 79.622 87.24 79.252 87.03 78.872 L 86.97 78.872 C 89.229 83.317 90.944 88.017 92.08 92.872 C 84.08 96.452 74.62 103.072 73.01 104.222 C 73.11 103.022 73.17 101.692 73.19 100.222 L 73.73 100.152 C 73.785 100.133 73.826 100.088 73.84 100.032 C 74.18 98.392 74.15 96.702 74.39 95.032 C 74.39 95.032 74.39 94.972 74.33 95.032 C 73.99 96.352 74.04 97.702 73.7 99.032 C 73.42 100.032 72.78 99.972 71.83 100.032 C 68.708 100.011 65.609 99.508 62.64 98.542 Z M 77.72 113.542 C 76.18 114.452 72.18 116.682 70.82 117.712 C 70.585 117.492 70.451 117.184 70.45 116.862 C 70.39 114.492 71.86 112.422 72.67 107.092 C 72.862 110.075 74.868 112.634 77.72 113.532 Z M 64.36 108.002 C 64.1 105.072 64.11 102.132 63.88 99.202 C 66.793 100.085 69.844 100.424 72.88 100.202 C 72.55 104.282 72.29 108.282 71.06 112.202 C 70.678 113.338 70.38 114.502 70.17 115.682 C 70.06 116.372 69.77 117.302 70.17 117.942 C 70.31 118.162 71.26 118.562 70.99 118.942 C 70.83 119.142 69.58 119.072 68.99 119.062 C 67.887 118.164 66.678 117.404 65.39 116.802 C 65.12 113.852 64.62 110.942 64.36 108.002 Z M 50.69 136.302 L 69.07 121.002 C 69.542 120.615 69.672 119.948 69.38 119.412 L 70.11 119.412 C 70.625 119.515 71.106 119.746 71.51 120.082 C 72.97 121.352 72.16 123.862 71.1 125.082 C 70.27 126.082 70.26 125.952 63.83 131.412 C 60.47 134.282 56.5 138.122 52.21 139.152 C 51.21 139.392 50.07 139.602 49.21 138.872 C 48.794 138.456 48.547 137.9 48.52 137.312 C 49.311 137.145 50.053 136.8 50.69 136.302 Z M 51.69 172.022 C 46.281 166.192 42.625 158.955 41.14 151.142 C 40.672 149.045 40.447 146.901 40.47 144.752 C 40.515 142.401 42.019 140.326 44.24 139.552 C 44.304 143.261 44.98 146.933 46.24 150.422 C 49.42 160.422 54.58 170.142 62.98 176.342 C 58.92 179.412 54.27 174.832 51.65 172.002 Z M 69.8 171.792 C 69.8 171.792 69.32 172.602 68.48 173.792 C 67.903 173.798 67.369 173.487 67.09 172.982 C 66.969 172.346 67.155 171.691 67.59 171.212 C 68.176 170.588 68.85 170.052 69.59 169.622 C 76.034 165.346 83.276 162.414 90.88 161.002 C 92.23 160.742 95.49 160.002 96.06 161.922 C 96.244 163.237 95.632 164.537 94.5 165.232 C 94.527 164.333 94.053 163.494 93.27 163.052 C 93.27 163.052 70.28 171.002 69.76 171.792 Z M 161.14 120.422 C 141.893 142.315 118.236 159.893 91.72 172.002 C 92.775 170.03 93.672 167.977 94.4 165.862 C 95.81 165.182 97.16 162.992 96.27 161.512 C 94.85 159.122 89.86 160.902 87.94 161.362 C 81.73 162.872 73.09 166.282 68.14 170.282 C 67.43 170.852 66.29 171.972 66.66 172.992 C 66.927 173.649 67.543 174.098 68.25 174.152 C 67.58 175.152 66.7 176.332 65.67 177.602 C 56.02 171.832 50.22 161.472 46.67 150.732 C 45.32 146.592 44.3 142.392 44.67 138.042 L 48.11 137.502 C 48.25 138.513 48.894 139.383 49.82 139.812 C 51.216 140.03 52.645 139.81 53.91 139.182 C 57.98 137.582 62.19 133.482 67.16 129.252 C 69.37 127.372 72.95 125.252 72.59 121.932 C 72.585 120.875 71.941 119.926 70.96 119.532 L 70.78 119.462 C 71.047 119.453 71.299 119.338 71.48 119.142 C 71.574 118.989 71.596 118.803 71.54 118.632 C 71.449 118.377 71.286 118.155 71.07 117.992 C 72.277 117.369 73.434 116.653 74.53 115.852 C 76.273 123.04 78.84 130.003 82.18 136.602 C 87.464 147.516 94.402 157.547 102.75 166.342 C 102.92 166.532 103.21 166.252 103.03 166.062 C 92.491 154.915 84.203 141.84 78.62 127.552 C 77.1 123.672 75.96 119.712 74.7 115.752 C 74.81 115.682 92.27 106.222 92.37 106.172 L 92.02 104.292 C 92.02 102.962 92.76 103.862 92.76 103.862 L 97.81 117.002 C 92.33 121.462 90.95 129.692 94.21 135.892 C 96.435 140.3 101.004 143.027 105.94 142.892 C 110.048 142.872 114.007 141.35 117.07 138.612 C 121.302 134.737 122.867 128.741 121.07 123.292 C 119.3 118.292 114.18 114.112 108.79 114.132 L 108.62 111.352 C 108.456 107.576 107.907 103.826 106.98 100.162 C 108.89 99.682 110.8 99.162 112.71 98.662 C 113.92 98.362 115.14 98.092 116.36 97.812 C 119.418 97.853 122.461 97.376 125.36 96.402 C 125.36 96.402 125.6 93.892 126.36 93.182 C 127.12 92.472 127.19 93.372 127.19 93.372 C 125.76 98.642 126.97 112.992 126.97 112.992 C 126.97 112.992 127.36 112.992 128.05 113.092 C 128.17 113.772 128.48 115.092 128.48 115.092 C 128.102 116.187 128.078 117.373 128.41 118.482 L 128.09 118.482 L 128.24 119.762 C 128.24 119.762 136.82 118.962 137.08 118.762 L 136.91 117.492 L 136.73 117.492 C 136.56 116.352 135.45 115.912 134.42 115.492 C 134.718 115.492 135.015 115.472 135.31 115.432 C 135.495 115.407 135.675 115.35 135.84 115.262 C 135.99 115.172 136.26 114.982 136.24 114.772 C 136.19 114.382 135.24 114.232 134.57 114.952 C 134.84 114.392 134.98 113.562 134.32 113.462 C 134.04 113.462 133.87 113.632 133.83 113.892 C 133.8 114.134 133.8 114.38 133.83 114.622 C 133.842 114.837 133.869 115.051 133.91 115.262 C 133 114.812 132.91 114.402 132.34 114.472 C 132.43 114.162 132.56 113.212 132.59 113.052 C 133.394 112.968 134.19 112.821 134.97 112.612 C 134.97 112.612 140.92 92.232 141.03 91.832 C 142.37 91.602 143.72 91.412 145.03 91.242 C 145.67 98.822 150.47 107.592 155.63 113.242 C 157.485 115.403 159.621 117.306 161.98 118.902 C 162.15 119.012 162.36 118.752 162.2 118.612 C 158.83 115.712 155.13 113.102 151.02 106.382 C 147.02 99.822 146.31 95.382 145.25 91.182 C 149.23 90.681 153.239 90.454 157.25 90.502 C 162.2 90.582 168.25 90.412 170.96 95.392 C 176.06 104.662 166.67 114.102 161.1 120.422 Z"/>
    <path d="M 129.7 116.862 C 129.987 116.862 130.22 117.095 130.22 117.382 C 130.226 117.673 129.991 117.912 129.7 117.912 C 129.407 117.912 129.17 117.675 129.17 117.382 C 129.17 117.091 129.409 116.856 129.7 116.862 Z M 127.19 48.002 C 127.305 48.002 127.378 48.127 127.32 48.227 C 127.293 48.273 127.244 48.302 127.19 48.302 C 127.075 48.302 127.002 48.177 127.06 48.077 C 127.087 48.031 127.136 48.002 127.19 48.002 Z M 126.7 46.342 C 126.815 46.342 126.888 46.467 126.83 46.567 C 126.803 46.613 126.754 46.642 126.7 46.642 C 126.585 46.642 126.512 46.517 126.57 46.417 C 126.597 46.371 126.646 46.342 126.7 46.342 Z M 127.87 45.002 C 127.985 45.002 128.058 45.127 128 45.227 C 127.973 45.273 127.924 45.302 127.87 45.302 C 127.755 45.302 127.682 45.177 127.74 45.077 C 127.767 45.031 127.816 45.002 127.87 45.002 Z M 130.59 44.772 C 130.744 44.772 130.84 44.939 130.763 45.072 C 130.727 45.134 130.661 45.172 130.59 45.172 C 130.436 45.172 130.34 45.005 130.417 44.872 C 130.453 44.81 130.519 44.772 130.59 44.772 Z M 131.26 43.512 C 131.414 43.512 131.51 43.679 131.433 43.812 C 131.397 43.874 131.331 43.912 131.26 43.912 C 131.106 43.912 131.01 43.745 131.087 43.612 C 131.123 43.55 131.189 43.512 131.26 43.512 Z M 132.93 43.882 C 133.045 43.882 133.118 44.007 133.06 44.107 C 133.033 44.153 132.984 44.182 132.93 44.182 C 132.815 44.182 132.742 44.057 132.8 43.957 C 132.827 43.911 132.876 43.882 132.93 43.882 Z M 132.53 44.822 C 132.645 44.822 132.718 44.947 132.66 45.047 C 132.633 45.093 132.584 45.122 132.53 45.122 C 132.415 45.122 132.342 44.997 132.4 44.897 C 132.427 44.851 132.476 44.822 132.53 44.822 Z M 131.63 46.752 C 131.745 46.752 131.818 46.877 131.76 46.977 C 131.733 47.023 131.684 47.052 131.63 47.052 C 131.515 47.052 131.442 46.927 131.5 46.827 C 131.527 46.781 131.576 46.752 131.63 46.752 Z M 129.33 45.172 C 129.445 45.172 129.518 45.297 129.46 45.397 C 129.433 45.443 129.384 45.472 129.33 45.472 C 129.215 45.472 129.142 45.347 129.2 45.247 C 129.227 45.201 129.276 45.172 129.33 45.172 Z M 128.94 44.122 C 129.021 44.122 129.071 44.21 129.031 44.28 C 129.012 44.312 128.978 44.332 128.94 44.332 C 128.859 44.332 128.809 44.245 128.849 44.175 C 128.868 44.142 128.902 44.122 128.94 44.122 Z M 128.02 46.422 C 128.105 46.422 128.158 46.514 128.115 46.587 C 128.096 46.621 128.059 46.642 128.02 46.642 C 127.935 46.642 127.882 46.55 127.925 46.477 C 127.944 46.443 127.981 46.422 128.02 46.422 Z M 155.35 86.302 C 155.731 86.302 156.04 86.611 156.04 86.992 C 156.04 87.523 155.465 87.855 155.005 87.59 C 154.792 87.466 154.66 87.239 154.66 86.992 C 154.66 86.611 154.969 86.302 155.35 86.302 Z M 159.53 85.762 C 160.061 85.762 160.393 86.337 160.128 86.797 C 160.004 87.01 159.777 87.142 159.53 87.142 C 158.999 87.142 158.667 86.567 158.932 86.107 C 159.056 85.894 159.283 85.762 159.53 85.762 Z M 143.47 97.142 C 143.97 97.134 144.291 97.671 144.048 98.108 C 143.804 98.545 143.179 98.555 142.922 98.125 C 142.86 98.022 142.828 97.903 142.83 97.782 C 142.835 97.431 143.119 97.147 143.47 97.142 Z M 146.1 105.722 C 146.597 105.66 146.974 106.159 146.779 106.62 C 146.666 106.888 146.389 107.048 146.1 107.012 C 145.603 106.95 145.36 106.374 145.662 105.975 C 145.768 105.835 145.926 105.744 146.1 105.722 Z M 151.04 112.342 C 151.54 112.334 151.861 112.871 151.618 113.308 C 151.374 113.745 150.749 113.755 150.492 113.326 C 150.432 113.225 150.4 113.109 150.4 112.992 C 150.4 112.637 150.685 112.347 151.04 112.342 Z M 156.73 118.542 C 157.23 118.542 157.543 119.084 157.293 119.517 C 157.043 119.95 156.417 119.95 156.167 119.517 C 156.108 119.415 156.078 119.299 156.08 119.182 C 156.08 118.825 156.373 118.536 156.73 118.542 Z M 104.53 161.382 C 105.03 161.382 105.343 161.924 105.093 162.357 C 104.843 162.79 104.217 162.79 103.967 162.357 C 103.91 162.258 103.88 162.146 103.88 162.032 C 103.88 161.673 104.171 161.382 104.53 161.382 Z M 98.53 152.712 C 99.03 152.712 99.343 153.254 99.093 153.687 C 98.843 154.12 98.217 154.12 97.967 153.687 C 97.908 153.585 97.878 153.469 97.88 153.352 C 97.88 152.995 98.173 152.706 98.53 152.712 Z"/>
    <circle cx="91.49" cy="144.292" r="0.65"/>
    <path d="M 86.08 135.002 C 86.58 135.002 86.893 135.544 86.643 135.977 C 86.393 136.41 85.767 136.41 85.517 135.977 C 85.46 135.878 85.43 135.766 85.43 135.652 C 85.43 135.293 85.721 135.002 86.08 135.002 Z M 82.01 127.082 C 82.51 127.082 82.823 127.624 82.573 128.057 C 82.457 128.258 82.242 128.382 82.01 128.382 C 81.51 128.382 81.197 127.84 81.447 127.407 C 81.563 127.206 81.778 127.082 82.01 127.082 Z"/>
    <circle cx="78.4" cy="119.552" r="0.65"/>
    <path d="M 64.02 172.692 C 64.52 172.692 64.833 173.234 64.583 173.667 C 64.333 174.1 63.707 174.1 63.457 173.667 C 63.398 173.565 63.368 173.449 63.37 173.332 C 63.375 172.977 63.665 172.692 64.02 172.692 Z"/>
    <circle cx="59.04" cy="165.752" r="0.65"/>
    <path d="M 54.68 157.162 C 55.18 157.154 55.501 157.691 55.258 158.128 C 55.014 158.565 54.389 158.575 54.132 158.146 C 54.072 158.045 54.04 157.929 54.04 157.812 C 54.04 157.457 54.325 157.167 54.68 157.162 Z M 50.95 150.062 C 51.45 150.062 51.763 150.604 51.513 151.037 C 51.263 151.47 50.637 151.47 50.387 151.037 C 50.33 150.938 50.3 150.826 50.3 150.712 C 50.3 150.353 50.591 150.062 50.95 150.062 Z M 47.93 142.272 C 48.285 142.277 48.57 142.567 48.57 142.922 C 48.508 143.419 47.932 143.662 47.533 143.36 C 47.393 143.254 47.302 143.096 47.28 142.922 C 47.28 142.563 47.571 142.272 47.93 142.272 Z"/>
  </g>
</svg>