<svg height="187" viewBox="0 0 110 187" width="110" xmlns="http://www.w3.org/2000/svg">
  <title>Woman umbrella</title>
  <g fill="#182b29">
    <path d="M 110.113 63.843 C 109.641 63.604 109.103 63.526 108.583 63.623 C 107.291 63.631 106.004 63.799 104.753 64.123 C 104.969 63.915 105.098 63.633 105.113 63.333 C 105.116 62.818 104.726 62.385 104.213 62.333 C 103.023 62.233 100.093 64.053 99.993 64.213 C 99.853 63.98 99.713 63.76 99.573 63.553 C 99.419 63.385 99.182 63.319 98.963 63.383 C 96.593 63.673 84.253 69.573 82.103 70.613 C 79.243 67.183 73.783 61.223 69.903 59.033 C 66.393 57.033 60.903 55.783 56.673 55.323 C 56.562 55.276 56.435 55.344 56.413 55.463 C 56.293 55.053 55.943 53.713 55.943 53.713 C 57.853 52.443 58.193 49.783 57.803 47.523 C 59.203 46.413 60.203 44.813 58.803 43.673 L 58.683 43.593 C 59.144 42.984 59.218 42.165 58.873 41.483 C 58.113 41.853 56.963 42.363 56.553 42.553 C 56.553 43.083 56.553 44.003 57.013 44.313 C 57.473 44.623 57.853 44.153 58.213 43.913 C 58.32 43.858 58.446 43.858 58.553 43.913 C 58.977 44.233 59.15 44.788 58.983 45.293 C 58.636 46.056 58.086 46.71 57.393 47.183 C 57.315 47.236 57.276 47.33 57.293 47.423 C 57.526 48.731 57.436 50.077 57.033 51.343 C 56.748 52.154 56.185 52.838 55.443 53.273 C 55.193 53.413 55.243 53.463 55.853 55.773 C 55.913 56.013 56.083 55.993 56.613 56.093 C 57.543 62.093 59.023 65.423 54.323 66.453 C 52.785 66.569 51.249 66.198 49.933 65.393 C 49.623 64.103 48.783 60.713 47.723 56.393 C 49.083 52.333 48.583 54.153 46.723 52.393 C 44.663 44.103 44.953 45.483 44.903 44.493 C 45.103 43.763 45.573 42.363 45.173 41.783 C 45.552 41.61 45.855 41.304 46.023 40.923 C 46.163 40.643 46.023 40.173 46.023 39.843 C 46.693 39.733 47.093 39.693 47.193 38.903 C 48.413 39.233 48.543 39.403 49.053 39.353 C 49.563 39.303 50.193 38.983 50.423 39.053 C 51.133 39.364 51.916 39.468 52.683 39.353 C 53.457 39.242 54.166 38.859 54.683 38.273 C 55.043 38.633 55.403 38.843 55.823 38.633 C 55.714 38.945 55.796 39.292 56.033 39.523 C 58.913 38.363 58.673 38.523 58.613 38.433 C 58.343 37.943 58.303 38.273 58.613 37.973 C 58.928 37.56 59.147 37.082 59.253 36.573 C 59.353 36.233 59.294 35.865 59.093 35.573 C 59.328 35.383 59.49 35.118 59.553 34.823 C 59.725 34.16 59.679 33.459 59.423 32.823 C 59.222 32.355 58.834 31.992 58.353 31.823 C 56.913 31.393 57.013 31.923 56.753 31.303 C 56.666 31.043 56.53 30.802 56.353 30.593 C 55.865 30.237 55.293 30.014 54.693 29.943 C 58.66 29.09 62.628 31.381 63.873 35.243 C 63.917 35.493 64.215 35.602 64.41 35.439 C 64.47 35.389 64.51 35.319 64.523 35.243 C 65.123 28.653 65.593 27.303 70.353 26.313 C 71.997 26.02 73.687 26.106 75.293 26.563 C 77.726 27.254 80.03 28.338 82.113 29.773 C 82.286 29.901 82.533 29.794 82.558 29.58 C 82.563 29.537 82.558 29.494 82.543 29.453 C 79.753 22.541 75.105 16.536 69.113 12.103 C 63.131 7.718 56.09 5.005 48.713 4.243 C 44.953 3.793 38.423 4.243 34.453 4.843 C 34.323 4.083 33.733 0.733 33.143 0.263 C 32.333 -0.377 30.143 0.263 30.143 0.983 C 30.384 2.475 30.786 3.937 31.343 5.343 C 29.73 5.672 28.148 6.137 26.613 6.733 C 16.903 10.383 10.713 15.733 6.183 23.733 C -1.487 37.503 -0.467 53.183 1.113 54.593 C 1.113 54.593 1.623 54.733 1.673 54.303 C 2.136 48.87 5.802 44.24 10.983 42.543 C 15.173 41.073 19.273 42.343 23.213 44.373 C 23.663 44.603 24.063 44.873 24.333 44.653 C 24.923 44.193 24.603 41.703 27.203 38.953 C 30.343 35.837 34.711 34.286 39.113 34.723 C 40.633 41.183 42.713 50.033 44.313 56.793 C 40.143 57.353 39.983 57.633 38.583 58.243 C 34.987 59.931 31.887 62.517 29.583 65.753 C 24.253 72.753 21.303 79.363 22.583 88.753 C 22.811 90.367 23.34 91.924 24.143 93.343 C 25.593 95.853 27.313 96.833 29.983 97.693 C 28.213 105.923 25.983 154.813 29.043 156.033 C 29.333 156.153 30.563 156.123 37.043 156.033 C 37.423 160.733 37.903 165.603 38.503 170.593 C 38.573 171.193 39.263 171.493 39.833 171.663 C 39.703 173.661 39.703 175.665 39.833 177.663 C 38.833 179.163 36.833 183.923 37.413 185.763 C 37.503 186.188 37.773 186.552 38.153 186.763 C 39.348 187.129 40.594 187.298 41.843 187.263 C 43.613 187.263 46.763 182.753 47.203 180.583 C 47.295 179.776 47.295 178.96 47.203 178.153 C 47.326 177.158 47.36 176.154 47.303 175.153 C 47.143 171.263 46.833 172.283 47.493 171.953 C 47.763 171.823 47.873 171.273 48.013 170.703 C 48.743 167.703 50.173 158.933 50.673 155.873 L 53.123 155.873 C 53.305 155.873 53.453 155.725 53.453 155.543 C 53.453 155.543 53.453 148.323 53.393 138.743 C 54.753 129.893 55.933 121.963 56.393 119.053 C 57.763 122.053 62.263 132.053 62.533 132.783 C 62.123 139.393 61.703 149.593 61.933 156.313 C 61.993 158.163 61.373 169.423 62.223 170.313 C 62.82 170.688 63.519 170.87 64.223 170.833 C 64.113 172.663 63.913 180.413 64.793 182.013 C 65.533 183.363 76.043 184.083 77.613 184.013 C 78.329 184.001 78.98 183.593 79.303 182.953 C 79.604 182.095 79.604 181.161 79.303 180.303 C 79.127 179.775 78.74 179.343 78.233 179.113 C 76.973 178.423 75.603 178.483 73.233 177.683 C 72.619 177.519 72.039 177.245 71.523 176.873 C 71.353 175.753 71.353 172.393 71.273 170.173 C 71.783 170.063 72.473 169.943 72.613 169.653 C 73.233 168.413 74.823 157.123 75.013 155.763 L 78.683 155.663 C 78.854 155.654 78.994 155.523 79.013 155.353 C 79.463 151.543 80.303 143.733 80.453 139.883 C 80.913 128.003 78.383 118.083 76.743 106.603 C 76.113 102.183 74.113 94.343 73.113 90.183 C 74.305 90.818 75.644 91.125 76.993 91.073 C 79.843 91.073 83.463 89.913 87.313 87.323 C 92.313 83.973 97.693 78.213 102.313 69.323 C 102.313 69.063 102.373 69.203 102.073 68.433 C 102.433 68.123 103.193 67.593 103.583 67.323 C 105.173 67.093 108.633 66.403 109.883 65.323 C 110.513 64.863 110.463 64.183 110.113 63.843 Z M 46.803 180.413 C 46.283 182.543 42.993 186.483 41.803 186.493 C 40.646 186.514 39.493 186.359 38.383 186.033 C 38.203 185.953 38.033 185.473 37.993 185.203 C 39.151 185.58 40.356 185.792 41.573 185.833 C 42.573 185.833 43.953 184.063 44.573 183.273 C 45.539 182 46.332 180.604 46.933 179.123 C 46.921 179.556 46.878 179.987 46.803 180.413 Z M 45.743 180.183 C 44.903 181.788 43.832 183.26 42.563 184.553 C 42.285 184.831 41.941 185.034 41.563 185.143 C 40.435 185.099 39.317 184.901 38.243 184.553 C 38.243 184.553 38.163 184.553 38.123 184.413 C 37.823 183.273 39.973 178.323 40.323 177.903 C 40.533 177.663 40.263 178.003 40.173 174.053 L 40.173 171.713 C 42.334 172.124 44.544 172.222 46.733 172.003 C 47.003 177.413 46.793 178.233 45.743 180.183 Z M 60.973 74.183 L 65.243 76.313 C 65.173 77.313 63.013 103.903 62.863 105.763 C 62.863 105.373 58.373 64.233 58.263 63.393 C 58.303 62.387 58.226 61.381 58.033 60.393 C 58.033 60.293 57.223 55.833 57.183 55.723 C 58.573 55.873 61.883 56.223 62.993 56.923 C 62.733 59.503 61.333 69.993 60.833 73.923 C 60.824 74.03 60.879 74.132 60.973 74.183 Z M 50.653 81.793 C 51.353 80.793 54.383 80.023 54.743 80.583 C 54.943 80.903 54.853 80.843 54.073 81.353 L 53.953 81.443 C 53.775 81.579 53.775 81.847 53.953 81.983 C 54.173 82.163 54.623 81.983 55.403 81.983 C 55.933 81.983 55.963 82.273 55.863 82.363 C 55.763 82.453 54.803 82.983 54.703 83.053 C 54.477 83.213 54.509 83.558 54.761 83.674 C 54.824 83.703 54.894 83.713 54.963 83.703 C 55.323 83.703 55.803 83.413 56.143 83.393 C 56.272 83.375 56.392 83.464 56.413 83.593 C 56.543 83.983 55.273 84.253 55.193 84.683 C 55.158 84.813 55.211 84.95 55.323 85.023 C 55.543 85.193 55.783 85.023 56.323 84.893 C 56.683 84.793 56.713 85.233 56.543 85.433 C 56.371 85.595 56.167 85.718 55.943 85.793 C 54.943 86.183 54.443 86.513 53.423 86.853 C 53.113 86.953 52.143 86.853 51.753 86.983 L 51.053 87.353 L 49.053 83.653 C 49.313 83.584 49.564 83.487 49.803 83.363 C 49.993 83.253 50.263 82.353 50.653 81.793 Z M 59.113 75.413 C 57.493 76.413 54.513 76.533 52.483 76.153 C 52.173 74.783 51.843 73.363 51.483 71.903 C 53.911 72.201 56.374 71.877 58.643 70.963 C 58.763 72.293 58.893 73.573 59.113 75.413 Z M 59.203 76.323 C 59.333 77.523 59.463 78.873 59.613 80.323 C 58.287 80.902 56.86 81.218 55.413 81.253 C 55.783 80.783 55.303 79.903 54.813 79.783 C 54.587 79.759 54.359 79.759 54.133 79.783 C 53.861 79.774 53.589 79.798 53.323 79.853 C 53.123 78.963 52.913 78.033 52.693 77.083 C 54.882 77.418 57.121 77.155 59.173 76.323 Z M 52.773 97.513 C 52.613 95.793 52.413 93.973 52.203 92.093 C 52.493 92.093 52.843 92.183 53.203 92.213 C 53.373 92.713 53.443 92.983 53.903 93.213 C 54.713 93.573 55.773 93.273 55.753 92.213 C 57.454 92.184 59.14 91.894 60.753 91.353 C 60.943 93.263 61.133 95.153 61.313 96.943 C 58.477 97.366 55.61 97.557 52.743 97.513 Z M 51.613 87.593 L 51.853 87.483 C 52.283 89.103 52.643 90.413 52.923 91.333 C 52.613 91.333 52.293 91.253 52.063 91.213 C 51.973 90.413 51.663 87.993 51.613 87.593 Z M 54.203 87.183 C 54.587 88.831 54.875 90.501 55.063 92.183 C 55.063 92.833 54.063 92.523 54.063 92.403 C 53.475 90.744 52.974 89.055 52.563 87.343 C 53.114 87.444 53.682 87.388 54.203 87.183 Z M 55.663 91.363 C 55.543 90.543 55.313 89.293 54.993 87.703 C 56.776 87.692 58.545 87.395 60.233 86.823 C 60.353 88.023 60.483 89.243 60.603 90.463 C 59.023 91.056 57.351 91.368 55.663 91.383 Z M 55.023 86.853 C 56.163 86.353 56.813 86.263 57.173 85.683 C 57.367 85.378 57.367 84.988 57.173 84.683 C 57.128 84.546 57.061 84.417 56.973 84.303 C 56.833 84.143 56.823 84.303 56.973 84.103 C 57.271 83.579 57.041 82.912 56.483 82.683 C 56.631 82.469 56.662 82.194 56.563 81.953 C 57.628 81.84 58.671 81.577 59.663 81.173 C 59.813 82.673 59.973 84.273 60.143 85.913 C 58.505 86.528 56.772 86.853 55.023 86.873 Z M 51.183 89.683 C 51.928 96.224 52.312 102.8 52.333 109.383 C 51.113 106.503 48.333 97.383 47.333 94.383 C 48.918 93.097 50.227 91.506 51.183 89.703 Z M 54.453 67.183 C 56.453 66.743 57.453 65.953 57.933 64.823 C 58.123 66.423 58.313 68.163 58.523 70.013 C 56.244 71.018 53.729 71.364 51.263 71.013 C 50.903 69.513 50.543 68.013 50.173 66.413 C 51.513 67.022 52.984 67.286 54.453 67.183 Z M 47.773 53.983 C 47.703 54.273 47.553 54.743 47.413 55.183 C 47.283 54.643 47.143 54.103 47.003 53.543 C 47.247 53.723 47.504 53.884 47.773 54.023 Z M 42.553 35.743 L 43.293 36.103 C 42.713 37.033 43.193 38.313 42.553 35.743 Z M 30.833 1.063 C 31.247 0.833 31.71 0.703 32.183 0.683 C 32.973 0.683 32.863 0.823 33.863 4.923 C 33.163 5.023 32.483 5.133 31.803 5.263 C 31.397 3.883 31.073 2.481 30.833 1.063 Z M 32.213 34.963 C 30.15 35.719 28.278 36.921 26.733 38.483 C 25.324 40.025 24.366 41.924 23.963 43.973 C 22.02 42.904 19.946 42.094 17.793 41.563 C 15.472 41.029 13.049 41.15 10.793 41.913 C 5.715 43.577 2.001 47.952 1.183 53.233 C 0.523 50.733 0.643 44.483 0.923 42.323 C 1.689 35.922 3.657 29.724 6.723 24.053 C 11.113 16.073 17.173 10.823 26.783 7.183 C 27.783 6.803 28.783 6.453 29.783 6.183 C 23.593 12.473 19.783 24.073 21.993 35.183 C 22.008 35.257 22.079 35.305 22.153 35.293 C 22.413 35.293 22.153 35.053 21.963 32.033 C 21.413 21.573 25.233 11.433 30.313 6.033 C 31.223 5.793 32.053 5.653 33.053 5.483 C 39.893 13.183 43.553 29.923 44.113 29.773 C 44.186 29.758 44.232 29.685 44.213 29.613 C 43.44 26.231 42.486 22.892 41.353 19.613 C 39.513 14.503 37.113 9.323 33.403 5.373 C 34.203 5.243 35.023 5.133 35.833 5.023 C 45.973 6.023 55.493 13.263 60.833 21.753 C 62.543 24.503 62.333 25.003 62.623 24.893 C 62.691 24.861 62.725 24.785 62.703 24.713 C 60.993 19.833 55.573 12.793 48.303 8.583 C 44.915 6.579 41.143 5.311 37.233 4.863 C 41.041 4.395 44.884 4.278 48.713 4.513 C 63.314 6.024 75.946 15.334 81.713 28.833 C 78.443 26.773 73.993 24.983 70.223 25.753 C 65.363 26.753 64.593 28.283 63.983 34.003 C 63.224 32.487 62.057 31.213 60.613 30.323 C 57.013 28.203 51.613 29.323 48.873 32.043 C 47.547 33.482 46.599 35.228 46.113 37.123 C 41.563 33.683 36.933 33.093 32.213 34.963 Z M 42.113 35.553 C 42.353 36.553 52.553 79.643 52.633 79.983 C 51.991 80.182 51.384 80.479 50.833 80.863 C 50.713 80.363 42.963 48.923 39.483 34.783 C 40.385 34.945 41.266 35.203 42.113 35.553 Z M 44.383 57.183 C 50.533 83.183 49.603 77.823 50.113 81.623 C 49.853 82.083 49.673 82.623 49.493 83.003 C 49.283 83.118 49.062 83.212 48.833 83.283 C 48.543 82.753 48.533 82.683 48.363 82.663 C 46.826 82.527 45.28 82.527 43.743 82.663 C 42.913 79.923 42.313 77.903 42.113 77.233 L 45.923 75.443 C 46.052 75.384 46.113 75.236 46.063 75.103 C 43.393 68.853 43.343 66.863 39.503 58.103 C 40.503 57.593 43.243 57.283 44.383 57.183 Z M 23.303 88.613 C 21.923 79.273 24.993 71.903 30.793 64.753 C 32.987 61.877 35.912 59.643 39.263 58.283 C 43.153 67.553 42.983 68.923 45.503 75.083 L 41.663 76.843 C 41.534 76.902 41.466 77.046 41.503 77.183 C 41.503 77.183 42.113 79.423 43.113 82.743 C 41.561 82.892 40.026 83.194 38.533 83.643 C 38.373 76.343 38.363 76.643 38.113 74.363 C 38.113 74.255 37.996 74.188 37.903 74.242 C 37.86 74.267 37.833 74.313 37.833 74.363 C 37.633 77.513 37.696 80.674 38.023 83.813 C 37.008 84.146 36.053 84.639 35.193 85.273 C 35.101 85.328 35.103 85.463 35.197 85.515 C 35.251 85.546 35.319 85.537 35.363 85.493 C 38.303 83.323 44.613 82.783 48.153 83.183 L 50.963 88.553 C 50.249 90.289 49.148 91.838 47.743 93.083 C 46.32 94.402 44.714 95.507 42.973 96.363 C 39.243 98.253 33.083 98.523 27.973 96.073 C 25.333 94.803 23.743 91.563 23.303 88.613 Z M 29.353 155.393 C 27.163 153.393 28.453 107.493 30.483 97.773 C 34.716 99.047 39.265 98.77 43.313 96.993 C 44.525 96.377 45.679 95.654 46.763 94.833 C 47.273 96.493 51.413 110.123 52.303 110.763 C 52.453 110.873 52.823 154.953 52.823 155.053 C 52.113 155.073 30.113 155.623 29.353 155.393 Z M 77.923 183.063 C 77.043 183.413 65.803 182.293 65.353 181.503 C 65.179 181.127 65.067 180.725 65.023 180.313 C 68.573 181.413 77.253 182.443 78.203 182.063 C 78.422 181.981 78.628 181.866 78.813 181.723 C 78.851 182.319 78.487 182.867 77.923 183.063 Z M 70.923 171.313 C 69.923 170.923 68.763 171.503 68.843 171.763 C 68.923 172.023 70.013 171.903 70.243 171.883 C 70.303 171.883 70.653 171.823 70.913 171.753 L 70.913 173.273 C 69.863 172.873 68.753 173.473 68.833 173.723 C 68.913 173.973 69.583 173.873 69.833 173.863 C 70.208 173.854 70.581 173.8 70.943 173.703 L 70.943 175.203 C 69.943 174.903 68.943 175.433 68.943 175.683 C 68.943 175.933 69.813 175.833 69.943 175.833 C 70.28 175.827 70.616 175.784 70.943 175.703 C 70.899 176.154 70.96 176.61 71.123 177.033 C 71.983 177.923 74.903 178.653 76.123 178.913 C 76.923 179.073 78.483 179.483 78.683 180.273 C 78.753 180.553 79.003 181.033 78.033 181.423 C 77.453 181.653 67.903 180.773 65.033 179.993 C 64.68 176.893 64.533 173.773 64.593 170.653 C 66.731 170.638 68.863 170.431 70.963 170.033 Z M 86.923 86.843 C 83.183 89.333 79.683 90.453 76.923 90.473 C 75.422 90.543 73.944 90.087 72.743 89.183 C 72.383 88.893 71.823 83.483 69.443 75.833 C 69.416 75.725 69.283 75.687 69.203 75.764 C 69.166 75.8 69.15 75.853 69.163 75.903 C 69.273 76.353 69.373 76.953 69.503 77.633 C 71.193 86.563 75.013 99.173 76.053 106.473 C 77.053 113.403 78.343 119.763 79.123 126.323 C 80.313 136.323 79.813 141.923 78.313 154.753 L 67.313 155.073 C 67.123 146.343 64.313 118.923 63.243 108.973 C 63.313 108.563 65.823 76.563 65.853 76.163 C 65.864 76.045 65.8 75.933 65.693 75.883 L 61.393 73.793 C 61.833 69.993 63.303 56.963 63.303 56.963 C 65.539 57.478 67.695 58.292 69.713 59.383 C 73.533 61.563 79.113 67.663 81.863 71.043 C 81.906 71.14 82.008 71.197 82.113 71.183 C 83.963 70.293 97.113 64.023 99.113 63.973 C 100.16 65.648 101.022 67.432 101.683 69.293 C 97.113 77.913 91.843 83.563 86.933 86.843 Z M 109.623 64.563 C 109.393 65.563 104.393 66.763 103.403 66.973 C 102.879 67.341 102.381 67.745 101.913 68.183 C 101.407 66.887 100.805 65.63 100.113 64.423 C 100.223 64.423 100.213 64.323 101.433 63.733 C 101.993 63.473 104.013 62.533 104.433 63.023 C 104.853 63.513 103.493 64.173 103.263 64.553 C 103.132 64.761 103.251 65.036 103.493 65.083 C 103.618 65.112 103.748 65.112 103.873 65.083 C 104.643 64.851 105.428 64.67 106.223 64.543 C 107.307 64.372 108.406 64.305 109.503 64.343 C 109.673 64.363 109.683 64.373 109.633 64.563 Z"/>
    <path d="M 42.283 172.69 C 41.823 172.69 41.283 172.8 41.233 172.92 C 41.183 173.04 42.533 172.7 42.283 172.69 Z M 42.133 175.12 C 42.683 175.12 43.073 174.79 43.043 174.67 C 43.013 174.55 42.473 174.42 42.273 174.41 C 41.913 174.41 41.273 174.51 41.273 174.64 C 41.273 174.77 41.673 175.12 42.133 175.12 Z M 42.253 176.1 C 41.893 176.1 41.253 176.2 41.203 176.32 C 41.153 176.44 41.703 176.8 42.113 176.81 C 42.523 176.82 43.053 176.47 43.023 176.36 C 42.993 176.25 42.443 176.1 42.253 176.1 Z M 68.483 113.04 C 68.214 111.625 66.583 110.95 65.393 111.76 C 64.273 112.54 64.103 114.1 66.113 115.01 C 67.393 115.454 68.686 114.379 68.483 113.04 Z M 65.273 112.88 C 65.399 112.452 65.69 112.092 66.083 111.88 C 66.95 111.445 67.963 112.113 67.905 113.081 C 67.898 113.211 67.87 113.339 67.823 113.46 C 67.708 114.124 67.037 114.536 66.393 114.34 C 65.393 113.94 65.133 113.39 65.273 112.88 Z M 66.803 120.81 C 65.693 121.59 65.513 123.15 67.523 124.05 C 68.565 124.446 69.705 123.773 69.863 122.67 C 70.105 121.204 68.669 120.026 67.279 120.549 C 67.109 120.613 66.949 120.701 66.803 120.81 Z M 69.233 122.52 C 69.043 123.17 68.443 123.68 67.813 123.4 C 66.813 122.98 66.533 122.4 66.683 121.92 C 66.807 121.491 67.099 121.13 67.493 120.92 C 68.356 120.478 69.375 121.136 69.326 122.105 C 69.319 122.247 69.287 122.388 69.233 122.52 Z M 68.213 131.38 C 67.093 132.16 66.923 133.72 68.933 134.62 C 69.978 135.016 71.121 134.337 71.273 133.23 C 71.506 131.763 70.064 130.593 68.676 131.125 C 68.511 131.188 68.355 131.274 68.213 131.38 Z M 70.643 133.09 C 70.534 133.758 69.858 134.174 69.213 133.97 C 68.213 133.55 67.943 132.97 68.093 132.49 C 68.217 132.061 68.509 131.7 68.903 131.49 C 69.766 131.048 70.785 131.706 70.736 132.675 C 70.729 132.817 70.697 132.958 70.643 133.09 Z M 48.303 43.13 C 48.303 42.91 47.523 42.78 47.213 42.78 C 46.903 42.78 46.113 42.91 46.113 43.12 C 46.113 43.33 46.823 43.48 47.203 43.49 C 47.583 43.5 48.313 43.36 48.303 43.13 Z M 55.393 43.1 C 55.393 42.86 54.543 42.75 54.293 42.75 C 54.043 42.75 53.193 42.88 53.193 43.09 C 53.193 43.3 53.693 43.45 54.283 43.46 C 54.613 43.46 55.393 43.32 55.393 43.1 Z M 47.963 45.23 L 47.963 44.71 C 47.917 44.437 47.592 44.316 47.379 44.492 C 47.312 44.547 47.267 44.625 47.253 44.71 L 47.253 45.24 C 47.211 45.514 47.481 45.731 47.739 45.63 C 47.9 45.567 47.994 45.4 47.963 45.23 Z M 54.583 45.02 L 54.583 44.5 C 54.629 44.227 54.362 44.006 54.102 44.103 C 53.941 44.163 53.844 44.33 53.873 44.5 L 53.873 45.02 C 53.919 45.293 54.244 45.414 54.457 45.238 C 54.524 45.183 54.569 45.105 54.583 45.02 Z M 52.373 48.3 C 52.553 48.3 52.493 47.99 52.313 48.03 C 52.133 48.07 51.643 48.03 51.503 48.03 C 51.363 48.03 51.273 47.03 51.253 46.82 C 51.226 46.329 51.159 45.84 51.053 45.36 C 51.053 45.252 50.936 45.185 50.843 45.239 C 50.8 45.264 50.773 45.31 50.773 45.36 C 50.672 45.73 50.605 46.108 50.573 46.49 C 50.547 46.99 50.59 47.492 50.703 47.98 C 50.953 48.78 51.583 48.63 52.373 48.3 Z M 53.043 51.23 C 53.443 50.94 53.863 50.15 53.643 50.03 C 53.423 49.91 52.883 50.68 51.923 50.98 C 50.963 51.28 50.833 51.16 50.803 51.32 C 50.773 51.48 52.053 51.94 53.043 51.23 Z M 56.133 40.54 C 56.067 40.86 56.206 41.187 56.483 41.36 C 56.593 41.47 56.593 41.42 56.593 41.68 C 57.183 41.41 58.223 40.94 58.833 40.63 C 58.997 40.259 58.951 39.828 58.713 39.5 C 57.843 39.85 56.523 40.38 56.133 40.54 Z"/>
  </g>
</svg>