<svg fill="none" height="32" viewBox="0 0 24 24" width="32" xmlns="http://www.w3.org/2000/svg">
  <title>Appenin favicon template</title>
  <rect fill="#ffffff" height="100%" width="100%"/>
  <path d="M22.6 9.4C23 7 22.3 5 20.2 5c-1.3 0-2.5.7-3.5 1.8l.2-.6a.8.8 0 00-.4-1h-1.9a.7.7 0 00-.7.5l-2.4 6.9c-.6.6-1 1-1.5 1-.4 0-.5-.2-.5-.6L12 6.3a.8.8 0 00-.4-1h-2a.7.7 0 00-.7.5V6h-.2c-.4-.6-1-1-2.2-1C3.8 5 1 8 .2 11.7-.4 14 .4 16 2.6 16c1.1 0 3-.5 4-1.6 0 0 .4 1.6 2.1 1.6.7 0 1.5-.3 2-.7l1-.9c-.2.7-.7 1.3-1.3 1.7L9 20.3a.5.5 0 00.2.7H11a1 1 0 001-.7l2-5c.4.4 1.3.6 2.3.6 2.7 0 5.5-2.8 6.3-6.5zM7.9 9c-1 2.6-2.6 4-3.7 4-.7 0-1-.6-.8-1.6.4-1.6 1.6-3.5 3-3.5.7 0 1.2.3 1.6.8l-.1.3zm11.4.7C19 11.4 17.7 13 16 13c-.5 0-1-.2-1.2-.7v-.2c1-2.8 2.6-4.3 3.7-4.3.8 0 1 .8.8 1.8z"  fill="#00665a"/>
</svg>