<svg fill="none" height="24" stroke="currentColor" stroke-linecap="round" stroke-linejoin="round" viewBox="0 0 24 24" width="24" xmlns="http://www.w3.org/2000/svg">
  <title>Cookie</title>
  <path d="M20 6.88a3.976 3.976 0 0 1-3.557-2.206.5.5 0 0 0-.674-.221A3.876 3.876 0 0 1 14 4.88a4 4 0 0 1-4-4 .26.26 0 0 0-.313-.255A11.5 11.5 0 1 0 23.5 11.88a11.353 11.353 0 0 0-1.223-5.128.5.5 0 0 0-.654-.23A3.877 3.877 0 0 1 20 6.88Z"/>
  <path d="M6 8.88a2 2 0 1 0 4 0 2 2 0 1 0-4 0Zm8 5a1 1 0 1 0 2 0 1 1 0 1 0-2 0Zm-7 3a2 2 0 1 0 4 0 2 2 0 1 0-4 0Zm-3-4.25a.25.25 0 1 1-.25.25.25.25 0 0 1 .25-.25m11 6a.25.25 0 1 1-.25.25.25.25 0 0 1 .25-.25m1-9a.25.25 0 1 1-.25.25.25.25 0 0 1 .25-.25"/>
</svg>