<svg fill="none" height="24" stroke="currentColor" stroke-linecap="round" stroke-linejoin="round" viewBox="0 0 24 24" width="24" xmlns="http://www.w3.org/2000/svg">
  <title>Flag star</title>
  <path d="M.5 23.5V.5m0 19a21.794 21.794 0 0 1 6-1c3 0 7.5 2 10.5 2a18.515 18.515 0 0 0 5.849-1.244 1 1 0 0 0 .651-.938V4.44a1 1 0 0 0-1.32-.947A17.367 17.367 0 0 1 17 4.5c-3 0-7.5-2-10.5-2a21.794 21.794 0 0 0-6 1v16Z"/>
  <path d="M13.089 6.858 14.371 9.5h2.5a.612.612 0 0 1 .431 1.069l-2.166 2.263 1.2 2.761a.654.654 0 0 1-.931.819l-2.9-1.634L9.6 16.412a.654.654 0 0 1-.931-.819l1.2-2.761L7.7 10.569A.612.612 0 0 1 8.133 9.5h2.5l1.285-2.642a.661.661 0 0 1 1.171 0Z"/>
</svg>