<svg fill="none" height="24" stroke="currentColor" stroke-linecap="round" stroke-linejoin="round" viewBox="0 0 24 24" width="24" xmlns="http://www.w3.org/2000/svg">
  <title>Iris scan approved</title>
  <path d="m14.769 9.913-2.9 3.874a.751.751 0 0 1-1.131.08l-1.5-1.5M12 1.5v-1M6.978 2.779 6.5 1.901M3.18 6.304l-.84-.543m14.682-2.982.478-.878m3.32 4.403.84-.543M12 22.5v1m-5.022-2.278L6.5 22.1m-3.32-4.403-.84.542m14.682 2.983.478.878m3.32-4.403.84.542"/>
  <path d="M5 12a7 7 0 1 0 14 0 7 7 0 1 0-14 0Z"/>
  <path d="M23.5 12s-5 7-11.5 7S.5 12 .5 12s5-7 11.5-7 11.5 7 11.5 7Z"/>
</svg>