<svg fill="currentColor" height="24" stroke="currentColor" stroke-linecap="round" stroke-linejoin="round" viewBox="0 0 24 24" width="24" xmlns="http://www.w3.org/2000/svg">
  <title>Legal hammer shield</title>
  <path d="M7.34749 8.56378L7.05304 8.27265C6.50137 7.72254 5.62225 8.59509 6.17646 9.14943L8.80873 11.7823C9.35871 12.3341 10.2395 11.4573 9.68785 10.9038L9.3934 10.6127L7.34749 8.56378ZM12.6129 7.39333L12.9039 7.687C13.4556 8.23964 14.3356 7.36032 13.7814 6.80937L11.1499 4.17479C10.5983 3.62469 9.71916 4.49978 10.2717 5.05157L10.5644 5.34694L12.6129 7.39333ZM11.0027 9.00132L17 15L11.0027 9.00132ZM7.34749 8.56378L10.5644 5.34694L12.6129 7.39333L9.3934 10.6127L7.34749 8.56378Z" fill="none"/>
  <path d="M2.5 1.5C2.5 1.23478 2.60536 0.98043 2.79289 0.792893C2.98043 0.605357 3.23478 0.5 3.5 0.5H20.5C20.7652 0.5 21.0196 0.605357 21.2071 0.792893C21.3946 0.98043 21.5 1.23478 21.5 1.5V7.76C21.501 11.0002 20.6166 14.1791 18.9423 16.9532C17.268 19.7273 14.8674 21.9911 12 23.5C9.1326 21.9911 6.73204 19.7273 5.05772 16.9532C3.3834 14.1791 2.49897 11.0002 2.5 7.76V1.5Z" fill="none"/>
</svg>