<svg height="35" viewBox="0 0 35 35" width="35" xmlns="http://www.w3.org/2000/svg">
  <title>Linkedin</title>
  <circle fill="#182b29" cx="17.5" cy="17.5" r="17.5"/>
  <path fill="#ffffff" d="M9.683 11.496h3.502c.241 0 .438.196.438.438v11.381a.438.438 0 0 1-.438.438H9.683a.438.438 0 0 1-.438-.438V11.934c0-.242.196-.438.438-.438zm1.733-6.128c1.2 0 2.172.98 2.172 2.188a2.18 2.18 0 0 1-2.172 2.19 2.18 2.18 0 0 1-2.17-2.19 2.18 2.18 0 0 1 2.17-2.188zm12.275 18.385h2.626a.438.438 0 0 0 .438-.438v-7.354c0-3.3-1.865-4.903-4.474-4.903a3.687 3.687 0 0 0-2.775 1.112.359.359 0 0 1-.63-.236.438.438 0 0 0-.438-.438H15.81a.438.438 0 0 0-.437.438v11.381c0 .242.196.438.437.438h2.627a.438.438 0 0 0 .437-.438V16.75a2.188 2.188 0 1 1 4.378 0v6.566c0 .242.196.438.438.438z"/>
</svg>