<svg fill="none" height="24" stroke="currentColor" stroke-linecap="round" stroke-linejoin="round" viewBox="0 0 24 24" width="24" xmlns="http://www.w3.org/2000/svg">
  <title>Module four</title>
  <path d="M9 9.5a3 1.5 0 1 0 6 0 3 1.5 0 1 0-6 0Zm0-6a3 1.5 0 1 0 6 0 3 1.5 0 1 0-6 0Zm7 3a3 1.5 0 1 0 6 0 3 1.5 0 1 0-6 0Zm-13.5 0a3 1.5 0 1 0 6 0 3 1.5 0 1 0-6 0Zm7.237-2.016-2.155.937m9.112.12-2.433-1.058"/>
  <path d="M3.074 7.381 1.1 8.239a1 1 0 0 0-.6.917v6.7a1 1 0 0 0 .586.91L11.1 21.32a1 1 0 0 0 .8.013l10.983-4.577a1 1 0 0 0 .615-.923V9.156a1 1 0 0 0-.6-.917L21.2 7.5m-9.7 6v7.908M23.315 8.577 11.5 13.5m0 0L.681 8.582"/>
</svg>