<svg fill="currentColor" height="32" viewBox="0 0 39 32" width="39" xmlns="http://www.w3.org/2000/svg">
  <title>Open quote</title>
  <path d="M13.993 3.34C8.87 5.383 4.772 10.492 4.772 15.09c0 1.022 0 2.044.512 2.555 1.025-1.022 2.562-1.533 4.61-1.533 4.1 0 7.685 3.066 7.685 7.664s-3.586 7.664-7.684 7.664c-4.099.51-6.148-1.022-7.685-3.577C.674 25.31.161 21.733.161 19.69.161 11.514 4.26 4.872 12.968.785l1.025 2.555m21.004 0c-5.123 2.043-9.221 7.152-9.221 11.75 0 1.022 0 2.044.512 2.555 1.024-1.022 2.561-1.533 4.61-1.533 4.099 0 7.685 3.066 7.685 7.664s-3.586 7.664-7.684 7.664c-3.587 0-5.636-1.533-7.173-4.088-2.56-2.043-2.56-5.62-2.56-7.663 0-8.175 4.097-14.817 12.806-18.904l1.025 2.555"/>
</svg>