<svg fill="currentColor" height="24" viewBox="0 0 24 24" width="24" xmlns="http://www.w3.org/2000/svg">
  <title>Star</title>
  <path d="M 11.79 0.663 L 11.349 2.083 L 10.624 4.43 C 10.35 5.311 9.911 6.733 9.647 7.587 L 9.164 9.144 L 4.583 9.144 C 2.062 9.144 0 9.15 0 9.158 C 0 9.168 0.33 9.428 0.735 9.734 C 1.136 10.043 2.789 11.302 4.402 12.531 C 5.394 13.287 6.383 14.046 7.371 14.806 C 7.41 14.846 7.478 14.611 6.556 17.59 C 6.192 18.767 5.886 19.753 5.334 21.538 L 4.709 23.56 C 4.638 23.786 4.587 23.975 4.591 23.982 C 4.606 23.994 4.134 24.354 8.308 21.167 L 11.946 18.389 L 12.01 18.342 L 13.491 19.475 C 18.246 23.109 19.423 24.004 19.43 23.999 C 19.434 23.994 19.34 23.681 19.223 23.301 L 18.551 21.135 L 16.974 16.029 C 16.693 15.119 16.615 14.864 16.615 14.839 C 16.615 14.828 18.277 13.551 20.308 12.001 C 22.338 10.45 24 9.173 24 9.161 C 24 9.152 22.234 9.141 19.42 9.139 L 14.841 9.134 L 14.523 8.099 C 14.347 7.532 13.994 6.391 13.739 5.568 L 12.651 2.042 C 12.306 0.926 12.019 0.01 12.012 0 C 12.004 -0.01 11.905 0.288 11.79 0.662 L 11.79 0.663 Z"/>
</svg>