<svg fill="currentColor" height="24" viewBox="0 0 76 24" width="76" xmlns="http://www.w3.org/2000/svg">
  <title>Appenin</title>
  <path d="M59.2 3.7a1.8 1.8 0 001.7-1.1 1.8 1.8 0 000-1.4A1.8 1.8 0 0059.2 0a1.8 1.8 0 00-1.7 1.2 1.8 1.8 0 001 2.3l.7.2zM22.6 9.4C23 7 22.3 5 20.2 5c-1.3 0-2.5.7-3.5 1.8l.2-.6a.8.8 0 00-.4-1h-1.9a.7.7 0 00-.7.5l-2.4 6.9c-.6.6-1 1-1.5 1-.4 0-.5-.2-.5-.6L12 6.3a.8.8 0 00-.4-1h-2a.7.7 0 00-.7.5V6h-.2c-.4-.6-1-1-2.2-1C3.8 5 1 8 .2 11.7-.4 14 .4 16 2.6 16c1.1 0 3-.5 4-1.6 0 0 .4 1.6 2.1 1.6.7 0 1.5-.3 2-.7l1-.9c-.2.7-.7 1.3-1.3 1.7L9 20.3a.5.5 0 00.2.7H11a1 1 0 001-.7l2-5c.4.4 1.3.6 2.3.6 2.7 0 5.5-2.8 6.3-6.5zM7.9 9c-1 2.6-2.6 4-3.7 4-.7 0-1-.6-.8-1.6.4-1.6 1.6-3.5 3-3.5.7 0 1.2.3 1.6.8l-.1.3zm11.4.7C19 11.4 17.7 13 16 13c-.5 0-1-.2-1.2-.7v-.2c1-2.8 2.6-4.3 3.7-4.3.8 0 1 .8.8 1.8zm32.5-4.5c-1.2 0-2.2.3-3.1 1.3v-.2a.7.7 0 00-.3-1h-1.8a.7.7 0 00-.7.5L44.3 10c-1.9 2-4.2 3.5-6.3 3.1-.5 0-.9-.5-.9-1.2 3.1-.3 6.3-1.3 7-4 .4-1.9-1.2-2.8-2.9-2.8-3 0-5.5 2.1-6.6 5l-1.2-.2.2-.6C34 7 33.4 5 31.2 5c-1.3 0-2.5.7-3.5 1.8l.2-.6a.8.8 0 00-.4-1h-1.9a.7.7 0 00-.7.5l-5 14.5a.5.5 0 00.2.6l.2.1H22a1 1 0 001-.7l2-5c.4.4 1.3.6 2.3.6 2.2 0 4.3-1.8 5.5-4.3 0 0 1.2.3 3 .2-.5.4-1.1.6-1.8.5v.7c0 1.8 1.3 3 3.4 3 4 0 6.8-3.7 6.8-3.7l-.6 1-.6.9-.4 1a.6.6 0 00.2.6h1.9a1 1 0 001-.6l2.1-6.3c.7-.7 1.4-1.4 2.2-1.4 1.1 0 1.2 1 .8 2l-.7 2a269.4 269.4 0 00-1 4.1.5.5 0 00.4.2H51a1 1 0 001-.7l2-5.5c.7-2.3.2-4.3-2.2-4.3zM40.5 7.8c.5 0 .7.2.6.7-.3 1-1.8 1.4-3.4 1.6.7-1.5 1.8-2.3 2.8-2.3zM30.3 9.7c-.3 1.7-1.6 3.4-3.3 3.4-.5 0-1-.2-1.2-.7v-.2c1-2.8 2.6-4.3 3.7-4.3.8 0 1 .8.8 1.8zm43.9.3a.7.7 0 00-.8.2c-1.2 2.1-2.4 3.6-3.3 3.6-.6 0-.6-.7-.3-1.4l.9-2.7c.8-2.3.3-4.5-2.2-4.5-1.1 0-2.1.5-3 1.5v-.4a.8.8 0 00-.3-1h-1.9a.7.7 0 00-.6.5l-2 5.8c-1 1.4-1.8 2.2-2.6 2.2-.9 0-1-.7-.6-1.7l2-5.8a.8.8 0 00-.4-1h-1.9a.8.8 0 00-.7.5l-1.9 5.6c-.8 2.5-.3 4.6 2.2 4.6 1 0 2-.4 2.7-1l1.2-1-.6 1.1c-.3.3-.5.6-.9.8h2.3a1 1 0 001-.7l2.1-6c.7-.8 1.4-1.4 2.2-1.4 1.1 0 1.2 1 .8 2l-.7 1.9c-.6 1.8-.7 4.3 1.8 4.3 2.3 0 4.2-2.2 5.8-5.1a.7.7 0 00-.3-1z"/>
</svg>