<svg xmlns="http://www.w3.org/2000/svg" xmlns:xlink="http://www.w3.org/1999/xlink" version="1.1" x="0px" y="0px" viewBox="0 0 947.9 274.9" style="enable-background:new 0 0 947.9 274.9;" xml:space="preserve">
  <style type="text/css">
    .st0{fill:#5B6971;}
    .st1{fill:#8F7332;}
    .st2{fill:none;}
    .st3{fill:#86672B;}
    .st4{fill:#0091A7;}
    .st5{fill:#E2001A;}
    .st6{fill:#FFFFFF;}
    .st7{fill:#004696;}
    .st8{fill:#FF9150;}
    .st9{fill:url(#SVGID_1_);}
    .st10{fill:url(#SVGID_00000148624757623911497350000013468283928199891128_);}
    .st11{fill:url(#SVGID_00000085940848104325879490000014480681560322137739_);}
  </style>
  <g id="artwork">
    <g id="good_MMA">
      <g>
        <g>
          <path class="st0" d="M929.6,8.5V269h-0.8l-908.6,0V8.5 M21.8,10.2v257l906.3,0.1V10.2L21.8,10.2z"/>
        </g>
      </g>
      <g>
        <rect x="253.4" y="47.5" class="st0" width="1.6" height="183.5"/>
      </g>
    </g>
    <g>
      <path class="st1" d="M63.1,171l13.8,33.7c2.3,5.5,4.2,10.4,5.7,15.4h0.4c1.6-5,3.6-9.9,5.9-15.4l13.6-33.7h13.3l-27.5,60H76.1    l-26.7-60H63.1z"/>
      <path class="st0" d="M226.6,116.4c0,31.7-26.7,45.6-52,45.6c-28.2,0-50-17-50-44.1c0-28.7,22.9-45.6,51.7-45.6    C206.3,72.2,226.6,90.1,226.6,116.4z M143.2,117.2c0,18.8,13.4,33,32.3,33c18.5,0,32.3-14,32.3-33.3c0-14.5-9-33-31.9-33    C153,83.9,143.2,100.9,143.2,117.2z"/>
      <path class="st0" d="M126.9,145.5c-5.3,1.9-12.1,3.9-22.2,3.9c-20.7,0-36.2-12.2-36.2-32.1c0-17.9,12.9-32.4,36.9-32.4    c10,0,17,1.8,21.5,3.9V75.2c-5.5-1.5-13.1-2.8-21.5-2.8c-34.1,0-56,19.1-56,45.6c0,26.2,20.5,43.8,52,43.8    c10.8,0,19.8-1.7,25.6-3.4V145.5z"/>
      <path class="st1" d="M225.3,216.6v-22.4c0-12-5.2-24.5-26.7-24.5c-7.5,0-14.7,1.5-20.3,4v8.1l0.2,0.4c4.9-2.7,11.7-4.5,18.3-4.5    c14.3,0,15.9,8.9,15.9,13.9v1.2c-27.1-0.1-42.2,7.8-42.2,22.3c0,8.7,7.2,17.2,21.5,17.2c10,0,17.5-4.2,21.5-8.9h0.4l1,7.6h11.6    C225.6,226.9,225.3,221.8,225.3,216.6z M213,210.8c0,1.1-0.3,2.4-0.7,3.5c-2,5.1-7.8,10-17,10c-6.5,0-12-3.3-12-10.4    c0-11.6,15.8-13.8,29.7-13.5V210.8z"/>
      <path class="st1" d="M141.4,169.6c-0.7,0-1.3,0-2,0.1c-18.7,0.9-30,15.5-30,33c0,17.1,11.2,28.1,30,29.4c1.1,0.1,2.3,0.1,3.5,0.1    c9.3,0,16.1-1.5,20.6-3v-8.4l0-0.1c-4.7,1.7-10,3.1-18.9,3.1c-1.8,0-3.5-0.1-5.2-0.4c-10-1.5-17.9-8.1-18.2-20.7h49.1c0,0,0,0,0,0    l0.3,0C170.7,202.7,174.7,169.6,141.4,169.6z M159,195.1h-37.2c1-7.4,6.4-17.2,18.7-17.7c0.3,0,0.7,0,1,0    C160,177.4,159,195.1,159,195.1z"/>
      <rect x="49" y="71.7" class="st2" width="178.1" height="159.4"/>
      <path class="st3" d="M178.4,105.3c-0.2,0.3-7,11.9-13,18.7c-3,3.4-6.1,6.5-8.1,8.5h10.2c15.4-11.3,23.8-22.7,26.7-27.2H178.4z"/>
      <g>
        <path class="st1" d="M65.1,65.1c-1.9,1.1-4.1,1.6-6.5,1.6c-2.8,0-5-0.9-6.7-2.6c-1.7-1.7-2.6-4-2.6-6.8c0-2.9,0.9-5.3,2.8-7.1     c1.9-1.8,4.2-2.8,7.1-2.8c2.1,0,3.8,0.3,5.2,0.9v3.2c-1.4-1-3.1-1.4-5.1-1.4c-2,0-3.6,0.7-4.9,2c-1.3,1.3-1.9,3-1.9,5.1     c0,2.1,0.5,3.8,1.6,5c1.1,1.2,2.6,1.8,4.4,1.8c1.3,0,2.4-0.2,3.3-0.7v-4.4h-3.9v-2.6h7V65.1z"/>
        <path class="st1" d="M98.8,66.4h-3.6l-3-5c-0.3-0.5-0.5-0.9-0.8-1.2c-0.3-0.3-0.5-0.6-0.8-0.8c-0.3-0.2-0.6-0.4-0.9-0.5     c-0.3-0.1-0.7-0.1-1.1-0.1h-1.2v7.6h-3.1V47.7h6.1c0.9,0,1.7,0.1,2.4,0.3c0.7,0.2,1.4,0.5,1.9,0.9c0.5,0.4,1,0.9,1.3,1.6     c0.3,0.6,0.5,1.4,0.5,2.2c0,0.7-0.1,1.3-0.3,1.8c-0.2,0.6-0.5,1-0.8,1.5c-0.4,0.4-0.8,0.8-1.3,1.1c-0.5,0.3-1.1,0.5-1.7,0.7v0.1     c0.3,0.2,0.6,0.4,0.9,0.6c0.3,0.2,0.5,0.5,0.7,0.7c0.2,0.2,0.4,0.5,0.7,0.8c0.2,0.3,0.5,0.7,0.7,1.1L98.8,66.4z M87.5,50.3v6.1     H90c0.5,0,0.9-0.1,1.3-0.2c0.4-0.1,0.8-0.4,1-0.6c0.3-0.3,0.5-0.6,0.7-1c0.2-0.4,0.2-0.8,0.2-1.3c0-0.9-0.3-1.6-0.8-2.1     c-0.6-0.5-1.4-0.8-2.4-0.8H87.5z"/>
        <path class="st1" d="M123.6,66.7c-2.7,0-4.8-0.9-6.5-2.6c-1.6-1.7-2.4-4-2.4-6.8c0-3,0.8-5.4,2.5-7.2c1.6-1.8,3.9-2.7,6.7-2.7     c2.6,0,4.7,0.9,6.3,2.6c1.6,1.7,2.4,4,2.4,6.8c0,3-0.8,5.4-2.5,7.2C128.6,65.8,126.4,66.7,123.6,66.7z M123.8,50.2     c-1.7,0-3.1,0.6-4.2,1.9c-1.1,1.3-1.6,3-1.6,5c0,2.1,0.5,3.7,1.6,5c1,1.3,2.4,1.9,4.1,1.9c1.8,0,3.2-0.6,4.2-1.8     c1-1.2,1.5-2.9,1.5-5.1c0-2.2-0.5-3.9-1.5-5.2C126.9,50.8,125.6,50.2,123.8,50.2z"/>
        <path class="st1" d="M165.7,58.8c0,5.2-2.5,7.8-7.4,7.8c-4.7,0-7.1-2.5-7.1-7.5V47.7h3.1v10.8c0,3.7,1.4,5.5,4.3,5.5     c2.7,0,4.1-1.8,4.1-5.3v-11h3.1V58.8z"/>
        <path class="st1" d="M188.4,59.6v6.8h-3.1V47.7h5.7c2.1,0,3.8,0.5,5,1.5c1.2,1,1.8,2.4,1.8,4.2s-0.6,3.3-1.8,4.4     c-1.2,1.2-2.9,1.7-5,1.7H188.4z M188.4,50.3v6.8h2c1.3,0,2.3-0.3,3-0.9c0.7-0.6,1-1.5,1-2.6c0-2.2-1.3-3.3-3.8-3.3H188.4z"/>
        <path class="st1" d="M226.6,66.4h-10.5V47.7h10v2.6h-7v5.3h6.4v2.6h-6.4v5.5h7.4V66.4z"/>
      </g>
    </g>
    <g>
      <g>
        <rect x="283.2" y="86.6" class="st4" width="138.1" height="99.1"/>
      </g>
      <g>
        <rect x="283.2" y="185.7" class="st5" width="138.1" height="7.1"/>
      </g>
      <g>
        <g>
          <path class="st6" d="M400.8,154h8.2l1.5-3.7h-12.9c-3,0-4.4,0.8-5.5,4l-6.8,18.7h-0.1l-2.4-22.6h-5c-0.8,0-1.4,0.1-2,0.6      c-3.4,2.9-10.9,13.6-15.2,22h-0.2l-2.4-22.6h-5c-0.8,0-1.4,0.1-2,0.6c-3.4,2.9-10.9,13.6-15.2,22h-0.2l0.6-22.6h-6.2      c-1.2,0-1.5,0.2-2.2,0.9c-2.3,2.7-6.4,9.1-9,14.6h-0.1l0.4-15.5h-4.5c-0.6,0-1.4,0.4-2.2,0.9c-5,3.6-11.2,13-16.3,23.9h5.3      c3.2-6.6,7-13.2,9.9-16.4h0.1l-0.3,13.3c-0.1,2.7,1.4,3.1,2.4,3.1h5.1c3.3-6.7,7-13.1,9.2-16.1h0.1l-0.2,13.5      c0,1.5,1.2,2.6,3,2.6h8.5c1.1-2,2.2-4,3.3-6h9.1l0.2,2.6c0.2,2.2,1.3,3.3,3.8,3.3h8.3c1.1-2,2.2-4,3.3-6h9.1l0.2,2.6      c0.2,2.2,1.3,3.3,3.8,3.3h12.3L397,164h5.9c1.3,0,2.3-0.5,2.7-1.6l0.7-1.7h-7.9L400.8,154z M350.7,157.3h0.2l0.7,8.7h-6.9      C346.9,162.3,349,159.1,350.7,157.3 M375.4,157.3h0.2l0.7,8.7h-6.9C371.6,162.3,373.7,159.1,375.4,157.3"/>
        </g>
        <g>
          <path class="st5" d="M399.6,123.5c0-0.9,0.7-1.6,1.6-1.6c0.9,0,1.6,0.7,1.6,1.6c0,0.9-0.7,1.6-1.6,1.6      C400.3,125.1,399.6,124.4,399.6,123.5"/>
        </g>
        <g>
          <path class="st6" d="M406.7,118.9c-7.7-13.4-28.8-12.6-29-12.6c0,0-0.6,0-1.6,0c-12,0-22.7,2.5-32.1,6.4c0,0,0,0,0,0      c-1.1,0.5-1.8,0.3-2.1,0.2c-0.7-0.3-1.1-0.5-1.1-0.5l0,0c-9.7-5.8-18.4-5.4-18.4-5.4s-3.5,0.1-4.6,0.3c-1,0.2-1.1,0.5,0,0.5      c1.9-0.1,5.1,0,12,2.5l3,1.4c1.6,0.9,2.8,1.8,3.5,2.5c0.3,0.3,0.4,0.5,0.5,0.7c0.1,0.2,0.2,0.9-0.8,1.5c0,0,0,0-0.1,0      c-7.9,4.2-14.8,9.3-20.5,14.4c-7,6-14,13.7-20.2,23.4c-1.2,1.9-1.8,3-1.8,3s-2.9,4.8-1.7,4.5c1.2-0.3,3.3-3.8,3.3-3.8      c9.1-12.6,19-21.8,28.6-28.5c9.6-6.5,19.1-11,26.2-13.4c16.1-5.4,27.9-5,28-4.9c0.2,0,17.8-0.6,27.1,8.1c0,0,2.5,2.5,3,3.2      c0,0.1,0.2,0.3,0.4,0.2C408.6,122.3,406.8,119.1,406.7,118.9"/>
        </g>
      </g>
    </g>
    <g>
      <g>
        <rect x="795.3" y="87" class="st6" width="105.4" height="105.4"/>
      </g>
      <g>
        <g>
          <path class="st7" d="M900.8,192.4H795.3v-62.8c0,0,70.5,5.7,105.4-13.9V192.4z"/>
        </g>
        <g>
          <path class="st6" d="M870.3,174.5c1.6-0.2,2.6-0.5,3-1c0.4-0.5,0.6-1.7,0.6-3.7v-20.2c0-1.7-0.2-2.8-0.7-3.3      c-0.4-0.5-1.4-0.8-2.9-0.9v-0.9h21.9l0.2,6.6h-1.1c-0.3-2.1-0.8-3.5-1.6-4c-0.8-0.6-2.3-0.8-4.7-0.8h-5.6      c-0.6,0-0.9,0.1-1.1,0.3c-0.2,0.2-0.2,0.6-0.2,1.2v10.4h5.1c1.8,0,2.9-0.1,3.4-0.6c0.5-0.5,0.9-1.5,1.2-3.1h1v9.3h-1      c-0.3-1.5-0.7-2.6-1.2-3.1c-0.5-0.5-1.6-0.6-3.3-0.6h-5.1v10.2c0,1.7,0.2,2.8,0.7,3.3c0.5,0.5,1.5,0.8,3,0.9v0.9h-11.5V174.5z"/>
        </g>
        <g>
          <path class="st6" d="M829.5,158.9h-7.6v0.9c1.5,0.1,2.5,0.4,2.9,0.8c0.4,0.4,0.7,1.6,0.7,3.4v7.4c0,0.5-0.1,0.9-0.4,1.2      c-0.3,0.3-0.8,0.6-1.8,0.9c-0.6,0.2-1.2,0.4-1.9,0.5c-0.7,0.1-1.2,0.2-1.7,0.2c-2.9,0-5.4-1.2-7.4-3.6c-2-2.4-3-5.8-3-10.1      c0-5.2,1-9,3-11.2c2-2.3,4.3-3.4,7-3.4c2.6,0,4.7,1,6.3,2.9c0.9,1.1,1.8,2.8,2.6,5h1l-0.3-9.8h-0.9c-0.2,0.5-0.4,0.9-0.6,1.1      c-0.2,0.3-0.7,0.4-1.2,0.4c-0.2,0-1.1-0.3-2.6-0.8c-1.5-0.5-3.1-0.8-4.7-0.8c-4.4,0-7.9,1.7-10.6,5.1c-2.4,3.1-3.6,6.8-3.6,11.2      c0,4.9,1.5,8.9,4.6,11.8c2.8,2.7,6.1,4,10.2,4c2.2,0,4.4-0.4,6.8-1.4c2.4-0.9,3.5-1.6,3.5-2.2V158.9z"/>
        </g>
        <g>
          <path class="st6" d="M838.3,149.9l10.4,25.5h0.6l10.5-26.6v26.6h7.8v-0.9c-1.5-0.2-2.5-0.5-2.9-1c-0.4-0.5-0.7-1.6-0.7-3.3      v-20.7c0-1.7,0.2-2.7,0.7-3.2c0.4-0.5,1.4-0.8,2.9-0.9v-0.9h-8.1l-9.2,23.3l-9.5-23.3h-8.1v0.9c1.7,0.1,2.7,0.4,3.2,0.9      c0.5,0.5,0.7,1.6,0.7,3.3v18.9c0,2.5-0.3,4-0.7,4.7c-0.5,0.7-1.6,1.1-3.3,1.3v0.9h5.8V149.9z"/>
        </g>
        <g>
          <path class="st8" d="M862.1,116.9c-4.6,0.6-10.6-0.8-13.7-1.8c-0.2-0.1-0.1-0.1-0.2,0c-0.2,0.3-0.4,1-0.5,1.4      c0.1-0.2,1.2,0.8,1.4,0.8c0.2,0,0.1-0.1-0.3,1.2c-0.1,0.3-0.2,2-0.1,2c0.1,0,1.4,0.3,1.8,0.3h0.1c5.4,0.4,9,0.3,9.1,0.3      c0.3,0.1,0.5-0.1,0.4-0.3c0,0,0-0.3,0.2-0.7c0.5-1,1.3-2,1.9-3.1C862.5,116.8,862.3,116.7,862.1,116.9"/>
        </g>
        <g>
          <path class="st8" d="M844.1,89.9l2.9,0.3l7.2,3l1.8-0.3c-3-2.2-7.6-4.5-14.4-4.4l0.7,1.6L844.1,89.9z"/>
        </g>
        <g>
          <path class="st8" d="M869.1,87c0.4,0.9,2.2,3.4,1.8,4.1c-2.7,5.2-6,10.9-8.4,13.2c-0.3,0.4-0.3,1.4,0.2,1.7      c0.5,0.2,2.1,0.7,3,0.9c0.8,0.3,1.3,0.5,1.5,0.8c0.3,0.4-0.5,1.4-1,1.9l0.1,0.9c0.6,0.4,1.7,0.7,4.3,2.1c0.3,0.2,0,0.7-0.2,0.9      c-0.2,0.2-1.3,1.7-1.8,2c-0.3,0.2-0.1,1,0,1.1c1.3,0.2,1.8,2.1,1.9,4.1c12.4-3.7,23.4-9.4,30.3-17.8V87H869.1z M883.6,98.7      l-3.4-1.7l5.4-0.2l-0.3-4.1c0,0-4.9-0.5-5.4-0.5l0.1,4.8l-4.7-2.4c0,0,7.6-4,7.8-4.2l6.3,3.8L883.6,98.7z"/>
        </g>
        <g>
          <path class="st8" d="M844.8,117.9l-0.1-0.4c-0.9-1.4-2.6-4.7-3.8-6.8c-0.3-0.4-0.2-0.1-0.2-0.8c0-0.7,0-3,0-3.8      c0-0.9,0-2.8-0.1-3.8c-0.1-2.3,1-1.7,1-1.7c0.9,0.6,5.6,1.3,6.1,1.4c0.6,0.1,0.4,0,0.8-0.1c0.3-0.1,5.5-1.7,7.7-5.5      c-3.5-2.6-9.5-3.6-9.9-3.7l-1.3,0.4c-0.5,0.2-3.2,1.3-3.4,1.4l-0.7,0.3l-1.4,0.6l-0.1-0.2c0,0,0-1.9,0.3-3.5      c0.1-0.5,0.3-2.9,0.3-3.3c0-0.3-0.1-0.7,0-1l0.1-0.3h-7.5c0.2,1.7-0.2,3.7-0.2,5c0,1.6,0.3,1.7,0.3,2.9c0,1.3,0,20.1,0,22      c0,2.1-0.5,7.6-0.7,10.1c4.5-0.3,9.1-0.7,13.8-1.3C845.5,122.7,844.6,117.9,844.8,117.9 M850.3,95.2c0.9,0.3,1.9,0.7,3,1.3      c0,0.4-2.2,2.7-5.4,2.5l3.1-1.3L850.3,95.2z M845.1,95.3l0.9,3.3c-1-0.3-2-0.9-3-1.8C843,96.9,843.7,96,845.1,95.3"/>
        </g>
        <g>
          <path class="st8" d="M829.7,109.8c-0.8-2.1-3.6-11.9-4.5-13.8c-0.7-1.6,0.1-3.8,1.1-6.8l0.1-0.1c0.4-0.7,0.2-1,0.6-1.6l0.2-0.5      h-31.9v40c0,0,10.5,0.9,25.1,0.5c0.3-0.7,0.4-0.7,0.7-1.6c0.3-0.9-1.4-1.7-2.2-2.2c-0.3-0.2-0.2-1,0-1.2      c2.4-2.2,4.1-3.7,4.8-3.9c0-0.3,0.2-0.7-0.1-0.9l-0.1-0.1c-0.3-0.1-0.5-0.2-0.7-0.4l0-0.1c-0.2-0.8,0-1.1,0-2.5      c0.1-0.7,0.2-0.9,0.5-1l0.3-0.2c1.9-1.2,2-1.3,5.4-1.8c0.8-0.2,1.2-0.8,0.9-1.7L829.7,109.8z M811.8,100.7c-2.2-1.5-8-5.5-8-5.5      l5.9-1.9l-0.3,5.2l6,0.3l0.2-5.4l-4.4-0.6l3.3-1.1l5.4,3.9C819.9,95.6,815,99.9,811.8,100.7"/>
        </g>
      </g>
    </g>
    <g>
      <g>
        <radialGradient id="SVGID_1_" cx="5501.7822" cy="3610.2971" r="114.021" gradientTransform="matrix(0.4602 0 0 0.4602 -2000.9406 -1548.3831)" gradientUnits="userSpaceOnUse">
          <stop offset="3.000000e-02" style="stop-color:#A8B5D7"/>
          <stop offset="7.582487e-02" style="stop-color:#869CCA"/>
          <stop offset="0.1353" style="stop-color:#6180BB"/>
          <stop offset="0.1975" style="stop-color:#4269AF"/>
          <stop offset="0.2625" style="stop-color:#2A57A6"/>
          <stop offset="0.3313" style="stop-color:#194B9F"/>
          <stop offset="0.4064" style="stop-color:#0F439B"/>
          <stop offset="0.5" style="stop-color:#0C419A"/>
          <stop offset="1" style="stop-color:#091E5E"/>
        </radialGradient>
        <path class="st9" d="M513.5,179.4c21.9,0,39.6-17.7,39.6-39.6c0-21.9-17.7-39.6-39.6-39.6c-21.9,0-39.6,17.7-39.6,39.6     C473.8,161.6,491.6,179.4,513.5,179.4z"/>
        <path class="st6" d="M490.9,154.9l10.2-28.6c0,0,0.9-2.9,3.1-2.9c2.3,0,3.1,2.9,3.1,2.9l6.1,17.1l6.1-17.1c0,0,0.8-2.9,3.1-2.9     s3.1,2.9,3.1,2.9l10.1,28.6h-6l-7.2-20.3l-6.5,18.1c0,0-0.7,2.6-2.7,2.6c-2.3,0-2.9-2.6-2.9-2.6l-6.4-18.2l-7.2,20.4H490.9z"/>
          <radialGradient id="SVGID_00000014628504733190634390000007354126536749892276_" cx="5533.4512" cy="3610.2971" r="114.0213" gradientTransform="matrix(0.4602 0 0 0.4602 -1920.5651 -1548.3831)" gradientUnits="userSpaceOnUse">
          <stop offset="3.000000e-02" style="stop-color:#A4D6A4"/>
          <stop offset="8.347572e-02" style="stop-color:#7BC08E"/>
          <stop offset="0.1418" style="stop-color:#56AD7B"/>
          <stop offset="0.203" style="stop-color:#379C6A"/>
          <stop offset="0.2668" style="stop-color:#1F905E"/>
          <stop offset="0.3343" style="stop-color:#0E8755"/>
          <stop offset="0.4081" style="stop-color:#048250"/>
          <stop offset="0.5" style="stop-color:#01804E"/>
          <stop offset="1" style="stop-color:#14723D"/>
        </radialGradient>
        <circle style="fill:url(#SVGID_00000014628504733190634390000007354126536749892276_);" cx="608.4" cy="139.7" r="39.6"/>
        <path class="st6" d="M585.9,154.9l10.2-28.6c0,0,0.9-2.9,3.1-2.9c2.3,0,3.1,2.9,3.1,2.9l6.1,17.1l6.1-17.1c0,0,0.8-2.9,3.1-2.9     s3.1,2.9,3.1,2.9l10.1,28.6h-6l-7.2-20.3l-6.5,18.1c0,0-0.7,2.6-2.7,2.6c-2.3,0-2.9-2.6-2.9-2.6l-6.4-18.2l-7.2,20.4H585.9z"/>
        <radialGradient id="SVGID_00000091714501231654317600000002919171124634133641_" cx="5565.1196" cy="3610.2971" r="114.0213" gradientTransform="matrix(0.4602 0 0 0.4602 -1840.1903 -1548.3831)" gradientUnits="userSpaceOnUse">
          <stop offset="3.000000e-02" style="stop-color:#FEE6AB"/>
          <stop offset="3.715091e-02" style="stop-color:#FEE2A3"/>
          <stop offset="8.173336e-02" style="stop-color:#FECC76"/>
          <stop offset="0.1266" style="stop-color:#FFBA50"/>
          <stop offset="0.171" style="stop-color:#FFAB33"/>
          <stop offset="0.215" style="stop-color:#FFA11F"/>
          <stop offset="0.2583" style="stop-color:#FF9B12"/>
          <stop offset="0.3" style="stop-color:#FF990E"/>
          <stop offset="1" style="stop-color:#FF5A0C"/>
        </radialGradient>
        <path style="fill:url(#SVGID_00000091714501231654317600000002919171124634133641_);" d="M703.4,179.4     c21.9,0,39.6-17.7,39.6-39.6c0-21.9-17.7-39.6-39.6-39.6c-21.9,0-39.6,17.7-39.6,39.6C663.7,161.6,681.5,179.4,703.4,179.4z"/>
        <path class="st6" d="M721.2,155.8l-4.4-9.6c1.3-0.6,2.5-1.3,3.6-2l-2.4-4.3c-1,0.7-2.1,1.3-3.3,1.9l-8.3-18.1     c-0.6-1.2-1.3-2.3-3-2.3h-0.1c-1.7,0-2.4,1.1-3,2.3c-0.3,0.7-14.4,32.1-14.4,32.1h6.7l3.3-7.5c2.4,0.6,4.9,0.9,7.4,0.9     c2.6,0,5.1-0.3,7.5-1l3.4,7.5H721.2z M703.4,144.3c-1.8,0-3.6-0.2-5.4-0.6l5.4-12l5.5,12C707.1,144.1,705.3,144.3,703.4,144.3z"/>
      </g>
    </g>
  </g>
  <g id="informations">
  </g>
</svg>