<svg fill="none" height="97" viewBox="0 0 367 97" width="367" xmlns="http://www.w3.org/2000/svg">
  <path d="M165.416 27.7676H111.963V66.4676H165.416V27.7676Z" fill="#019DAD"/>
  <path d="M165.416 66.4678H111.963V69.2321H165.416V66.4678Z" fill="#ED1C24"/>
  <path d="M157.506 54.095H160.67L161.246 52.6504H156.252C155.075 52.6504 154.56 52.951 154.122 54.1965L151.493 61.4821H151.435L150.518 52.6504H148.59C148.268 52.6504 148.051 52.6894 147.815 52.8925C146.479 54.0169 143.595 58.1907 141.922 61.4821H141.86L140.947 52.6504H139.019C138.701 52.6504 138.484 52.6894 138.244 52.8925C136.909 54.0169 134.024 58.1907 132.351 61.4821H132.293L132.514 52.6504H130.125C129.649 52.6504 129.529 52.7324 129.293 53.0096C128.395 54.0755 126.823 56.5821 125.789 58.71H125.75L125.909 52.6504H124.155C123.915 52.6504 123.601 52.8105 123.319 53.0096C121.371 54.4152 118.982 58.0696 116.992 62.3215H119.064C120.299 59.729 121.77 57.1834 122.885 55.9183H122.943L122.827 61.1189C122.808 62.1809 123.365 62.3215 123.741 62.3215H125.731C127.005 59.6939 128.456 57.2029 129.312 56.0394H129.351L129.273 61.3181C129.273 61.8998 129.73 62.3215 130.447 62.3215H133.749C134.167 61.5562 134.585 60.7558 135.023 59.9906H138.546L138.624 61.0174C138.705 61.8803 139.123 62.3215 140.095 62.3215H143.32C143.738 61.5562 144.156 60.7558 144.594 59.9906H148.113L148.195 61.0174C148.272 61.8803 148.694 62.3215 149.666 62.3215H154.424L156.035 57.9877H158.304C158.819 57.9877 159.175 57.7846 159.338 57.3434L159.597 56.6602H156.531L157.506 54.095ZM138.105 55.3561H138.163L138.442 58.749H135.755C136.63 57.3239 137.447 56.0784 138.105 55.3561ZM147.676 55.3561H147.734L148.013 58.749H145.326C146.201 57.3239 147.018 56.0784 147.676 55.3561Z" fill="white"/>
  <path d="M157.029 42.1901C157.029 41.8505 157.304 41.5693 157.641 41.5693C157.982 41.5693 158.257 41.8465 158.257 42.1901C158.257 42.5337 157.982 42.8109 157.641 42.8109C157.304 42.8109 157.029 42.5337 157.029 42.1901Z" fill="#ED1C24"/>
  <path d="M159.779 40.3864C156.817 35.1389 148.64 35.4552 148.555 35.4591C148.547 35.4591 148.33 35.4513 147.943 35.4552C143.312 35.4552 139.17 36.4274 135.519 37.9384C135.515 37.9384 135.507 37.9384 135.503 37.9423C135.081 38.1219 134.795 38.0711 134.675 38.0321C134.415 37.9345 134.241 37.8212 134.241 37.8212C130.466 35.5723 127.125 35.7051 127.125 35.7051C127.125 35.7051 125.758 35.7324 125.344 35.83C124.941 35.9276 124.929 36.0448 125.336 36.0252C126.079 35.994 127.299 36.0135 129.974 37.0169L131.151 37.5596C131.778 37.9071 132.224 38.2624 132.522 38.5318C132.619 38.6294 132.681 38.7231 132.723 38.8129C132.75 38.8949 132.816 39.1839 132.41 39.4064C132.398 39.4103 132.394 39.4142 132.386 39.422C129.32 41.0658 126.672 43.0492 124.445 45.056C121.727 47.4104 119.033 50.3855 116.636 54.1805C116.168 54.9067 115.931 55.3323 115.931 55.3323C115.931 55.3323 114.82 57.2181 115.265 57.0971C115.715 56.976 116.524 55.5978 116.524 55.5978C120.043 50.6861 123.861 47.098 127.581 44.4704C131.287 41.9364 134.965 40.1951 137.71 39.258C143.936 37.1341 148.508 37.3254 148.555 37.3254C148.632 37.3254 155.443 37.0755 159.036 40.4957C159.043 40.5074 160.019 41.4835 160.197 41.7529C160.217 41.7803 160.275 41.8701 160.352 41.8193C160.522 41.7139 159.81 40.4411 159.779 40.3864Z" fill="white"/>
  <path d="M351.087 27.9199H310.26V69.0836H351.087V27.9199Z" fill="white"/>
  <path d="M351.084 69.0832H310.26V44.5638C310.26 44.5638 337.544 46.8049 351.087 39.1484V69.0832H351.084Z" fill="#164194"/>
  <path d="M339.287 62.0793C339.918 61.9973 340.302 61.8685 340.456 61.685C340.607 61.5015 340.685 61.0173 340.685 60.2325V52.3418C340.685 51.6937 340.6 51.2681 340.425 51.069C340.259 50.866 339.876 50.7488 339.287 50.702V50.3584H347.762L347.836 52.9431H347.391C347.278 52.1193 347.077 51.5922 346.767 51.3735C346.465 51.1549 345.861 51.0456 344.967 51.0456H342.795C342.578 51.0456 342.45 51.0846 342.384 51.1744C342.323 51.2564 342.295 51.4165 342.295 51.6586V55.7191H344.258C344.936 55.7191 345.37 55.6683 345.555 55.477C345.741 55.274 345.892 54.8757 346.008 54.2745H346.38V57.8938H346.008C345.888 57.2886 345.734 56.8865 345.552 56.6874C345.362 56.4961 344.932 56.4453 344.258 56.4453H342.295V60.4317C342.295 61.0993 342.385 61.5288 342.563 61.7123C342.745 61.8997 343.132 62.0207 343.728 62.0754V62.4151H339.287V62.0793Z" fill="white"/>
  <path d="M323.486 55.9845H320.555V56.3281C321.136 56.3671 321.515 56.4764 321.689 56.6521C321.864 56.8278 321.945 57.2651 321.945 57.9679V60.8571C321.945 61.0563 321.902 61.2085 321.81 61.3139C321.713 61.4155 321.48 61.5404 321.101 61.681C320.869 61.7669 320.625 61.8332 320.365 61.8723C320.106 61.9113 319.881 61.9347 319.692 61.9347C318.557 61.9347 317.601 61.4662 316.83 60.5214C316.06 59.5765 315.673 58.2685 315.673 56.5936C315.673 54.5555 316.06 53.0992 316.834 52.2129C317.605 51.3305 318.507 50.8854 319.529 50.8854C320.536 50.8854 321.349 51.2602 321.98 52.0177C322.332 52.451 322.665 53.1031 322.987 53.9815H323.354L323.23 50.1553H322.874C322.808 50.3466 322.723 50.491 322.626 50.5926C322.534 50.6902 322.371 50.7448 322.142 50.7448C322.053 50.7448 321.713 50.6433 321.12 50.4481C320.52 50.249 319.916 50.1514 319.301 50.1514C317.601 50.1514 316.234 50.819 315.197 52.1543C314.267 53.3686 313.795 54.8171 313.795 56.5116C313.795 58.4403 314.383 59.9787 315.557 61.1265C316.625 62.1651 317.934 62.6766 319.486 62.6766C320.33 62.6766 321.206 62.5048 322.119 62.1456C323.033 61.7864 323.49 61.5053 323.49 61.2905V55.9845H323.486Z" fill="white"/>
  <path d="M326.908 52.4746L330.927 62.4229H331.151L335.228 52.0451V62.4229H338.233V62.0793C337.648 62.0168 337.265 61.8958 337.094 61.7084C336.924 61.521 336.843 61.0954 336.843 60.4317V52.3379C336.843 51.6898 336.928 51.2681 337.094 51.0729C337.269 50.8699 337.648 50.7527 338.233 50.7059V50.3623H335.081L331.5 59.4595L327.833 50.3623H324.701V50.7059C325.344 50.741 325.754 50.8542 325.936 51.0534C326.118 51.2564 326.211 51.6781 326.211 52.3379V59.7289C326.211 60.6854 326.114 61.2984 325.932 61.5639C325.746 61.8255 325.32 61.9973 324.666 62.0793V62.419H326.912V52.4746H326.908Z" fill="white"/>
  <path d="M336.091 39.5784C334.299 39.8009 331.995 39.266 330.806 38.8561C330.713 38.8248 330.779 38.8053 330.744 38.8639C330.667 38.9771 330.597 39.2621 330.551 39.4183C330.574 39.3441 331.015 39.7228 331.104 39.7228C331.166 39.7228 331.155 39.676 331 40.2109C330.957 40.3436 330.915 40.9761 330.946 40.984C330.977 40.9918 331.488 41.1089 331.631 41.1089H331.654C333.733 41.2495 335.119 41.2065 335.189 41.2377C335.313 41.2924 335.379 41.2143 335.36 41.1245C335.36 41.1284 335.367 40.9996 335.452 40.8512C335.654 40.4725 335.948 40.0547 336.176 39.6526C336.269 39.5432 336.173 39.5315 336.091 39.5784Z" fill="#F28B52"/>
  <path d="M329.157 29.0713L330.261 29.2041L333.064 30.3637L333.78 30.2466C332.634 29.3837 330.822 28.5052 328.201 28.5247L328.48 29.1494L329.157 29.0713Z" fill="#F28B52"/>
  <path d="M338.821 27.9199C338.968 28.2869 339.665 29.2357 339.526 29.5051C338.481 31.5197 337.215 33.7648 336.258 34.6745C336.127 34.8385 336.142 35.2328 336.328 35.3226C336.51 35.3968 337.156 35.592 337.509 35.6779C337.811 35.7911 338.012 35.8692 338.074 36.002C338.175 36.1659 337.896 36.5603 337.702 36.7438L337.757 37.0874C338.004 37.2357 338.423 37.3724 339.402 37.919C339.514 38.001 339.39 38.1923 339.321 38.2665C339.259 38.3524 338.802 38.9302 338.616 39.0395C338.504 39.1059 338.581 39.43 338.616 39.4729C339.131 39.5393 339.301 40.3007 339.344 41.0893C344.145 39.6369 348.419 37.4388 351.083 34.1318V27.9199H338.821ZM344.428 32.4763L343.103 31.797L345.183 31.7032L345.078 30.0907C345.078 30.0907 343.193 29.8955 342.995 29.8799L343.038 31.7579L341.202 30.8248C341.202 30.8248 344.16 29.2786 344.207 29.1771L346.646 30.6569L344.428 32.4763Z" fill="#F28B52"/>
  <path d="M329.398 39.9961L329.371 39.8204C329.014 39.2816 328.364 38.0049 327.895 37.1733C327.787 37.0132 327.81 37.1147 327.826 36.8453C327.845 36.5759 327.845 35.6896 327.845 35.3577C327.845 35.0181 327.826 34.2645 327.814 33.8741C327.779 32.9644 328.205 33.1986 328.205 33.1986C328.554 33.4485 330.366 33.7179 330.563 33.7413C330.799 33.7687 330.737 33.7218 330.869 33.6867C330.997 33.6593 333.014 33.0385 333.842 31.5315C332.503 30.5085 330.153 30.1181 330.025 30.0712L329.529 30.243C329.34 30.3367 328.29 30.7389 328.221 30.8052L327.961 30.9107L327.431 31.1332L327.392 31.0434C327.392 31.0434 327.4 30.3172 327.489 29.673C327.516 29.4778 327.62 28.5368 327.593 28.3923C327.574 28.2908 327.566 28.1112 327.601 28.0175L327.624 27.9199H324.732C324.825 28.5798 324.647 29.3567 324.655 29.8838C324.666 30.5007 324.759 30.5319 324.759 31.0278C324.759 31.5237 324.752 38.8639 324.752 39.633C324.752 40.4646 324.566 42.5808 324.484 43.5608C326.211 43.4515 328.012 43.2836 329.835 43.0454C329.661 41.8702 329.347 40.0039 329.398 39.9961ZM331.554 31.141C331.907 31.2425 332.29 31.4143 332.708 31.6642C332.696 31.8204 331.852 32.7028 330.625 32.6364L331.81 32.1132L331.554 31.141ZM329.525 31.1801L329.882 32.4763C329.514 32.3436 329.123 32.1171 328.72 31.7657C328.716 31.7657 328.979 31.4182 329.525 31.1801Z" fill="#F28B52"/>
  <path d="M323.563 36.8336C323.234 36.0137 322.177 32.1796 321.836 31.426C321.565 30.817 321.871 29.958 322.266 28.7828L322.289 28.7281C322.436 28.4626 322.382 28.3221 322.502 28.1112L322.595 27.9199H310.256V43.5491C310.256 43.5491 314.317 43.8927 319.97 43.7638C320.102 43.4866 320.129 43.4827 320.237 43.1313C320.346 42.7955 319.699 42.4832 319.366 42.2841C319.242 42.206 319.289 41.9053 319.385 41.8155C320.307 40.9488 320.957 40.3826 321.263 40.2889C321.271 40.1874 321.345 39.9961 321.228 39.9376L321.17 39.9102C321.043 39.8556 320.992 39.8478 320.895 39.758L320.888 39.7111C320.818 39.4105 320.884 39.266 320.884 38.735C320.923 38.4617 320.973 38.3992 321.074 38.3329L321.174 38.247C321.898 37.7667 321.933 37.7589 323.246 37.5442C323.548 37.4583 323.699 37.2279 323.606 36.8921L323.563 36.8336ZM316.648 33.2845C315.792 32.6989 313.562 31.1254 313.562 31.1254L315.827 30.3797L315.696 32.4099L318.034 32.5388L318.096 30.4187L316.389 30.1923L317.67 29.7667L319.773 31.2738C319.773 31.2699 317.856 32.9683 316.648 33.2845Z" fill="#F28B52"/>
  <path d="M201.131 63.9733C209.606 63.9733 216.475 57.047 216.475 48.5003C216.475 39.9537 209.606 33.0273 201.131 33.0273C192.656 33.0273 185.787 39.9537 185.787 48.5003C185.787 57.047 192.656 63.9733 201.131 63.9733Z" fill="url(#paint0_radial_1838_1825)"/>
  <path d="M192.4 54.412L196.346 43.2534C196.346 43.2534 196.683 42.1328 197.558 42.1328C198.433 42.1328 198.762 43.2534 198.762 43.2534L201.123 49.9337L203.47 43.2534C203.47 43.2534 203.779 42.1328 204.689 42.1328C205.599 42.1328 205.893 43.2534 205.893 43.2534L209.796 54.412H207.477L204.693 46.4745L202.196 53.5297C202.196 53.5297 201.933 54.5487 201.162 54.5487C200.279 54.5487 200.043 53.5297 200.043 53.5297L197.561 46.4393L194.762 54.412H192.4Z" fill="white"/>
  <path d="M237.893 63.9733C246.367 63.9733 253.236 57.0458 253.236 48.5003C253.236 39.9548 246.367 33.0273 237.893 33.0273C229.418 33.0273 222.549 39.9548 222.549 48.5003C222.549 57.0458 229.418 63.9733 237.893 63.9733Z" fill="url(#paint1_radial_1838_1825)"/>
  <path d="M229.174 54.412L233.119 43.2534C233.119 43.2534 233.456 42.1328 234.331 42.1328C235.206 42.1328 235.535 43.2534 235.535 43.2534L237.897 49.9337L240.243 43.2534C240.243 43.2534 240.553 42.1328 241.463 42.1328C242.373 42.1328 242.667 43.2534 242.667 43.2534L246.57 54.412H244.25L241.467 46.4745L238.969 53.5297C238.969 53.5297 238.706 54.5487 237.936 54.5487C237.053 54.5487 236.817 53.5297 236.817 53.5297L234.335 46.4393L231.536 54.412H229.174Z" fill="white"/>
  <path d="M274.656 63.9733C283.132 63.9733 290 57.047 290 48.5003C290 39.9537 283.132 33.0273 274.656 33.0273C266.181 33.0273 259.312 39.9537 259.312 48.5003C259.312 57.047 266.181 63.9733 274.656 63.9733Z" fill="url(#paint2_radial_1838_1825)"/>
  <path d="M281.535 54.767L279.823 51.0188C280.307 50.7845 280.776 50.519 281.221 50.2184L280.296 48.5434C279.893 48.8206 279.471 49.0666 279.03 49.2852L275.801 42.2339C275.588 41.7849 275.289 41.3477 274.651 41.3477H274.624C273.985 41.3477 273.687 41.7849 273.474 42.2339C273.338 42.519 267.887 54.767 267.887 54.767H270.496L271.789 51.8543C272.707 52.0847 273.667 52.2096 274.658 52.2096C275.669 52.2096 276.645 52.0768 277.582 51.8387L278.902 54.767H281.535ZM274.658 50.2965C273.942 50.2965 273.249 50.2145 272.579 50.07L274.655 45.3691L276.78 50.0661C276.095 50.2145 275.386 50.2965 274.658 50.2965Z" fill="white"/>
  <path d="M95.7188 12.4902V84.5101" stroke="#5B6971" stroke-width="1.6179" stroke-miterlimit="10"/>
  <path d="M19.0058 60.7012L24.3372 73.8628C25.2354 75.9906 25.9633 77.9272 26.5247 79.8638H26.6912C27.3068 77.9272 28.0928 75.9945 28.991 73.8628L34.2644 60.7012H39.4293L28.7665 84.1195H24.0584L13.7324 60.7012H19.0058Z" fill="#8F7332"/>
  <path d="M82.3007 39.3755C82.3007 51.764 71.9515 57.1637 62.1869 57.1637C51.253 57.1637 42.8242 50.5185 42.8242 39.9299C42.8242 28.7165 51.6712 22.1416 62.8567 22.1416C74.4526 22.1416 82.3007 29.1304 82.3007 39.3755ZM50.0025 39.719C50.0025 47.0553 55.1945 52.5917 62.516 52.5917C69.6671 52.5917 75.0295 47.1256 75.0295 39.5785C75.0295 33.9015 71.5372 26.7058 62.6863 26.7058C53.8355 26.7097 50.0025 33.351 50.0025 39.719Z" fill="#5B6971"/>
  <path d="M43.7265 50.7411C41.6939 51.4634 39.034 52.2482 35.1429 52.2482C27.1322 52.2482 21.1194 47.4731 21.1194 39.723C21.1194 32.7342 26.1255 27.0572 35.3907 27.0572C39.2663 27.0572 41.9649 27.7678 43.7265 28.5682V23.3129C41.6009 22.7117 38.6352 22.208 35.3907 22.208C22.2034 22.208 13.6895 29.681 13.6895 39.9963C13.6895 50.2374 21.6188 57.0896 33.8032 57.0896C37.9809 57.0896 41.4654 56.4337 43.7227 55.7504V50.7411H43.7265Z" fill="#5B6971"/>
  <path d="M81.8246 78.5097V69.7522C81.8246 65.0592 79.8036 60.1709 71.4987 60.1709C68.5794 60.1709 65.7878 60.7683 63.6351 61.7248V64.903L63.6971 65.0553C65.6059 63.9894 68.2425 63.3139 70.7669 63.3139C76.3229 63.3139 76.9385 66.7966 76.9385 68.7332V69.2173C66.446 69.1705 60.6074 72.2666 60.6074 77.9279C60.6074 81.313 63.4145 84.6552 68.9123 84.6552C72.7841 84.6552 75.7034 83.0114 77.2173 81.1725H77.3837L77.7748 84.1242H82.266C81.9369 82.5234 81.8246 80.54 81.8246 78.5097ZM77.0546 76.2335C77.0546 76.6707 76.9424 77.151 76.7759 77.5883C75.9899 79.5717 73.7443 81.5082 70.2094 81.5082C67.685 81.5082 65.5517 80.2003 65.5517 77.4438C65.5517 72.8952 71.669 72.0714 77.0546 72.169V76.2335Z" fill="#8F7332"/>
  <path d="M49.3213 60.1709C49.0619 60.1709 48.8102 60.1787 48.5586 60.1904C41.3184 60.5457 36.9355 66.2617 36.9355 73.0865C36.9355 79.7474 41.2526 84.05 48.5586 84.5536C49.0038 84.5849 49.4568 84.6005 49.9214 84.6005C53.5183 84.6005 56.155 84.0344 57.9011 83.4448V80.1495L57.8895 80.1027C56.0891 80.7781 54.0139 81.313 50.5758 81.313C49.8866 81.313 49.209 81.2623 48.5586 81.1608C44.6674 80.5595 41.6126 78.0177 41.5197 73.0865H60.5417C60.5417 73.0865 60.5417 73.0865 60.5417 73.0826H60.6539C60.6539 73.0826 62.2026 60.1709 49.3213 60.1709ZM56.1472 70.1387H41.7559C42.1431 67.2651 44.2454 63.431 49.0038 63.228C49.1355 63.2241 49.2632 63.2163 49.3987 63.2163C56.546 63.2202 56.1472 70.1387 56.1472 70.1387Z" fill="#8F7332"/>
  <path d="M63.6515 35.0576C63.5896 35.1591 60.9452 39.7038 58.6027 42.3471C57.4219 43.6824 56.2448 44.8771 55.4473 45.658H59.3848C65.3474 41.2538 68.5958 36.8029 69.7379 35.0576H63.6515Z" fill="#8F7332"/>
  <path d="M22.3824 18.6669C21.701 19.0417 20.9421 19.2291 20.1058 19.2291C19.1379 19.2291 18.3558 18.9246 17.7557 18.3194C17.1555 17.7103 16.8574 16.906 16.8574 15.9065C16.8574 14.8836 17.1865 14.0441 17.8408 13.3921C18.4952 12.7362 19.3315 12.4082 20.342 12.4082C21.0699 12.4082 21.6816 12.5175 22.1772 12.7323V13.8606C21.6739 13.5209 21.0776 13.3531 20.3846 13.3531C19.6877 13.3531 19.1147 13.5834 18.6694 14.048C18.2242 14.5127 17.9996 15.11 17.9996 15.8479C17.9996 16.6054 18.1932 17.2028 18.5765 17.6361C18.9598 18.0695 19.4825 18.2882 20.1368 18.2882C20.5859 18.2882 20.977 18.2023 21.3061 18.0266V16.457H19.9277V15.5356H22.3902V18.6669H22.3824Z" fill="#8F7332"/>
  <path d="M34.2186 19.1159H32.9487L31.9033 17.3473C31.8104 17.1833 31.7174 17.0466 31.6284 16.9295C31.5393 16.8163 31.4464 16.7187 31.3535 16.6445C31.2606 16.5703 31.1599 16.5156 31.0515 16.4844C30.9431 16.4493 30.8192 16.4337 30.6798 16.4337H30.2423V19.112H29.1582V12.5137H31.3148C31.6206 12.5137 31.9033 12.5488 32.1627 12.623C32.4221 12.6972 32.6467 12.8065 32.8402 12.9549C33.0338 13.1032 33.181 13.2906 33.2894 13.5132C33.3978 13.7357 33.452 13.9973 33.452 14.2941C33.452 14.5283 33.4171 14.7431 33.3474 14.9383C33.2778 15.1335 33.181 15.3053 33.0571 15.4576C32.9293 15.6098 32.7783 15.7387 32.6002 15.848C32.4221 15.9573 32.2208 16.0393 32.0001 16.0979V16.1174C32.1201 16.1838 32.2208 16.258 32.3098 16.3399C32.3989 16.4219 32.4802 16.5039 32.5615 16.5898C32.6389 16.6757 32.7202 16.7733 32.7977 16.8827C32.8751 16.992 32.9603 17.1169 33.0571 17.2614L34.2186 19.1159ZM30.2423 13.4039V15.5513H31.1483C31.3148 15.5513 31.4696 15.5239 31.6129 15.4732C31.7562 15.4224 31.8762 15.3443 31.9807 15.2467C32.0853 15.1491 32.1666 15.0281 32.2246 14.8875C32.2827 14.747 32.3098 14.5869 32.3098 14.4151C32.3098 14.0988 32.2091 13.8529 32.0117 13.6733C31.8142 13.4937 31.5277 13.4078 31.156 13.4078H30.2423V13.4039Z" fill="#8F7332"/>
  <path d="M42.9566 19.2291C42.0119 19.2291 41.2569 18.9207 40.6877 18.3038C40.1186 17.6869 39.8359 16.8826 39.8359 15.8948C39.8359 14.8328 40.1263 13.9856 40.7032 13.3531C41.2801 12.7206 42.0661 12.4043 43.0611 12.4043C43.9787 12.4043 44.7221 12.7127 45.2835 13.3257C45.8449 13.9387 46.1275 14.743 46.1275 15.7347C46.1275 16.8123 45.841 17.6635 45.2641 18.2921C44.6872 18.9129 43.9168 19.2291 42.9566 19.2291ZM43.0069 13.3648C42.4068 13.3648 41.9189 13.5912 41.5434 14.0402C41.1678 14.4931 40.9781 15.0866 40.9781 15.8206C40.9781 16.5546 41.1601 17.1442 41.524 17.5932C41.888 18.0422 42.3681 18.2647 42.9566 18.2647C43.5838 18.2647 44.0794 18.05 44.4394 17.6244C44.8034 17.1989 44.9815 16.6015 44.9815 15.8323C44.9815 15.0436 44.8073 14.4346 44.4549 14.0051C44.1104 13.5795 43.6264 13.3648 43.0069 13.3648Z" fill="#8F7332"/>
  <path d="M57.7318 16.4454C57.7318 18.2999 56.8606 19.2253 55.1183 19.2253C53.4496 19.2253 52.6172 18.3351 52.6172 16.5508V12.5137H53.7052V16.3243C53.7052 17.6206 54.2046 18.2687 55.2035 18.2687C56.1637 18.2687 56.6477 17.644 56.6477 16.3946V12.5137H57.7356V16.4454H57.7318Z" fill="#8F7332"/>
  <path d="M65.7189 16.7226V19.1159H64.6348V12.5137H66.621C67.3721 12.5137 67.9567 12.6894 68.371 13.0447C68.7853 13.3961 68.9905 13.8958 68.9905 14.5361C68.9905 15.1764 68.7737 15.7035 68.3439 16.1096C67.9103 16.5195 67.3256 16.7226 66.59 16.7226H65.7189ZM65.7189 13.4156V15.8285H66.4235C66.8881 15.8285 67.2443 15.7192 67.4882 15.5005C67.7322 15.2819 67.8522 14.9773 67.8522 14.5791C67.8522 13.8021 67.4031 13.4156 66.5087 13.4156H65.7189Z" fill="#8F7332"/>
  <path d="M79.147 19.1159H75.4727V12.5137H79.0037V13.4429H76.5606V15.3131H78.8101V16.2384H76.5606V18.1906H79.1508V19.1159H79.147Z" fill="#8F7332"/>
  <defs>
    <radialGradient id="paint0_radial_1838_1825" cx="0" cy="0" r="1" gradientUnits="userSpaceOnUse" gradientTransform="translate(207.906 38.0937) scale(20.3161 20.4872)">
      <stop offset="0.03" stop-color="#B2C3E5"/>
      <stop offset="0.043" stop-color="#A6BCE1"/>
      <stop offset="0.0975" stop-color="#7AA3D2"/>
      <stop offset="0.1546" stop-color="#558DC5"/>
      <stop offset="0.2136" stop-color="#367BBA"/>
      <stop offset="0.2752" stop-color="#1E6DB2"/>
      <stop offset="0.3403" stop-color="#0D64AD"/>
      <stop offset="0.4114" stop-color="#035EA9"/>
      <stop offset="0.5" stop-color="#005CA8"/>
      <stop offset="1" stop-color="#003875"/>
    </radialGradient>
    <radialGradient id="paint1_radial_1838_1825" cx="0" cy="0" r="1" gradientUnits="userSpaceOnUse" gradientTransform="translate(244.668 38.0937) scale(20.3161 20.4872)">
      <stop offset="0.03" stop-color="#B2D6BD"/>
      <stop offset="0.043" stop-color="#A6D1B7"/>
      <stop offset="0.0975" stop-color="#7ABF9E"/>
      <stop offset="0.1546" stop-color="#55B089"/>
      <stop offset="0.2136" stop-color="#36A378"/>
      <stop offset="0.2752" stop-color="#1E996B"/>
      <stop offset="0.3403" stop-color="#0D9261"/>
      <stop offset="0.4114" stop-color="#038E5C"/>
      <stop offset="0.5" stop-color="#008D5A"/>
      <stop offset="1" stop-color="#00814D"/>
    </radialGradient>
    <radialGradient id="paint2_radial_1838_1825" cx="0" cy="0" r="1" gradientUnits="userSpaceOnUse" gradientTransform="translate(281.431 38.0937) scale(20.3161 20.4872)">
      <stop offset="0.03" stop-color="#FFE8C0"/>
      <stop offset="0.0577" stop-color="#FDDB9D"/>
      <stop offset="0.0988" stop-color="#FBCB70"/>
      <stop offset="0.1401" stop-color="#F9BE4A"/>
      <stop offset="0.1811" stop-color="#F8B32D"/>
      <stop offset="0.2217" stop-color="#F7AC19"/>
      <stop offset="0.2615" stop-color="#F6A70C"/>
      <stop offset="0.3" stop-color="#F6A608"/>
      <stop offset="1" stop-color="#ED7218"/>
    </radialGradient>
  </defs>
</svg>