<svg fill="currentColor" height="64" opacity="0.5" viewBox="0 0 78 80" width="62.4" xmlns="http://www.w3.org/2000/svg">
  <title>Covea</title>
  <path d="m6.933 53.18 5.912 14.473c.996 2.34 1.803 4.47 2.425 6.599h.185c.683-2.13 1.554-4.255 2.55-6.599l5.847-14.472h5.728L17.756 78.93h-5.22l-11.45-25.75h5.847zM77.119 29.731c0 13.623-11.476 19.56-22.304 19.56-12.124 0-21.47-7.307-21.47-18.95 0-12.33 9.81-19.56 22.213-19.56 12.858 0 21.56 7.685 21.56 18.95zm-35.815.378c0 8.067 5.758 14.155 13.876 14.155 7.93 0 13.876-6.01 13.876-14.31 0-6.242-3.873-14.154-13.687-14.154-9.814.004-14.065 7.307-14.065 14.309z"/>
  <path d="M34.345 42.229c-2.254.794-5.203 1.657-9.518 1.657-8.883 0-15.55-5.25-15.55-13.773 0-7.685 5.551-13.927 15.825-13.927 4.297 0 7.29.781 9.243 1.661V12.07c-2.357-.661-5.645-1.215-9.243-1.215-14.623 0-24.064 8.217-24.064 19.56 0 11.26 8.793 18.796 22.304 18.796 4.632 0 8.496-.722 10.999-1.473v-5.508h.004zM76.59 72.762v-9.63c0-5.16-2.24-10.535-11.45-10.535-3.237 0-6.332.657-8.72 1.709V57.8l.07.168c2.116-1.172 5.04-1.915 7.839-1.915 6.16 0 6.843 3.83 6.843 5.959v.532c-11.634-.051-18.108 3.353-18.108 9.578 0 3.723 3.112 7.398 9.209 7.398 4.293 0 7.53-1.808 9.209-3.83h.184l.434 3.246h4.98c-.365-1.76-.49-3.941-.49-6.174zm-5.289-2.503c0 .481-.124 1.01-.309 1.49-.871 2.18-3.361 4.31-7.281 4.31-2.8 0-5.165-1.438-5.165-4.469 0-5.001 6.783-5.907 12.755-5.8v4.47zM40.549 52.597c-.288 0-.567.008-.846.021-8.028.391-12.888 6.676-12.888 14.18 0 7.325 4.787 12.056 12.888 12.61.494.034.996.052 1.511.052 3.989 0 6.912-.623 8.849-1.271v-3.624l-.013-.051c-1.997.743-4.298 1.33-8.11 1.33-.764 0-1.516-.055-2.237-.167-4.315-.66-7.702-3.456-7.805-8.878h21.093v-.004h.124s1.717-14.198-12.566-14.198zm7.569 10.96H32.16c.43-3.16 2.76-7.375 8.037-7.599.146-.004.287-.012.438-.012 7.925.004 7.483 7.611 7.483 7.611z"/>
  <path d="M.867 10.567h76.45v68.42H.867z" fill="none"/>
  <path d="M56.438 24.983c-.069.111-3 5.109-5.598 8.015a72.421 72.421 0 0 1-3.5 3.64h4.367c6.612-4.842 10.214-9.736 11.48-11.655h-6.749z"/>
  <path d="M10.677 6.96c-.756.412-1.598.618-2.525.618-1.073 0-1.94-.335-2.606-1-.665-.67-.996-1.554-.996-2.653 0-1.125.365-2.048 1.09-2.765C6.367.438 7.294.078 8.415.078c.807 0 1.485.12 2.035.356v1.24c-.558-.373-1.22-.557-1.988-.557-.773 0-1.408.253-1.902.764-.493.51-.742 1.168-.742 1.98 0 .832.214 1.489.64 1.965.424.477 1.004.717 1.73.717.497 0 .931-.094 1.296-.287V4.53H7.955V3.517h2.73V6.96h-.008zM23.8 7.454h-1.407l-1.16-1.945a4.057 4.057 0 0 0-.304-.46 1.932 1.932 0 0 0-.305-.313.967.967 0 0 0-.335-.176 1.349 1.349 0 0 0-.412-.056h-.485V7.45H18.19V.194h2.391c.34 0 .653.038.94.12.288.081.537.202.752.365.214.163.377.37.498.614.12.244.18.532.18.858 0 .258-.039.494-.116.709a1.91 1.91 0 0 1-.322.57c-.142.168-.31.31-.507.43s-.42.21-.665.275v.021c.133.073.245.155.343.245a3.531 3.531 0 0 1 .54.597c.087.12.182.257.289.416l1.288 2.04zm-4.408-6.281v2.36h1.004c.185 0 .357-.03.516-.085a1.16 1.16 0 0 0 .407-.249c.116-.107.207-.24.27-.395.065-.155.095-.33.095-.52 0-.347-.111-.618-.33-.815-.22-.198-.537-.292-.949-.292h-1.013v-.004zM33.49 7.578c-1.047 0-1.884-.34-2.515-1.017-.631-.679-.945-1.563-.945-2.65 0-1.167.322-2.099.962-2.794.64-.696 1.511-1.043 2.615-1.043 1.017 0 1.841.339 2.464 1.013.623.674.936 1.558.936 2.649 0 1.185-.318 2.12-.957 2.812-.64.682-1.495 1.03-2.56 1.03zm.057-6.448c-.666 0-1.207.249-1.623.742-.417.498-.627 1.151-.627 1.958 0 .807.202 1.455.605 1.95.404.493.936.738 1.589.738.695 0 1.245-.236 1.644-.704.404-.468.601-1.125.601-1.971 0-.867-.193-1.537-.584-2.01-.382-.467-.919-.703-1.605-.703zM49.874 4.517c0 2.04-.966 3.057-2.898 3.057-1.85 0-2.774-.98-2.774-2.941V.193h1.207v4.19c0 1.426.554 2.139 1.661 2.139 1.065 0 1.602-.687 1.602-2.06V.193h1.206v4.323h-.004zM58.73 4.822v2.632H57.53V.194h2.202c.833 0 1.481.193 1.94.584.46.386.687.936.687 1.64 0 .704-.24 1.283-.717 1.73-.48.45-1.129.674-1.944.674h-.966zm0-3.637V3.84h.782c.515 0 .91-.12 1.18-.361.271-.24.404-.575.404-1.013 0-.855-.498-1.28-1.49-1.28h-.875zM73.62 7.454h-4.075V.194h3.916v1.022h-2.71v2.056h2.495v1.017h-2.494v2.147h2.872v1.018z"/>
</svg>