<svg width="1264" height="332" viewBox="0 0 1264 332" fill="none" xmlns="http://www.w3.org/2000/svg">
  <title>Covéa group</title>
  <g clip-path="url(#clip0_83_393)">
    <path fill-rule="evenodd" clip-rule="evenodd" d="M1068.45 235.916H1209.04V95.3427H1128.24L1128.16 95.6754C1128.04 95.9981 1128.07 96.6127 1128.13 96.9607C1128.22 97.4514 1127.85 100.661 1127.77 101.333C1127.46 103.531 1127.43 106.009 1127.43 106.009L1127.57 106.313L1129.4 105.549L1130.29 105.182C1130.44 105.041 1131.86 104.467 1133.08 103.971C1133.85 103.66 1134.55 103.38 1134.8 103.258L1136.51 102.675C1136.57 102.696 1136.77 102.739 1137.08 102.806C1139.08 103.23 1145.67 104.633 1149.65 107.655C1146.8 112.809 1139.86 114.931 1139.41 115.021C1139.26 115.062 1139.18 115.106 1139.12 115.144C1138.98 115.22 1138.9 115.267 1138.36 115.206C1137.67 115.13 1131.43 114.213 1130.24 113.355C1130.24 113.355 1128.77 112.561 1128.89 115.665C1128.94 117.007 1129 119.573 1129 120.738C1129 121.882 1129 124.906 1128.94 125.825C1128.91 126.328 1128.88 126.45 1128.91 126.547C1128.94 126.628 1129.01 126.693 1129.18 126.942C1129.78 127.996 1130.47 129.259 1131.16 130.526C1132.33 132.671 1133.5 134.825 1134.27 135.985L1134.36 136.581C1134.25 136.601 1134.69 139.439 1135.17 142.519C1135.41 144.06 1135.66 145.661 1135.85 147.001C1129.58 147.814 1123.38 148.378 1117.43 148.758C1117.46 148.385 1117.5 147.965 1117.54 147.507C1117.85 143.856 1118.35 137.867 1118.35 135.345C1118.35 133.895 1118.36 125.546 1118.37 118.103C1118.38 112.117 1118.38 106.718 1118.38 105.965C1118.38 105.132 1118.3 104.681 1118.22 104.191C1118.13 103.681 1118.04 103.127 1118.02 102.053C1118 101.358 1118.09 100.537 1118.18 99.6625C1118.32 98.2633 1118.47 96.7256 1118.28 95.3427H1110.94L1110.62 95.9991C1110.42 96.3436 1110.36 96.6343 1110.29 96.9424C1110.22 97.2784 1110.15 97.635 1109.88 98.1045L1109.81 98.2911L1109.68 98.6822C1108.38 102.5 1107.43 105.312 1108.33 107.32C1108.97 108.714 1110.33 113.215 1111.63 117.484C1112.72 121.075 1113.76 124.502 1114.27 125.78L1114.41 125.994C1114.73 127.14 1114.21 127.936 1113.17 128.223C1108.65 128.956 1108.53 128.987 1106.03 130.624L1105.68 130.911C1105.33 131.142 1105.16 131.358 1105.03 132.29C1105.03 132.985 1104.99 133.486 1104.97 133.897C1104.92 134.558 1104.9 134.987 1105.04 135.619L1105.07 135.772C1105.35 136.025 1105.52 136.09 1105.82 136.207C1105.88 136.232 1105.95 136.259 1106.02 136.29L1106.22 136.383C1106.53 136.548 1106.45 136.975 1106.39 137.32L1106.39 137.32C1106.37 137.419 1106.35 137.511 1106.34 137.588C1105.29 137.91 1103.06 139.848 1099.88 142.802C1099.56 143.103 1099.39 144.132 1099.82 144.4C1099.96 144.484 1100.12 144.574 1100.28 144.669C1101.47 145.342 1103.14 146.287 1102.81 147.294C1102.54 148.185 1102.42 148.417 1102.18 148.874C1102.1 149.028 1102.01 149.208 1101.9 149.447C1082.44 149.888 1068.45 148.715 1068.45 148.715V95.3427H1068.45V152.18C1068.8 152.209 1162.5 159.788 1209.04 133.692V235.914H1068.45V235.916ZM1068.45 235.914H1068.45V152.18L1068.45 152.18V235.914ZM1068.45 95.3427V95.3418H1110.94L1110.94 95.3427H1068.45ZM1118.28 95.3427C1118.28 95.342 1118.28 95.3414 1118.28 95.3407H1128.24L1128.24 95.3427H1118.28ZM1079.82 106.283C1079.82 106.283 1087.5 111.66 1090.45 113.66C1094.61 112.592 1101.21 106.786 1101.21 106.786L1093.97 101.638L1089.55 103.09L1095.43 103.867L1095.22 111.112L1087.17 110.667L1087.63 103.731L1079.82 106.283ZM1157.41 135.162C1151.24 135.926 1143.31 134.094 1139.21 132.698C1139.1 132.66 1139.06 132.629 1139.04 132.612C1139.04 132.629 1139.04 132.666 1139 132.728C1138.8 133.025 1138.61 133.681 1138.45 134.209L1138.45 134.209L1138.45 134.209L1138.45 134.211C1138.41 134.364 1138.37 134.507 1138.33 134.627C1138.37 134.492 1138.85 134.814 1139.32 135.134C1139.71 135.4 1140.1 135.664 1140.24 135.664C1140.26 135.664 1140.27 135.663 1140.29 135.662C1140.31 135.66 1140.34 135.659 1140.35 135.669C1140.38 135.694 1140.35 135.794 1140.24 136.148C1140.16 136.396 1140.04 136.769 1139.88 137.33C1139.73 137.788 1139.58 139.943 1139.69 139.974C1139.8 140.006 1141.55 140.403 1142.04 140.403H1142.12C1146.88 140.726 1150.59 140.768 1152.61 140.791C1153.63 140.802 1154.21 140.809 1154.3 140.844C1154.72 141.03 1154.95 140.77 1154.88 140.46C1154.88 140.462 1154.88 140.46 1154.88 140.456L1154.88 140.456C1154.89 140.406 1154.93 139.996 1155.2 139.528C1155.57 138.826 1156.04 138.09 1156.52 137.343L1156.52 137.343L1156.52 137.343L1156.52 137.343C1156.92 136.709 1157.33 136.068 1157.69 135.435C1158.03 135.038 1157.69 134.994 1157.41 135.162ZM1139.03 132.599C1139.03 132.598 1139.04 132.602 1139.04 132.612C1139.03 132.604 1139.03 132.599 1139.03 132.599ZM1137.34 99.7433L1133.53 99.2847L1131.2 99.558L1130.24 97.422C1139.26 97.3593 1145.51 100.353 1149.45 103.302L1146.99 103.701L1137.34 99.7433ZM1186.12 110.912L1181.56 108.59L1188.72 108.267L1188.35 102.766C1188.35 102.766 1181.86 102.095 1181.17 102.051L1181.32 108.466L1175 105.274C1175 105.274 1185.19 99.9883 1185.35 99.6483L1193.75 104.695L1186.12 110.912ZM1166.81 95.343C1166.97 95.7483 1167.34 96.3633 1167.74 97.0407C1168.57 98.4511 1169.56 100.132 1169.24 100.752C1165.64 107.627 1161.28 115.296 1157.98 118.4C1157.52 118.962 1157.58 120.308 1158.22 120.612C1158.85 120.86 1161.08 121.531 1162.29 121.823L1162.31 121.831C1163.34 122.22 1164.03 122.483 1164.24 122.935C1164.6 123.5 1163.63 124.847 1162.96 125.474L1163.14 126.648C1163.46 126.835 1163.86 127.018 1164.4 127.269L1164.41 127.269C1165.33 127.695 1166.69 128.318 1168.81 129.492C1169.2 129.766 1168.77 130.424 1168.54 130.684C1168.32 130.971 1166.75 132.944 1166.11 133.324C1165.72 133.554 1165.98 134.659 1166.11 134.808C1167.88 135.038 1168.46 137.635 1168.61 140.323C1185.15 135.36 1199.86 127.854 1209.04 116.564V95.343H1166.81ZM1136.02 110.914L1134.8 106.481C1132.92 107.289 1132.02 108.485 1132.02 108.485C1133.41 109.686 1134.75 110.454 1136.02 110.914ZM1145.75 108.133C1144.32 107.275 1142.99 106.697 1141.78 106.343L1142.65 109.659L1138.57 111.449C1142.8 111.674 1145.71 108.666 1145.75 108.133Z" fill="white"/>
    <path d="M1168.42 211.999C1170.59 211.726 1171.91 211.279 1172.45 210.658C1172.97 210.026 1173.23 208.379 1173.23 205.703V178.751C1173.23 176.535 1172.94 175.083 1172.34 174.411C1171.76 173.722 1170.45 173.311 1168.42 173.158V171.983H1197.6L1197.84 180.814H1196.32C1195.93 178.005 1195.23 176.199 1194.17 175.449C1193.14 174.702 1191.06 174.323 1187.97 174.323H1180.49C1179.74 174.323 1179.29 174.459 1179.08 174.765C1178.87 175.038 1178.77 175.586 1178.77 176.417V190.289H1185.53C1187.86 190.289 1189.36 190.121 1190 189.463C1190.65 188.775 1191.16 187.415 1191.56 185.353H1192.84V197.715H1191.56C1191.16 195.654 1190.62 194.277 1189.99 193.601C1189.33 192.947 1187.85 192.779 1185.53 192.779H1178.77V206.391C1178.77 208.67 1179.08 210.137 1179.69 210.763C1180.32 211.403 1181.65 211.814 1183.71 211.999V213.161H1168.42V211.999Z" fill="white"/>
    <path d="M1114 191.19H1103.9V192.364C1105.9 192.5 1107.21 192.867 1107.81 193.467C1108.41 194.064 1108.69 195.556 1108.69 197.959V207.831C1108.69 208.516 1108.54 209.036 1108.22 209.386C1107.89 209.739 1107.09 210.154 1105.77 210.639C1104.98 210.931 1104.14 211.16 1103.24 211.298C1102.35 211.435 1101.58 211.51 1100.92 211.51C1097.01 211.51 1093.72 209.907 1091.06 206.683C1088.41 203.46 1087.08 198.996 1087.08 193.27C1087.08 186.315 1088.41 181.334 1091.08 178.31C1093.73 175.299 1096.84 173.771 1100.35 173.771C1103.82 173.771 1106.61 175.051 1108.79 177.639C1110 179.118 1111.14 181.348 1112.25 184.346H1113.52L1113.1 171.28H1111.87C1111.64 171.939 1111.35 172.424 1111.02 172.778C1110.7 173.112 1110.13 173.299 1109.35 173.299C1109.05 173.299 1107.87 172.944 1105.84 172.292C1103.77 171.616 1101.69 171.28 1099.57 171.28C1093.72 171.28 1089.01 173.559 1085.44 178.124C1082.23 182.266 1080.61 187.216 1080.61 193.008C1080.61 199.592 1082.64 204.847 1086.68 208.763C1090.36 212.304 1094.86 214.062 1100.22 214.062C1103.12 214.062 1106.14 213.47 1109.28 212.247C1112.42 211.023 1114 210.06 1114 209.328V191.19Z" fill="white"/>
    <path d="M1125.79 179.195L1139.63 213.163H1140.39L1154.44 177.73V213.163H1164.78V212.002C1162.76 211.786 1161.45 211.375 1160.85 210.735C1160.27 210.09 1159.98 208.638 1159.98 206.376V178.736C1159.98 176.524 1160.27 175.084 1160.85 174.414C1161.45 173.724 1162.76 173.314 1164.78 173.159V171.984H1153.93L1141.6 203.047L1128.97 171.984H1118.18V173.159C1120.4 173.283 1121.81 173.667 1122.43 174.351C1123.06 175.04 1123.38 176.488 1123.38 178.736V203.979C1123.38 207.247 1123.04 209.343 1122.42 210.244C1121.77 211.14 1120.31 211.723 1118.06 212.002V213.163H1125.79V179.195Z" fill="white"/>
    <path d="M1068.95 235.416H1208.54V95.8427H1068.95V235.416Z" stroke="white"/>
    <path fill-rule="evenodd" clip-rule="evenodd" d="M570 236H386V228H570V236ZM385.574 226.987H569.657V94.8282H385.574V226.987ZM540.77 144.08C540.77 142.916 541.72 141.966 542.88 141.966C544.052 141.966 544.994 142.916 544.994 144.08C544.994 145.248 544.052 146.193 542.88 146.193C541.72 146.193 540.77 145.248 540.77 144.08ZM508.765 189.045H508.561C506.299 191.507 503.485 195.757 500.47 200.627H509.725L508.765 189.045ZM475.802 189.045H475.595C473.33 191.507 470.526 195.757 467.506 200.627H476.759L475.802 189.045ZM553.311 184.727H542.417L539.053 193.501H549.61L548.714 195.829C548.165 197.335 546.934 198.022 545.159 198.022H537.346L531.793 212.825H515.407C512.057 212.825 510.611 211.318 510.339 208.37L510.063 204.869H497.941C496.941 206.598 495.97 208.384 495.009 210.151C494.52 211.05 494.034 211.945 493.547 212.825H482.447C479.093 212.825 477.657 211.318 477.375 208.37L477.103 204.869H464.977C463.949 206.644 462.953 208.479 461.97 210.292C461.507 211.144 461.048 211.991 460.589 212.825H449.215C446.75 212.825 445.17 211.381 445.17 209.401L445.442 191.373H445.305C442.361 195.351 437.357 203.847 432.973 212.825H426.113C424.818 212.825 422.897 212.345 422.969 208.713L423.369 190.958H423.174C419.333 195.279 414.266 203.977 410.011 212.825H402.885C409.741 198.294 417.965 185.815 424.677 181.021C425.641 180.339 426.733 179.79 427.553 179.79H433.589L433.038 200.485H433.177C436.737 193.219 442.15 184.655 445.242 181.021C446.058 180.067 446.469 179.79 448.114 179.79H456.338L455.585 209.945H455.79C461.547 198.71 471.479 184.455 476.078 180.615C476.899 179.929 477.657 179.79 478.746 179.79H485.39L488.543 209.945H488.754C494.511 198.71 504.443 184.455 509.042 180.615C509.858 179.929 510.611 179.79 511.713 179.79H518.359L521.517 209.945H521.713L530.762 185.066C532.27 180.821 534.049 179.79 538.098 179.79H555.297L553.311 184.727ZM550.233 137.914C540.034 119.989 511.869 121.078 511.584 121.09L511.556 121.089C511.41 121.085 510.686 121.061 509.474 121.078C493.529 121.078 479.257 124.392 466.684 129.552C466.678 129.553 466.673 129.554 466.668 129.555C466.665 129.555 466.662 129.556 466.659 129.556C466.65 129.558 466.64 129.56 466.63 129.565C465.181 130.181 464.196 130.01 463.78 129.877C462.888 129.542 462.29 129.16 462.29 129.16L462.286 129.164C449.29 121.478 437.774 121.942 437.774 121.942C437.774 121.942 433.069 122.032 431.646 122.37C430.262 122.701 430.214 123.098 431.614 123.04C434.174 122.929 438.372 123 447.592 126.421L451.641 128.272C453.8 129.462 455.337 130.666 456.36 131.594C456.698 131.929 456.912 132.249 457.054 132.553C457.152 132.834 457.376 133.816 455.976 134.574C455.953 134.582 455.938 134.592 455.921 134.603C455.912 134.609 455.902 134.616 455.89 134.622C445.325 140.233 436.205 147.013 428.546 153.868C419.181 161.905 409.913 172.073 401.657 185.025C400.046 187.5 399.226 188.96 399.226 188.96C399.226 188.96 395.394 195.394 396.929 194.989C398.477 194.574 401.269 189.869 401.269 189.869C413.386 173.1 426.538 160.838 439.349 151.869C452.104 143.221 464.77 137.268 474.234 134.065C495.395 126.905 511.011 127.449 511.569 127.468L511.584 127.469L511.616 127.468C512.623 127.44 535.502 126.805 547.682 138.298C547.686 138.303 547.753 138.37 547.866 138.484C548.58 139.203 551.156 141.796 551.682 142.593C551.745 142.692 551.95 142.994 552.222 142.82C552.802 142.458 550.34 138.101 550.233 137.914Z" fill="white"/>
    <path fill-rule="evenodd" clip-rule="evenodd" d="M945.835 218.468C916.652 218.468 892.996 194.811 892.996 165.627C892.996 136.445 916.652 112.788 945.835 112.788C975.017 112.788 998.675 136.445 998.675 165.627C998.675 194.811 975.017 218.468 945.835 218.468ZM938.683 170.984C940.997 171.476 943.389 171.761 945.85 171.761C948.357 171.761 950.798 171.479 953.153 170.971L945.834 154.929L938.683 170.984ZM963.642 174.225L969.535 187.024H960.459L955.91 177.02C952.689 177.833 949.325 178.289 945.85 178.289C942.441 178.289 939.135 177.864 935.97 177.076L931.521 187.024H922.538C922.538 187.024 941.322 145.2 941.785 144.231C942.519 142.689 943.545 141.196 945.745 141.196H945.833C948.035 141.196 949.059 142.689 949.794 144.231L960.909 168.308C962.429 167.569 963.887 166.724 965.269 165.78L968.459 171.497C966.925 172.513 965.313 173.419 963.642 174.225Z" fill="white"/>
    <path fill-rule="evenodd" clip-rule="evenodd" d="M692.638 218.468C663.458 218.468 639.799 194.811 639.799 165.627C639.799 136.445 663.458 112.788 692.638 112.788C721.82 112.788 745.48 136.445 745.48 165.627C745.48 194.811 721.82 218.468 692.638 218.468ZM676.16 147.705L662.579 185.815H670.687L680.33 158.593L688.874 182.803C688.874 182.803 689.683 186.277 692.723 186.277C695.374 186.277 696.286 182.803 696.286 182.803L704.886 158.709L714.471 185.815H722.464L709.028 147.705C709.028 147.705 708.014 143.883 704.886 143.883C701.759 143.883 700.688 147.705 700.688 147.705L692.608 170.524L684.471 147.705C684.471 147.705 683.342 143.883 680.33 143.883C677.319 143.883 676.16 147.705 676.16 147.705Z" fill="white"/>
    <path fill-rule="evenodd" clip-rule="evenodd" d="M819.236 218.468C790.053 218.468 766.397 194.811 766.397 165.627C766.397 136.445 790.053 112.788 819.236 112.788C848.419 112.788 872.077 136.445 872.077 165.627C872.077 194.811 848.419 218.468 819.236 218.468ZM802.789 147.705L789.208 185.815H797.316L806.959 158.593L815.501 182.803C815.501 182.803 816.311 186.277 819.352 186.277C822.003 186.277 822.913 182.803 822.913 182.803L831.515 158.709L841.1 185.815H849.093L835.656 147.705C835.656 147.705 834.641 143.883 831.515 143.883C828.388 143.883 827.316 147.705 827.316 147.705L819.236 170.524L811.099 147.705C811.099 147.705 809.969 143.883 806.959 143.883C803.948 143.883 802.789 147.705 802.789 147.705Z" fill="white"/>
    <path d="M329.631 42.6538V288.602" stroke="white" stroke-width="2.15733" stroke-miterlimit="10"/>
    <path d="M65.4557 207.298L83.8157 252.24C86.9077 259.51 89.4211 266.119 91.3531 272.728H91.9317C94.0584 266.119 96.7637 259.51 99.8557 252.24L118.022 207.298H135.804L99.0837 287.268H82.8491L47.2891 207.298H65.4557Z" fill="white"/>
    <path d="M172.206 135.642C172.206 160.695 190.09 179.603 215.302 179.603C239.929 179.603 258.398 160.933 258.398 135.17C258.398 115.789 246.378 91.2087 215.889 91.2087C185.4 91.2087 172.206 113.898 172.206 135.642ZM283.421 134.461C283.421 176.767 247.781 195.203 214.153 195.203C176.501 195.203 147.472 172.514 147.472 136.351C147.472 98.062 177.938 75.61 216.452 75.61C256.404 75.61 283.421 99.4807 283.421 134.461" fill="white"/>
    <path d="M150.591 173.277C143.588 175.748 134.436 178.421 121.028 178.421C93.4348 178.421 72.7415 162.113 72.7415 135.641C72.7415 111.771 89.9855 92.3895 121.891 92.3895C135.232 92.3895 144.533 94.8228 150.591 97.5481V79.6135C143.267 77.5615 133.061 75.8455 121.891 75.8455C76.4775 75.8455 47.1602 101.371 47.1602 136.588C47.1602 171.568 74.4655 194.967 116.428 194.967C130.817 194.967 142.813 192.723 150.591 190.397V173.277Z" fill="white"/>
    <path d="M265.356 260.336C265.356 261.824 264.969 263.475 264.389 264.963C261.684 271.737 253.953 278.347 241.778 278.347C233.081 278.347 225.737 273.885 225.737 264.467C225.737 248.936 246.802 246.127 265.356 246.457V260.336ZM281.782 268.101V238.196C281.782 222.168 274.826 205.48 246.222 205.48C236.176 205.48 226.558 207.525 219.148 210.787V221.643L219.358 222.168C225.93 218.533 235.014 216.22 243.71 216.22C262.844 216.22 264.969 228.116 264.969 234.725V236.377C228.829 236.213 208.73 246.787 208.73 266.119C208.73 277.685 218.393 289.085 237.333 289.085C250.668 289.085 260.717 283.469 265.936 277.191H266.516L267.868 287.268H283.329C282.169 281.816 281.782 275.041 281.782 268.101" fill="white"/>
    <path d="M193.366 239.518H143.8C145.128 229.707 152.37 216.614 168.757 215.923C169.205 215.904 169.657 215.89 170.12 215.89C194.728 215.89 193.366 239.518 193.366 239.518ZM169.85 205.48C168.962 205.48 168.088 205.506 167.222 205.547C142.29 206.764 127.194 226.276 127.194 249.591C127.194 272.332 142.061 287.034 167.222 288.756C168.752 288.862 170.313 288.92 171.917 288.92C184.31 288.92 193.384 286.982 199.396 284.971V273.712L199.353 273.555C193.152 275.867 186.01 277.684 174.172 277.684C171.797 277.684 169.47 277.512 167.222 277.168C153.822 275.115 143.301 266.428 142.978 249.591H208.484C208.484 249.588 208.485 249.584 208.485 249.582L208.877 249.579C208.877 249.579 214.22 205.48 169.85 205.48" fill="white"/>
    <path d="M219.194 119.715C218.982 120.056 209.878 135.576 201.804 144.608C197.739 149.171 193.686 153.247 190.944 155.918H204.507C225.044 140.879 236.231 125.682 240.163 119.715H219.194Z" fill="white"/>
    <path d="M77.0768 63.7423C74.7288 65.021 72.1128 65.6597 69.2302 65.6597C65.8968 65.6597 63.1982 64.6223 61.1328 62.5477C59.0675 60.4717 58.0342 57.725 58.0342 54.3077C58.0342 50.817 59.1635 47.9517 61.4235 45.7143C63.6822 43.4757 66.5515 42.357 70.0328 42.357C72.5382 42.357 74.6448 42.7237 76.3542 43.4583V47.3103C74.6235 46.157 72.5635 45.5797 70.1742 45.5797C67.7728 45.5797 65.8048 46.3717 64.2702 47.9543C62.7342 49.5383 61.9662 51.5877 61.9662 54.1037C61.9662 56.693 62.6262 58.729 63.9462 60.2117C65.2675 61.6957 67.0608 62.437 69.3248 62.437C70.8768 62.437 72.2182 62.1383 73.3502 61.541V56.1797H68.6022V53.033H77.0768V63.7423Z" fill="white"/>
    <path d="M104.148 45.769V53.097H107.261C107.838 53.097 108.37 53.0077 108.857 52.829C109.345 52.6517 109.766 52.3944 110.122 52.0584C110.48 51.7237 110.758 51.3144 110.957 50.8317C111.156 50.3504 111.256 49.8104 111.256 49.213C111.256 48.133 110.914 47.289 110.233 46.681C109.552 46.073 108.572 45.769 107.293 45.769H104.148ZM117.844 65.2837H113.473L109.872 59.245C109.546 58.689 109.23 58.2144 108.921 57.8224C108.612 57.429 108.297 57.1064 107.977 56.8544C107.657 56.6024 107.309 56.4197 106.93 56.3037C106.554 56.189 106.129 56.1317 105.657 56.1317H104.148V65.2837H100.421V42.7344H107.842C108.901 42.7344 109.876 42.8597 110.768 43.1117C111.658 43.3637 112.434 43.7424 113.094 44.2517C113.756 44.7597 114.272 45.3944 114.644 46.1544C115.016 46.9144 115.202 47.8024 115.202 48.8197C115.202 49.617 115.085 50.3477 114.848 51.013C114.613 51.6797 114.277 52.2704 113.842 52.7904C113.406 53.309 112.882 53.7517 112.269 54.1184C111.656 54.4864 110.968 54.769 110.202 54.9677V55.0304C110.61 55.2624 110.968 55.5157 111.272 55.793C111.576 56.0717 111.864 56.357 112.136 56.6504C112.409 56.9437 112.678 57.277 112.945 57.649C113.213 58.021 113.509 58.453 113.834 58.9464L117.844 65.2837Z" fill="white"/>
    <path d="M148.107 45.6433C146.041 45.6433 144.361 46.414 143.067 47.954C141.772 49.4953 141.125 51.5246 141.125 54.0406C141.125 56.546 141.753 58.5633 143.012 60.094C144.269 61.6246 145.915 62.39 147.949 62.39C150.108 62.39 151.812 61.662 153.059 60.2033C154.307 58.7473 154.931 56.7073 154.931 54.0873C154.931 51.3926 154.325 49.3126 153.115 47.8446C151.904 46.3766 150.235 45.6433 148.107 45.6433ZM147.933 65.6606C144.684 65.6606 142.081 64.6073 140.127 62.5006C138.171 60.3926 137.193 57.6513 137.193 54.2753C137.193 50.6486 138.189 47.7553 140.181 45.5953C142.173 43.4366 144.877 42.3566 148.295 42.3566C151.461 42.3566 154.011 43.4046 155.945 45.502C157.879 47.598 158.847 50.3393 158.847 53.726C158.847 57.4046 157.856 60.314 155.875 62.4526C153.893 64.5913 151.245 65.6606 147.933 65.6606" fill="white"/>
    <path d="M198.81 56.1628C198.81 62.4948 195.813 65.6602 189.815 65.6602C184.071 65.6602 181.199 62.6148 181.199 56.5242V42.7348H184.942V55.7535C184.942 60.1788 186.661 62.3895 190.099 62.3895C193.411 62.3895 195.067 60.2562 195.067 55.9895V42.7348H198.81V56.1628Z" fill="white"/>
    <path d="M226.32 45.8165V54.0552H228.742C230.346 54.0552 231.567 53.6832 232.406 52.9392C233.244 52.1952 233.664 51.1472 233.664 49.7939C233.664 47.1432 232.123 45.8165 229.042 45.8165H226.32ZM226.32 57.1072V65.2832H222.594V42.7339H229.434C232.023 42.7339 234.031 43.3379 235.456 44.5419C236.882 45.7485 237.595 47.4459 237.595 49.6379C237.595 51.8285 236.85 53.6219 235.362 55.0152C233.874 56.4085 231.86 57.1072 229.323 57.1072H226.32Z" fill="white"/>
    <path d="M272.56 65.2834H259.901V42.7341H272.057V45.9101H263.644V52.2954H271.396V55.4554H263.644V62.1221H272.56V65.2834Z" fill="white"/>
    <path d="M2.15733 2.15782V329.035L1261.7 329.099V2.15647L2.15733 2.15782ZM1263.85 0.000487681V331.255H1262.78L0 331.194V0.000487681" fill="white"/>
  </g>
  <defs>
    <clipPath id="clip0_83_393">
      <rect width="1263.86" height="331.256" fill="white"/>
    </clipPath>
  </defs>
</svg>