<svg fill="currentColor" height="64" opacity="0.5" stroke="currentColor" viewBox="0 0 80 80" width="64" xmlns="http://www.w3.org/2000/svg">
  <title>GMF</title>
  <path d="M1.391 1.445h77.463v77.449H1.391z"/>
  <path d="M78.848 78.894H1.392V32.76s51.767 4.216 77.463-10.189v56.322h-.007z" fill="#05a88d"/>
  <path d="M56.464 65.715c1.198-.154 1.925-.397 2.219-.742.286-.345.433-1.256.433-2.733V47.394c0-1.22-.161-2.02-.492-2.395-.316-.382-1.043-.602-2.16-.69v-.647h16.08l.14 4.863h-.845c-.213-1.55-.595-2.541-1.182-2.953-.573-.411-1.72-.617-3.416-.617H63.12c-.412 0-.654.074-.779.243-.117.154-.169.455-.169.91v7.64h3.725c1.285 0 2.108-.095 2.46-.455.353-.382.64-1.131.86-2.263h.705v6.81h-.705c-.228-1.139-.522-1.895-.867-2.27-.36-.36-1.175-.455-2.453-.455h-3.725v7.5c0 1.256.17 2.064.507 2.41.345.352 1.08.58 2.211.683v.639h-8.426v-.632zM26.485 54.248h-5.56v.646c1.101.074 1.821.28 2.152.61.33.33.485 1.153.485 2.476v5.436c0 .374-.081.66-.257.86-.184.19-.625.425-1.345.69a7.07 7.07 0 0 1-1.395.36 8.95 8.95 0 0 1-1.279.117c-2.152 0-3.966-.881-5.428-2.66-1.462-1.777-2.197-4.238-2.197-7.39 0-3.834.735-6.574 2.204-8.241 1.462-1.66 3.174-2.498 5.113-2.498 1.91 0 3.452.705 4.65 2.13.668.816 1.3 2.042 1.91 3.695h.698L26 43.28h-.676c-.125.36-.287.632-.47.823-.177.184-.485.287-.919.287-.169 0-.815-.191-1.939-.559a10.956 10.956 0 0 0-3.453-.558c-3.224 0-5.818 1.256-7.786 3.768-1.763 2.285-2.66 5.01-2.66 8.199 0 3.628 1.117 6.523 3.343 8.682 2.027 1.954 4.51 2.917 7.456 2.917 1.601 0 3.262-.323 4.995-1 1.734-.675 2.6-1.204 2.6-1.608v-9.983h-.007zM32.98 47.644l7.624 18.717h.426l7.736-19.525V66.36h5.7v-.646c-1.109-.118-1.836-.345-2.16-.698-.323-.353-.477-1.153-.477-2.402V47.387c0-1.22.162-2.013.478-2.38.33-.382 1.05-.603 2.16-.69v-.647h-5.98l-6.795 17.116-6.957-17.116h-5.943v.646c1.22.066 1.998.28 2.343.654.346.382.522 1.175.522 2.417v13.906c0 1.8-.184 2.953-.529 3.452-.353.492-1.16.816-2.402.97v.639h4.26v-18.71h-.007z"/>
  <g fill="#05a88d">
    <path d="M50.404 23.38c-3.401.419-7.772-.588-10.027-1.359-.177-.059-.052-.095-.118.015-.147.213-.279.749-.367 1.043.044-.14.881.573 1.05.573.118 0 .096-.088-.198.918-.08.25-.162 1.44-.103 1.455.059.014 1.029.235 1.3.235h.044c3.945.264 6.575.183 6.707.242.235.103.36-.044.324-.213 0 .007.014-.235.176-.514.382-.713.94-1.499 1.374-2.255.176-.206-.008-.228-.162-.14M37.247 3.612l2.094.25 5.318 2.182 1.36-.22c-2.175-1.624-5.613-3.277-10.586-3.24l.529 1.175 1.285-.147zM55.583 1.445c.279.69 1.601 2.476 1.337 2.982-1.984 3.791-4.386 8.015-6.2 9.727-.25.308-.22 1.05.132 1.219.345.14 1.572.507 2.24.668.574.213.956.36 1.073.61.191.309-.338 1.05-.705 1.396l.103.646c.47.28 1.263.537 3.122 1.565.213.154-.022.514-.155.654-.117.161-.984 1.249-1.337 1.454-.213.125-.066.735 0 .816.977.125 1.3 1.557 1.382 3.04 9.109-2.732 17.218-6.868 22.273-13.09V1.445H55.583zm10.637 8.573L63.707 8.74l3.945-.177-.198-3.034s-3.578-.367-3.952-.396l.08 3.533-3.481-1.756s5.612-2.909 5.7-3.1l4.628 2.785-4.21 3.423z"/>
    <path d="m37.703 24.166-.052-.33c-.676-1.014-1.91-3.416-2.799-4.981-.205-.301-.161-.11-.132-.617.037-.507.037-2.175.037-2.799 0-.639-.037-2.057-.059-2.791-.066-1.712.742-1.271.742-1.271.661.47 4.1.977 4.474 1.02.448.052.33-.036.58-.102.243-.051 4.07-1.22 5.642-4.055-2.542-1.925-7-2.66-7.243-2.747l-.94.323c-.36.176-2.351.933-2.483 1.058l-.493.198-1.006.419-.073-.17s.014-1.366.183-2.578c.052-.367.25-2.137.199-2.41-.037-.19-.052-.528.014-.704l.044-.184h-5.487c.176 1.241-.162 2.703-.147 3.695.022 1.16.198 1.22.198 2.152 0 .933-.014 14.744-.014 16.19 0 1.566-.353 5.547-.507 7.39 3.276-.205 6.692-.52 10.152-.969-.33-2.21-.926-5.722-.83-5.737m4.091-16.66c.669.19 1.396.514 2.19.984-.023.294-1.624 1.954-3.953 1.829l2.248-.984-.485-1.83zm-3.849.073.676 2.439c-.698-.25-1.44-.676-2.204-1.337-.007 0 .492-.654 1.528-1.102M26.632 18.216c-.624-1.543-2.63-8.757-3.276-10.174-.514-1.146.066-2.762.815-4.974l.045-.102c.279-.5.176-.764.404-1.161l.176-.36H1.384v29.406s7.706.646 18.431.404c.25-.522.301-.529.507-1.19.206-.632-1.02-1.22-1.653-1.594-.235-.147-.147-.713.037-.882 1.748-1.63 2.983-2.696 3.563-2.872.015-.191.154-.55-.066-.661l-.11-.052c-.243-.102-.338-.117-.522-.286l-.015-.088c-.132-.566-.007-.838-.007-1.837.073-.514.169-.631.36-.756l.19-.162c1.375-.903 1.44-.918 3.931-1.322.573-.162.86-.595.683-1.227l-.08-.11zm-13.12-6.678c-1.623-1.102-5.854-4.062-5.854-4.062l4.297-1.403-.25 3.82 4.437.242.118-3.989-3.24-.426 2.432-.8 3.989 2.835c0-.007-3.637 3.188-5.929 3.783"/>
  </g>
</svg>