<svg height="32.05" viewBox="0 0 388.8 124.6" width="100" xmlns="http://www.w3.org/2000/svg">
  <g fill="#b4b6b8">
    <path d="M2.1 80.6h370.1v4.1H2.1zM65.7 1h306.5v2.1H65.7z"/>
    <path d="M2.1 80.6h370.1v4.1H2.1zM65.7 1h306.5v2.1H65.7z"/>
  </g>
  <g fill="#10284c">
    <path d="M56.9 70.1c-3.8 1-15 4-23.5 4C11.8 74.1 0 62.6 0 37.6 0 8.2 20.8 0 37 0c9.9 0 22.3 3.2 22.3 9.9 0 .9-.3 2-.5 2.5l-3.7 8h-1.6c-1.6-7.2-6.1-15.1-20.6-15.1-16-.1-22.9 9.8-22.9 28.5C10 56.1 18.3 69 37.3 69c6.1 0 11.5-1.3 11.5-5.7v-7.5c0-4.7 0-4.8-4.4-6.2l-5.8-1.9v-2.1H64v2.1l-2.6 1.2c-3.8 1.8-3.8 1.3-3.8 6.3v14.2l-.7.7z"/>
    <path d="M63.9 72.8h19.5v-1.7l-3.2-1.3c-2.8-1-2.7-1.2-2.7-7v-14c0-2.2.4-2.4 2.2-2.4h1.5c3.5 0 3.6.4 6.2 4.5l11.9 18.9c1 1.7 2.7 2.9 5.1 2.9h7.4V71c-3.6-1.9-5-3.4-8.9-9.3l-10.3-15c-.4-.6-.9-1.2-.9-1.9 0-2 11.9-1.5 11.9-15.5 0-8.9-5.5-12.2-13.8-12.2H63.9V19l3.9 1.2c2.7.9 2.7 1.8 2.7 7.9v34.7c0 5.2 0 6.2-2.7 7l-3.9 1.3v1.7zm13.5-48.3c0-3.6 0-4.1 5.5-4.1 7.8 0 12.9 2.4 13.2 11.5 0 8.2-4.3 11.2-13.2 11.2-5.2 0-5.5 0-5.5-2.5V24.5z"/>
    <path d="M110.7 71.1l3.9-1.3c2.7-.8 2.7-1.9 2.7-7.8V28.1c0-5.5 0-7-2.7-7.9l-3.9-1.2v-1.7h39l.6.6v12.3H148l-2.2-4.2c-2.7-5-3.9-5.4-11-5.4-10.6 0-10.6.4-10.6 3.9v14.3c0 2.9.2 3.1 3.7 3.1h6.2c3 0 3.8-.2 5.4-4.1l1.2-2.8h1.7v17.2h-1.7l-1.1-2.6c-1.7-4.1-2.1-4.4-5.4-4.4h-6.5c-3.4 0-3.6.3-3.6 3.8v14.1c0 4.6 0 6.4 10.8 6.4 9.9 0 10.8-1.4 13.8-7.8l1.8-3.9h2.1v14.3l-.6.7h-41.5v-1.7zM165.4 71.1l4.4-1.3c3-.8 3.1-1.7 3.1-7.8v-6.5c0-4.6-1.1-6.3-3.4-10.9l-5.3-10.4c-5-9.8-6-12.5-9.6-14.2l-2.2-1v-1.7h19.5V19l-3.3 1.2c-2 .7-2.7.8-2.7 1.9 0 .7 1.2 3.3 2.7 6.5l7.9 16c.5 1.1 1 1.9 1.5 1.9.4 0 .5 0 1.1-1.2l7-13.7c2.6-5 3.8-8.2 3.8-9.4 0-.9-.8-1.2-2-1.6L184 19v-1.7h17.1V19l-1.5.7c-4.1 1.8-4.2 2.6-10 13.1l-6.5 11.8c-2.6 4.9-3.5 5.7-3.5 11.2V62c0 6-.1 6.9 3 7.8l4.4 1.3v1.7h-21.7v-1.7zM229.7 31c-1.2-4.2-4.2-10.7-12.4-10.7-6.5 0-10.1 3.6-10.1 8.9 0 8.1 8.4 9.4 13.7 11.7 6.8 2.9 14.7 3 14.7 15.1 0 10.2-8.8 18-20.3 18-6.4 0-13-3.7-14-5.2-.7-1.1-1-2.6-1-3.1 0-.7.3-1.2.6-2.1l2.6-6.8h1.3c.8 4.8 3.9 13.2 13.9 13.2 7.9 0 10.4-5 10.4-11.1 0-9.5-8.6-10.9-16.1-13.3-6-1.9-11.8-4.3-11.8-13.4 0-10.2 9.7-15.7 17.8-15.7 8.8 0 14.4 3.1 14.4 6.6 0 .7-.2 1.2-.4 1.8l-2.2 6.3h-1.1zM248.4 71.1l4.4-1.3c3.1-.8 3.2-1.2 3.2-7V23.5c0-2.7 0-3.1-4.3-3.1-6.7 0-8.4 1-10.4 4.8l-2.6 4.8h-2.3V17.9l.7-.6H282l.6.6V30h-2.3l-2.5-4.8c-2.1-4-3.6-4.8-10.3-4.8-4.4 0-4.5.4-4.5 3.1v39.3c0 5.6 0 6 3.4 7l4.4 1.3v1.7h-22.3v-1.7zM271.7 72.8h18.5v-1.7l-4.2-1.4c-1.7-.6-2.4-.9-2.4-2.2 0-1.6.7-3 1.2-4.7l2.8-8.2c1.4-4.1 2-4.2 5.5-4.2h11.3c2.2 0 3 .2 3.7 2.5l4.1 12.6c.2.8.7 1.7.7 2.5 0 1-.9 1.5-2.1 1.8l-4.6 1.4v1.7h20v-1.7l-2.6-1.1c-3.6-1.5-3.5-2.5-5.2-7.5l-15.5-44.9-.4-.3h-4.3l-.5.3-18 44.4c-1.7 4.3-2 6.5-5.2 7.9l-2.8 1.2v1.6zm25.9-45.7c.3-.7.5-1.5 1-1.5s.7.5 1.2 2.2l5.4 16.7c.1.3.4.8.4 1.2 0 .8-.6 1.2-1.8 1.2h-10.5c-1.7 0-2.4 0-2.4-.9 0-.6.2-.8.4-1.6l6.3-17.3z"/>
    <path d="M324.8 72.8h19.4v-1.7l-3.2-1.3c-2.8-1-2.7-1.2-2.7-7v-14c0-2.2.4-2.4 2.2-2.4h1.5c3.5 0 3.6.4 6.2 4.5l11.9 18.9c1 1.7 2.7 2.9 5.1 2.9h7.5V71c-3.6-1.9-5-3.4-8.9-9.3l-10.3-15c-.4-.6-.9-1.2-.9-1.9 0-2 11.9-1.5 11.9-15.5 0-8.9-5.5-12.2-13.8-12.2h-25.9V19l3.9 1.2c2.7.9 2.7 1.8 2.7 7.9v34.7c0 5.2 0 6.2-2.7 7l-3.9 1.3v1.7zm13.5-48.3c0-3.6 0-4.1 5.5-4.1 7.8 0 12.9 2.4 13.2 11.5 0 8.2-4.3 11.2-13.2 11.2-5.2 0-5.5 0-5.5-2.5V24.5z"/>
    <path d="M7 120.2v-12.7H2.5v-2.6h12.1v2.6h-4.5v12.7zM19.5 104.9v5.6c.9-1.1 2.1-1.6 3.4-1.6.7 0 1.3.1 1.8.4.5.2.9.6 1.2 1 .3.4.5.8.6 1.3.1.5.2 1.2.2 2.2v6.5h-2.9v-5.8c0-1.2-.1-1.9-.2-2.2-.1-.3-.3-.6-.6-.7-.3-.2-.6-.3-1.1-.3-.5 0-.9.1-1.3.4-.4.2-.7.6-.8 1.1-.2.5-.3 1.2-.3 2.1v5.5h-2.9v-15.2h2.9zM36.1 113.7c0-.8-.2-1.5-.7-1.9-.4-.4-.9-.7-1.5-.7s-1.2.2-1.6.7c-.4.5-.6 1.1-.6 1.9h4.4zm-.2 2.9l2.9.5c-.4 1.1-1 1.9-1.8 2.4-.8.6-1.8.8-3 .8-1.9 0-3.3-.6-4.3-1.9-.7-1-1.1-2.3-1.1-3.8 0-1.8.5-3.3 1.4-4.3 1-1 2.2-1.6 3.6-1.6 1.6 0 2.9.5 3.9 1.6.9 1.1 1.4 2.7 1.4 5h-7.3c0 .9.3 1.5.7 2 .4.5 1 .7 1.7.7.5 0 .8-.1 1.2-.4.3 0 .6-.4.7-1M54.4 114.6V112H61v6.1c-.6.6-1.6 1.2-2.8 1.6-1.2.5-2.5.7-3.7.7-1.6 0-3-.3-4.2-1-1.2-.7-2.1-1.6-2.7-2.9-.6-1.2-.9-2.6-.9-4.1 0-1.6.3-3 1-4.2.7-1.2 1.6-2.2 2.9-2.8 1-.5 2.2-.8 3.6-.8 1.9 0 3.4.4 4.4 1.2 1.1.8 1.7 1.9 2 3.3l-3.1.6c-.2-.7-.6-1.3-1.2-1.8-.6-.4-1.3-.6-2.2-.6-1.3 0-2.4.4-3.2 1.3-.8.8-1.2 2.1-1.2 3.8 0 1.8.4 3.2 1.2 4.1.8.9 1.9 1.4 3.2 1.4.6 0 1.3-.1 1.9-.4.6-.3 1.2-.6 1.7-.9v-1.9h-3.3zM63.8 104.9h2.9v15.2h-2.9zM72 114.6c0 1.1.3 1.9.8 2.5.5.6 1.2.9 1.9.9.8 0 1.4-.3 1.9-.9.5-.6.8-1.4.8-2.5s-.3-1.9-.8-2.5c-.5-.6-1.2-.9-1.9-.9-.8 0-1.4.3-1.9.9-.5.6-.8 1.5-.8 2.5m-3-.1c0-1 .2-1.9.7-2.8.5-.9 1.2-1.6 2-2.1.9-.5 1.9-.7 2.9-.7 1.7 0 3 .5 4.1 1.6 1.1 1.1 1.6 2.4 1.6 4.1 0 1.7-.5 3-1.6 4.1-1.1 1.1-2.4 1.6-4.1 1.6-1 0-2-.2-2.9-.7-.9-.5-1.6-1.1-2.1-2-.3-.8-.6-1.8-.6-3.1M85.4 114.4c0 1.1.2 2 .5 2.5.5.8 1.2 1.2 2 1.2.6 0 1.2-.3 1.6-.8.5-.5.7-1.4.7-2.6 0-1.3-.2-2.2-.7-2.7-.5-.6-1-.8-1.8-.8-.7 0-1.3.3-1.7.8-.3.5-.6 1.3-.6 2.4m-2.8 5.8V105h2.9v5.5c.9-1 2-1.5 3.2-1.5 1.3 0 2.5.5 3.3 1.5.9 1 1.3 2.4 1.3 4.2 0 1.9-.4 3.3-1.3 4.3s-2 1.5-3.3 1.5c-.6 0-1.3-.2-1.9-.5-.6-.3-1.1-.8-1.6-1.4v1.6h-2.6zM101.7 114.9c-.4.1-1 .3-1.8.4-.8.2-1.3.3-1.6.5-.4.3-.6.6-.6 1s.2.8.5 1.1c.3.3.7.4 1.2.4s1-.2 1.5-.5c.4-.3.6-.6.7-1 .1-.2.1-.7.1-1.4v-.5zm-3.9-2.4l-2.6-.5c.3-1.1.8-1.9 1.5-2.4s1.8-.8 3.2-.8c1.3 0 2.3.2 2.9.5.6.3 1.1.7 1.3 1.2.3.5.4 1.3.4 2.6v3.4c0 1 0 1.7.1 2.1.1.5.3 1 .5 1.5h-2.9c-.1-.2-.2-.5-.3-.9 0-.2-.1-.3-.1-.3-.5.5-1 .8-1.6 1.1-.6.2-1.2.4-1.8.4-1.1 0-2-.3-2.7-.9-.7-.6-1-1.4-1-2.3 0-.6.1-1.2.4-1.7.3-.5.7-.9 1.3-1.1.5-.3 1.3-.5 2.3-.7 1.4-.3 2.3-.5 2.8-.7v-.3c0-.6-.1-1-.4-1.2-.3-.2-.8-.4-1.6-.4-.5 0-.9.1-1.2.3 0 .2-.3.6-.5 1.1M107.5 104.9h2.9v15.2h-2.9zM119.4 120.2v-15.1h3.1v12.5h7.6v2.6zM138.8 113.7c0-.8-.2-1.5-.7-1.9-.4-.4-.9-.7-1.5-.7s-1.2.2-1.6.7c-.4.5-.6 1.1-.6 1.9h4.4zm-.1 2.9l2.9.5c-.4 1.1-1 1.9-1.8 2.4-.8.6-1.8.8-3 .8-1.9 0-3.3-.6-4.3-1.9-.7-1-1.1-2.3-1.1-3.8 0-1.8.5-3.3 1.4-4.3 1-1 2.2-1.6 3.6-1.6 1.6 0 2.9.5 3.9 1.6.9 1.1 1.4 2.7 1.4 5h-7.3c0 .9.3 1.5.7 2 .4.5 1 .7 1.7.7.5 0 .8-.1 1.2-.4.3 0 .5-.4.7-1M150.2 114.9c-.4.1-1 .3-1.8.4-.8.2-1.3.3-1.6.5-.4.3-.6.6-.6 1s.2.8.5 1.1c.3.3.7.4 1.2.4s1-.2 1.5-.5c.4-.3.6-.6.7-1 .1-.2.1-.7.1-1.4v-.5zm-3.9-2.4l-2.6-.5c.3-1.1.8-1.9 1.5-2.4s1.8-.8 3.2-.8c1.3 0 2.3.2 2.9.5.6.3 1.1.7 1.3 1.2.3.5.4 1.3.4 2.6v3.4c0 1 0 1.7.1 2.1.1.5.3 1 .5 1.5h-2.9c-.1-.2-.2-.5-.3-.9 0-.2-.1-.3-.1-.3-.5.5-1 .8-1.6 1.1-.6.2-1.2.4-1.8.4-1.1 0-2-.3-2.7-.9-.7-.6-1-1.4-1-2.3 0-.6.1-1.2.4-1.7.3-.5.7-.9 1.3-1.1.5-.3 1.3-.5 2.3-.7 1.4-.3 2.3-.5 2.8-.7v-.3c0-.6-.1-1-.4-1.2-.3-.2-.8-.4-1.6-.4-.5 0-.9.1-1.2.3-.1.2-.4.6-.5 1.1M158.2 114.4c0 1.2.2 2 .5 2.6.5.8 1.1 1.1 2 1.1.7 0 1.2-.3 1.7-.9.5-.6.7-1.4.7-2.6 0-1.3-.2-2.2-.7-2.7-.5-.6-1-.8-1.8-.8-.7 0-1.3.3-1.7.8-.4.6-.7 1.4-.7 2.5m7.8 5.8h-2.7v-1.6c-.4.6-1 1.1-1.6 1.4-.6.3-1.2.5-1.9.5-1.3 0-2.4-.5-3.3-1.5-.9-1-1.4-2.4-1.4-4.3s.4-3.3 1.3-4.3 2-1.5 3.3-1.5c1.2 0 2.3.5 3.2 1.5v-5.5h2.9v15.3zM175.4 113.7c0-.8-.2-1.5-.7-1.9-.4-.4-.9-.7-1.5-.7s-1.2.2-1.6.7c-.4.5-.6 1.1-.6 1.9h4.4zm-.1 2.9l2.9.5c-.4 1.1-1 1.9-1.8 2.4-.8.6-1.8.8-3 .8-1.9 0-3.3-.6-4.3-1.9-.7-1-1.1-2.3-1.1-3.8 0-1.8.5-3.3 1.4-4.3 1-1 2.2-1.6 3.6-1.6 1.6 0 2.9.5 3.9 1.6.9 1.1 1.4 2.7 1.4 5H171c0 .9.3 1.5.7 2 .4.5 1 .7 1.7.7.5 0 .8-.1 1.2-.4.3 0 .5-.4.7-1M183.5 120.2h-2.9v-11h2.7v1.6c.5-.7.9-1.2 1.3-1.5.4-.2.8-.4 1.3-.4.7 0 1.3.2 1.9.5l-.9 2.5c-.5-.3-.9-.5-1.4-.5-.4 0-.8.1-1 .3-.3.2-.5.6-.7 1.2-.2.6-.2 1.8-.2 3.7v3.6zM194.9 109.1h2.9v11h-2.9v-11zm0-4.2h2.9v2.7h-2.9v-2.7z"/>
    <path d="M210.8 120.2h-2.9v-5.6c0-1.2-.1-2-.2-2.3-.1-.3-.3-.6-.6-.8-.3-.2-.6-.3-1-.3-.5 0-1 .1-1.4.4-.4.3-.7.6-.8 1.1-.1.5-.2 1.3-.2 2.5v5h-2.9v-11h2.7v1.6c1-1.2 2.2-1.9 3.6-1.9.6 0 1.2.1 1.8.3.5.2.9.5 1.2.9.3.4.5.8.6 1.2s.2 1.1.2 2v6.9zM222.8 111.4h2.3c1.5 0 2.4-.1 2.8-.2.4-.1.7-.3.9-.6.2-.3.3-.7.3-1.1 0-.5-.1-.9-.4-1.2-.3-.3-.7-.5-1.2-.6-.2 0-1-.1-2.2-.1h-2.4v3.8zm-3.1 8.8V105h6.5c1.6 0 2.8.1 3.5.4.7.3 1.3.8 1.8 1.5.4.7.7 1.5.7 2.4 0 1.1-.3 2.1-1 2.8-.7.7-1.7 1.2-3 1.4.7.4 1.2.8 1.6 1.3.4.5 1 1.3 1.8 2.5l1.9 3h-3.7l-2.2-3.3c-.8-1.2-1.3-1.9-1.6-2.2-.3-.3-.6-.5-.9-.6-.3-.1-.8-.2-1.5-.2h-.6v6.4h-3.3zM241.6 113.7c0-.8-.2-1.5-.7-1.9-.4-.4-.9-.7-1.5-.7s-1.2.2-1.6.7c-.4.5-.6 1.1-.6 1.9h4.4zm-.2 2.9l2.9.5c-.4 1.1-1 1.9-1.8 2.4-.8.6-1.8.8-3 .8-1.9 0-3.3-.6-4.3-1.9-.7-1-1.1-2.3-1.1-3.8 0-1.8.5-3.3 1.4-4.3 1-1 2.2-1.6 3.6-1.6 1.6 0 2.9.5 3.9 1.6.9 1.1 1.4 2.7 1.4 5h-7.3c0 .9.3 1.5.7 2 .5.5 1 .7 1.7.7.5 0 .8-.1 1.2-.4.3 0 .5-.4.7-1M256.9 120.2H254v-5.6c0-1.2-.1-2-.2-2.3-.1-.3-.3-.6-.6-.8-.3-.2-.6-.3-1-.3-.5 0-1 .1-1.4.4-.4.3-.7.6-.8 1.1-.1.5-.2 1.3-.2 2.5v5h-2.9v-11h2.7v1.6c1-1.2 2.2-1.9 3.6-1.9.6 0 1.2.1 1.8.3.5.2.9.5 1.2.9.3.4.5.8.6 1.2.1.5.2 1.1.2 2v6.9zM264.9 109.1v2.3h-2v4.4c0 .9 0 1.4.1 1.6 0 .2.1.3.3.4.1.1.3.1.5.1.3 0 .7-.1 1.2-.3l.2 2.3c-.7.3-1.4.4-2.3.4-.5 0-1-.1-1.4-.3-.4-.2-.7-.4-.9-.7-.2-.3-.3-.7-.4-1.1-.1-.3-.1-1-.1-2.1v-4.8h-1.3V109h1.3v-2.2l2.9-1.7v3.9h1.9zM273 114.9c-.4.1-1 .3-1.8.4-.8.2-1.3.3-1.6.5-.4.3-.6.6-.6 1s.2.8.5 1.1c.3.3.7.4 1.2.4s1-.2 1.5-.5c.4-.3.6-.6.7-1 .1-.2.1-.7.1-1.4v-.5zm-3.9-2.4l-2.6-.5c.3-1.1.8-1.9 1.5-2.4s1.8-.8 3.2-.8c1.3 0 2.3.2 2.9.5.6.3 1.1.7 1.3 1.2.3.5.4 1.3.4 2.6v3.4c0 1 0 1.7.1 2.1.1.5.3 1 .5 1.5h-2.9c-.1-.2-.2-.5-.3-.9 0-.2-.1-.3-.1-.3-.5.5-1 .8-1.6 1.1-.6.2-1.2.4-1.8.4-1.1 0-2-.3-2.7-.9-.7-.6-1-1.4-1-2.3 0-.6.1-1.2.4-1.7.3-.5.7-.9 1.3-1.1.5-.3 1.3-.5 2.3-.7 1.4-.3 2.3-.5 2.8-.7v-.3c0-.6-.1-1-.4-1.2-.3-.2-.8-.4-1.6-.4-.5 0-.9.1-1.2.3-.1.2-.3.6-.5 1.1"/>
    <path d="M278.7 104.9h2.9v15.2h-2.9zM290.6 120.2v-15.3h3v6h6.1v-6h3v15.3h-3v-6.7h-6.1v6.7z"/>
    <path d="M308.2 114.6c0 1.1.3 1.9.8 2.5.5.6 1.2.9 1.9.9.8 0 1.4-.3 1.9-.9.5-.6.8-1.4.8-2.5s-.3-1.9-.8-2.5c-.5-.6-1.2-.9-1.9-.9-.8 0-1.4.3-1.9.9-.6.6-.8 1.5-.8 2.5m-3-.1c0-1 .2-1.9.7-2.8.5-.9 1.2-1.6 2-2.1.9-.5 1.9-.7 2.9-.7 1.7 0 3 .5 4.1 1.6 1.1 1.1 1.6 2.4 1.6 4.1 0 1.7-.5 3-1.6 4.1-1.1 1.1-2.4 1.6-4.1 1.6-1 0-2-.2-2.9-.7-.9-.5-1.6-1.1-2.1-2-.4-.8-.6-1.8-.6-3.1M326.1 120.2v-1.7c-.4.6-.9 1.1-1.6 1.4-.7.3-1.3.5-2.1.5-.7 0-1.4-.2-2-.5-.6-.3-1-.8-1.3-1.4-.3-.6-.4-1.4-.4-2.4v-7h2.9v5.1c0 1.5.1 2.5.2 2.8.1.3.3.6.6.8.3.2.6.3 1.1.3.5 0 .9-.1 1.3-.4.4-.3.7-.6.8-1 .1-.4.2-1.4.2-3V109h2.9v11h-2.6zM330.8 117l2.9-.4c.1.6.4 1 .8 1.3.4.3.9.4 1.6.4.8 0 1.3-.1 1.7-.4.3-.2.4-.5.4-.8 0-.2-.1-.4-.2-.5-.1-.1-.5-.3-1-.4-2.4-.5-3.8-1-4.5-1.4-.9-.6-1.3-1.4-1.3-2.5 0-1 .4-1.8 1.1-2.4.8-.7 1.9-1 3.5-1 1.5 0 2.6.2 3.4.7.7.5 1.2 1.2 1.5 2.2l-2.8.5c-.1-.4-.3-.8-.7-1-.3-.2-.8-.3-1.4-.3-.8 0-1.3.1-1.7.3-.2.2-.3.3-.3.6 0 .2.1.4.3.5.3.2 1.2.5 2.7.8 1.6.4 2.6.8 3.3 1.3.6.5.9 1.2.9 2.2 0 1-.4 1.9-1.3 2.6-.8.7-2.1 1.1-3.7 1.1-1.5 0-2.7-.3-3.6-.9-.7-.6-1.3-1.4-1.6-2.5"/>
    <path d="M343.7 109.1h2.9v11h-2.9v-11zm0-4.2h2.9v2.7h-2.9v-2.7z"/>
    <path d="M359.6 120.2h-2.9v-5.6c0-1.2-.1-2-.2-2.3-.1-.3-.3-.6-.6-.8-.3-.2-.6-.3-1-.3-.5 0-1 .1-1.4.4-.4.3-.7.6-.8 1.1-.1.5-.2 1.3-.2 2.5v5h-2.9v-11h2.7v1.6c1-1.2 2.2-1.9 3.6-1.9.6 0 1.2.1 1.8.3.5.2.9.5 1.2.9.3.4.5.8.6 1.2s.2 1.1.2 2v6.9zM364.9 114.4c0 1.2.2 2 .7 2.6.5.5 1 .8 1.7.8s1.3-.3 1.8-.8c.5-.6.7-1.4.7-2.5s-.2-2-.7-2.5c-.5-.6-1.1-.8-1.8-.8s-1.3.3-1.7.8c-.5.5-.7 1.3-.7 2.4m-2.6 6.5l3.3.4c.1.4.2.7.4.8.3.2.7.3 1.3.3.8 0 1.3-.1 1.7-.3.3-.2.5-.4.6-.7.1-.2.1-.7.1-1.3v-1.6c-.9 1.2-2 1.8-3.3 1.8-1.5 0-2.7-.6-3.5-1.9-.7-1-1-2.2-1-3.7 0-1.8.4-3.3 1.3-4.2.9-1 2-1.5 3.3-1.5 1.4 0 2.5.6 3.4 1.8v-1.5h2.7v9.9c0 1.3-.1 2.3-.3 2.9-.2.6-.5 1.2-.9 1.5-.4.4-.9.7-1.6.9-.6.2-1.5.3-2.5.3-1.9 0-3.2-.3-4-1-.8-.6-1.2-1.5-1.2-2.4.2-.3.2-.4.2-.5"/>
    <path d="M371.9 27.8v-9.7h-3.6v-1.3h8.6v1.3h-3.6v9.7z"/>
    <path d="M378.4 27.8v-11h2.2l2.6 7.7c.2.7.4 1.3.5 1.6.1-.4.3-1 .6-1.8l2.6-7.6h1.9v10.9h-1.4v-9.1l-3.2 9.1h-1.3l-3.2-9.3v9.3h-1.3z"/>
    <path d="M107.5 104.9h2.9v15.2h-2.9z"/>
  </g>
</svg>