<svg fill="currentColor" height="63.2" opacity="0.5" viewBox="0 0 102 79" width="81.6" xmlns="http://www.w3.org/2000/svg">
  <title>MAAF</title>
  <path d="M.12.158h101.417v72.813H.12z"/>
  <g fill="#05a88d">
    <path d="M.12 72.971h101.417v5.201H.12z"/>
    <path d="M86.53 49.692h6.002l1.094-2.718H84.15c-2.233 0-3.21.566-4.04 2.91L75.122 63.59h-.11L73.27 46.974h-3.659c-.61 0-1.02.074-1.469.456-2.534 2.115-8.007 9.968-11.18 16.16h-.118L55.11 46.975h-3.658c-.602 0-1.014.074-1.47.456-2.534 2.115-8.006 9.968-11.18 16.16h-.11l.419-16.616h-4.533c-.903 0-1.131.155-1.58.676-1.703 2.006-4.686 6.722-6.647 10.725h-.074l.302-11.4h-3.328c-.456 0-1.05.3-1.587.675-3.695 2.645-8.227 9.52-12.003 17.52h3.93c2.343-4.877 5.135-9.667 7.25-12.047h.11l-.22 9.785c-.037 1.998 1.021 2.262 1.734 2.262h3.776c2.416-4.944 5.171-9.63 6.795-11.82h.073l-.147 9.932c0 1.095.867 1.888 2.226 1.888h6.266c.793-1.44 1.587-2.945 2.417-4.385h6.685l.147 1.932c.154 1.623.947 2.453 2.791 2.453h6.12c.793-1.44 1.586-2.945 2.416-4.385h6.678l.154 1.932c.147 1.623.948 2.453 2.791 2.453h9.029l3.056-8.154h4.304c.977 0 1.653-.382 1.962-1.212l.492-1.285h-5.818l1.851-4.827zm-36.81 2.373h.11l.528 6.384H45.26c1.66-2.682 3.21-5.025 4.46-6.384m18.159 0h.11l.529 6.384H63.42c1.66-2.682 3.21-5.025 4.459-6.384M85.626 27.295c0-.64.522-1.169 1.161-1.169.647 0 1.168.522 1.168 1.169a1.165 1.165 0 1 1-2.329 0"/>
    <path d="M90.842 23.9c-5.62-9.872-21.134-9.277-21.296-9.27-.015 0-.426-.015-1.16-.007-8.786 0-16.647 1.829-23.574 4.672-.007 0-.022 0-.03.007-.8.338-1.343.243-1.571.169-.492-.184-.823-.397-.823-.397-7.162-4.23-13.502-3.981-13.502-3.981s-2.593.051-3.379.235c-.764.184-.786.404-.015.367 1.41-.059 3.725-.022 8.8 1.866l2.234 1.021a13.863 13.863 0 0 1 2.6 1.83c.184.183.302.36.382.528.052.155.177.698-.595 1.117-.022.007-.029.015-.044.03-5.818 3.092-10.842 6.824-15.066 10.6-5.157 4.43-10.27 10.027-14.817 17.167-.889 1.366-1.337 2.167-1.337 2.167s-2.108 3.548-1.264 3.32c.853-.227 2.388-2.82 2.388-2.82 6.677-9.242 13.92-15.993 20.98-20.936 7.03-4.768 14.009-8.044 19.217-9.807 11.812-3.997 20.488-3.637 20.576-3.637.147 0 13.069-.47 19.886 5.965.014.022 1.866 1.859 2.203 2.366.037.051.147.22.294.125.324-.199-1.028-2.593-1.087-2.696"/>
  </g>
</svg>