<svg fill="currentColor" height="47.2" opacity="0.5" viewBox="0 0 199 59" width="159.2" xmlns="http://www.w3.org/2000/svg">
  <title>MMA</title>
  <path d="M29.112 58.224c16.08 0 29.112-13.032 29.112-29.112S45.192 0 29.112 0 0 13.032 0 29.112s13.032 29.112 29.112 29.112z"/>
  <circle cx="98.862" cy="29.112" r="29.112"/>
  <path d="M168.612 58.224c16.08 0 29.112-13.032 29.112-29.112S184.692 0 168.612 0 139.5 13.032 139.5 29.112s13.032 29.112 29.112 29.112z"/>
  <g fill="#05a88d">
    <path d="m12.547 40.234 7.485-20.995s.64-2.108 2.3-2.108c1.66 0 2.284 2.108 2.284 2.108l4.481 12.57 4.452-12.57s.588-2.108 2.314-2.108 2.285 2.108 2.285 2.108l7.404 20.995h-4.4L35.87 25.3l-4.738 13.274s-.5 1.917-1.961 1.917c-1.675 0-2.123-1.917-2.123-1.917l-4.709-13.34-5.311 15h-4.481z"/>
    <path d="m82.319 40.234 7.486-20.995s.639-2.108 2.299-2.108 2.284 2.108 2.284 2.108l4.481 12.57 4.452-12.57s.588-2.108 2.314-2.108 2.285 2.108 2.285 2.108l7.404 20.995h-4.4L105.642 25.3l-4.738 13.274s-.5 1.917-1.961 1.917c-1.675 0-2.123-1.917-2.123-1.917l-4.709-13.34-5.311 15h-4.481z"/>
    <path d="m181.666 40.902-3.247-7.052c.918-.44 1.807-.94 2.652-1.506l-1.756-3.151c-.764.521-1.565.984-2.402 1.396l-6.127-13.267c-.404-.845-.97-1.668-2.181-1.668h-.052c-1.212 0-1.777.823-2.181 1.668-.258.536-10.6 23.58-10.6 23.58h4.95l2.454-5.48a22.5 22.5 0 0 0 5.443.669c1.918 0 3.769-.25 5.547-.698l2.505 5.51h4.995zm-13.047-8.41c-1.359 0-2.674-.155-3.944-.427l3.937-8.844 4.033 8.837c-1.3.279-2.645.433-4.026.433z"/>
  </g>
</svg>