<svg fill="none" height="42.687" viewBox="0 0 638.71 213.436" width="127.742" xmlns="http://www.w3.org/2000/svg">
  <title>Partners finances</title>
  <g fill="#00007d">
    <path d="M267.182,92.196H252.84V32.518h25.05c8.7,0,13.29,1.243,17.4,4.876 c4.399,3.92,6.885,9.752,6.885,16.636c0,5.832-1.817,10.9-5.45,14.724c-3.824,4.016-8.7,5.833-16.062,5.833h-13.481V92.196z  M278.463,62.349c5.641,0,9.083-3.347,9.083-8.797c0-5.546-3.442-8.796-9.083-8.796h-11.281v17.593H278.463z"/>
    <path d="M422.148,56.151h-8.317v17.974c0,3.301,0.286,4.59,3.441,4.59h4.876v13.481h-8.317 c-5.928,0-8.892-0.86-10.9-3.059c-2.104-2.295-2.678-4.781-2.678-11.952V56.151h-6.501V44.77h6.501V32.518h13.577V44.77h8.317 V56.151z"/>
    <path d="M443.479,44.773v5.738c4.973-4.59,7.84-5.833,12.621-5.833c10.039,0,16.158,6.693,16.158,17.593 v29.926h-13.576V67.051c0-4.685-0.286-6.502-1.434-8.223c-1.147-1.72-3.155-2.677-5.545-2.677c-2.295,0-4.398,0.86-5.833,2.486 c-1.529,1.721-2.007,3.633-2.007,7.649v25.91h-13.576V44.773H443.479z"/>
    <path d="M493.61,73.074c0.861,6.31,4.59,9.752,10.421,9.752c3.633,0,6.215-1.243,8.032-4.111h13.767 c-2.581,8.988-11.186,14.724-22.181,14.724c-14.246,0-23.711-9.752-23.711-24.285c0-14.436,9.657-24.381,23.616-24.381 c9.752,0,17.114,4.877,20.555,13.578c1.626,4.015,2.295,8.317,2.295,14.724H493.61z M512.446,63.513 c-0.574-5.45-3.729-8.414-8.987-8.414c-5.259,0-8.701,2.964-9.752,8.414H512.446z"/>
    <path d="M371.38,44.773v8.404c2.276-6.926,5.45-8.404,15.297-8.404v11.378 c-1.616,0-2.295-0.018-3.442-0.018c-4.684,0-8.215,2.078-10.039,5.372c-2.113,3.818-1.817,8.796-1.817,17.688v13.003h-13.576 V44.773H371.38z"/>
    <path d="M546.81,44.773v8.404c2.276-6.926,5.45-8.404,15.297-8.404v11.378 c-1.616,0-2.295-0.018-3.442-0.018c-4.684,0-8.215,2.078-10.039,5.372c-2.113,3.818-1.817,8.796-1.817,17.688v13.003h-13.576 V44.773H546.81z"/>
    <path d="M594.846,59.88c-0.574-3.441-3.347-5.258-7.84-5.258c-3.92,0-6.502,1.529-6.502,3.824 c0,1.721,1.339,2.581,5.642,3.538l8.509,1.817c5.641,1.146,8.509,2.39,10.517,4.493c2.198,2.103,3.441,5.545,3.441,9.274 c0,9.752-7.936,15.871-20.746,15.871c-10.936,0-20.685-5.104-21.513-14.724h12.716c0.843,3.632,3.633,4.876,9.083,4.876 c4.302,0,7.076-1.721,7.076-4.493c0-2.199-1.53-3.347-5.164-4.207l-8.414-1.912c-10.134-2.199-14.055-5.928-14.055-13.29 c0-9.274,7.362-14.916,19.696-14.916c11.855,0,19.026,5.355,20.269,15.107H594.846z"/>
    <path d="M307.727,59.826c1.143-10.177,7.378-15.086,20.394-15.086c6.99,0,12.356,1.628,15.989,4.789 c3.35,2.966,4.597,6.7,4.597,13.498v21.253c0,4.978,0.196,5.649,1.726,7.947h-13.886c-0.573-1.628-0.573-1.914-1.051-3.636 c-4.496,3.731-7.752,4.88-13.212,4.88c-10.246,0-17.04-5.743-17.04-14.455s5.453-13.212,18.382-15.318L331,62.455 c3.06-0.479,4.111-1.247,4.111-3.162c0-2.585-2.676-4.213-7.084-4.213c-4.586,0-7.293,0.955-8.14,4.746H307.727z M335.495,70.21 c-1.436,0.573-2.683,0.957-4.974,1.436l-4.887,1.051c-4.88,1.149-6.99,2.777-6.99,5.554c0,3.064,2.589,4.88,6.896,4.88 c4.503,0,7.752-1.914,9.956-5.837V70.21z"/>
    <path d="M290.177,133.408h-22.973v11.378h18.948v11.776h-18.948v24.355H252.84v-59.764h37.337V133.408z"/>
    <path d="M310.631,180.917h-13.596v-41.742h13.596V180.917z"/>
    <path d="M310.631,133.429h-13.596v-12.255h13.596V133.429z"/>
    <path d="M332.393,133.408v5.768c4.974-4.597,7.846-5.841,12.639-5.841 c10.05,0,16.177,6.704,16.177,17.617v29.966h-13.596v-25.18c0-4.692-0.283-6.508-1.436-8.234 c-1.146-1.722-3.162-2.679-5.554-2.679c-2.299,0-4.401,0.859-5.837,2.487c-1.53,1.726-2.009,3.64-2.009,7.661v25.945h-13.596 v-47.509H332.393z"/>
    <path d="M369.936,148.515c1.143-10.177,7.378-15.086,20.394-15.086c6.99,0,12.356,1.628,15.989,4.789 c3.35,2.966,4.597,6.7,4.597,13.498v21.253c0,4.978,0.196,5.649,1.726,7.947h-13.886c-0.573-1.628-0.573-1.914-1.051-3.636 c-4.496,3.731-7.752,4.88-13.212,4.88c-10.246,0-17.04-5.743-17.04-14.455c0-8.712,5.453-13.212,18.382-15.318l7.374-1.244 c3.06-0.479,4.111-1.247,4.111-3.162c0-2.585-2.676-4.213-7.084-4.213c-4.586,0-7.293,0.955-8.14,4.746H369.936z  M397.705,158.899c-1.436,0.573-2.683,0.957-4.974,1.436l-4.887,1.051c-4.88,1.149-6.99,2.777-6.99,5.554 c0,3.064,2.589,4.88,6.896,4.88c4.503,0,7.752-1.914,9.956-5.837V158.899z"/>
    <path d="M432.772,133.408v5.768c4.974-4.597,7.846-5.841,12.639-5.841 c10.05,0,16.177,6.704,16.177,17.617v29.966h-13.596v-25.18c0-4.692-0.283-6.508-1.436-8.234 c-1.146-1.722-3.162-2.679-5.554-2.679c-2.299,0-4.401,0.859-5.837,2.487c-1.53,1.726-2.009,3.64-2.009,7.661v25.945h-13.596 v-47.509H432.772z"/>
    <path d="M531.104,161.771c0.863,6.319,4.597,9.764,10.435,9.764c3.64,0,6.221-1.244,8.042-4.115h13.785 c-2.581,8.999-11.196,14.742-22.21,14.742c-14.263,0-23.74-9.764-23.74-24.317c0-14.455,9.666-24.415,23.646-24.415 c9.767,0,17.135,4.884,20.586,13.596c1.624,4.021,2.299,8.332,2.299,14.745H531.104z M549.964,152.195 c-0.573-5.457-3.734-8.426-8.999-8.426c-5.264,0-8.716,2.969-9.767,8.426H549.964z"/>
    <path d="M596.853,148.515c-0.574-3.441-3.347-5.258-7.84-5.258c-3.92,0-6.502,1.529-6.502,3.824 c0,1.721,1.339,2.581,5.642,3.538l8.509,1.817c5.641,1.146,8.509,2.39,10.517,4.493c2.198,2.103,3.441,5.545,3.441,9.274 c0,9.752-7.936,15.871-20.746,15.871c-10.936,0-20.685-5.104-21.513-14.724h12.716c0.843,3.632,3.633,4.876,9.083,4.876 c4.302,0,7.076-1.721,7.076-4.493c0-2.199-1.53-3.347-5.164-4.207l-8.414-1.912c-10.134-2.199-14.055-5.928-14.055-13.29 c0-9.274,7.362-14.916,19.696-14.916c11.855,0,19.026,5.355,20.269,15.107H596.853z"/>
    <path d="M498.685,167.351c-1.43,2.785-3.848,3.803-7.497,3.803c-6.315,0-9.666-4.691-9.666-13.596 c0-8.426,3.35-13.118,9.572-13.118c4.597,0,7.664,2.491,8.426,6.892h12.929c-0.863-11.007-9.101-17.903-21.159-17.903 c-14.648,0-23.458,9.194-23.458,24.509c0,14.84,8.905,24.223,22.979,24.223c10.969,0,18.525-5.325,21.37-14.81H498.685z"/>
  </g>
  <path fill="#fa1e50" d="M118.383,16.424c-49.789,0-90.294,40.506-90.294,90.294c0,22.785,8.605,44.324,23.469,60.701 c0.074,0.079,0.146,0.159,0.224,0.234c6.545,7.159,14.273,13.336,23.028,18.167l8.238,4.547v-83.649 c0-19.472,15.85-35.314,35.335-35.314c19.471,0,35.312,15.841,35.312,35.314c0,19.471-15.842,35.313-35.312,35.313 c-5.82,0-11.587-1.444-16.679-4.177c-2.701-1.448-6.069-0.436-7.521,2.269c-1.449,2.704-0.434,6.07,2.27,7.521 c6.7,3.595,14.283,5.496,21.93,5.496c25.596,0,46.421-20.825,46.421-46.422c0-25.598-20.825-46.423-46.421-46.423 c-25.61,0-46.444,20.825-46.444,46.423v64.145c-3.897-2.825-7.494-5.983-10.773-9.413v-54.732 c0-31.548,25.668-57.215,57.217-57.215c31.548,0,57.214,25.667,57.214,57.215s-25.666,57.214-57.214,57.214 c-6.015,0-11.936-0.926-17.597-2.754c-2.925-0.943-6.052,0.659-6.993,3.579c-0.944,2.919,0.659,6.05,3.578,6.992 c6.767,2.185,13.836,3.292,21.012,3.292c37.673,0,68.323-30.65,68.323-68.323c0-37.674-30.65-68.324-68.323-68.324 c-37.676,0-68.326,30.65-68.326,68.324v40.005c-6.987-11.934-10.86-25.69-10.86-40.005c0-43.663,35.523-79.185,79.185-79.185 c43.661,0,79.182,35.522,79.182,79.185c0,43.662-35.521,79.184-79.182,79.184c-6.097,0-12.17-0.694-18.053-2.064 c-3.005-0.707-5.975,1.162-6.67,4.149c-0.697,2.988,1.16,5.974,4.149,6.67c6.709,1.563,13.63,2.355,20.574,2.355 c49.787,0,90.291-40.505,90.291-90.293S168.17,16.424,118.383,16.424z"/>
</svg>