<svg fill="#1d1d1b" height="18.18" viewBox="0 0 220 40" width="100" xmlns="http://www.w3.org/2000/svg">
  <title>Groupe Pichet</title>
  <path d="M83.4,8h-3.9C79.3,8,79,8.2,79,8.5v16.2c0,0.2,0.2,0.4,0.4,0.4h3.9c0.2,0,0.4-0.2,0.4-0.4V8.5 C83.8,8.2,83.6,8,83.4,8"/>
  <path d="M49.7,8h-3.9c-0.2,0-0.4,0.2-0.4,0.4v9.7c0,0.2,0.2,0.4,0.4,0.4h3.9c0.2,0,0.4-0.2,0.4-0.4V8.5 C50.1,8.2,49.9,8,49.7,8"/>
  <path d="M117.1,8H93.6c-0.2,0-0.4,0.2-0.4,0.4v16.2c0,0.2,0.2,0.4,0.4,0.4h23.5c0.2,0,0.4-0.2,0.4-0.4v-3.2 c0-0.2-0.2-0.4-0.4-0.4H97.9v-8.8h19.1c0.2,0,0.4-0.2,0.4-0.4V8.5C117.5,8.2,117.3,8,117.1,8"/>
  <path d="M184.2,14.5h-12.7c-0.2,0-0.4,0.2-0.4,0.4v3.2c0,0.2,0.2,0.4,0.4,0.4h12.7c0.2,0,0.4-0.2,0.4-0.4v-3.2 C184.7,14.7,184.5,14.5,184.2,14.5"/>
  <path d="M69.3,8H45.8c-0.2,0-0.4,0.2-0.4,0.4v3.2c0,0.1,0.1,0.2,0.1,0.3c0.1,0.1,0.2,0.1,0.3,0.1c0,0,18.4,0,19.2,0 v8.8c-0.9,0-19.2,0-19.2,0c-0.1,0-0.2,0.1-0.3,0.1c-0.1,0.1-0.1,0.2-0.1,0.3v10.2c0,0.2,0.2,0.4,0.4,0.4h3.9 c0.2,0,0.4-0.2,0.4-0.4v-6.5h19.2c0.2,0,0.4-0.2,0.4-0.4V8.5C69.8,8.2,69.6,8,69.3,8"/>
  <path d="M184.4,12.1c0.2,0,0.4-0.2,0.4-0.4V8.5c0-0.2-0.2-0.4-0.4-0.4h-19.6h-3.9c-0.2,0-0.4,0.2-0.4,0.4v16.2 c0,0.2,0.2,0.4,0.4,0.4h3.9h19.6c0.2,0,0.4-0.2,0.4-0.4v-3.2c0-0.2-0.2-0.4-0.4-0.4h-19.2v-8.8H184.4z"/>
  <path d="M151,8h-3.9c-0.2,0-0.4,0.2-0.4,0.4v6h-15.3v-6c0-0.2-0.2-0.4-0.4-0.4H127c-0.2,0-0.4,0.2-0.4,0.4v16.2 c0,0.2,0.2,0.4,0.4,0.4h3.9c0.2,0,0.4-0.2,0.4-0.4v-6h15.3v6c0,0.2,0.2,0.4,0.4,0.4h3.9c0.2,0,0.4-0.2,0.4-0.4V8.5 C151.4,8.2,151.2,8,151,8"/>
  <path d="M218,8h-23.5c-0.2,0-0.4,0.2-0.4,0.4v3.2c0,0.2,0.2,0.4,0.4,0.4h9.6v12.5c0,0.2,0.2,0.4,0.4,0.4h3.9 c0.2,0,0.4-0.2,0.4-0.4V12.1h9.1c0.2,0,0.4-0.2,0.4-0.4V8.4C218.4,8.2,218.2,8,218,8"/>
  <path d="M16.5,33.3c-0.3,0-0.6,0-0.9,0v-4.7h2.9c3.1,0,5.6-2.5,5.6-5.6s-2.5-5.6-5.6-5.6h-3.7h-0.8v1.7h4.5 c2.2,0,3.9,1.7,3.9,3.9c0,2.2-1.8,3.9-3.9,3.9h-4.5v6.2C7.8,31.9,3.2,26.5,3.2,20c0-7.3,6-13.3,13.3-13.3c0.3,0,0.6,0,0.9,0v6.1 h-2.9c-3.1,0-5.6,2.5-5.6,5.6s2.5,5.6,5.6,5.6h4.5v-1.7h-4.5c-2.2,0-3.9-1.8-3.9-3.9s1.8-3.9,3.9-3.9h4.5V7 c6.1,1.2,10.7,6.6,10.7,13C29.8,27.3,23.9,33.3,16.5,33.3 M16.5,5.1C8.3,5.1,1.6,11.8,1.6,20s6.7,14.9,14.9,14.9 S31.4,28.2,31.4,20S24.7,5.1,16.5,5.1"/>
</svg>