<svg fill="none" height="30.24" viewBox="0 0 420 127" width="100" xmlns="http://www.w3.org/2000/svg">
  <title>Rentila</title>
	<g fill="#1e1f1d">
		<path d="M129.1,60.7c1.7-1.7,3.8-3.1,6.1-4.1c2.1-0.9,4.6-1.3,7.4-1.3h5.9V44.6h-5.9c-4.3,0-8.1,0.7-11.6,2.2 c-3.6,1.5-6.9,3.7-9.6,6.3c-2.7,2.7-4.9,5.8-6.5,9.4c-1.5,3.5-2.3,7.4-2.3,11.6v29.6h10.7V74c0-2.6,0.5-5.1,1.5-7.3 C125.7,64.7,127.1,62.7,129.1,60.7z"/>
		<path d="M411.7,53.1c-2.6-2.6-5.7-4.6-9.5-6.2c-3.6-1.5-7.5-2.3-11.7-2.3c-4.1,0-8,0.8-11.6,2.3 c-3.8,1.6-7,3.7-9.6,6.2c-2.7,2.7-4.9,5.8-6.5,9.4c-1.5,3.5-2.3,7.4-2.3,11.6c0,4,0.8,7.9,2.3,11.5c1.6,3.6,3.7,6.8,6.5,9.5 c2.5,2.5,5.6,4.5,9.6,6.2c3.6,1.5,7.5,2.3,11.6,2.3h29.9V74c0-4.1-0.8-8-2.3-11.6C416.5,58.9,414.4,55.8,411.7,53.1z M409.7,92.2 v0.7H409h-18.5c-2.6,0-5.1-0.5-7.5-1.5c-2-0.8-4.2-1.9-6.1-3.8c-1.7-1.7-3.1-3.8-4.1-6.1c-1-2.3-1.5-4.8-1.5-7.4 c0-2.6,0.5-5.1,1.5-7.4c1-2.3,2.4-4.3,4.1-6c1.7-1.7,3.8-3.1,6.1-4.1c2.3-1,4.9-1.5,7.5-1.5s5.1,0.5,7.4,1.5 c2.3,1,4.3,2.3,6.1,4.1c1.7,1.7,3.1,3.7,4.1,6c1.1,2.5,1.6,4.9,1.6,7.4V92.2z"/>
		<path d="M282.8,97.9c4.7,3.7,11.9,5.7,21.7,5.7v-9.9c-2.3,0-4.3-0.2-5.9-0.4c-1.8-0.3-3.7-0.9-5.7-1.7 c-2.1-0.9-3.7-2.5-4.8-4.7c-1.1-2.1-1.6-4.8-1.6-8V55.3v-0.7h0.7h17.4v-9.9h-17.4h-0.7V44V25.9h-10.7v29.4v23.5 C275.7,87.7,278.1,94.1,282.8,97.9z"/>
		<g>
			<polygon points="319,103.7 329.4,103.7 329.4,44.7 310,44.7 310,54.7 318.3,54.7 319,54.7 319,55.3"/>
			<path d="M327.9,27.6c-1-1.3-2.6-2-4.8-2c-2.2,0-3.8,0.6-4.8,2c-1.1,1.3-1.6,2.8-1.6,4.5c0,1.7,0.5,3.1,1.6,4.5  c1,1.3,2.6,1.9,4.8,1.9s3.8-0.6,4.8-2c1.1-1.4,1.6-2.8,1.6-4.5C329.5,30.5,329,29,327.9,27.6z"/>
		</g>
		<path d="M362,103.7v-9.9c-2.2,0-4.1-0.2-5.5-0.4c-1.6-0.3-3.2-0.9-4.9-1.7c-1.7-0.9-3-2.5-3.9-4.6 c-0.8-2.1-1.2-4.8-1.2-8.1V26h-10.7v52.9c0,9,2,15.5,6,19.2C345.8,101.7,352.6,103.6,362,103.7z"/>
		<path d="M226,60.8c1.7-1.7,3.8-3.1,6.1-4.1c2.3-1,4.8-1.5,7.4-1.5s5.1,0.5,7.5,1.5c2.3,1,4.4,2.3,6.1,4.1 c1.7,1.7,3.1,3.7,4.1,6c1.1,2.5,1.6,4.9,1.6,7.4v29.4h10.7V74.1c0-4.1-0.8-8-2.3-11.6c-1.5-3.6-3.7-6.7-6.5-9.4 c-2.7-2.7-6-4.8-9.6-6.4c-3.6-1.5-7.5-2.3-11.7-2.3c-4.1,0-8,0.8-11.6,2.3c-3.6,1.5-6.9,3.7-9.6,6.4c-2.7,2.7-4.9,5.8-6.4,9.4 c-1.5,3.5-2.3,7.4-2.3,11.6v29.5h10.7V74.2c0-2.4,0.5-4.9,1.6-7.4C222.9,64.5,224.2,62.5,226,60.8z"/>
		<path d="M170.1,90.8l-0.8-0.5l0.7-0.6l35.2-31.4l-3.6-3.9c-2.8-3-6-5.4-9.6-7c-3.6-1.6-7.4-2.6-11.2-2.8 c-0.5,0-1,0-1.5,0c-3.3,0-6.6,0.6-9.8,1.6c-3.7,1.3-7.2,3.3-10.3,6c-3.1,2.7-5.4,5.9-7,9.4s-2.5,7.2-2.7,11 c-0.2,3.8,0.3,7.6,1.6,11.3c1.2,3.7,3.3,7.1,6,10.2c2.7,3,5.8,5.3,9.4,7c3.3,1.6,7,2.4,11.4,2.6c0.5,0,1,0,1.5,0 c3.4,0,6.8-0.6,10.1-1.8c4-1.4,7.3-3.3,10.1-5.8l3.9-3.5l-7.3-8l-3.9,3.5c-3.1,2.8-6.6,4.3-10.8,4.7c-0.8,0.1-1.6,0.1-2.3,0.1 C175.8,93.1,172.8,92.3,170.1,90.8z M164.4,80.3l-1.6,1.4l-0.7,0.6l-0.4-0.8c-1.2-2.7-1.7-5.5-1.6-8.4c0.3-5.2,2.4-9.6,6.3-13.1 c3.1-2.8,6.8-4.4,10.8-4.8c0.6-0.1,1.2-0.1,1.8-0.1c3.3,0,6.5,0.8,9.4,2.5l0.8,0.5l-0.7,0.6c-1.3,1.2-3.2,2.9-5.7,5 c-2.4,2.1-5,4.4-7.6,6.7l-7.4,6.7L164.4,80.3z"/>
	</g>
	<path fill="#83a834" d="M51.4,0.2L51.4,0.2l-51,45.4v69.6v11.4h11.4H68h11.4v-11.4v-10.1v-0.7h0.7h21.6V93V45.5L51.4,0.2L51.4,0.2z M90.7,50.1l0.2,0.2v0.3v42.5v0.7h-0.7H80.1h-0.7v-0.7V74.9v-0.6V74c-0.1-3.5-0.9-7-2.4-10.5c-1.4-3.3-3.6-6.4-6.4-9.3 c-2.6-2.6-5.8-4.8-9.3-6.3c-3.5-1.5-7.4-2.3-11.4-2.3s-7.8,0.8-11.4,2.3c-3.6,1.5-6.7,3.6-9.4,6.3c-2.7,2.6-4.8,5.8-6.3,9.3 s-2.3,7.4-2.3,11.4s0.8,7.8,2.3,11.4s3.7,6.7,6.3,9.4c2.7,2.7,5.9,4.8,9.4,6.3c3.5,1.5,7.4,2.3,11.4,2.3h0.4l17.8,0.1h0.7v0.7v10.1 v0.7h-0.7H11.8h-0.7v-0.7V50.9v-0.3l0.2-0.2l39.6-35.7l0.4-0.4l0.4,0.4L90.7,50.1z M68.5,74.9v18.2v0.7h-0.7h-18 c-2.6,0-5-0.5-7.3-1.5c-2.3-1-4.3-2.3-6-4c-1.7-1.7-3.1-3.7-4-6C31.5,80,31,77.5,31,75c0-2.6,0.5-5,1.5-7.3c1-2.3,2.3-4.3,4-6 c1.7-1.7,3.7-3,6-4c2.3-1,4.8-1.5,7.3-1.5c2.6,0,5,0.5,7.3,1.5c2.2,1,4.3,2.3,6,4c1.7,1.7,3.1,3.7,4,6 C68.1,69.9,68.5,72.3,68.5,74.9z"/>
</svg>