<svg fill="none" height="29.3" viewBox="0 0 393.51 115.29" width="100" xmlns="http://www.w3.org/2000/svg">
  <title>Sogexia</title>
  <defs>
    <radialGradient id="svg-sogexia-gradient-logo" cx="-0.353" cy="1.147" r="118.135" gradientUnits="userSpaceOnUse">
      <stop offset="0" stop-color="#80cff5"/>
      <stop offset="1" stop-color="#035ca0"/>
    </radialGradient>
  </defs>
  <rect fill="url(#svg-sogexia-gradient-logo)" width="115.29" height="115.29"/>
  <g fill="#ffffff">
    <polygon points="73.29,47.39 73.29,70.21 35.97,107.27 13.1,107.27  "/>
    <polygon points="107.27,47.39 47.23,107.27 69.87,107.27 107.27,70.21  "/>
    <polygon points="81.23,107.27 107.27,81.28 107.27,107.27  "/>
  </g>
  <rect x="127.04" y="44.56" width="266.47" height="56.5"/>
  <g fill="#12110c">
    <path d="M157.07,53.66c0.04,0.39,0.04,0.63,0,0.71c-0.04,0.09-0.17,0.2-0.39,0.33l-1.5,0.78 c-0.17,0.09-0.28,0.14-0.33,0.16c-0.04,0.02-0.11,0.03-0.19,0.03c-0.09,0-0.24-0.05-0.46-0.16c-0.22-0.11-0.43-0.24-0.65-0.39 c-0.22-0.15-0.42-0.3-0.62-0.46c-0.19-0.15-0.34-0.25-0.42-0.29c-0.82-0.39-1.88-0.8-3.19-1.23c-1.3-0.43-2.73-0.65-4.29-0.65 c-2.25,0-3.99,0.48-5.2,1.43c-1.21,0.95-1.82,2.21-1.82,3.77c0,0.82,0.14,1.52,0.42,2.08c0.28,0.56,0.75,1.1,1.39,1.63 s1.53,1.05,2.66,1.59c1.12,0.54,2.53,1.2,4.21,1.98c1.68,0.78,3.26,1.54,4.73,2.27c1.47,0.74,2.74,1.56,3.82,2.47 c1.08,0.91,1.92,1.97,2.53,3.19c0.6,1.21,0.91,2.69,0.91,4.42c0,1.78-0.4,3.44-1.2,5c-0.8,1.56-1.92,2.92-3.35,4.09 c-1.43,1.17-3.16,2.09-5.2,2.76c-2.04,0.67-4.29,1.01-6.76,1.01c-0.82,0-1.75-0.04-2.79-0.13c-1.04-0.09-2.08-0.19-3.12-0.32 c-1.04-0.13-2.06-0.29-3.06-0.49c-1-0.19-1.86-0.4-2.6-0.62c-0.48-0.13-0.77-0.27-0.88-0.42c-0.11-0.15-0.18-0.4-0.23-0.75 l-0.59-4.48c-0.04-0.39-0.04-0.64,0-0.75c0.04-0.11,0.17-0.23,0.39-0.36l1.56-0.84c0.13-0.13,0.28-0.2,0.46-0.2 c0.04,0,0.16,0.05,0.36,0.16c0.19,0.11,0.41,0.24,0.65,0.39c0.24,0.15,0.47,0.3,0.68,0.46c0.22,0.15,0.37,0.25,0.46,0.29 c2.47,1.3,4.51,2.07,6.11,2.31c1.6,0.24,2.75,0.36,3.45,0.36c1.39,0,2.56-0.16,3.51-0.49c0.95-0.33,1.72-0.76,2.31-1.3 c0.58-0.54,1.01-1.15,1.27-1.82c0.26-0.67,0.39-1.35,0.39-2.05c0-0.82-0.16-1.53-0.49-2.11s-0.81-1.12-1.46-1.59 c-0.65-0.48-1.48-0.95-2.5-1.43c-1.02-0.48-2.22-1.02-3.61-1.63c-1.6-0.69-3.16-1.41-4.68-2.15c-1.52-0.74-2.87-1.59-4.06-2.57 c-1.19-0.97-2.16-2.12-2.89-3.44c-0.74-1.32-1.1-2.91-1.1-4.78c0-1.91,0.43-3.61,1.28-5.1c0.85-1.5,2.02-2.75,3.5-3.77 c1.48-1.02,3.25-1.8,5.29-2.34c2.04-0.54,4.25-0.81,6.64-0.81c1.13,0,2.22,0.06,3.28,0.16c1.06,0.11,2.03,0.24,2.89,0.39 c0.87,0.15,1.59,0.3,2.18,0.46c0.58,0.15,0.96,0.25,1.14,0.29c0.3,0.13,0.48,0.27,0.52,0.42c0.04,0.15,0.11,0.38,0.2,0.68 L157.07,53.66z"/>
    <path d="M187.03,47.42c0.39,0,1.13,0.04,2.21,0.13c1.08,0.09,2.34,0.29,3.77,0.62c1.43,0.33,2.95,0.81,4.55,1.46 c1.6,0.65,3.1,1.56,4.48,2.73c0.69,0.56,1.45,1.3,2.28,2.21c0.82,0.91,1.59,2.01,2.31,3.31c0.72,1.3,1.32,2.83,1.82,4.58 c0.5,1.75,0.75,3.76,0.75,6.01c0,3.68-0.69,6.89-2.08,9.62c-1.39,2.73-3.23,5-5.52,6.79c-2.3,1.8-4.91,3.14-7.83,4.03 c-2.93,0.89-5.95,1.33-9.07,1.33c-4.16,0-7.69-0.65-10.59-1.95c-2.9-1.3-5.28-2.97-7.12-5c-1.84-2.04-3.17-4.31-4-6.83 c-0.82-2.51-1.23-4.98-1.23-7.41c0-3.68,0.73-6.83,2.18-9.46c1.45-2.62,3.37-4.88,5.75-6.79c1.43-1.13,2.87-2.05,4.32-2.76 c1.45-0.71,2.9-1.27,4.35-1.66c1.45-0.39,2.9-0.65,4.35-0.78C184.15,47.48,185.6,47.42,187.03,47.42z M184.95,52.49 c-2.3,0-4.3,0.43-6.01,1.3c-1.71,0.87-3.14,2.03-4.29,3.48c-1.15,1.45-2,3.12-2.57,5c-0.56,1.89-0.85,3.87-0.85,5.95 c0,2.69,0.41,5.07,1.24,7.15c0.82,2.08,1.92,3.85,3.28,5.3c1.37,1.45,2.95,2.56,4.75,3.31c1.8,0.76,3.67,1.14,5.62,1.14 c1.3,0,2.74-0.24,4.32-0.71c1.58-0.48,3.07-1.31,4.45-2.5c1.39-1.19,2.55-2.78,3.48-4.78c0.93-1.99,1.4-4.53,1.4-7.6 c0-2.69-0.41-5.09-1.23-7.21c-0.82-2.12-1.92-3.91-3.28-5.36c-1.36-1.45-2.94-2.56-4.71-3.32 C188.76,52.87,186.9,52.49,184.95,52.49z"/>
    <path d="M253.33,68.93v18.98c-2.82,0.74-5.63,1.3-8.45,1.69c-2.82,0.39-5.68,0.58-8.58,0.58 c-3.38,0-6.32-0.35-8.81-1.04c-2.49-0.69-4.62-1.61-6.37-2.76c-1.75-1.15-3.19-2.46-4.29-3.93c-1.1-1.47-1.97-2.97-2.6-4.48 c-0.63-1.52-1.06-3.01-1.3-4.48c-0.24-1.47-0.36-2.8-0.36-3.97c0-3.34,0.64-6.37,1.92-9.1c1.28-2.73,3.06-5.06,5.36-6.99 c2.3-1.93,5.03-3.42,8.19-4.48c3.16-1.06,6.63-1.59,10.4-1.59c1.56,0,3.05,0.09,4.48,0.26c1.43,0.17,2.68,0.37,3.74,0.58 c1.06,0.22,1.92,0.41,2.57,0.58c0.65,0.17,1.02,0.28,1.1,0.33c0.35,0.13,0.55,0.28,0.62,0.45c0.06,0.17,0.12,0.46,0.16,0.85 l0.19,4.16c0,0.17,0,0.3,0,0.39c0,0.09-0.11,0.17-0.32,0.26l-1.23,0.71c-0.17,0.09-0.3,0.13-0.39,0.13 c-0.04,0-0.17-0.05-0.39-0.16c-0.22-0.11-0.44-0.24-0.68-0.39c-0.24-0.15-0.48-0.3-0.71-0.46c-0.24-0.15-0.4-0.25-0.49-0.29 c-1.52-0.74-3.1-1.31-4.75-1.72c-1.65-0.41-3.31-0.62-5-0.62c-1.99,0-3.91,0.29-5.75,0.88c-1.84,0.58-3.47,1.53-4.88,2.83 c-1.41,1.3-2.54,2.96-3.38,4.97c-0.84,2.02-1.27,4.45-1.27,7.31c0,0.65,0.05,1.56,0.16,2.73c0.11,1.17,0.35,2.42,0.72,3.74 c0.37,1.32,0.92,2.63,1.66,3.93c0.74,1.3,1.75,2.43,3.06,3.38c1.65,1.21,3.4,2,5.27,2.37c1.86,0.37,3.47,0.55,4.81,0.55 c1.39,0,2.63-0.1,3.74-0.29s2.02-0.4,2.76-0.62V68.93H253.33z"/>
    <path d="M289.56,48.2v5.07H268.7v11.9h18.72v5.14H268.7v13.65h21.58v5.46h-30.62V48.2H289.56z"/>
    <path d="M304.7,48.2l9.36,14.56l10.21-14.56h8.84L317.5,67.5l15.67,21.9h-10.99l-10.08-16.06l-11.11,16.06h-8.84 l16.58-20.87l-14.3-20.34H304.7z"/>
    <path d="M345.71,48.2v41.21h-9.04V48.2H345.71z"/>
    <path d="M375.92,48.2l16.97,41.21h-9.95l-4.55-12.29H362.4l-4.94,12.29h-7.93l19.7-41.21H375.92z M376.5,72.18 l-5.78-15.6l-6.31,15.6H376.5z"/>
  </g>
</svg>